<svg xmlns="http://www.w3.org/2000/svg" xmlns:xlink="http://www.w3.org/1999/xlink" width="1076" height="360.104" viewBox="0 0 1076 360.104">
  <defs>
    <clipPath id="clip-path">
      <path id="Trazado_31362" data-name="Trazado 31362" d="M2140.521,153.108V388.549h.207V202.17a37.078,37.078,0,0,0,12.592,2.051,39.777,39.777,0,0,0,5.287-.348c7.7-1.026,11.659-2.389,15.944-2.389a24.8,24.8,0,0,1,8.578,1.708c5.372,1.92,8.8,2.758,12.6,2.758a54.594,54.594,0,0,0,10.561-1.394c10.217-2.043,24.347-2.385,24.347-2.385V388.549h.01V153.108" transform="translate(-2140.521 -153.108)" fill="none"/>
    </clipPath>
    <linearGradient id="linear-gradient" x1="-1.399" y1="1.175" x2="-1.377" y2="1.175" gradientUnits="objectBoundingBox">
      <stop offset="0" stop-color="#ededed"/>
      <stop offset="0.006" stop-color="#ededed"/>
      <stop offset="0.134" stop-color="#f3f3f3"/>
      <stop offset="0.448" stop-color="#fff"/>
      <stop offset="0.668" stop-color="#f9f9f9"/>
      <stop offset="0.943" stop-color="#eaeaea"/>
      <stop offset="1" stop-color="#e6e6e6"/>
    </linearGradient>
    <clipPath id="clip-path-2">
      <path id="Trazado_31363" data-name="Trazado 31363" d="M2626.451,153.108V350.683h.265V233.163a21.639,21.639,0,0,0,6.286.965,13.779,13.779,0,0,0,6.146-1.3,9.428,9.428,0,0,1,4.247-1.165c2.662,0,4.511,1.586,7.33,2.527a13.783,13.783,0,0,0,3.947.421,108.793,108.793,0,0,0,14.276-1.442v117.52h.158V153.108" transform="translate(-2626.451 -153.108)" fill="none"/>
    </clipPath>
    <linearGradient id="linear-gradient-2" x1="-5.966" y1="1.404" x2="-5.919" y2="1.404" xlink:href="#linear-gradient"/>
    <clipPath id="clip-path-3">
      <path id="Trazado_31364" data-name="Trazado 31364" d="M2946.367,153.108V350.683h.065V261.773a12.22,12.22,0,0,0,7.443,2.48,12.943,12.943,0,0,0,1.578-.1,95.162,95.162,0,0,1,12.032-1.266,26.175,26.175,0,0,1,5.681.583,31.653,31.653,0,0,0,6.64.6,67.457,67.457,0,0,0,8.819-.627l.01,31.355V153.108" transform="translate(-2946.367 -153.108)" fill="none"/>
    </clipPath>
    <linearGradient id="linear-gradient-3" x1="-8.032" y1="1.404" x2="-7.985" y2="1.404" xlink:href="#linear-gradient"/>
    <clipPath id="clip-path-4">
      <path id="Trazado_31365" data-name="Trazado 31365" d="M3263.964,153.108V350.683h.72l.308-56.835a19.947,19.947,0,0,1,6.379-1.5,4.781,4.781,0,0,1,2.122.415,7.7,7.7,0,0,0,3.569.949,15.71,15.71,0,0,0,5.964-1.633c3.08-1.319,5.307-2.07,7.6-2.07a12.385,12.385,0,0,1,3.986.71c4.087,1.36,11.119,3.128,11.119,3.128l.247,24.248V153.108" transform="translate(-3263.964 -153.108)" fill="none"/>
    </clipPath>
    <linearGradient id="linear-gradient-4" x1="-10.09" y1="1.404" x2="-10.042" y2="1.404" xlink:href="#linear-gradient"/>
    <clipPath id="clip-path-5">
      <path id="Trazado_31366" data-name="Trazado 31366" d="M63.96,153.108V388.549h.447V203A37.1,37.1,0,0,0,77,205.047a39.849,39.849,0,0,0,5.289-.348c7.7-1.026,11.657-2.392,15.939-2.392a24.715,24.715,0,0,1,8.582,1.712c5.372,1.918,8.8,2.756,12.594,2.756a54.571,54.571,0,0,0,10.563-1.394c9.444-1.89,22.231-2.325,24.116-2.379V153.108" transform="translate(-63.96 -153.108)" fill="none"/>
    </clipPath>
    <linearGradient id="linear-gradient-5" x1="4.869" y1="1.175" x2="4.891" y2="1.175" xlink:href="#linear-gradient"/>
    <clipPath id="clip-path-6">
      <path id="Trazado_31367" data-name="Trazado 31367" d="M549.876,153.108V350.683h.51V203a21.7,21.7,0,0,0,6.29.963,13.7,13.7,0,0,0,6.138-1.307,9.5,9.5,0,0,1,4.251-1.163c2.667,0,4.51,1.588,7.33,2.529a13.791,13.791,0,0,0,3.949.419,107.363,107.363,0,0,0,14.186-1.426v-49.9" transform="translate(-549.876 -153.108)" fill="none"/>
    </clipPath>
    <linearGradient id="linear-gradient-6" x1="6.987" y1="1.404" x2="7.034" y2="1.404" xlink:href="#linear-gradient"/>
    <clipPath id="clip-path-7">
      <path id="Trazado_31368" data-name="Trazado 31368" d="M869.8,153.108V350.683h.3V203a12.236,12.236,0,0,0,7.451,2.48,12.89,12.89,0,0,0,1.574-.1,95.459,95.459,0,0,1,12.028-1.264,26.066,26.066,0,0,1,5.683.583,16.647,16.647,0,0,0,3.587.348,44.329,44.329,0,0,0,11.639-1.967V153.108" transform="translate(-869.799 -153.108)" fill="none"/>
    </clipPath>
    <linearGradient id="linear-gradient-7" x1="5.034" y1="1.404" x2="5.082" y2="1.404" xlink:href="#linear-gradient"/>
    <clipPath id="clip-path-8">
      <path id="Trazado_31369" data-name="Trazado 31369" d="M1187.4,153.108V350.683h.745V203s6.3,1.022,9.023,2.383a7.708,7.708,0,0,0,3.573.949,15.676,15.676,0,0,0,5.966-1.63c3.079-1.317,5.3-2.07,7.6-2.07a12.364,12.364,0,0,1,3.982.708,13.8,13.8,0,0,0,4.182.528,42.432,42.432,0,0,0,6.944-.684V153.108" transform="translate(-1187.395 -153.108)" fill="none"/>
    </clipPath>
    <linearGradient id="linear-gradient-8" x1="3.053" y1="1.404" x2="3.101" y2="1.404" xlink:href="#linear-gradient"/>
  </defs>
  <g id="Grupo_15697" data-name="Grupo 15697" transform="translate(-60.113 -115.437)">
    <g id="Grupo_15682" data-name="Grupo 15682" transform="translate(637.257 125.888)">
      <g id="Grupo_15681" data-name="Grupo 15681" transform="translate(0 0)" clip-path="url(#clip-path)">
        <rect id="Rectángulo_3786" data-name="Rectángulo 3786" width="90.124" height="235.441" transform="translate(0 0)" fill="url(#linear-gradient)"/>
      </g>
    </g>
    <g id="Grupo_15684" data-name="Grupo 15684" transform="translate(772.064 125.888)">
      <g id="Grupo_15683" data-name="Grupo 15683" transform="translate(0 0)" clip-path="url(#clip-path-2)">
        <rect id="Rectángulo_3787" data-name="Rectángulo 3787" width="42.655" height="197.575" transform="translate(0 0)" fill="url(#linear-gradient-2)"/>
      </g>
    </g>
    <g id="Grupo_15686" data-name="Grupo 15686" transform="translate(860.814 125.888)">
      <g id="Grupo_15685" data-name="Grupo 15685" transform="translate(0 0)" clip-path="url(#clip-path-3)">
        <rect id="Rectángulo_3788" data-name="Rectángulo 3788" width="42.268" height="197.575" transform="translate(0 0)" fill="url(#linear-gradient-3)"/>
      </g>
    </g>
    <g id="Grupo_15688" data-name="Grupo 15688" transform="translate(948.922 125.888)">
      <g id="Grupo_15687" data-name="Grupo 15687" transform="translate(0 0)" clip-path="url(#clip-path-4)">
        <rect id="Rectángulo_3789" data-name="Rectángulo 3789" width="42.011" height="197.575" transform="translate(0 0)" fill="url(#linear-gradient-4)"/>
      </g>
    </g>
    <g id="Grupo_15690" data-name="Grupo 15690" transform="translate(61.18 125.888)">
      <g id="Grupo_15689" data-name="Grupo 15689" transform="translate(0 0)" clip-path="url(#clip-path-5)">
        <rect id="Rectángulo_3790" data-name="Rectángulo 3790" width="90.122" height="235.441" transform="translate(0 0)" fill="url(#linear-gradient-5)"/>
      </g>
    </g>
    <g id="Grupo_15692" data-name="Grupo 15692" transform="translate(195.982 125.888)">
      <g id="Grupo_15691" data-name="Grupo 15691" transform="translate(0 0)" clip-path="url(#clip-path-6)">
        <rect id="Rectángulo_3791" data-name="Rectángulo 3791" width="42.655" height="197.575" transform="translate(0 0)" fill="url(#linear-gradient-6)"/>
      </g>
    </g>
    <g id="Grupo_15694" data-name="Grupo 15694" transform="translate(284.735 125.888)">
      <g id="Grupo_15693" data-name="Grupo 15693" transform="translate(0 0)" clip-path="url(#clip-path-7)">
        <rect id="Rectángulo_3792" data-name="Rectángulo 3792" width="42.266" height="197.575" transform="translate(0 0)" fill="url(#linear-gradient-7)"/>
      </g>
    </g>
    <g id="Grupo_15696" data-name="Grupo 15696" transform="translate(372.842 125.888)">
      <g id="Grupo_15695" data-name="Grupo 15695" transform="translate(0 0)" clip-path="url(#clip-path-8)">
        <rect id="Rectángulo_3793" data-name="Rectángulo 3793" width="42.011" height="197.575" transform="translate(0 0)" fill="url(#linear-gradient-8)"/>
      </g>
    </g>
    <path id="Trazado_31370" data-name="Trazado 31370" d="M3679.674,1119.92c-12.372-42.5-61.668-72.458-61.7-72.5l-.265.437.449-.243s-.071-.131-.2-.39c-.91-1.807-4.57-9.647-4.564-17.656.006-5.24,1.531-10.5,6.338-14.344l-.32-.4.087.5s.166-.028.506-.073a55.981,55.981,0,0,1,7.168-.409c12.768,0,39.344,3.367,63.908,27.924l.722-.72c-24.8-24.8-51.7-28.229-64.63-28.227a51.509,51.509,0,0,0-7.846.5l-.132.023-.1.083c-5.1,4.079-6.727,9.719-6.721,15.143.008,9.5,4.872,18.494,4.886,18.532l.067.122.117.073s.76.461,2.124,1.36c9.558,6.28,48.492,33.842,59.125,70.546l.981-.283" transform="translate(-2566.796 -649.158)" fill="#161615"/>
    <path id="Trazado_31371" data-name="Trazado 31371" d="M3628.372,1017.924c-.168.022-.3.04-.38.052a16.845,16.845,0,0,0-1.266,1.139,41.782,41.782,0,0,0-2.778,15.749c0,7.9,1.732,12.926,3.124,15.688,6.167,3.931,49.483,32.575,60.969,72.035l-.491.141c.024.038,3.146,4.637,6.737,4.637,2.337,0,4.874-1.951,6.885-8.384.507-1.625.924-3.172,1.268-4.643,3.108-13.331.158-20.689,3.838-28.049,4.089-8.174,7.152-12.262,3.067-19.412s-1.022-16.348-1.022-16.348l-8.514-5.448-.362.358c-24.563-24.555-51.14-27.922-63.908-27.924a55.948,55.948,0,0,0-7.166.409" transform="translate(-2575.159 -651.825)" fill="#cde7fa"/>
    <path id="Trazado_31372" data-name="Trazado 31372" d="M3679.674,1119.92c-12.372-42.5-61.668-72.458-61.7-72.5l-.265.437.449-.243s-.071-.131-.2-.39c-.91-1.807-4.57-9.647-4.564-17.656.006-5.24,1.531-10.5,6.338-14.344l-.32-.4.087.5s.166-.028.506-.073a55.981,55.981,0,0,1,7.168-.409c12.768,0,39.344,3.367,63.908,27.924l.722-.72c-24.8-24.8-51.7-28.229-64.63-28.227a51.509,51.509,0,0,0-7.846.5l-.132.023-.1.083c-5.1,4.079-6.727,9.719-6.721,15.143.008,9.5,4.872,18.494,4.886,18.532l.067.122.117.073s.76.461,2.124,1.36c9.558,6.28,48.492,33.842,59.125,70.546l.981-.283" transform="translate(-2566.796 -649.158)" fill="#63bfe7"/>
    <path id="Trazado_31373" data-name="Trazado 31373" d="M418.667,517.348h61.3s-4.853,6.515-4.853,19.752,4.853,18.391,4.853,18.391H63.8V329.012a38.742,38.742,0,0,0,17.879,1.7c12.171-1.621,14.984-4.087,24.521-.682s12.942,3.407,23.157,1.363,24.351-2.385,24.351-2.385V517.348h44.785l.17-.682V329.012s6.982,2.385,12.431-.34,7.494,0,11.581,1.362,18.221-1.022,18.221-1.022V516.666l.51.682h45.807V329.012a12.329,12.329,0,0,0,9.025,2.385c5.448-.682,11.579-2.043,17.709-.682s15.5-1.7,15.5-1.7V517.348h46.318V329.012s6.3,1.022,9.023,2.385,4.769,1.362,9.537-.682,7.492-2.725,11.579-1.362,12.09-.342,12.09-.342V516.494l.682.854" transform="translate(-2.168 -153.237)" fill="#b6dbf3"/>
    <rect id="Rectángulo_3794" data-name="Rectángulo 3794" width="1.022" height="9.804" transform="translate(160.902 374.058)" fill="#161615"/>
    <path id="Trazado_31374" data-name="Trazado 31374" d="M420.369,1026.135l-2.968-11.077-2.968,11.077" transform="translate(-256.025 -650.049)" fill="#161615"/>
    <rect id="Rectángulo_3795" data-name="Rectángulo 3795" width="10.199" height="1.022" transform="translate(447.362 380.08)" fill="#161615"/>
    <path id="Trazado_31375" data-name="Trazado 31375" d="M1485.484,1066.333l11.077-2.968-11.077-2.968" transform="translate(-1029.946 -682.811)" fill="#161615"/>
    <rect id="Rectángulo_3796" data-name="Rectángulo 3796" width="1.022" height="9.804" transform="translate(203.261 374.058)" fill="#161615"/>
    <path id="Trazado_31376" data-name="Trazado 31376" d="M573.065,1026.135l-2.968-11.077-2.966,11.077" transform="translate(-366.361 -650.049)" fill="#161615"/>
    <rect id="Rectángulo_3797" data-name="Rectángulo 3797" width="1.022" height="9.804" transform="translate(248.94 374.058)" fill="#161615"/>
    <path id="Trazado_31377" data-name="Trazado 31377" d="M737.716,1026.135l-2.968-11.077-2.966,11.077" transform="translate(-485.335 -650.049)" fill="#161615"/>
    <rect id="Rectángulo_3798" data-name="Rectángulo 3798" width="1.022" height="9.804" transform="translate(291.467 374.058)" fill="#161615"/>
    <path id="Trazado_31378" data-name="Trazado 31378" d="M891.013,1026.135l-2.968-11.077-2.968,11.077" transform="translate(-596.104 -650.049)" fill="#161615"/>
    <rect id="Rectángulo_3799" data-name="Rectángulo 3799" width="1.022" height="9.804" transform="translate(337.743 374.058)" fill="#161615"/>
    <path id="Trazado_31379" data-name="Trazado 31379" d="M1057.821,1026.135l-2.968-11.077-2.966,11.077" transform="translate(-716.637 -650.049)" fill="#161615"/>
    <rect id="Rectángulo_3800" data-name="Rectángulo 3800" width="1.022" height="9.804" transform="translate(381.335 374.058)" fill="#161615"/>
    <path id="Trazado_31380" data-name="Trazado 31380" d="M1214.955,1026.135l-2.968-11.077-2.968,11.077" transform="translate(-830.178 -650.049)" fill="#161615"/>
    <rect id="Rectángulo_3801" data-name="Rectángulo 3801" width="1.022" height="9.804" transform="translate(427.993 374.058)" fill="#161615"/>
    <path id="Trazado_31381" data-name="Trazado 31381" d="M1383.148,1026.135l-2.966-11.077-2.968,11.077" transform="translate(-951.712 -650.049)" fill="#161615"/>
    <rect id="Rectángulo_3802" data-name="Rectángulo 3802" width="1.022" height="9.806" transform="translate(174.184 383.225)" fill="#161615"/>
    <path id="Trazado_31382" data-name="Trazado 31382" d="M468.254,1108.764l-2.968,11.077-2.968-11.077" transform="translate(-290.626 -717.759)" fill="#161615"/>
    <rect id="Rectángulo_3803" data-name="Rectángulo 3803" width="1.022" height="9.806" transform="translate(216.543 383.225)" fill="#161615"/>
    <path id="Trazado_31383" data-name="Trazado 31383" d="M620.942,1108.764l-2.968,11.077-2.966-11.077" transform="translate(-400.957 -717.759)" fill="#161615"/>
    <rect id="Rectángulo_3804" data-name="Rectángulo 3804" width="1.022" height="9.806" transform="translate(262.222 383.225)" fill="#161615"/>
    <path id="Trazado_31384" data-name="Trazado 31384" d="M785.593,1108.764l-2.968,11.077-2.966-11.077" transform="translate(-519.93 -717.759)" fill="#161615"/>
    <rect id="Rectángulo_3805" data-name="Rectángulo 3805" width="1.022" height="9.806" transform="translate(304.749 383.225)" fill="#161615"/>
    <path id="Trazado_31385" data-name="Trazado 31385" d="M938.891,1108.764l-2.968,11.077-2.968-11.077" transform="translate(-630.699 -717.759)" fill="#161615"/>
    <rect id="Rectángulo_3806" data-name="Rectángulo 3806" width="1.022" height="9.806" transform="translate(351.024 383.225)" fill="#161615"/>
    <path id="Trazado_31386" data-name="Trazado 31386" d="M1105.7,1108.764l-2.966,11.077-2.968-11.077" transform="translate(-751.233 -717.759)" fill="#161615"/>
    <rect id="Rectángulo_3807" data-name="Rectángulo 3807" width="1.022" height="9.806" transform="translate(394.617 383.225)" fill="#161615"/>
    <path id="Trazado_31387" data-name="Trazado 31387" d="M1262.832,1108.764l-2.968,11.077-2.968-11.077" transform="translate(-864.773 -717.759)" fill="#161615"/>
    <rect id="Rectángulo_3808" data-name="Rectángulo 3808" width="1.022" height="9.806" transform="translate(441.275 383.225)" fill="#161615"/>
    <path id="Trazado_31388" data-name="Trazado 31388" d="M1431.026,1108.764l-2.966,11.077-2.968-11.077" transform="translate(-986.308 -717.759)" fill="#161615"/>
    <rect id="Rectángulo_3809" data-name="Rectángulo 3809" width="1.02" height="9.806" transform="translate(790.173 373.233)" fill="#161615"/>
    <path id="Trazado_31389" data-name="Trazado 31389" d="M2688.681,1023.159l-2.97-11.077-2.966,11.077" transform="translate(-1895.064 -647.899)" fill="#161615"/>
    <rect id="Rectángulo_3810" data-name="Rectángulo 3810" width="10.199" height="1.022" transform="translate(1025.754 387.427)" fill="#161615"/>
    <path id="Trazado_31390" data-name="Trazado 31390" d="M3570.38,1092.823l11.075-2.972-11.075-2.966" transform="translate(-2536.453 -701.95)" fill="#161615"/>
    <rect id="Rectángulo_3811" data-name="Rectángulo 3811" width="10.197" height="1.022" transform="translate(917.583 387.427)" fill="#161615"/>
    <path id="Trazado_31391" data-name="Trazado 31391" d="M3180.461,1092.823l11.075-2.972-11.075-2.966" transform="translate(-2254.704 -701.95)" fill="#161615"/>
    <rect id="Rectángulo_3812" data-name="Rectángulo 3812" width="10.199" height="1.022" transform="translate(823.713 387.427)" fill="#161615"/>
    <path id="Trazado_31392" data-name="Trazado 31392" d="M2842.094,1092.823l11.075-2.972-11.075-2.966" transform="translate(-2010.207 -701.95)" fill="#161615"/>
    <rect id="Rectángulo_3813" data-name="Rectángulo 3813" width="1.022" height="9.806" transform="translate(882.805 373.233)" fill="#161615"/>
    <path id="Trazado_31393" data-name="Trazado 31393" d="M3022.59,1023.159l-2.966-11.077-2.968,11.077" transform="translate(-2136.342 -647.899)" fill="#161615"/>
    <rect id="Rectángulo_3814" data-name="Rectángulo 3814" width="1.024" height="9.806" transform="translate(969.991 373.233)" fill="#161615"/>
    <path id="Trazado_31394" data-name="Trazado 31394" d="M3336.87,1023.159l-2.97-11.077-2.966,11.077" transform="translate(-2363.434 -647.899)" fill="#161615"/>
    <path id="Trazado_31395" data-name="Trazado 31395" d="M3729.063,1149.013c-.653-13.38-14.858-26.754-15-26.888l1.392-1.5a65.8,65.8,0,0,1,7.538,8.7c5.09,7,7.82,13.587,8.113,19.581Zm.07-17.045c-5.7-14.512-17.7-24.679-26.77-30.653a96.591,96.591,0,0,0-18.6-9.625l.68-1.927a96.657,96.657,0,0,1,19,9.816c9.329,6.14,21.689,16.615,27.592,31.642Zm-13.141-33.3c-9.921-12.9-32.011-21.038-32.234-21.119l.7-1.92a108.5,108.5,0,0,1,12.65,5.807c9.28,4.984,16.179,10.362,20.5,15.986Zm23.368-.226c-7.9-18.769-22.732-23.9-22.881-23.948l.646-1.939a34.259,34.259,0,0,1,8.981,5.138,48.583,48.583,0,0,1,15.137,19.956Zm-27.442-16.106c-3.886-4.857-14.84-9.875-14.95-9.925l.846-1.86c.468.213,11.509,5.27,15.7,10.509Z" transform="translate(-2618.377 -690.148)" fill="#92d1f4"/>
    <path id="Trazado_31396" data-name="Trazado 31396" d="M478.648,430.04H61.276v-1.022h.171V153.185h90.932V390.876h43.875l.059-.234V153.185h43.251V390.534l.256.342h45.039V153.185h43.253V390.876h45.3V153.185h43.252V390.876h61.988l0,.515c0,.04-.032,4.183-.032,19.665s.032,18.44.032,18.468ZM62.469,429.019H477.617c-.009-1.356-.029-5.792-.029-17.963,0-12.551.021-17.653.029-19.158h-61.47v-.256h-.511V154.206H374.428V391.9H327.09V154.206H285.88V391.9H239.309l-.767-1.022V154.206H197.334V390.767l-.282,1.13h-45.7V154.206H62.469Z" transform="translate(-0.84 -27.276)" fill="#161615"/>
    <path id="Trazado_31397" data-name="Trazado 31397" d="M2494.375,516.511h61.3s-4.853,6.512-4.853,19.752,4.853,18.388,4.853,18.388H2139.5V328.173a38.77,38.77,0,0,0,17.881,1.706c12.171-1.623,14.986-4.087,24.521-.684s12.942,3.407,23.159,1.364,24.349-2.385,24.349-2.385V516.511H2274.2l.168-.682V359.166s6.984,2.385,12.432-.342,7.492,0,11.579,1.363,18.223-1.021,18.223-1.021V515.829l.51.682h45.806V387.776a12.321,12.321,0,0,0,9.024,2.383c5.45-.684,11.58-2.043,17.711-.684s15.461-.028,15.461-.028l.032,127.064h46.321v-.346l.524-96.313s5.774-2.446,8.5-1.084,4.769,1.36,9.535-.684,7.494-2.721,11.581-1.36,11.119,3.128,11.119,3.128l.971,95.806.682.854" transform="translate(-1502.036 -153.224)" fill="#b6dbf3"/>
    <path id="Trazado_31398" data-name="Trazado 31398" d="M2555.663,427.066H2138.808v-1.022h.169V150.208h90.932V387.9h43.875l.058-.234V150.208H2317.1V387.56l.255.341h45.042V150.208h43.25V387.9h45.3V150.208h43.254v237.35h-1.022V151.23h-41.21V388.923h-47.34V151.23h-41.206V388.923h-46.575l-.765-1.023V151.23h-41.21V387.793l-.281,1.13h-45.7V151.23H2140V426.044h414.384c-1.473-1.766-4-6.46-4-17.88,0-12.013,2.771-17.326,4.167-19.242h-60.192V387.9h62.683l-1.048.9c-.043.038-4.588,4.208-4.588,19.364,0,15.046,4.469,17.923,4.515,17.95l1.567.948ZM2429.38,405.4h-10.2V404.38h10.2Z" transform="translate(-1502.026 -25.125)" fill="#161615"/>
    <path id="Trazado_31399" data-name="Trazado 31399" d="M3178.922,1063.36l11.079-2.972-11.079-2.966" transform="translate(-2253.593 -680.661)" fill="#161615"/>
    <rect id="Rectángulo_3815" data-name="Rectángulo 3815" width="10.201" height="1.022" transform="translate(1004.895 379.255)" fill="#161615"/>
    <path id="Trazado_31400" data-name="Trazado 31400" d="M3495.191,1063.36l11.077-2.972-11.077-2.966" transform="translate(-2482.123 -680.661)" fill="#161615"/>
    <rect id="Rectángulo_3816" data-name="Rectángulo 3816" width="10.201" height="1.022" transform="translate(736.824 379.255)" fill="#161615"/>
    <path id="Trazado_31401" data-name="Trazado 31401" d="M2528.887,1063.36l11.079-2.972-11.079-2.966" transform="translate(-1783.89 -680.661)" fill="#161615"/>
    <rect id="Rectángulo_3817" data-name="Rectángulo 3817" width="10.201" height="1.022" transform="translate(824.563 379.255)" fill="#161615"/>
    <path id="Trazado_31402" data-name="Trazado 31402" d="M2845.157,1063.36l11.077-2.972-11.077-2.966" transform="translate(-2012.42 -680.661)" fill="#161615"/>
    <rect id="Rectángulo_3818" data-name="Rectángulo 3818" width="3.065" height="21.456" transform="translate(790.381 340.638)" fill="#161615"/>
    <path id="Trazado_31403" data-name="Trazado 31403" d="M2685.979,892.341l-7.565-17.474-7.565,17.474" transform="translate(-1886.469 -548.75)" fill="#161615"/>
    <rect id="Rectángulo_3819" data-name="Rectángulo 3819" width="1.533" height="21.456" transform="translate(880.035 340.638)" fill="#161615"/>
    <path id="Trazado_31404" data-name="Trazado 31404" d="M3010.376,909.77l-5.044-8.736-5.042,8.736" transform="translate(-2124.517 -567.657)" fill="#161615"/>
    <rect id="Rectángulo_3820" data-name="Rectángulo 3820" width="2.043" height="21.456" transform="translate(879.78 340.638)" fill="#161615"/>
    <path id="Trazado_31405" data-name="Trazado 31405" d="M3010.4,903.965l-5.046-11.645-5.042,11.645" transform="translate(-2124.533 -561.36)" fill="#161615"/>
    <rect id="Rectángulo_3821" data-name="Rectángulo 3821" width="1.533" height="21.456" transform="translate(968.923 340.638)" fill="#161615"/>
    <path id="Trazado_31406" data-name="Trazado 31406" d="M3332.809,909.77l-3.779-8.736-3.783,8.736" transform="translate(-2359.323 -567.657)" fill="#161615"/>
    <path id="Trazado_31407" data-name="Trazado 31407" d="M152.4,129.3c0,5-20.248,9.044-45.222,9.044s-45.22-4.048-45.22-9.044,20.246-9.044,45.22-9.044S152.4,124.3,152.4,129.3" transform="translate(-1.33 -3.48)" fill="#fff"/>
    <path id="Trazado_31408" data-name="Trazado 31408" d="M105.844,137.521c-12.112,0-23.5-.944-32.075-2.658-6.229-1.246-13.655-3.453-13.655-6.9s7.426-5.65,13.655-6.9c8.573-1.714,19.964-2.659,32.075-2.659s23.5.944,32.077,2.659c6.23,1.246,13.656,3.453,13.656,6.9s-7.426,5.65-13.656,6.9C129.347,136.577,117.955,137.521,105.844,137.521Zm0-18.087c-26.744,0-44.709,4.412-44.709,8.533S79.1,136.5,105.844,136.5s44.711-4.412,44.711-8.533S132.589,119.434,105.844,119.434Z" transform="translate(0 -2.15)" fill="#161615"/>
    <path id="Trazado_31409" data-name="Trazado 31409" d="M592.165,141.509c0,2.865-9.469,5.189-21.148,5.189s-21.148-2.324-21.148-5.189,9.468-5.189,21.148-5.189,21.148,2.323,21.148,5.189" transform="translate(-353.888 -15.09)" fill="#fff"/>
    <path id="Trazado_31410" data-name="Trazado 31410" d="M569.686,145.879c-10.5,0-21.659-2-21.659-5.7s11.159-5.7,21.659-5.7,21.659,2,21.659,5.7S580.186,145.879,569.686,145.879Zm0-10.379c-12.162,0-20.638,2.466-20.638,4.679s8.475,4.679,20.638,4.679,20.637-2.466,20.637-4.679S581.848,135.5,569.686,135.5Z" transform="translate(-352.557 -13.759)" fill="#161615"/>
    <path id="Trazado_31411" data-name="Trazado 31411" d="M910.583,141.509c0,2.865-9.466,5.189-21.146,5.189s-21.148-2.324-21.148-5.189,9.467-5.189,21.148-5.189,21.146,2.323,21.146,5.189" transform="translate(-583.973 -15.09)" fill="#fff"/>
    <path id="Trazado_31412" data-name="Trazado 31412" d="M888.107,145.879c-10.5,0-21.659-2-21.659-5.7s11.159-5.7,21.659-5.7,21.657,2,21.657,5.7S898.606,145.879,888.107,145.879Zm0-10.379c-12.162,0-20.637,2.466-20.637,4.679s8.476,4.679,20.637,4.679,20.636-2.466,20.636-4.679S900.268,135.5,888.107,135.5Z" transform="translate(-582.643 -13.759)" fill="#161615"/>
    <path id="Trazado_31413" data-name="Trazado 31413" d="M1229.607,141.509c0,2.865-9.469,5.189-21.148,5.189s-21.151-2.324-21.151-5.189,9.469-5.189,21.151-5.189,21.148,2.323,21.148,5.189" transform="translate(-814.49 -15.09)" fill="#fff"/>
    <path id="Trazado_31414" data-name="Trazado 31414" d="M1207.128,145.879c-10.5,0-21.661-2-21.661-5.7s11.16-5.7,21.661-5.7,21.659,2,21.659,5.7S1217.628,145.879,1207.128,145.879Zm0-10.379c-12.163,0-20.639,2.466-20.639,4.679s8.477,4.679,20.639,4.679,20.637-2.466,20.637-4.679S1219.29,135.5,1207.128,135.5Z" transform="translate(-813.16 -13.759)" fill="#161615"/>
    <path id="Trazado_31415" data-name="Trazado 31415" d="M2229.03,126.322c0,5-20.248,9.044-45.22,9.044s-45.222-4.048-45.222-9.044,20.248-9.044,45.222-9.044,45.22,4.05,45.22,9.044" transform="translate(-1501.867 -1.33)" fill="#fff"/>
    <path id="Trazado_31416" data-name="Trazado 31416" d="M2182.48,134.546c-12.112,0-23.5-.944-32.077-2.659-6.23-1.246-13.656-3.453-13.656-6.9s7.427-5.649,13.656-6.9c8.574-1.715,19.966-2.659,32.077-2.659s23.5.944,32.074,2.659c6.23,1.246,13.656,3.454,13.656,6.9s-7.427,5.65-13.656,6.9C2205.982,133.6,2194.591,134.546,2182.48,134.546Zm0-18.087c-12.046,0-23.366.937-31.876,2.639-8.037,1.608-12.835,3.811-12.835,5.893,0,4.121,17.966,8.533,44.711,8.533s44.709-4.412,44.709-8.533c0-2.083-4.8-4.286-12.835-5.893C2205.844,117.4,2194.525,116.458,2182.48,116.458Z" transform="translate(-1500.536 0)" fill="#161615"/>
    <path id="Trazado_31417" data-name="Trazado 31417" d="M2668.81,138.533c0,2.867-9.467,5.189-21.146,5.189s-21.146-2.323-21.146-5.189,9.467-5.189,21.146-5.189,21.146,2.323,21.146,5.189" transform="translate(-1854.435 -12.939)" fill="#fff"/>
    <path id="Trazado_31418" data-name="Trazado 31418" d="M2646.332,142.9c-10.5,0-21.657-2-21.657-5.7s11.158-5.7,21.657-5.7,21.657,2,21.657,5.7S2656.831,142.9,2646.332,142.9Zm0-10.379c-12.161,0-20.636,2.466-20.636,4.679s8.475,4.679,20.636,4.679,20.635-2.466,20.635-4.679S2658.493,132.524,2646.332,132.524Z" transform="translate(-1853.104 -11.608)" fill="#161615"/>
    <path id="Trazado_31419" data-name="Trazado 31419" d="M2987.218,138.533c0,2.867-9.466,5.189-21.146,5.189s-21.148-2.323-21.148-5.189,9.467-5.189,21.148-5.189,21.146,2.323,21.146,5.189" transform="translate(-2084.509 -12.939)" fill="#fff"/>
    <path id="Trazado_31420" data-name="Trazado 31420" d="M2964.74,142.9c-10.5,0-21.659-2-21.659-5.7s11.159-5.7,21.659-5.7,21.657,2,21.657,5.7S2975.239,142.9,2964.74,142.9Zm0-10.379c-12.162,0-20.637,2.466-20.637,4.679s8.475,4.679,20.637,4.679,20.635-2.466,20.635-4.679S2976.9,132.524,2964.74,132.524Z" transform="translate(-2083.178 -11.608)" fill="#161615"/>
    <path id="Trazado_31421" data-name="Trazado 31421" d="M3306.244,138.533c0,2.867-9.467,5.189-21.146,5.189s-21.148-2.323-21.148-5.189,9.469-5.189,21.148-5.189,21.146,2.323,21.146,5.189" transform="translate(-2315.032 -12.939)" fill="#fff"/>
    <path id="Trazado_31422" data-name="Trazado 31422" d="M3283.766,142.9c-10.5,0-21.659-2-21.659-5.7s11.159-5.7,21.659-5.7,21.657,2,21.657,5.7S3294.265,142.9,3283.766,142.9Zm0-10.379c-12.162,0-20.637,2.466-20.637,4.679s8.476,4.679,20.637,4.679,20.635-2.466,20.635-4.679S3295.927,132.524,3283.766,132.524Z" transform="translate(-2313.7 -11.608)" fill="#161615"/>
    <path id="Trazado_31423" data-name="Trazado 31423" d="M1533.212,1002.226s-3.191,4.05-3.191,15.989,3.191,18.534,3.191,18.534l42.837,6.118.158-46.918" transform="translate(-1062.128 -636.242)" fill="#f6d6c8"/>
    <path id="Trazado_31424" data-name="Trazado 31424" d="M1575.227,1041.917l-43.689-6.242-.118-.245c-.132-.274-3.239-6.836-3.239-18.757,0-11.976,3.163-16.134,3.3-16.305l.126-.16.2-.03,43.583-6.36Zm-43-7.175,41.978,6,.154-45.738-42.189,6.156c-.544.847-2.972,5.2-2.972,15.516C1529.2,1027.087,1531.678,1033.451,1532.231,1034.742Z" transform="translate(-1060.797 -634.702)" fill="#161615"/>
    <path id="Trazado_31425" data-name="Trazado 31425" d="M1684.167,994.164c-2.478,0-4.489,10.725-4.489,23.958s2.011,23.954,4.489,23.954,4.5-10.725,4.5-23.954-2.013-23.958-4.5-23.958" transform="translate(-1170.267 -634.952)" fill="#e6a28b"/>
    <path id="Trazado_31426" data-name="Trazado 31426" d="M1591.34,1041.257c-1.515,0-2.752-2.5-3.676-7.433a110.232,110.232,0,0,1,0-34.068c.925-4.932,2.161-7.433,3.676-7.433s2.755,2.5,3.681,7.433a110.092,110.092,0,0,1,0,34.068C1594.095,1038.756,1592.856,1041.257,1591.34,1041.257Zm0-47.913c-1.428,0-3.979,7.835-3.979,23.447s2.551,23.443,3.979,23.443,3.985-7.834,3.985-23.443S1592.77,993.344,1591.34,993.344Zm-37.066,42.76c-.125-.248-3.063-6.228-3.063-20.037,0-13.843,2.968-18.432,3.095-18.62l.849.569-.424-.285.426.283c-.029.044-2.923,4.594-2.923,18.053,0,13.568,2.924,19.518,2.954,19.577Z" transform="translate(-1077.439 -633.621)" fill="#161615"/>
    <path id="Trazado_31427" data-name="Trazado 31427" d="M155.677,305.791c0,5.748-19.71,10.407-44.02,10.407s-44.02-4.659-44.02-10.407,19.71-10.407,44.02-10.407,44.02,4.661,44.02,10.407" transform="translate(-5.436 -130.026)" fill="#d9f0fc"/>
    <path id="Trazado_31428" data-name="Trazado 31428" d="M110.325,315.378c-21.889,0-44.531-4.084-44.531-10.918s22.642-10.918,44.531-10.918,44.531,4.084,44.531,10.918S132.215,315.378,110.325,315.378Zm0-20.814c-26.026,0-43.509,5.117-43.509,9.9s17.483,9.9,43.509,9.9,43.51-5.117,43.51-9.9S136.351,294.564,110.325,294.564Z" transform="translate(-4.105 -128.695)" fill="#63bfe7"/>
    <path id="Trazado_31429" data-name="Trazado 31429" d="M593.448,320.518c0,2.624-9.12,4.749-20.369,4.749s-20.365-2.124-20.365-4.749,9.116-4.75,20.365-4.75,20.369,2.126,20.369,4.75" transform="translate(-355.943 -144.755)" fill="#d9f0fc"/>
    <path id="Trazado_31430" data-name="Trazado 31430" d="M571.748,324.447c-10.12,0-20.876-1.843-20.876-5.259s10.756-5.261,20.876-5.261,20.88,1.844,20.88,5.261S581.87,324.447,571.748,324.447Zm0-9.5a65.966,65.966,0,0,0-14.285,1.378c-4.106.958-5.569,2.106-5.569,2.862s1.463,1.9,5.569,2.861a74.791,74.791,0,0,0,28.572,0c4.108-.957,5.571-2.106,5.571-2.861s-1.464-1.9-5.572-2.862A65.987,65.987,0,0,0,571.748,314.948Z" transform="translate(-354.613 -143.424)" fill="#63bfe7"/>
    <path id="Trazado_31431" data-name="Trazado 31431" d="M912.352,320.518c0,2.624-9.12,4.749-20.369,4.749s-20.367-2.124-20.367-4.749,9.119-4.75,20.367-4.75,20.369,2.126,20.369,4.75" transform="translate(-586.376 -144.755)" fill="#d9f0fc"/>
    <path id="Trazado_31432" data-name="Trazado 31432" d="M890.651,324.447c-10.121,0-20.878-1.843-20.878-5.259s10.757-5.261,20.878-5.261,20.88,1.844,20.88,5.261S900.773,324.447,890.651,324.447Zm0-9.5a65.975,65.975,0,0,0-14.286,1.378c-4.107.958-5.571,2.106-5.571,2.862s1.463,1.9,5.571,2.861a74.795,74.795,0,0,0,28.573,0c4.108-.957,5.571-2.106,5.571-2.861s-1.464-1.9-5.571-2.862A65.989,65.989,0,0,0,890.651,314.948Z" transform="translate(-585.045 -143.424)" fill="#63bfe7"/>
    <path id="Trazado_31433" data-name="Trazado 31433" d="M1231.771,320.518c0,2.624-9.12,4.749-20.367,4.749s-20.369-2.124-20.369-4.749,9.119-4.75,20.369-4.75,20.367,2.126,20.367,4.75" transform="translate(-817.183 -144.755)" fill="#d9f0fc"/>
    <path id="Trazado_31434" data-name="Trazado 31434" d="M1210.073,324.447c-10.122,0-20.88-1.843-20.88-5.259s10.758-5.261,20.88-5.261,20.878,1.844,20.878,5.261S1220.195,324.447,1210.073,324.447Zm0-9.5a65.985,65.985,0,0,0-14.288,1.378c-4.108.958-5.571,2.106-5.571,2.862s1.463,1.9,5.571,2.861a74.795,74.795,0,0,0,28.573,0c4.108-.957,5.571-2.106,5.571-2.861s-1.464-1.9-5.572-2.862A65.97,65.97,0,0,0,1210.073,314.948Z" transform="translate(-815.852 -143.424)" fill="#63bfe7"/>
    <path id="Trazado_31435" data-name="Trazado 31435" d="M2232.312,302.816c0,5.748-19.71,10.407-44.02,10.407s-44.022-4.659-44.022-10.407,19.714-10.407,44.022-10.407,44.02,4.661,44.02,10.407" transform="translate(-1505.972 -127.877)" fill="#d9f0fc"/>
    <path id="Trazado_31436" data-name="Trazado 31436" d="M2186.961,312.4c-21.89,0-44.533-4.084-44.533-10.918s22.643-10.918,44.533-10.918,44.531,4.084,44.531,10.918S2208.851,312.4,2186.961,312.4Zm0-20.814c-26.028,0-43.511,5.117-43.511,9.9s17.484,9.9,43.511,9.9,43.509-5.117,43.509-9.9S2212.988,291.589,2186.961,291.589Z" transform="translate(-1504.641 -126.546)" fill="#63bfe7"/>
    <path id="Trazado_31437" data-name="Trazado 31437" d="M2670.081,430.159c0,2.624-9.12,4.749-20.367,4.749s-20.367-2.124-20.367-4.749,9.118-4.75,20.367-4.75,20.367,2.126,20.367,4.75" transform="translate(-1856.48 -223.98)" fill="#d9f0fc"/>
    <path id="Trazado_31438" data-name="Trazado 31438" d="M2648.383,434.088c-10.121,0-20.878-1.843-20.878-5.259s10.757-5.261,20.878-5.261,20.878,1.844,20.878,5.261S2658.5,434.088,2648.383,434.088Zm0-9.5a65.979,65.979,0,0,0-14.286,1.378c-4.107.958-5.571,2.106-5.571,2.862s1.463,1.9,5.571,2.861a74.8,74.8,0,0,0,28.571,0c4.107-.957,5.571-2.106,5.571-2.861s-1.464-1.9-5.571-2.862A65.976,65.976,0,0,0,2648.383,424.589Z" transform="translate(-1855.149 -222.649)" fill="#63bfe7"/>
    <path id="Trazado_31439" data-name="Trazado 31439" d="M2988.991,534.962c0,2.624-9.12,4.75-20.371,4.75s-20.363-2.126-20.363-4.75,9.119-4.748,20.363-4.748,20.371,2.124,20.371,4.748" transform="translate(-2086.918 -299.71)" fill="#d9f0fc"/>
    <path id="Trazado_31440" data-name="Trazado 31440" d="M2967.288,538.893c-10.119,0-20.874-1.844-20.874-5.261s10.755-5.259,20.874-5.259,20.883,1.843,20.883,5.259S2977.411,538.893,2967.288,538.893Zm0-9.5a66,66,0,0,0-14.282,1.377c-4.107.957-5.57,2.105-5.57,2.861s1.463,1.9,5.57,2.862a74.739,74.739,0,0,0,28.571,0c4.108-.958,5.572-2.106,5.572-2.862s-1.463-1.9-5.572-2.861A66.051,66.051,0,0,0,2967.288,529.394Z" transform="translate(-2085.587 -298.38)" fill="#63bfe7"/>
    <path id="Trazado_31441" data-name="Trazado 31441" d="M3308.4,648.055c0,2.622-9.119,4.748-20.367,4.748s-20.368-2.126-20.368-4.748,9.119-4.75,20.368-4.75,20.367,2.125,20.367,4.75" transform="translate(-2317.719 -381.427)" fill="#d9f0fc"/>
    <path id="Trazado_31442" data-name="Trazado 31442" d="M3286.705,651.984c-10.121,0-20.878-1.843-20.878-5.259s10.757-5.261,20.878-5.261,20.878,1.844,20.878,5.261S3296.826,651.984,3286.705,651.984Zm0-9.5a66.012,66.012,0,0,0-14.286,1.377c-4.107.958-5.57,2.107-5.57,2.862s1.463,1.9,5.57,2.86a74.76,74.76,0,0,0,28.572,0c4.107-.958,5.57-2.105,5.57-2.86s-1.463-1.9-5.57-2.862A66.009,66.009,0,0,0,3286.705,642.485Z" transform="translate(-2316.388 -380.097)" fill="#63bfe7"/>
    <path id="Trazado_31443" data-name="Trazado 31443" d="M994.463,420.864l-6.653-2.316.336-.965L994.8,419.9Zm-12.442-4.332-7.72-2.688.336-.965,7.719,2.688Zm-13.509-4.7-7.719-2.688.336-.965,7.719,2.688ZM955,407.126l-7.719-2.688.336-.965,7.719,2.688Zm-13.508-4.7-7.719-2.688.336-.965,7.719,2.688Zm-13.509-4.7-7.719-2.687.336-.965,7.719,2.688Zm-13.508-4.7-7.719-2.687.336-.965,7.719,2.688Zm-13.508-4.7-7.719-2.688.336-.965,7.719,2.688Zm-13.509-4.7-7.719-2.687.336-.965,7.719,2.688Zm-13.508-4.7-7.719-2.687.336-.965,7.719,2.688Zm-13.509-4.7-7.719-2.688.336-.965,7.719,2.688Zm-13.508-4.7-7.719-2.688.336-.965,7.719,2.688Zm-13.508-4.7-7.719-2.688.336-.965,7.719,2.688Zm-13.509-4.7-7.719-2.688.336-.965,7.719,2.688Zm-13.509-4.7-7.719-2.688.336-.965,7.719,2.688Zm-13.508-4.7L785.182,348l.336-.965,7.719,2.688Zm-13.509-4.7-7.719-2.688.336-.965,7.719,2.687Zm-13.508-4.7-7.719-2.688.336-.965,7.719,2.688Zm-13.508-4.7-7.719-2.688.336-.965,7.72,2.688Zm-13.509-4.7-7.719-2.688.336-.965,7.719,2.687Zm-321.829-1.834h-8.174v-1.022h8.174Zm-14.3,0h-8.174v-1.022h8.174Zm-14.3,0h-8.174v-1.022h8.174Zm-14.3,0h-8.174v-1.022h8.174Zm-14.3,0h-8.174v-1.022h8.174Zm-14.3,0h-8.174v-1.022h8.174Zm-14.3,0h-8.174v-1.022h8.174Zm-14.3,0h-8.173v-1.022h8.173Zm-14.3,0h-8.174v-1.022h8.174Zm-14.3,0H280.13v-1.022H288.3Zm-14.3,0h-8.174v-1.022H274Zm-14.3,0h-8.174v-1.022H259.7Zm-14.3,0h-8.174v-1.022h8.174Zm-14.3,0h-8.174v-1.022h8.174Zm-14.3,0h-8.174v-1.022h8.174Zm-14.3,0h-8.174v-1.022h8.174Zm-14.3,0H180v-1.022h8.174Zm-14.3,0H165.7v-1.022h8.174Zm-14.3,0H151.4v-1.022h8.174Zm-14.3,0h-8.173v-1.022h8.173Zm-14.3,0h-8.174v-1.022h8.174Zm-14.3,0h-8.174v-1.022h8.174Zm-14.3,0H94.18v-1.022h8.174Zm-14.3,0H79.876v-1.022h8.174Zm-14.3,0H65.572v-1.022h8.174Z" transform="translate(-3.945 -153.754)" fill="#161615"/>
  </g>
</svg>
