<svg xmlns="http://www.w3.org/2000/svg" xmlns:xlink="http://www.w3.org/1999/xlink" width="1076" height="764" viewBox="0 0 1076 764">
  <defs>
    <linearGradient id="linear-gradient" y1="0.5" x2="1" y2="0.5" gradientUnits="objectBoundingBox">
      <stop offset="0" stop-color="#2e353a"/>
      <stop offset="1" stop-color="#2e353a"/>
    </linearGradient>
    <linearGradient id="linear-gradient-2" y1="0.5" x2="1" y2="0.5" gradientUnits="objectBoundingBox">
      <stop offset="0" stop-color="#4d5a63"/>
      <stop offset="1" stop-color="#424d56"/>
    </linearGradient>
    <linearGradient id="linear-gradient-3" x1="1" y1="0.5" x2="0" y2="0.5" gradientUnits="objectBoundingBox">
      <stop offset="0" stop-color="#61727f"/>
      <stop offset="1" stop-color="#576671"/>
    </linearGradient>
    <linearGradient id="linear-gradient-5" x1="0" y1="0.5" x2="1" y2="0.5" xlink:href="#linear-gradient"/>
    <linearGradient id="linear-gradient-7" x1="-7.455" y1="21.583" x2="-6.639" y2="21.583" xlink:href="#linear-gradient-3"/>
    <linearGradient id="linear-gradient-8" x1="0" y1="0.5" x2="1" y2="0.5" xlink:href="#linear-gradient-2"/>
    <linearGradient id="linear-gradient-9" x1="-8.215" y1="23.075" x2="-7.398" y2="23.075" xlink:href="#linear-gradient-3"/>
    <linearGradient id="linear-gradient-10" y1="0.5" x2="1" y2="0.5" gradientUnits="objectBoundingBox">
      <stop offset="0" stop-color="#d9ddfd"/>
      <stop offset="1" stop-color="#c9cdf0"/>
    </linearGradient>
    <linearGradient id="linear-gradient-11" y1="0.5" x2="1" y2="0.5" gradientUnits="objectBoundingBox">
      <stop offset="0" stop-color="#ffc400"/>
      <stop offset="1" stop-color="#ffab00"/>
    </linearGradient>
    <linearGradient id="linear-gradient-14" x1="0" y1="0.5" x2="1" y2="0.5" xlink:href="#linear-gradient-2"/>
  </defs>
  <g id="Grupo_15712" data-name="Grupo 15712" transform="translate(-422 -15862)">
    <g id="Trazado_31567" data-name="Trazado 31567" transform="translate(422 15862)" fill="#fef8e0">
      <path d="M 1063 762.5 L 13 762.5 C 9.928266525268555 762.5 7.040266513824463 761.3037109375 4.868266582489014 759.1317138671875 C 2.696266651153564 756.959716796875 1.5 754.0717163085938 1.5 751 L 1.5 13 C 1.5 9.928266525268555 2.696266651153564 7.040266513824463 4.868266582489014 4.868266582489014 C 7.040266513824463 2.696266651153564 9.928266525268555 1.5 13 1.5 L 1063 1.5 C 1066.07177734375 1.5 1068.959716796875 2.696266651153564 1071.131713867188 4.868266582489014 C 1073.3037109375 7.040266513824463 1074.5 9.928266525268555 1074.5 13 L 1074.5 751 C 1074.5 754.0717163085938 1073.3037109375 756.959716796875 1071.131713867188 759.1317138671875 C 1068.959716796875 761.3037109375 1066.07177734375 762.5 1063 762.5 Z" stroke="none"/>
      <path d="M 13 3 C 7.4859619140625 3 3 7.48602294921875 3 13 L 3 751 C 3 756.5139770507813 7.4859619140625 761 13 761 L 1063 761 C 1068.514038085938 761 1073 756.5139770507813 1073 751 L 1073 13 C 1073 7.48602294921875 1068.514038085938 3 1063 3 L 13 3 M 13 0 L 1063 0 C 1070.1796875 0 1076 5.82025146484375 1076 13 L 1076 751 C 1076 758.1797485351563 1070.1796875 764 1063 764 L 13 764 C 5.8203125 764 0 758.1797485351563 0 751 L 0 13 C 0 5.82025146484375 5.8203125 0 13 0 Z" stroke="none" fill="#959595"/>
    </g>
    <path id="Trazado_31235" data-name="Trazado 31235" d="M6597.505,14932v323.911" transform="translate(-5926 1025)" fill="none" stroke="#000" stroke-width="3" stroke-dasharray="6"/>
    <path id="Trazado_31236" data-name="Trazado 31236" d="M6597.505,14932v323.911" transform="translate(-5452 1025)" fill="none" stroke="#000" stroke-width="3" stroke-dasharray="6"/>
    <g id="Trazado_31574" data-name="Trazado 31574" transform="translate(1135 16080)" fill="#bbe0e2">
      <path d="M 10.5 20 C 5.261680126190186 20 1 15.73832035064697 1 10.5 C 1 5.261680126190186 5.261680126190186 1 10.5 1 C 15.73832035064697 1 20 5.261680126190186 20 10.5 C 20 15.73832035064697 15.73832035064697 20 10.5 20 Z" stroke="none"/>
      <path d="M 10.5 2 C 5.813079833984375 2 2 5.813079833984375 2 10.5 C 2 15.18692016601563 5.813079833984375 19 10.5 19 C 15.18692016601563 19 19 15.18692016601563 19 10.5 C 19 5.813079833984375 15.18692016601563 2 10.5 2 M 10.5 0 C 16.29899024963379 0 21 4.701009750366211 21 10.5 C 21 16.29899024963379 16.29899024963379 21 10.5 21 C 4.701009750366211 21 0 16.29899024963379 0 10.5 C 0 4.701009750366211 4.701009750366211 0 10.5 0 Z" stroke="none" fill="#4d4d4d"/>
    </g>
    <g id="Grupo_15594" data-name="Grupo 15594" transform="translate(37 -304)">
      <path id="Trazado_31237" data-name="Trazado 31237" d="M6979.84,15124.109H6716.018" transform="translate(-5963 1329)" fill="none" stroke="#3b3b3b" stroke-width="3"/>
      <path id="Polígono_40" data-name="Polígono 40" d="M8,0l8,14H0Z" transform="translate(743 16461) rotate(-90)"/>
    </g>
    <path id="Trazado_31579" data-name="Trazado 31579" d="M8.884.215A8.664,8.664,0,0,1,5.72-.354,7.439,7.439,0,0,1,3.2-1.944,7.167,7.167,0,0,1,1.547-4.469a8.8,8.8,0,0,1-.6-3.3,8.408,8.408,0,0,1,1.031-4.216,7.021,7.021,0,0,1,2.831-2.788,8.476,8.476,0,0,1,4.077-.967,8.237,8.237,0,0,1,4.555,1.257,6.88,6.88,0,0,1,2.782,3.459l-3.008,1.1a4.252,4.252,0,0,0-1.665-2.095,4.756,4.756,0,0,0-2.664-.752,4.559,4.559,0,0,0-3.395,1.354A4.98,4.98,0,0,0,4.157-7.767,4.988,4.988,0,0,0,5.495-4.109,4.554,4.554,0,0,0,8.884-2.75a4.738,4.738,0,0,0,2.659-.757,4.271,4.271,0,0,0,1.67-2.1l3.008,1.1a6.908,6.908,0,0,1-2.782,3.464A8.211,8.211,0,0,1,8.884.215ZM23.6.215a6.944,6.944,0,0,1-3.126-.677,5.058,5.058,0,0,1-2.143-1.987,5.922,5.922,0,0,1-.779-3.083,5.4,5.4,0,0,1,1.676-4.189A6.217,6.217,0,0,1,23.6-11.258a6.232,6.232,0,0,1,4.383,1.536,5.4,5.4,0,0,1,1.676,4.189,5.432,5.432,0,0,1-1.676,4.206A6.219,6.219,0,0,1,23.6.215Zm-.032-2.46a2.835,2.835,0,0,0,2.186-.9,3.378,3.378,0,0,0,.833-2.385,3.378,3.378,0,0,0-.833-2.385,2.835,2.835,0,0,0-2.186-.9,2.731,2.731,0,0,0-2.122.908,3.409,3.409,0,0,0-.822,2.379,3.409,3.409,0,0,0,.822,2.379A2.731,2.731,0,0,0,23.568-2.245ZM31.958,0V-16.5h3.126V0ZM43.431.215A6.944,6.944,0,0,1,40.3-.462a5.058,5.058,0,0,1-2.143-1.987,5.922,5.922,0,0,1-.779-3.083,5.4,5.4,0,0,1,1.676-4.189,6.217,6.217,0,0,1,4.372-1.536,6.232,6.232,0,0,1,4.383,1.536,5.4,5.4,0,0,1,1.676,4.189,5.432,5.432,0,0,1-1.676,4.206A6.219,6.219,0,0,1,43.431.215ZM43.4-2.245a2.835,2.835,0,0,0,2.186-.9,3.378,3.378,0,0,0,.833-2.385,3.378,3.378,0,0,0-.833-2.385,2.835,2.835,0,0,0-2.186-.9,2.731,2.731,0,0,0-2.122.908,3.409,3.409,0,0,0-.822,2.379,3.409,3.409,0,0,0,.822,2.379A2.731,2.731,0,0,0,43.4-2.245ZM56.783.2a5.9,5.9,0,0,1-4.265-1.59,5.491,5.491,0,0,1-1.654-4.146,5.479,5.479,0,0,1,1.649-4.146,5.918,5.918,0,0,1,4.27-1.579,5.884,5.884,0,0,1,3.577,1.063,4.748,4.748,0,0,1,1.848,3l-2.857.312a2.448,2.448,0,0,0-.924-1.45,2.809,2.809,0,0,0-1.676-.483,2.533,2.533,0,0,0-2.02.9,3.538,3.538,0,0,0-.773,2.385,3.542,3.542,0,0,0,.773,2.379,2.526,2.526,0,0,0,2.02.908,2.785,2.785,0,0,0,1.67-.483,2.505,2.505,0,0,0,.929-1.45l2.857.312a4.761,4.761,0,0,1-1.864,3A5.86,5.86,0,0,1,56.783.2ZM73.466-3a10.331,10.331,0,0,0,.269,2.7V0h-2.89L70.6-1.2A3.591,3.591,0,0,1,69.051-.14a5.7,5.7,0,0,1-2,.354,5.254,5.254,0,0,1-1.031-.1,3.506,3.506,0,0,1-.929-.328,2.82,2.82,0,0,1-.768-.575,2.52,2.52,0,0,1-.516-.875,3.488,3.488,0,0,1-.193-1.2,3.322,3.322,0,0,1,.2-1.2,2.807,2.807,0,0,1,.537-.9,3.258,3.258,0,0,1,.87-.655,6.658,6.658,0,0,1,1.1-.473,13.092,13.092,0,0,1,1.311-.344l1.815-.408a2,2,0,0,0,.822-.349.7.7,0,0,0,.242-.553A1.14,1.14,0,0,0,69.969-8.8a2.533,2.533,0,0,0-1.316-.322,1.894,1.894,0,0,0-2.159,1.687l-2.739-.494a3.708,3.708,0,0,1,1.6-2.519,6.362,6.362,0,0,1,3.47-.811q4.641,0,4.641,3.985ZM68.02-1.88a2.488,2.488,0,0,0,1.912-.8,3.372,3.372,0,0,0,.741-2.369l-2.621.741a3.1,3.1,0,0,0-1.1.451.927.927,0,0,0-.381.795,1.029,1.029,0,0,0,.408.875A1.689,1.689,0,0,0,68.02-1.88ZM81.222.2a5.9,5.9,0,0,1-4.265-1.59A5.491,5.491,0,0,1,75.3-5.532a5.479,5.479,0,0,1,1.649-4.146,5.918,5.918,0,0,1,4.27-1.579A5.884,5.884,0,0,1,84.8-10.194a4.748,4.748,0,0,1,1.848,3l-2.857.312a2.448,2.448,0,0,0-.924-1.45,2.809,2.809,0,0,0-1.676-.483,2.533,2.533,0,0,0-2.02.9A3.538,3.538,0,0,0,78.4-5.532a3.542,3.542,0,0,0,.773,2.379,2.526,2.526,0,0,0,2.02.908,2.785,2.785,0,0,0,1.67-.483,2.505,2.505,0,0,0,.929-1.45l2.857.312a4.761,4.761,0,0,1-1.864,3A5.86,5.86,0,0,1,81.222.2Zm9.206-12.9a1.737,1.737,0,0,1-1.268-.521,1.71,1.71,0,0,1-.526-1.262,1.69,1.69,0,0,1,.532-1.251,1.742,1.742,0,0,1,1.262-.521,1.712,1.712,0,0,1,1.246.521A1.7,1.7,0,0,1,92.2-14.48a1.71,1.71,0,0,1-.526,1.262A1.712,1.712,0,0,1,90.428-12.7ZM88.849,0V-11.043h3.115V0ZM99.354-12.547l2.814-3.953,1.525,1.074-2.438,2.879ZM100.311.215a6.944,6.944,0,0,1-3.126-.677,5.058,5.058,0,0,1-2.143-1.987,5.922,5.922,0,0,1-.779-3.083,5.4,5.4,0,0,1,1.676-4.189,6.217,6.217,0,0,1,4.372-1.536,6.232,6.232,0,0,1,4.383,1.536,5.4,5.4,0,0,1,1.676,4.189,5.432,5.432,0,0,1-1.676,4.206A6.219,6.219,0,0,1,100.311.215Zm-.032-2.46a2.835,2.835,0,0,0,2.186-.9,3.378,3.378,0,0,0,.833-2.385,3.378,3.378,0,0,0-.833-2.385,2.835,2.835,0,0,0-2.186-.9,2.731,2.731,0,0,0-2.122.908,3.409,3.409,0,0,0-.822,2.379,3.409,3.409,0,0,0,.822,2.379A2.731,2.731,0,0,0,100.278-2.245Zm14.91-9.013a4.3,4.3,0,0,1,3.051.994A3.684,3.684,0,0,1,119.3-7.434V0h-3.1V-6.768a1.924,1.924,0,0,0-.553-1.525,2.084,2.084,0,0,0-1.423-.483,2.908,2.908,0,0,0-.924.14,2.373,2.373,0,0,0-.773.435,1.923,1.923,0,0,0-.553.833,3.85,3.85,0,0,0-.209,1.278V0h-3.094V-11.043h3.094v1.225A4.255,4.255,0,0,1,115.188-11.258ZM9.432,13.5h3.094V30H9.593l-.075-1.439a3.154,3.154,0,0,1-1.4,1.251,4.719,4.719,0,0,1-2.068.446,5.371,5.371,0,0,1-2.062-.4,4.967,4.967,0,0,1-2.836-2.943A6.717,6.717,0,0,1,.73,24.5a6.278,6.278,0,0,1,.73-3.078,5.005,5.005,0,0,1,1.928-2,5.31,5.31,0,0,1,2.659-.677,4.837,4.837,0,0,1,2,.4,3.128,3.128,0,0,1,1.38,1.144ZM6.757,27.69a2.754,2.754,0,0,0,2.089-.881,3.225,3.225,0,0,0,.833-2.31,3.232,3.232,0,0,0-.838-2.315A2.751,2.751,0,0,0,6.757,21.3a2.783,2.783,0,0,0-2.1.87A3.231,3.231,0,0,0,3.824,24.5a3.216,3.216,0,0,0,.833,2.32A2.783,2.783,0,0,0,6.757,27.69Zm19.357-3.373-.032.741H17.9a2.859,2.859,0,0,0,.881,2.02,2.817,2.817,0,0,0,1.944.7,2.715,2.715,0,0,0,1.456-.381,2.344,2.344,0,0,0,.929-1.112l2.836.419a4.821,4.821,0,0,1-1.934,2.589,5.749,5.749,0,0,1-3.266.924,5.978,5.978,0,0,1-4.3-1.52,5.546,5.546,0,0,1-1.6-4.216,5.579,5.579,0,0,1,1.6-4.216,5.8,5.8,0,0,1,4.2-1.542,5.544,5.544,0,0,1,3.964,1.407A5.52,5.52,0,0,1,26.114,24.317Zm-5.446-3.405a2.445,2.445,0,0,0-2.686,2.127h5.07a2.326,2.326,0,0,0-.763-1.579A2.417,2.417,0,0,0,20.668,20.912ZM28.467,30V13.5h3.126V30ZM41.282,17.765a6.458,6.458,0,0,1,.14-1.407,4.282,4.282,0,0,1,.376-1.069,2.5,2.5,0,0,1,.628-.768A3.708,3.708,0,0,1,43.243,14a4.665,4.665,0,0,1,1.015-.312,8.9,8.9,0,0,1,1.166-.156Q46,13.5,46.739,13.5v2.471h-.064q-.3,0-.457.005t-.44.038a1.783,1.783,0,0,0-.446.1,2.272,2.272,0,0,0-.371.2.989.989,0,0,0-.322.322,1.947,1.947,0,0,0-.193.478,2.5,2.5,0,0,0-.081.666v1.182h2.374v2.374H44.365V30H41.282V21.331H39.123V18.957h2.159ZM48.49,13.5h3.126V30H48.49ZM59.963,30.215a6.944,6.944,0,0,1-3.126-.677,5.058,5.058,0,0,1-2.143-1.987,5.922,5.922,0,0,1-.779-3.083,5.4,5.4,0,0,1,1.676-4.189,7.005,7.005,0,0,1,8.755,0,5.4,5.4,0,0,1,1.676,4.189,5.432,5.432,0,0,1-1.676,4.206A6.219,6.219,0,0,1,59.963,30.215Zm-.032-2.46a2.835,2.835,0,0,0,2.186-.9,3.378,3.378,0,0,0,.833-2.385,3.378,3.378,0,0,0-.833-2.385,2.835,2.835,0,0,0-2.186-.9,2.731,2.731,0,0,0-2.122.908,3.409,3.409,0,0,0-.822,2.379,3.409,3.409,0,0,0,.822,2.379A2.731,2.731,0,0,0,59.931,27.755ZM72.435,30a3.335,3.335,0,0,1-2.492-.9,3.489,3.489,0,0,1-.881-2.551V21.331h-2.17V18.957h.7a1.822,1.822,0,0,0,1.375-.462,2.378,2.378,0,0,0,.44-1.644V15.391H72.2v3.566h2.277v2.374H72.2v4.888q0,1.429,1.278,1.429h1V30Zm13.449-3a10.331,10.331,0,0,0,.269,2.7V30h-2.89l-.247-1.2a3.591,3.591,0,0,1-1.547,1.063,5.7,5.7,0,0,1-2,.354,5.254,5.254,0,0,1-1.031-.1,3.506,3.506,0,0,1-.929-.328,2.82,2.82,0,0,1-.768-.575,2.52,2.52,0,0,1-.516-.875,3.488,3.488,0,0,1-.193-1.2,3.321,3.321,0,0,1,.2-1.2,2.807,2.807,0,0,1,.537-.9,3.258,3.258,0,0,1,.87-.655,6.658,6.658,0,0,1,1.1-.473,13.092,13.092,0,0,1,1.311-.344l1.815-.408a2,2,0,0,0,.822-.349.7.7,0,0,0,.242-.553,1.14,1.14,0,0,0-.542-1.063,2.533,2.533,0,0,0-1.316-.322,1.894,1.894,0,0,0-2.159,1.687l-2.739-.494a3.708,3.708,0,0,1,1.6-2.519,6.362,6.362,0,0,1,3.47-.811q4.641,0,4.641,3.985ZM80.438,28.12a2.488,2.488,0,0,0,1.912-.8,3.372,3.372,0,0,0,.741-2.369l-2.621.741a3.1,3.1,0,0,0-1.1.451.927.927,0,0,0-.381.795,1.029,1.029,0,0,0,.408.875A1.689,1.689,0,0,0,80.438,28.12ZM96.476,13.5h3.094V30H96.637l-.075-1.439a3.154,3.154,0,0,1-1.4,1.251,4.719,4.719,0,0,1-2.068.446,5.371,5.371,0,0,1-2.062-.4,4.967,4.967,0,0,1-2.836-2.943,6.717,6.717,0,0,1-.419-2.417,6.278,6.278,0,0,1,.73-3.078,5.005,5.005,0,0,1,1.928-2,5.31,5.31,0,0,1,2.659-.677,4.837,4.837,0,0,1,2,.4,3.128,3.128,0,0,1,1.38,1.144ZM93.8,27.69a2.754,2.754,0,0,0,2.089-.881,3.225,3.225,0,0,0,.833-2.31,3.232,3.232,0,0,0-.838-2.315A2.751,2.751,0,0,0,93.8,21.3a2.783,2.783,0,0,0-2.1.87,3.231,3.231,0,0,0-.833,2.331,3.216,3.216,0,0,0,.833,2.32A2.783,2.783,0,0,0,93.8,27.69Zm14.115,2.524a6.944,6.944,0,0,1-3.126-.677,5.058,5.058,0,0,1-2.143-1.987,5.922,5.922,0,0,1-.779-3.083,5.4,5.4,0,0,1,1.676-4.189,7.005,7.005,0,0,1,8.755,0,5.4,5.4,0,0,1,1.676,4.189,5.432,5.432,0,0,1-1.676,4.206A6.219,6.219,0,0,1,107.916,30.215Zm-.032-2.46a2.835,2.835,0,0,0,2.186-.9,3.378,3.378,0,0,0,.833-2.385,3.378,3.378,0,0,0-.833-2.385,2.835,2.835,0,0,0-2.186-.9,2.731,2.731,0,0,0-2.122.908,3.409,3.409,0,0,0-.822,2.379,3.409,3.409,0,0,0,.822,2.379A2.731,2.731,0,0,0,107.884,27.755Zm11.354-7.047a3.585,3.585,0,0,1,1.45-1.327,4.425,4.425,0,0,1,2.159-.553v2.761a4.183,4.183,0,0,0-2.643.666,2.908,2.908,0,0,0-.816,2.363V30h-3.115V18.957h2.965Z" transform="translate(1182 16128)" fill="#00223d"/>
    <path id="Trazado_31571" data-name="Trazado 31571" d="M11.011-15.522v2.836H7.326V0H4.136V-12.687H.43v-2.836Zm3.674,6.23a3.585,3.585,0,0,1,1.45-1.327,4.425,4.425,0,0,1,2.159-.553v2.761a4.183,4.183,0,0,0-2.643.666,2.908,2.908,0,0,0-.816,2.363V0H11.72V-11.043h2.965ZM29.1-3a10.331,10.331,0,0,0,.269,2.7V0h-2.89l-.247-1.2A3.591,3.591,0,0,1,24.686-.14a5.7,5.7,0,0,1-2,.354,5.254,5.254,0,0,1-1.031-.1,3.506,3.506,0,0,1-.929-.328,2.82,2.82,0,0,1-.768-.575,2.52,2.52,0,0,1-.516-.875,3.488,3.488,0,0,1-.193-1.2,3.321,3.321,0,0,1,.2-1.2,2.807,2.807,0,0,1,.537-.9,3.258,3.258,0,0,1,.87-.655,6.658,6.658,0,0,1,1.1-.473,13.092,13.092,0,0,1,1.311-.344l1.815-.408a2,2,0,0,0,.822-.349.7.7,0,0,0,.242-.553A1.14,1.14,0,0,0,25.6-8.8a2.533,2.533,0,0,0-1.316-.322,1.894,1.894,0,0,0-2.159,1.687L19.39-7.928a3.708,3.708,0,0,1,1.6-2.519,6.362,6.362,0,0,1,3.47-.811q4.641,0,4.641,3.985ZM23.654-1.88a2.488,2.488,0,0,0,1.912-.8,3.372,3.372,0,0,0,.741-2.369l-2.621.741a3.1,3.1,0,0,0-1.1.451.927.927,0,0,0-.381.795,1.029,1.029,0,0,0,.408.875A1.689,1.689,0,0,0,23.654-1.88Zm21.538-9.378a4.219,4.219,0,0,1,2.847.9,3.209,3.209,0,0,1,1.042,2.573V0H45.987V-6.907a1.845,1.845,0,0,0-.494-1.4,1.731,1.731,0,0,0-1.246-.473,2,2,0,0,0-1.5.6,2.732,2.732,0,0,0-.58,1.944V0H39.037V-6.875A1.894,1.894,0,0,0,38.543-8.3a1.762,1.762,0,0,0-1.278-.478,1.932,1.932,0,0,0-1.493.634,3.027,3.027,0,0,0-.58,2.073V0H32.108V-11.043h3.083v1.3a3.755,3.755,0,0,1,3.2-1.515,4.722,4.722,0,0,1,2.079.424A2.829,2.829,0,0,1,41.776-9.6,3.9,3.9,0,0,1,45.192-11.258ZM57.234.215a6.944,6.944,0,0,1-3.126-.677,5.058,5.058,0,0,1-2.143-1.987,5.922,5.922,0,0,1-.779-3.083,5.4,5.4,0,0,1,1.676-4.189,6.217,6.217,0,0,1,4.372-1.536,6.232,6.232,0,0,1,4.383,1.536,5.4,5.4,0,0,1,1.676,4.189,5.432,5.432,0,0,1-1.676,4.206A6.219,6.219,0,0,1,57.234.215ZM57.2-2.245a2.835,2.835,0,0,0,2.186-.9,3.378,3.378,0,0,0,.833-2.385,3.378,3.378,0,0,0-.833-2.385,2.835,2.835,0,0,0-2.186-.9,2.731,2.731,0,0,0-2.122.908,3.409,3.409,0,0,0-.822,2.379,3.409,3.409,0,0,0,.822,2.379A2.731,2.731,0,0,0,57.2-2.245ZM79.138-16.5h3.094V0H79.3l-.075-1.439a3.154,3.154,0,0,1-1.4,1.251,4.719,4.719,0,0,1-2.068.446,5.371,5.371,0,0,1-2.062-.4A5.12,5.12,0,0,1,72-1.262a5.117,5.117,0,0,1-1.144-1.821A6.717,6.717,0,0,1,70.437-5.5a6.278,6.278,0,0,1,.73-3.078,5.005,5.005,0,0,1,1.928-2,5.31,5.31,0,0,1,2.659-.677,4.837,4.837,0,0,1,2,.4,3.128,3.128,0,0,1,1.38,1.144ZM76.463-2.31a2.754,2.754,0,0,0,2.089-.881,3.225,3.225,0,0,0,.833-2.31,3.232,3.232,0,0,0-.838-2.315A2.751,2.751,0,0,0,76.463-8.7a2.783,2.783,0,0,0-2.1.87A3.231,3.231,0,0,0,73.53-5.5a3.216,3.216,0,0,0,.833,2.32A2.783,2.783,0,0,0,76.463-2.31ZM95.82-5.683l-.032.741H87.6a2.859,2.859,0,0,0,.881,2.02,2.817,2.817,0,0,0,1.944.7A2.715,2.715,0,0,0,91.883-2.6a2.344,2.344,0,0,0,.929-1.112l2.836.419A4.821,4.821,0,0,1,93.715-.709a5.749,5.749,0,0,1-3.266.924,5.978,5.978,0,0,1-4.3-1.52,5.546,5.546,0,0,1-1.6-4.216,5.579,5.579,0,0,1,1.6-4.216,5.8,5.8,0,0,1,4.2-1.542,5.544,5.544,0,0,1,3.964,1.407A5.52,5.52,0,0,1,95.82-5.683ZM90.374-9.088a2.445,2.445,0,0,0-2.686,2.127h5.07A2.326,2.326,0,0,0,92-8.54,2.417,2.417,0,0,0,90.374-9.088ZM98.173,0V-16.5H101.3V0ZM113.18-9.292a3.585,3.585,0,0,1,1.45-1.327,4.425,4.425,0,0,1,2.159-.553v2.761a4.183,4.183,0,0,0-2.643.666,2.908,2.908,0,0,0-.816,2.363V0h-3.115V-11.043h2.965Zm7-3.405a1.737,1.737,0,0,1-1.268-.521,1.71,1.71,0,0,1-.526-1.262,1.69,1.69,0,0,1,.532-1.251,1.742,1.742,0,0,1,1.262-.521,1.712,1.712,0,0,1,1.246.521,1.7,1.7,0,0,1,.526,1.251,1.71,1.71,0,0,1-.526,1.262A1.712,1.712,0,0,1,120.184-12.7ZM118.6,0V-11.043h3.115V0Zm11.462.215a6.944,6.944,0,0,1-3.126-.677A5.058,5.058,0,0,1,124.8-2.449a5.922,5.922,0,0,1-.779-3.083,5.4,5.4,0,0,1,1.676-4.189,6.217,6.217,0,0,1,4.372-1.536,6.232,6.232,0,0,1,4.383,1.536,5.4,5.4,0,0,1,1.676,4.189,5.432,5.432,0,0,1-1.676,4.206A6.219,6.219,0,0,1,130.066.215Zm-.032-2.46a2.835,2.835,0,0,0,2.186-.9,3.378,3.378,0,0,0,.833-2.385,3.378,3.378,0,0,0-.833-2.385,2.835,2.835,0,0,0-2.186-.9,2.731,2.731,0,0,0-2.122.908,3.409,3.409,0,0,0-.822,2.379,3.409,3.409,0,0,0,.822,2.379A2.731,2.731,0,0,0,130.034-2.245Z" transform="translate(848 16038)" fill="#00223d"/>
    <path id="Trazado_31580" data-name="Trazado 31580" d="M5.231.2A5.006,5.006,0,0,1,2.385-.559,3.155,3.155,0,0,1,1-2.729L2.621-3.19a2.262,2.262,0,0,0,.865,1.466A2.805,2.805,0,0,0,5.221-1.2a3.462,3.462,0,0,0,1.015-.14,1.627,1.627,0,0,0,.779-.521,1.4,1.4,0,0,0,.312-.961A1.4,1.4,0,0,0,7.24-3.26a1.865,1.865,0,0,0-.172-.349,1.064,1.064,0,0,0-.3-.29A3.966,3.966,0,0,0,6.4-4.125a3.749,3.749,0,0,0-.478-.2q-.317-.113-.51-.172t-.591-.172q-.4-.113-.612-.177a11.454,11.454,0,0,1-1.1-.387,4.805,4.805,0,0,1-.892-.51,2.053,2.053,0,0,1-.693-.833A2.817,2.817,0,0,1,1.3-7.756a2.731,2.731,0,0,1,.516-1.687,2.9,2.9,0,0,1,1.337-.994,5.346,5.346,0,0,1,1.875-.306,4.588,4.588,0,0,1,2.573.688A2.934,2.934,0,0,1,8.884-7.992l-1.525.387a2.022,2.022,0,0,0-.806-1.337,2.565,2.565,0,0,0-1.515-.446,2.614,2.614,0,0,0-1.418.371,1.246,1.246,0,0,0-.591,1.133,1.128,1.128,0,0,0,.156.585,1.859,1.859,0,0,0,.317.414,1.948,1.948,0,0,0,.58.317q.419.167.623.226t.773.2q.107.032.161.043.623.161,1.015.285a6.24,6.24,0,0,1,.913.387,3.036,3.036,0,0,1,.822.575,2.662,2.662,0,0,1,.516.816A2.882,2.882,0,0,1,9.12-2.9,3.075,3.075,0,0,1,8.8-1.477,2.479,2.479,0,0,1,7.938-.5a4.182,4.182,0,0,1-1.23.532A5.86,5.86,0,0,1,5.231.2ZM21.28-5.489l-.021.5h-8.25a3.731,3.731,0,0,0,1.01,2.7,3.315,3.315,0,0,0,2.406.94,3.166,3.166,0,0,0,1.751-.5,3.276,3.276,0,0,0,1.2-1.4l1.676.354a4.763,4.763,0,0,1-1.8,2.267,4.924,4.924,0,0,1-2.8.827,5.1,5.1,0,0,1-3.8-1.472,5.475,5.475,0,0,1-1.45-4.018,5.448,5.448,0,0,1,1.456-4.007,5.038,5.038,0,0,1,3.744-1.472,4.767,4.767,0,0,1,3.55,1.354A5.348,5.348,0,0,1,21.28-5.489ZM16.393-9.335a3.293,3.293,0,0,0-2.2.747,3.42,3.42,0,0,0-1.112,2.175h6.327a3.138,3.138,0,0,0-.924-2.175A2.983,2.983,0,0,0,16.393-9.335ZM28.574.193a5.086,5.086,0,0,1-3.781-1.515A5.4,5.4,0,0,1,23.3-5.285a5.414,5.414,0,0,1,1.488-3.964,5.081,5.081,0,0,1,3.787-1.515,5.123,5.123,0,0,1,3.056.924,4.662,4.662,0,0,1,1.778,2.567l-1.74.279a3.214,3.214,0,0,0-1.192-1.644,3.247,3.247,0,0,0-1.912-.58A3.122,3.122,0,0,0,26.12-8.132a4.133,4.133,0,0,0-.961,2.847,4.113,4.113,0,0,0,.961,2.841,3.129,3.129,0,0,0,2.444,1.08,3.247,3.247,0,0,0,1.912-.58,3.214,3.214,0,0,0,1.192-1.644l1.74.29A4.668,4.668,0,0,1,31.62-.736,5.115,5.115,0,0,1,28.574.193Zm11.956,0a5.086,5.086,0,0,1-3.781-1.515,5.4,5.4,0,0,1-1.493-3.964,5.414,5.414,0,0,1,1.488-3.964,5.081,5.081,0,0,1,3.787-1.515,5.123,5.123,0,0,1,3.056.924,4.662,4.662,0,0,1,1.778,2.567l-1.74.279a3.214,3.214,0,0,0-1.192-1.644,3.247,3.247,0,0,0-1.912-.58,3.122,3.122,0,0,0-2.444,1.085,4.133,4.133,0,0,0-.961,2.847,4.113,4.113,0,0,0,.961,2.841,3.129,3.129,0,0,0,2.444,1.08,3.247,3.247,0,0,0,1.912-.58,3.214,3.214,0,0,0,1.192-1.644l1.74.29A4.668,4.668,0,0,1,43.576-.736,5.115,5.115,0,0,1,40.53.193Zm8.519-13.234a1.209,1.209,0,0,1-.886-.371,1.209,1.209,0,0,1-.371-.886,1.192,1.192,0,0,1,.371-.881,1.218,1.218,0,0,1,.886-.365,1.206,1.206,0,0,1,.875.365,1.192,1.192,0,0,1,.371.881,1.209,1.209,0,0,1-.371.886A1.2,1.2,0,0,1,49.049-13.041ZM48.1,0V-10.56h1.869V0Zm9.389-12.375,2.7-3.5.988.72-2.406,2.782ZM58.2.2a5.566,5.566,0,0,1-2.707-.655,4.771,4.771,0,0,1-1.907-1.917,5.89,5.89,0,0,1-.7-2.917,5.38,5.38,0,0,1,1.5-3.98,5.173,5.173,0,0,1,3.819-1.5,5.168,5.168,0,0,1,3.824,1.5,5.39,5.39,0,0,1,1.493,3.98,5.394,5.394,0,0,1-1.5,3.991A5.173,5.173,0,0,1,58.2.2ZM58.19-1.343a3.243,3.243,0,0,0,2.5-1.085,4.065,4.065,0,0,0,.994-2.857,4.05,4.05,0,0,0-.994-2.847,3.243,3.243,0,0,0-2.5-1.085,3.2,3.2,0,0,0-2.476,1.085,4.077,4.077,0,0,0-.983,2.847,4.092,4.092,0,0,0,.983,2.857A3.2,3.2,0,0,0,58.19-1.343Zm13.224-9.421a3.673,3.673,0,0,1,2.659.956,3.566,3.566,0,0,1,.994,2.7V0H73.208V-6.692a2.5,2.5,0,0,0-.645-1.891A2.3,2.3,0,0,0,70.909-9.2a2.555,2.555,0,0,0-1.88.725,2.942,2.942,0,0,0-.741,2.154V0H66.43V-10.56h1.858v1.354A3.526,3.526,0,0,1,71.414-10.764ZM92.168-16.5h1.858V0H92.232l-.043-2.052a3.885,3.885,0,0,1-1.5,1.665,4.191,4.191,0,0,1-2.234.612,4.746,4.746,0,0,1-1.912-.392,4.792,4.792,0,0,1-1.574-1.1A5.085,5.085,0,0,1,83.9-3.008a6.386,6.386,0,0,1-.392-2.267,5.553,5.553,0,0,1,1.434-3.964,4.629,4.629,0,0,1,3.507-1.525,4.209,4.209,0,0,1,2.208.6,3.907,3.907,0,0,1,1.509,1.617ZM88.838-1.386A3.162,3.162,0,0,0,91.292-2.5a4.013,4.013,0,0,0,.994-2.777,4.005,4.005,0,0,0-1-2.771,3.16,3.16,0,0,0-2.449-1.117,3.232,3.232,0,0,0-2.471,1.08,3.972,3.972,0,0,0-1,2.809,3.972,3.972,0,0,0,1,2.809A3.232,3.232,0,0,0,88.838-1.386Zm18.208-4.1-.021.5h-8.25a3.731,3.731,0,0,0,1.01,2.7,3.315,3.315,0,0,0,2.406.94,3.166,3.166,0,0,0,1.751-.5,3.276,3.276,0,0,0,1.2-1.4l1.676.354a4.763,4.763,0,0,1-1.8,2.267,4.924,4.924,0,0,1-2.8.827,5.1,5.1,0,0,1-3.8-1.472,5.475,5.475,0,0,1-1.45-4.018,5.448,5.448,0,0,1,1.456-4.007,5.038,5.038,0,0,1,3.744-1.472,4.767,4.767,0,0,1,3.55,1.354A5.348,5.348,0,0,1,107.046-5.489Zm-4.888-3.846a3.293,3.293,0,0,0-2.2.747A3.42,3.42,0,0,0,98.85-6.413h6.327a3.138,3.138,0,0,0-.924-2.175A2.983,2.983,0,0,0,102.158-9.335Zm17.9,9.528a5.086,5.086,0,0,1-3.781-1.515,5.4,5.4,0,0,1-1.493-3.964,5.414,5.414,0,0,1,1.488-3.964,5.081,5.081,0,0,1,3.787-1.515,5.123,5.123,0,0,1,3.056.924,4.662,4.662,0,0,1,1.778,2.567l-1.74.279a3.214,3.214,0,0,0-1.192-1.644,3.247,3.247,0,0,0-1.912-.58A3.122,3.122,0,0,0,117.6-8.132a4.133,4.133,0,0,0-.961,2.847,4.113,4.113,0,0,0,.961,2.841,3.129,3.129,0,0,0,2.444,1.08,3.247,3.247,0,0,0,1.912-.58,3.214,3.214,0,0,0,1.192-1.644l1.74.29A4.668,4.668,0,0,1,123.1-.736,5.115,5.115,0,0,1,120.055.193ZM132.075.2a5.566,5.566,0,0,1-2.707-.655,4.771,4.771,0,0,1-1.907-1.917,5.89,5.89,0,0,1-.7-2.917,5.38,5.38,0,0,1,1.5-3.98,5.173,5.173,0,0,1,3.819-1.5,5.168,5.168,0,0,1,3.824,1.5,5.39,5.39,0,0,1,1.493,3.98,5.394,5.394,0,0,1-1.5,3.991A5.173,5.173,0,0,1,132.075.2Zm-.011-1.547a3.243,3.243,0,0,0,2.5-1.085,4.065,4.065,0,0,0,.994-2.857,4.05,4.05,0,0,0-.994-2.847,3.243,3.243,0,0,0-2.5-1.085,3.2,3.2,0,0,0-2.476,1.085,4.077,4.077,0,0,0-.983,2.847,4.092,4.092,0,0,0,.983,2.857A3.2,3.2,0,0,0,132.064-1.343Zm13.224-9.421a3.673,3.673,0,0,1,2.659.956,3.566,3.566,0,0,1,.994,2.7V0h-1.858V-6.692a2.5,2.5,0,0,0-.645-1.891,2.3,2.3,0,0,0-1.654-.612,2.555,2.555,0,0,0-1.88.725,2.942,2.942,0,0,0-.741,2.154V0H140.3V-10.56h1.858v1.354A3.526,3.526,0,0,1,145.288-10.764ZM155.9,0a2.776,2.776,0,0,1-2.062-.757,2.865,2.865,0,0,1-.752-2.111V-9.077h-2.159V-10.56h.795a1.526,1.526,0,0,0,1.166-.371,1.824,1.824,0,0,0,.338-1.241v-1.912h1.729v3.523h2.428v1.482h-2.428v6.016a1.6,1.6,0,0,0,.4,1.166,1.411,1.411,0,0,0,1.058.414h.967V0Zm5.983-8.7a3.192,3.192,0,0,1,1.311-1.418,3.947,3.947,0,0,1,2.03-.559v1.751a3.479,3.479,0,0,0-2.455.784,3.275,3.275,0,0,0-.843,2.5V0h-1.858V-10.56h1.815ZM171.725.2a5.566,5.566,0,0,1-2.707-.655,4.771,4.771,0,0,1-1.907-1.917,5.89,5.89,0,0,1-.7-2.917,5.38,5.38,0,0,1,1.5-3.98,5.173,5.173,0,0,1,3.819-1.5,5.168,5.168,0,0,1,3.824,1.5,5.39,5.39,0,0,1,1.493,3.98,5.394,5.394,0,0,1-1.5,3.991A5.173,5.173,0,0,1,171.725.2Zm-.011-1.547a3.243,3.243,0,0,0,2.5-1.085,4.065,4.065,0,0,0,.994-2.857,4.05,4.05,0,0,0-.994-2.847,3.243,3.243,0,0,0-2.5-1.085,3.2,3.2,0,0,0-2.476,1.085,4.077,4.077,0,0,0-.983,2.847,4.092,4.092,0,0,0,.983,2.857A3.2,3.2,0,0,0,171.714-1.343ZM179.953,0V-16.5h1.88V0ZM4.329,30.2a3.593,3.593,0,0,1-2.315-.725,2.6,2.6,0,0,1-.908-2.165,3.076,3.076,0,0,1,.29-1.38,2.433,2.433,0,0,1,.859-.961,5.155,5.155,0,0,1,1.241-.6A11.469,11.469,0,0,1,5.1,24l1.708-.279q.935-.172.935-.978a1.845,1.845,0,0,0-.661-1.574,2.692,2.692,0,0,0-1.67-.5,2.742,2.742,0,0,0-1.654.483,2.023,2.023,0,0,0-.784,1.482L1.3,22.276a3.225,3.225,0,0,1,1.321-2.261A4.937,4.937,0,0,1,5.5,19.258a5.839,5.839,0,0,1,1.531.188,4.16,4.16,0,0,1,1.278.591,2.65,2.65,0,0,1,.913,1.139A4.237,4.237,0,0,1,9.55,22.91v4.361a1.784,1.784,0,0,0,.242,1.1,1.043,1.043,0,0,0,.833.285H10.8V30H9.872a1.762,1.762,0,0,1-2-1.429H7.788A4.035,4.035,0,0,1,4.329,30.2Zm.43-1.5A2.818,2.818,0,0,0,7.025,27.68a4.2,4.2,0,0,0,.859-2.793l-2.793.537a3.76,3.76,0,0,0-1.638.585,1.362,1.362,0,0,0-.532,1.155,1.346,1.346,0,0,0,.51,1.16A2.181,2.181,0,0,0,4.759,28.7Zm19.454-9.464a3.4,3.4,0,0,1,2.46.9,3.327,3.327,0,0,1,.935,2.519V30H25.749V23.136a2.386,2.386,0,0,0-.58-1.74A1.975,1.975,0,0,0,23.7,20.8a2.085,2.085,0,0,0-1.611.666,2.864,2.864,0,0,0-.612,2V30H19.583V23.211a2.5,2.5,0,0,0-.585-1.8,1.991,1.991,0,0,0-1.5-.607,2.066,2.066,0,0,0-1.606.682,2.963,2.963,0,0,0-.618,2.046V30H13.417V19.44h1.858V20.8a3.208,3.208,0,0,1,1.208-1.16,3.446,3.446,0,0,1,1.681-.408,3.587,3.587,0,0,1,1.8.446,2.775,2.775,0,0,1,1.171,1.284,3.286,3.286,0,0,1,1.268-1.284A3.626,3.626,0,0,1,24.213,19.236Zm12.59,0a4.6,4.6,0,0,1,3.491,1.525,5.565,5.565,0,0,1,1.429,3.964A5.6,5.6,0,0,1,40.3,28.7a4.591,4.591,0,0,1-3.5,1.525,4.238,4.238,0,0,1-2.25-.612,3.875,3.875,0,0,1-1.509-1.665L33,30H31.206V13.5h1.848l.011,7.96a3.892,3.892,0,0,1,1.509-1.627A4.248,4.248,0,0,1,36.8,19.236Zm-.408,9.378a3.232,3.232,0,0,0,2.471-1.08,3.972,3.972,0,0,0,1-2.809,3.972,3.972,0,0,0-1-2.809,3.232,3.232,0,0,0-2.471-1.08,3.16,3.16,0,0,0-2.449,1.117,4.005,4.005,0,0,0-1,2.771A4.013,4.013,0,0,0,33.94,27.5,3.162,3.162,0,0,0,36.395,28.614Zm9.2-11.655A1.265,1.265,0,0,1,44.333,15.7a1.192,1.192,0,0,1,.371-.881,1.218,1.218,0,0,1,.886-.365,1.206,1.206,0,0,1,.875.365,1.192,1.192,0,0,1,.371.881,1.209,1.209,0,0,1-.371.886A1.2,1.2,0,0,1,45.59,16.959ZM44.645,30V19.44h1.869V30Zm14.889-5.489-.021.5h-8.25a3.731,3.731,0,0,0,1.01,2.7,3.315,3.315,0,0,0,2.406.94,3.166,3.166,0,0,0,1.751-.5,3.276,3.276,0,0,0,1.2-1.4l1.676.354a4.763,4.763,0,0,1-1.8,2.267,4.924,4.924,0,0,1-2.8.827,5.1,5.1,0,0,1-3.8-1.472,5.475,5.475,0,0,1-1.45-4.018A5.448,5.448,0,0,1,50.9,20.708a5.038,5.038,0,0,1,3.744-1.472A4.767,4.767,0,0,1,58.2,20.59,5.348,5.348,0,0,1,59.533,24.511Zm-4.888-3.846a3.293,3.293,0,0,0-2.2.747,3.42,3.42,0,0,0-1.112,2.175h6.327a3.138,3.138,0,0,0-.924-2.175A2.983,2.983,0,0,0,54.646,20.665Zm12.783-1.429a3.673,3.673,0,0,1,2.659.956,3.566,3.566,0,0,1,.994,2.7V30H69.223V23.308a2.5,2.5,0,0,0-.645-1.891,2.3,2.3,0,0,0-1.654-.612,2.555,2.555,0,0,0-1.88.725,2.942,2.942,0,0,0-.741,2.154V30H62.444V19.44H64.3v1.354A3.526,3.526,0,0,1,67.429,19.236ZM78.042,30a2.776,2.776,0,0,1-2.062-.757,2.865,2.865,0,0,1-.752-2.111V20.923H73.068V19.44h.795a1.526,1.526,0,0,0,1.166-.371,1.824,1.824,0,0,0,.338-1.241V15.917H77.1V19.44h2.428v1.482H77.1v6.016a1.6,1.6,0,0,0,.4,1.166,1.411,1.411,0,0,0,1.058.414h.967V30Zm6.478.2a3.593,3.593,0,0,1-2.315-.725,2.6,2.6,0,0,1-.908-2.165,3.076,3.076,0,0,1,.29-1.38,2.434,2.434,0,0,1,.859-.961,5.155,5.155,0,0,1,1.241-.6A11.469,11.469,0,0,1,85.293,24L87,23.716q.935-.172.935-.978a1.845,1.845,0,0,0-.661-1.574,2.692,2.692,0,0,0-1.67-.5,2.742,2.742,0,0,0-1.654.483,2.023,2.023,0,0,0-.784,1.482l-1.676-.354a3.225,3.225,0,0,1,1.321-2.261,4.937,4.937,0,0,1,2.879-.757,5.839,5.839,0,0,1,1.531.188,4.16,4.16,0,0,1,1.278.591,2.65,2.65,0,0,1,.913,1.139,4.237,4.237,0,0,1,.328,1.735v4.361a1.784,1.784,0,0,0,.242,1.1,1.043,1.043,0,0,0,.833.285h.172V30h-.924a1.762,1.762,0,0,1-2-1.429h-.086A4.035,4.035,0,0,1,84.52,30.2Zm.43-1.5a2.818,2.818,0,0,0,2.267-1.021,4.2,4.2,0,0,0,.859-2.793l-2.793.537a3.76,3.76,0,0,0-1.638.585,1.362,1.362,0,0,0-.532,1.155,1.346,1.346,0,0,0,.51,1.16A2.181,2.181,0,0,0,84.949,28.7ZM93.607,30V13.5h1.88V30Z" transform="translate(1182 15997)" fill="#00223d"/>
    <path id="Trazado_31572" data-name="Trazado 31572" d="M11.161-12.687H5.253v3.523h5.1v2.8h-5.1V0H2.009V-15.522h9.152ZM13.5,0V-16.5h3.126V0ZM27.146-11.043h3.094V0H27.307l-.075-1.332A4.217,4.217,0,0,1,23.719.215a4.3,4.3,0,0,1-3.051-.994A3.684,3.684,0,0,1,19.6-3.609v-7.434h3.1v6.768a1.909,1.909,0,0,0,.553,1.515,2.1,2.1,0,0,0,1.434.483,2.49,2.49,0,0,0,1.756-.628,2.7,2.7,0,0,0,.693-2.046ZM35.03-12.7a1.737,1.737,0,0,1-1.268-.521,1.71,1.71,0,0,1-.526-1.262,1.69,1.69,0,0,1,.532-1.251,1.742,1.742,0,0,1,1.262-.521,1.712,1.712,0,0,1,1.246.521A1.7,1.7,0,0,1,36.8-14.48a1.71,1.71,0,0,1-.526,1.262A1.712,1.712,0,0,1,35.03-12.7ZM31.185,5.178V2.761a3.559,3.559,0,0,0,1.16-.156,1.3,1.3,0,0,0,.688-.553A2.45,2.45,0,0,0,33.36,1.1,10.719,10.719,0,0,0,33.44-.376V-11.043h3.137V-.376A6,6,0,0,1,35.32,3.846,5.484,5.484,0,0,1,31.185,5.178ZM44.935.215a6.944,6.944,0,0,1-3.126-.677,5.058,5.058,0,0,1-2.143-1.987,5.922,5.922,0,0,1-.779-3.083,5.4,5.4,0,0,1,1.676-4.189,6.217,6.217,0,0,1,4.372-1.536,6.232,6.232,0,0,1,4.383,1.536,5.4,5.4,0,0,1,1.676,4.189,5.432,5.432,0,0,1-1.676,4.206A6.219,6.219,0,0,1,44.935.215ZM44.9-2.245a2.835,2.835,0,0,0,2.186-.9,3.378,3.378,0,0,0,.833-2.385,3.378,3.378,0,0,0-.833-2.385,2.835,2.835,0,0,0-2.186-.9,2.731,2.731,0,0,0-2.122.908,3.409,3.409,0,0,0-.822,2.379,3.409,3.409,0,0,0,.822,2.379A2.731,2.731,0,0,0,44.9-2.245Z" transform="translate(894 16131)" fill="#00223d"/>
    <path id="Trazado_31568" data-name="Trazado 31568" d="M5.231.2A5.006,5.006,0,0,1,2.385-.559,3.155,3.155,0,0,1,1-2.729L2.621-3.19a2.262,2.262,0,0,0,.865,1.466A2.805,2.805,0,0,0,5.221-1.2a3.462,3.462,0,0,0,1.015-.14,1.627,1.627,0,0,0,.779-.521,1.4,1.4,0,0,0,.312-.961A1.4,1.4,0,0,0,7.24-3.26a1.865,1.865,0,0,0-.172-.349,1.064,1.064,0,0,0-.3-.29A3.966,3.966,0,0,0,6.4-4.125a3.749,3.749,0,0,0-.478-.2q-.317-.113-.51-.172t-.591-.172q-.4-.113-.612-.177a11.454,11.454,0,0,1-1.1-.387,4.805,4.805,0,0,1-.892-.51,2.053,2.053,0,0,1-.693-.833A2.817,2.817,0,0,1,1.3-7.756a2.731,2.731,0,0,1,.516-1.687,2.9,2.9,0,0,1,1.337-.994,5.346,5.346,0,0,1,1.875-.306,4.588,4.588,0,0,1,2.573.688A2.934,2.934,0,0,1,8.884-7.992l-1.525.387a2.022,2.022,0,0,0-.806-1.337,2.565,2.565,0,0,0-1.515-.446,2.614,2.614,0,0,0-1.418.371,1.246,1.246,0,0,0-.591,1.133,1.128,1.128,0,0,0,.156.585,1.859,1.859,0,0,0,.317.414,1.948,1.948,0,0,0,.58.317q.419.167.623.226t.773.2q.107.032.161.043.623.161,1.015.285a6.24,6.24,0,0,1,.913.387,3.036,3.036,0,0,1,.822.575,2.662,2.662,0,0,1,.516.816A2.882,2.882,0,0,1,9.12-2.9,3.075,3.075,0,0,1,8.8-1.477,2.479,2.479,0,0,1,7.938-.5a4.182,4.182,0,0,1-1.23.532A5.86,5.86,0,0,1,5.231.2ZM21.28-5.489l-.021.5h-8.25a3.731,3.731,0,0,0,1.01,2.7,3.315,3.315,0,0,0,2.406.94,3.166,3.166,0,0,0,1.751-.5,3.276,3.276,0,0,0,1.2-1.4l1.676.354a4.763,4.763,0,0,1-1.8,2.267,4.924,4.924,0,0,1-2.8.827,5.1,5.1,0,0,1-3.8-1.472,5.475,5.475,0,0,1-1.45-4.018,5.448,5.448,0,0,1,1.456-4.007,5.038,5.038,0,0,1,3.744-1.472,4.767,4.767,0,0,1,3.55,1.354A5.348,5.348,0,0,1,21.28-5.489ZM16.393-9.335a3.293,3.293,0,0,0-2.2.747,3.42,3.42,0,0,0-1.112,2.175h6.327a3.138,3.138,0,0,0-.924-2.175A2.983,2.983,0,0,0,16.393-9.335ZM28.574.193a5.086,5.086,0,0,1-3.781-1.515A5.4,5.4,0,0,1,23.3-5.285a5.414,5.414,0,0,1,1.488-3.964,5.081,5.081,0,0,1,3.787-1.515,5.123,5.123,0,0,1,3.056.924,4.662,4.662,0,0,1,1.778,2.567l-1.74.279a3.214,3.214,0,0,0-1.192-1.644,3.247,3.247,0,0,0-1.912-.58A3.122,3.122,0,0,0,26.12-8.132a4.133,4.133,0,0,0-.961,2.847,4.113,4.113,0,0,0,.961,2.841,3.129,3.129,0,0,0,2.444,1.08,3.247,3.247,0,0,0,1.912-.58,3.214,3.214,0,0,0,1.192-1.644l1.74.29A4.668,4.668,0,0,1,31.62-.736,5.115,5.115,0,0,1,28.574.193Zm11.956,0a5.086,5.086,0,0,1-3.781-1.515,5.4,5.4,0,0,1-1.493-3.964,5.414,5.414,0,0,1,1.488-3.964,5.081,5.081,0,0,1,3.787-1.515,5.123,5.123,0,0,1,3.056.924,4.662,4.662,0,0,1,1.778,2.567l-1.74.279a3.214,3.214,0,0,0-1.192-1.644,3.247,3.247,0,0,0-1.912-.58,3.122,3.122,0,0,0-2.444,1.085,4.133,4.133,0,0,0-.961,2.847,4.113,4.113,0,0,0,.961,2.841,3.129,3.129,0,0,0,2.444,1.08,3.247,3.247,0,0,0,1.912-.58,3.214,3.214,0,0,0,1.192-1.644l1.74.29A4.668,4.668,0,0,1,43.576-.736,5.115,5.115,0,0,1,40.53.193Zm8.519-13.234a1.209,1.209,0,0,1-.886-.371,1.209,1.209,0,0,1-.371-.886,1.192,1.192,0,0,1,.371-.881,1.218,1.218,0,0,1,.886-.365,1.206,1.206,0,0,1,.875.365,1.192,1.192,0,0,1,.371.881,1.209,1.209,0,0,1-.371.886A1.2,1.2,0,0,1,49.049-13.041ZM48.1,0V-10.56h1.869V0Zm9.389-12.375,2.7-3.5.988.72-2.406,2.782ZM58.2.2a5.566,5.566,0,0,1-2.707-.655,4.771,4.771,0,0,1-1.907-1.917,5.89,5.89,0,0,1-.7-2.917,5.38,5.38,0,0,1,1.5-3.98,5.173,5.173,0,0,1,3.819-1.5,5.168,5.168,0,0,1,3.824,1.5,5.39,5.39,0,0,1,1.493,3.98,5.394,5.394,0,0,1-1.5,3.991A5.173,5.173,0,0,1,58.2.2ZM58.19-1.343a3.243,3.243,0,0,0,2.5-1.085,4.065,4.065,0,0,0,.994-2.857,4.05,4.05,0,0,0-.994-2.847,3.243,3.243,0,0,0-2.5-1.085,3.2,3.2,0,0,0-2.476,1.085,4.077,4.077,0,0,0-.983,2.847,4.092,4.092,0,0,0,.983,2.857A3.2,3.2,0,0,0,58.19-1.343Zm13.224-9.421a3.673,3.673,0,0,1,2.659.956,3.566,3.566,0,0,1,.994,2.7V0H73.208V-6.692a2.5,2.5,0,0,0-.645-1.891A2.3,2.3,0,0,0,70.909-9.2a2.555,2.555,0,0,0-1.88.725,2.942,2.942,0,0,0-.741,2.154V0H66.43V-10.56h1.858v1.354A3.526,3.526,0,0,1,71.414-10.764ZM92.168-16.5h1.858V0H92.232l-.043-2.052a3.885,3.885,0,0,1-1.5,1.665,4.191,4.191,0,0,1-2.234.612,4.746,4.746,0,0,1-1.912-.392,4.792,4.792,0,0,1-1.574-1.1A5.085,5.085,0,0,1,83.9-3.008a6.386,6.386,0,0,1-.392-2.267,5.553,5.553,0,0,1,1.434-3.964,4.629,4.629,0,0,1,3.507-1.525,4.209,4.209,0,0,1,2.208.6,3.907,3.907,0,0,1,1.509,1.617ZM88.838-1.386A3.162,3.162,0,0,0,91.292-2.5a4.013,4.013,0,0,0,.994-2.777,4.005,4.005,0,0,0-1-2.771,3.16,3.16,0,0,0-2.449-1.117,3.232,3.232,0,0,0-2.471,1.08,3.972,3.972,0,0,0-1,2.809,3.972,3.972,0,0,0,1,2.809A3.232,3.232,0,0,0,88.838-1.386Zm18.208-4.1-.021.5h-8.25a3.731,3.731,0,0,0,1.01,2.7,3.315,3.315,0,0,0,2.406.94,3.166,3.166,0,0,0,1.751-.5,3.276,3.276,0,0,0,1.2-1.4l1.676.354a4.763,4.763,0,0,1-1.8,2.267,4.924,4.924,0,0,1-2.8.827,5.1,5.1,0,0,1-3.8-1.472,5.475,5.475,0,0,1-1.45-4.018,5.448,5.448,0,0,1,1.456-4.007,5.038,5.038,0,0,1,3.744-1.472,4.767,4.767,0,0,1,3.55,1.354A5.348,5.348,0,0,1,107.046-5.489Zm-4.888-3.846a3.293,3.293,0,0,0-2.2.747A3.42,3.42,0,0,0,98.85-6.413h6.327a3.138,3.138,0,0,0-.924-2.175A2.983,2.983,0,0,0,102.158-9.335ZM6.273,30.193a5.086,5.086,0,0,1-3.781-1.515A5.4,5.4,0,0,1,1,24.715a5.414,5.414,0,0,1,1.488-3.964,5.081,5.081,0,0,1,3.787-1.515,5.123,5.123,0,0,1,3.056.924,4.662,4.662,0,0,1,1.778,2.567l-1.74.279a3.214,3.214,0,0,0-1.192-1.644,3.247,3.247,0,0,0-1.912-.58,3.122,3.122,0,0,0-2.444,1.085,4.133,4.133,0,0,0-.961,2.847,4.113,4.113,0,0,0,.961,2.841,3.129,3.129,0,0,0,2.444,1.08,3.247,3.247,0,0,0,1.912-.58,3.214,3.214,0,0,0,1.192-1.644l1.74.29a4.668,4.668,0,0,1-1.789,2.562A5.115,5.115,0,0,1,6.273,30.193Zm12.021.011a5.566,5.566,0,0,1-2.707-.655,4.771,4.771,0,0,1-1.907-1.917,5.89,5.89,0,0,1-.7-2.917,5.38,5.38,0,0,1,1.5-3.98,5.173,5.173,0,0,1,3.819-1.5,5.168,5.168,0,0,1,3.824,1.5,5.39,5.39,0,0,1,1.493,3.98,5.394,5.394,0,0,1-1.5,3.991A5.173,5.173,0,0,1,18.294,30.2Zm-.011-1.547a3.243,3.243,0,0,0,2.5-1.085,4.065,4.065,0,0,0,.994-2.857,4.05,4.05,0,0,0-.994-2.847,3.243,3.243,0,0,0-2.5-1.085,3.2,3.2,0,0,0-2.476,1.085,4.077,4.077,0,0,0-.983,2.847,4.092,4.092,0,0,0,.983,2.857A3.2,3.2,0,0,0,18.283,28.657Zm13.224-9.421a3.673,3.673,0,0,1,2.659.956,3.566,3.566,0,0,1,.994,2.7V30H33.3V23.308a2.5,2.5,0,0,0-.645-1.891A2.3,2.3,0,0,0,31,20.8a2.555,2.555,0,0,0-1.88.725,2.942,2.942,0,0,0-.741,2.154V30H26.522V19.44h1.858v1.354A3.526,3.526,0,0,1,31.507,19.236ZM42.12,30a2.776,2.776,0,0,1-2.062-.757,2.865,2.865,0,0,1-.752-2.111V20.923H37.146V19.44h.795a1.526,1.526,0,0,0,1.166-.371,1.824,1.824,0,0,0,.338-1.241V15.917h1.729V19.44H43.6v1.482H41.175v6.016a1.6,1.6,0,0,0,.4,1.166,1.411,1.411,0,0,0,1.058.414H43.6V30ZM48.1,21.3a3.192,3.192,0,0,1,1.311-1.418,3.947,3.947,0,0,1,2.03-.559v1.751a3.479,3.479,0,0,0-2.455.784,3.276,3.276,0,0,0-.843,2.5V30H46.288V19.44H48.1Zm9.84,8.905a5.566,5.566,0,0,1-2.707-.655,4.771,4.771,0,0,1-1.907-1.917,5.89,5.89,0,0,1-.7-2.917,5.38,5.38,0,0,1,1.5-3.98,5.622,5.622,0,0,1,7.643,0,5.39,5.39,0,0,1,1.493,3.98,5.394,5.394,0,0,1-1.5,3.991A5.173,5.173,0,0,1,57.943,30.2Zm-.011-1.547a3.243,3.243,0,0,0,2.5-1.085,4.065,4.065,0,0,0,.994-2.857,4.05,4.05,0,0,0-.994-2.847,3.243,3.243,0,0,0-2.5-1.085,3.2,3.2,0,0,0-2.476,1.085,4.077,4.077,0,0,0-.983,2.847,4.092,4.092,0,0,0,.983,2.857A3.2,3.2,0,0,0,57.933,28.657ZM66.172,30V13.5h1.88V30ZM78.1,17.228A6.073,6.073,0,0,1,78.208,16a3.989,3.989,0,0,1,.3-.929,2.208,2.208,0,0,1,.5-.671,2.939,2.939,0,0,1,.65-.457,3.226,3.226,0,0,1,.8-.269,7.512,7.512,0,0,1,.908-.134q.446-.038,1.026-.038v1.558h-.4q-.124,0-.387.021a2.479,2.479,0,0,0-.387.054q-.124.032-.333.107a.85.85,0,0,0-.317.183q-.107.107-.247.274a1.122,1.122,0,0,0-.209.387,3.7,3.7,0,0,0-.118.516,4.112,4.112,0,0,0-.048.661V19.44h2.449v1.482H79.943V30H78.1V20.923H76.055V19.44H78.1Zm7.391-.269A1.265,1.265,0,0,1,84.229,15.7a1.192,1.192,0,0,1,.371-.881,1.218,1.218,0,0,1,.886-.365,1.206,1.206,0,0,1,.875.365,1.192,1.192,0,0,1,.371.881,1.209,1.209,0,0,1-.371.886A1.2,1.2,0,0,1,85.486,16.959ZM84.541,30V19.44H86.41V30ZM95.176,19.236a3.673,3.673,0,0,1,2.659.956,3.566,3.566,0,0,1,.994,2.7V30H96.97V23.308a2.5,2.5,0,0,0-.645-1.891,2.3,2.3,0,0,0-1.654-.612,2.555,2.555,0,0,0-1.88.725,2.942,2.942,0,0,0-.741,2.154V30H90.191V19.44H92.05v1.354A3.526,3.526,0,0,1,95.176,19.236ZM104.854,30.2a3.593,3.593,0,0,1-2.315-.725,2.6,2.6,0,0,1-.908-2.165,3.076,3.076,0,0,1,.29-1.38,2.434,2.434,0,0,1,.859-.961,5.155,5.155,0,0,1,1.241-.6A11.469,11.469,0,0,1,105.628,24l1.708-.279q.935-.172.935-.978a1.845,1.845,0,0,0-.661-1.574,2.692,2.692,0,0,0-1.67-.5,2.742,2.742,0,0,0-1.654.483,2.023,2.023,0,0,0-.784,1.482l-1.676-.354a3.225,3.225,0,0,1,1.321-2.261,4.937,4.937,0,0,1,2.879-.757,5.839,5.839,0,0,1,1.531.188,4.16,4.16,0,0,1,1.278.591,2.65,2.65,0,0,1,.913,1.139,4.237,4.237,0,0,1,.328,1.735v4.361a1.784,1.784,0,0,0,.242,1.1,1.043,1.043,0,0,0,.833.285h.172V30H110.4a1.762,1.762,0,0,1-2-1.429h-.086A4.035,4.035,0,0,1,104.854,30.2Zm.43-1.5a2.818,2.818,0,0,0,2.267-1.021,4.2,4.2,0,0,0,.859-2.793l-2.793.537a3.76,3.76,0,0,0-1.638.585,1.362,1.362,0,0,0-.532,1.155,1.346,1.346,0,0,0,.51,1.16A2.181,2.181,0,0,0,105.284,28.7Zm8.658,1.3V13.5h1.88V30Z" transform="translate(488 15997)" fill="#00223d"/>
    <g id="Trazado_31569" data-name="Trazado 31569" transform="translate(652 15911)" fill="#bede9b">
      <path d="M 19.5 37.5 C 14.69202995300293 37.5 10.17183017730713 35.62767028808594 6.772079944610596 32.22792053222656 C 3.372329950332642 28.82817077636719 1.5 24.30797004699707 1.5 19.5 C 1.5 14.69202995300293 3.372329950332642 10.17183017730713 6.772079944610596 6.772079944610596 C 10.17183017730713 3.372329950332642 14.69202995300293 1.5 19.5 1.5 C 24.30797004699707 1.5 28.82817077636719 3.372329950332642 32.22792053222656 6.772079944610596 C 35.62767028808594 10.17183017730713 37.5 14.69202995300293 37.5 19.5 C 37.5 24.30797004699707 35.62767028808594 28.82817077636719 32.22792053222656 32.22792053222656 C 28.82817077636719 35.62767028808594 24.30797004699707 37.5 19.5 37.5 Z" stroke="none"/>
      <path d="M 19.5 3 C 15.09268951416016 3 10.94918060302734 4.716300964355469 7.832740783691406 7.832740783691406 C 4.716300964355469 10.94918060302734 3 15.09268951416016 3 19.5 C 3 23.90731048583984 4.716300964355469 28.05081939697266 7.832740783691406 31.16725921630859 C 10.94918060302734 34.28369903564453 15.09268951416016 36 19.5 36 C 23.90731048583984 36 28.05081939697266 34.28369903564453 31.16725921630859 31.16725921630859 C 34.28369903564453 28.05081939697266 36 23.90731048583984 36 19.5 C 36 15.09268951416016 34.28369903564453 10.94918060302734 31.16725921630859 7.832740783691406 C 28.05081939697266 4.716300964355469 23.90731048583984 3 19.5 3 M 19.5 0 C 30.26955032348633 0 39 8.730449676513672 39 19.5 C 39 30.26955032348633 30.26955032348633 39 19.5 39 C 8.730449676513672 39 0 30.26955032348633 0 19.5 C 0 8.730449676513672 8.730449676513672 0 19.5 0 Z" stroke="none" fill="#676767"/>
    </g>
    <g id="Trazado_31575" data-name="Trazado 31575" transform="translate(1126 15911)" fill="#bede9b">
      <path d="M 19.5 37.5 C 14.69202995300293 37.5 10.17183017730713 35.62767028808594 6.772079944610596 32.22792053222656 C 3.372329950332642 28.82817077636719 1.5 24.30797004699707 1.5 19.5 C 1.5 14.69202995300293 3.372329950332642 10.17183017730713 6.772079944610596 6.772079944610596 C 10.17183017730713 3.372329950332642 14.69202995300293 1.5 19.5 1.5 C 24.30797004699707 1.5 28.82817077636719 3.372329950332642 32.22792053222656 6.772079944610596 C 35.62767028808594 10.17183017730713 37.5 14.69202995300293 37.5 19.5 C 37.5 24.30797004699707 35.62767028808594 28.82817077636719 32.22792053222656 32.22792053222656 C 28.82817077636719 35.62767028808594 24.30797004699707 37.5 19.5 37.5 Z" stroke="none"/>
      <path d="M 19.5 3 C 15.09268951416016 3 10.94918060302734 4.716300964355469 7.832740783691406 7.832740783691406 C 4.716300964355469 10.94918060302734 3 15.09268951416016 3 19.5 C 3 23.90731048583984 4.716300964355469 28.05081939697266 7.832740783691406 31.16725921630859 C 10.94918060302734 34.28369903564453 15.09268951416016 36 19.5 36 C 23.90731048583984 36 28.05081939697266 34.28369903564453 31.16725921630859 31.16725921630859 C 34.28369903564453 28.05081939697266 36 23.90731048583984 36 19.5 C 36 15.09268951416016 34.28369903564453 10.94918060302734 31.16725921630859 7.832740783691406 C 28.05081939697266 4.716300964355469 23.90731048583984 3 19.5 3 M 19.5 0 C 30.26955032348633 0 39 8.730449676513672 39 19.5 C 39 30.26955032348633 30.26955032348633 39 19.5 39 C 8.730449676513672 39 0 30.26955032348633 0 19.5 C 0 8.730449676513672 8.730449676513672 0 19.5 0 Z" stroke="none" fill="#676767"/>
    </g>
    <path id="Trazado_31570" data-name="Trazado 31570" d="M6.145-15.522H9.088V0H6V-12.343L2.438-9.023V-12.2Z" transform="translate(665 15937)" fill="#00223d"/>
    <path id="Trazado_31578" data-name="Trazado 31578" d="M5.4-2.761h6.617V0H1.074V-2.331L7.251-8.637a3.887,3.887,0,0,0,1.343-2.675,1.892,1.892,0,0,0-.553-1.439,2.178,2.178,0,0,0-1.563-.526q-2.2,0-2.2,2.5v1.149L1.192-9.937v-.773A4.841,4.841,0,0,1,2.61-14.443a5.431,5.431,0,0,1,3.846-1.316A5.689,5.689,0,0,1,10.2-14.566a4.019,4.019,0,0,1,1.445,3.276,4.646,4.646,0,0,1-.489,2.127A8.89,8.89,0,0,1,9.6-7.09Z" transform="translate(1138 15937)" fill="#00223d"/>
    <path id="Trazado_31238" data-name="Trazado 31238" d="M6414.412,15336h891.313" transform="translate(-5926 981)" fill="none" stroke="#333" stroke-width="3"/>
    <g id="Grupo_15595" data-name="Grupo 15595" transform="translate(-46 -456)">
      <path id="Trazado_31237-2" data-name="Trazado 31237" d="M6844.74,15124.109H6716.018" transform="translate(-5963 1329)" fill="none" stroke="#3b3b3b" stroke-width="3"/>
      <path id="Polígono_40-2" data-name="Polígono 40" d="M8,0l8,14H0Z" transform="translate(743 16461) rotate(-90)"/>
    </g>
    <g id="Grupo_15596" data-name="Grupo 15596" transform="translate(981 15989)">
      <path id="Trazado_31237-3" data-name="Trazado 31237" d="M6716.018,15124.109H6844.74" transform="translate(-6716.018 -15116)" fill="none" stroke="#3b3b3b" stroke-width="3"/>
      <path id="Polígono_40-3" data-name="Polígono 40" d="M8,0l8,14H0Z" transform="translate(138.74 0) rotate(90)"/>
    </g>
    <path id="Trazado_31573" data-name="Trazado 31573" d="M4.3-1.751H9.55V0H2.374V-15.125H4.3ZM13-13.041a1.209,1.209,0,0,1-.886-.371,1.209,1.209,0,0,1-.371-.886,1.192,1.192,0,0,1,.371-.881A1.218,1.218,0,0,1,13-15.544a1.206,1.206,0,0,1,.875.365,1.192,1.192,0,0,1,.371.881,1.209,1.209,0,0,1-.371.886A1.2,1.2,0,0,1,13-13.041ZM12.053,0V-10.56h1.869V0ZM28.5-10.764a3.4,3.4,0,0,1,2.46.9,3.327,3.327,0,0,1,.935,2.519V0H30.035V-6.864a2.386,2.386,0,0,0-.58-1.74A1.975,1.975,0,0,0,27.983-9.2a2.085,2.085,0,0,0-1.611.666,2.864,2.864,0,0,0-.612,2V0H23.869V-6.789a2.5,2.5,0,0,0-.585-1.8,1.991,1.991,0,0,0-1.5-.607,2.066,2.066,0,0,0-1.606.682,2.963,2.963,0,0,0-.618,2.046V0H17.7V-10.56h1.858V-9.2a3.208,3.208,0,0,1,1.208-1.16,3.446,3.446,0,0,1,1.681-.408,3.587,3.587,0,0,1,1.8.446,2.775,2.775,0,0,1,1.171,1.284,3.286,3.286,0,0,1,1.268-1.284A3.626,3.626,0,0,1,28.5-10.764Z" transform="translate(889 15998)" fill="#00223d"/>
    <path id="Trazado_31239" data-name="Trazado 31239" d="M6597.505,14932v215.262" transform="translate(-5926 1416.999)" fill="none" stroke="#000" stroke-width="3" stroke-dasharray="6"/>
    <path id="Trazado_31240" data-name="Trazado 31240" d="M6597.505,14932v215.262" transform="translate(-5452 1416.999)" fill="none" stroke="#000" stroke-width="3" stroke-dasharray="6"/>
    <path id="Trazado_31581" data-name="Trazado 31581" d="M11.161-12.687H5.253v3.523h5.1v2.8h-5.1V0H2.009V-15.522h9.152ZM13.5,0V-16.5h3.126V0ZM27.146-11.043h3.094V0H27.307l-.075-1.332A4.217,4.217,0,0,1,23.719.215a4.3,4.3,0,0,1-3.051-.994A3.684,3.684,0,0,1,19.6-3.609v-7.434h3.1v6.768a1.909,1.909,0,0,0,.553,1.515,2.1,2.1,0,0,0,1.434.483,2.49,2.49,0,0,0,1.756-.628,2.7,2.7,0,0,0,.693-2.046ZM35.03-12.7a1.737,1.737,0,0,1-1.268-.521,1.71,1.71,0,0,1-.526-1.262,1.69,1.69,0,0,1,.532-1.251,1.742,1.742,0,0,1,1.262-.521,1.712,1.712,0,0,1,1.246.521A1.7,1.7,0,0,1,36.8-14.48a1.71,1.71,0,0,1-.526,1.262A1.712,1.712,0,0,1,35.03-12.7ZM31.185,5.178V2.761a3.559,3.559,0,0,0,1.16-.156,1.3,1.3,0,0,0,.688-.553A2.45,2.45,0,0,0,33.36,1.1,10.719,10.719,0,0,0,33.44-.376V-11.043h3.137V-.376A6,6,0,0,1,35.32,3.846,5.484,5.484,0,0,1,31.185,5.178ZM44.935.215a6.944,6.944,0,0,1-3.126-.677,5.058,5.058,0,0,1-2.143-1.987,5.922,5.922,0,0,1-.779-3.083,5.4,5.4,0,0,1,1.676-4.189,6.217,6.217,0,0,1,4.372-1.536,6.232,6.232,0,0,1,4.383,1.536,5.4,5.4,0,0,1,1.676,4.189,5.432,5.432,0,0,1-1.676,4.206A6.219,6.219,0,0,1,44.935.215ZM44.9-2.245a2.835,2.835,0,0,0,2.186-.9,3.378,3.378,0,0,0,.833-2.385,3.378,3.378,0,0,0-.833-2.385,2.835,2.835,0,0,0-2.186-.9,2.731,2.731,0,0,0-2.122.908,3.409,3.409,0,0,0-.822,2.379,3.409,3.409,0,0,0,.822,2.379A2.731,2.731,0,0,0,44.9-2.245Z" transform="translate(894 16406)" fill="#00223d"/>
    <g id="Grupo_15597" data-name="Grupo 15597" transform="translate(37 -17)">
      <path id="Trazado_31237-4" data-name="Trazado 31237" d="M6979.84,15124.109H6716.018" transform="translate(-5963 1329)" fill="none" stroke="#3b3b3b" stroke-width="3"/>
      <path id="Polígono_40-4" data-name="Polígono 40" d="M8,0l8,14H0Z" transform="translate(743 16461) rotate(-90)"/>
    </g>
    <g id="Grupo_15598" data-name="Grupo 15598" transform="translate(-46 92)">
      <path id="Trazado_31237-5" data-name="Trazado 31237" d="M6844.74,15124.109H6716.018" transform="translate(-5963 1329)" fill="none" stroke="#3b3b3b" stroke-width="3"/>
      <path id="Polígono_40-5" data-name="Polígono 40" d="M8,0l8,14H0Z" transform="translate(743 16461) rotate(-90)"/>
    </g>
    <g id="Grupo_15599" data-name="Grupo 15599" transform="translate(981 16537)">
      <path id="Trazado_31237-6" data-name="Trazado 31237" d="M6716.018,15124.109H6844.74" transform="translate(-6716.018 -15116)" fill="none" stroke="#3b3b3b" stroke-width="3"/>
      <path id="Polígono_40-6" data-name="Polígono 40" d="M8,0l8,14H0Z" transform="translate(138.74 0) rotate(90)"/>
    </g>
    <path id="Trazado_31582" data-name="Trazado 31582" d="M4.3-1.751H9.55V0H2.374V-15.125H4.3ZM13-13.041a1.209,1.209,0,0,1-.886-.371,1.209,1.209,0,0,1-.371-.886,1.192,1.192,0,0,1,.371-.881A1.218,1.218,0,0,1,13-15.544a1.206,1.206,0,0,1,.875.365,1.192,1.192,0,0,1,.371.881,1.209,1.209,0,0,1-.371.886A1.2,1.2,0,0,1,13-13.041ZM12.053,0V-10.56h1.869V0ZM28.5-10.764a3.4,3.4,0,0,1,2.46.9,3.327,3.327,0,0,1,.935,2.519V0H30.035V-6.864a2.386,2.386,0,0,0-.58-1.74A1.975,1.975,0,0,0,27.983-9.2a2.085,2.085,0,0,0-1.611.666,2.864,2.864,0,0,0-.612,2V0H23.869V-6.789a2.5,2.5,0,0,0-.585-1.8,1.991,1.991,0,0,0-1.5-.607,2.066,2.066,0,0,0-1.606.682,2.963,2.963,0,0,0-.618,2.046V0H17.7V-10.56h1.858V-9.2a3.208,3.208,0,0,1,1.208-1.16,3.446,3.446,0,0,1,1.681-.408,3.587,3.587,0,0,1,1.8.446,2.775,2.775,0,0,1,1.171,1.284,3.286,3.286,0,0,1,1.268-1.284A3.626,3.626,0,0,1,28.5-10.764Z" transform="translate(889 16546)" fill="#00223d"/>
    <path id="Trazado_31241" data-name="Trazado 31241" d="M6414.412,15336h891.313" transform="translate(-5926 1163)" fill="none" stroke="#333" stroke-width="3"/>
    <path id="Trazado_31242" data-name="Trazado 31242" d="M58.379,616.452A664.275,664.275,0,0,1,133.105,598c8.087-1.521,16.5-2.935,25.12-2.767,26.117.512,42.289,14.414,65.276,20.7,34.374,9.395,76.215.4,111.652-7.922q63.173-14.844,128.724-26.9c5.043-.927,10.3-1.856,15.643-1.6,15.83.771,22.279,10.536,34.151,15.88,19.2,8.642,49.091,4.544,73.161-.024l97.575-18.516a53.52,53.52,0,0,1,12.946-1.346c12.156.683,16.884,8.105,24.6,12.9,16.145,10.024,46.739,8.507,71.86,6.066l90.211-8.768c18.142-1.763,40.2-2.87,51.939,4.337" transform="translate(430.033 15618.537)" fill="none" stroke="#161615" stroke-miterlimit="10" stroke-width="2"/>
    <path id="Trazado_31243" data-name="Trazado 31243" d="M58.379,616.452A664.275,664.275,0,0,1,133.105,598c8.087-1.521,16.5-2.935,25.12-2.767,26.117.512,42.289,14.414,65.276,20.7,34.374,9.395,76.215.4,111.652-7.922q63.173-14.844,128.724-26.9c5.043-.927,10.3-1.856,15.643-1.6,15.83.771,22.279,10.536,34.151,15.88,19.2,8.642,49.091,4.544,73.161-.024l97.575-18.516a53.52,53.52,0,0,1,12.946-1.346c12.156.683,16.884,8.105,24.6,12.9,16.145,10.024,46.739,8.507,71.86,6.066l90.211-8.768c18.142-1.763,40.2-2.87,51.939,4.337" transform="translate(430.033 15479.537)" fill="none" stroke="#161615" stroke-miterlimit="10" stroke-width="2"/>
    <path id="Trazado_31244" data-name="Trazado 31244" d="M312.6,639.619l5.789-4.583c2.419-1.915,5.226-3.942,8.277-3.489,5.026.746,6.781,7.32,11.137,9.933,2.77,1.662,6.338,1.49,9.352.329a32.1,32.1,0,0,0,8.125-5.206c2.792-2.214,5.739-4.653,6.72-8.079" transform="translate(729.399 15747.476)" fill="none" stroke="#161615" stroke-miterlimit="10" stroke-width="2"/>
    <path id="Trazado_31245" data-name="Trazado 31245" d="M312.6,639.619l5.789-4.583c2.419-1.915,5.226-3.942,8.277-3.489,5.026.746,6.781,7.32,11.137,9.933,2.77,1.662,6.338,1.49,9.352.329a32.1,32.1,0,0,0,8.125-5.206c2.792-2.214,5.739-4.653,6.72-8.079" transform="translate(477.399 15747.476)" fill="none" stroke="#161615" stroke-miterlimit="10" stroke-width="2"/>
    <path id="Trazado_31246" data-name="Trazado 31246" d="M312.6,639.619l5.789-4.583c2.419-1.915,5.226-3.942,8.277-3.489,5.026.746,6.781,7.32,11.137,9.933,2.77,1.662,6.338,1.49,9.352.329a32.1,32.1,0,0,0,8.125-5.206c2.792-2.214,5.739-4.653,6.72-8.079" transform="translate(658.399 15713.476)" fill="none" stroke="#161615" stroke-miterlimit="10" stroke-width="2"/>
    <g id="Trazado_31576" data-name="Trazado 31576" transform="translate(1135 16119)" fill="#bbe0e2">
      <path d="M 10.5 20 C 5.261680126190186 20 1 15.73832035064697 1 10.5 C 1 5.261680126190186 5.261680126190186 1 10.5 1 C 15.73832035064697 1 20 5.261680126190186 20 10.5 C 20 15.73832035064697 15.73832035064697 20 10.5 20 Z" stroke="none"/>
      <path d="M 10.5 2 C 5.813079833984375 2 2 5.813079833984375 2 10.5 C 2 15.18692016601563 5.813079833984375 19 10.5 19 C 15.18692016601563 19 19 15.18692016601563 19 10.5 C 19 5.813079833984375 15.18692016601563 2 10.5 2 M 10.5 0 C 16.29899024963379 0 21 4.701009750366211 21 10.5 C 21 16.29899024963379 16.29899024963379 21 10.5 21 C 4.701009750366211 21 0 16.29899024963379 0 10.5 C 0 4.701009750366211 4.701009750366211 0 10.5 0 Z" stroke="none" fill="#4d4d4d"/>
    </g>
    <g id="Trazado_31577" data-name="Trazado 31577" transform="translate(1135 16155)" fill="#bbe0e2">
      <path d="M 10.5 20 C 5.261680126190186 20 1 15.73832035064697 1 10.5 C 1 5.261680126190186 5.261680126190186 1 10.5 1 C 15.73832035064697 1 20 5.261680126190186 20 10.5 C 20 15.73832035064697 15.73832035064697 20 10.5 20 Z" stroke="none"/>
      <path d="M 10.5 2 C 5.813079833984375 2 2 5.813079833984375 2 10.5 C 2 15.18692016601563 5.813079833984375 19 10.5 19 C 15.18692016601563 19 19 15.18692016601563 19 10.5 C 19 5.813079833984375 15.18692016601563 2 10.5 2 M 10.5 0 C 16.29899024963379 0 21 4.701009750366211 21 10.5 C 21 16.29899024963379 16.29899024963379 21 10.5 21 C 4.701009750366211 21 0 16.29899024963379 0 10.5 C 0 4.701009750366211 4.701009750366211 0 10.5 0 Z" stroke="none" fill="#4d4d4d"/>
    </g>
    <g id="Grupo_15608" data-name="Grupo 15608" transform="matrix(0.891, -0.454, 0.454, 0.891, 284.234, 16069.029)">
      <g id="Grupo_15600" data-name="Grupo 15600" transform="translate(299.502 454.652)">
        <path id="Trazado_31247" data-name="Trazado 31247" d="M326,436.312v50.7h-.044c0,1.962-1.253,3.908-3.863,5.413a19.93,19.93,0,0,1-11.811,2.093,17.853,17.853,0,0,1-6.9-2.093c-.206-.119-.4-.236-.576-.354-2.227-1.446-3.3-3.245-3.3-5.059v-50.7Z" transform="translate(-299.501 -436.312)" fill="url(#linear-gradient)"/>
      </g>
      <g id="Grupo_15601" data-name="Grupo 15601" transform="translate(299.5 451.384)">
        <path id="Trazado_31248" data-name="Trazado 31248" d="M326,434.473v50.705h-.037c0,1.956-1.267,3.913-3.874,5.407-5.139,2.992-13.539,2.992-18.717,0-2.609-1.494-3.874-3.451-3.874-5.407V434.473Z" transform="translate(-299.5 -434.473)" fill="url(#linear-gradient-2)"/>
      </g>
      <path id="Trazado_31249" data-name="Trazado 31249" d="M322.108,448.057c-5.176,2.994-13.553,2.994-18.729,0-4.188-2.4-4.984-6.045-2.388-8.922.014-.014.014-.028.029-.043,2.877-4.661,6.651-15.145,6.651-15.145l5.087.412,5.073-.412s3.8,10.543,6.68,15.188a.016.016,0,0,0,.016.016C327.092,442.026,326.28,445.654,322.108,448.057Z" transform="translate(0 8.733)" fill="url(#linear-gradient-3)"/>
      <path id="Trazado_31250" data-name="Trazado 31250" d="M314.279,417.424v11.591h-.014a2.514,2.514,0,0,1-1.489,2.079,7.939,7.939,0,0,1-7.2,0,2.514,2.514,0,0,1-1.489-2.079V417.424Z" transform="translate(3.566 3.664)" fill="url(#linear-gradient-2)"/>
      <path id="Trazado_31251" data-name="Trazado 31251" d="M314.279,417.424v2.6a3.514,3.514,0,0,1-1.253,1.134,8.427,8.427,0,0,1-7.7,0,3.653,3.653,0,0,1-1.238-1.105v-2.625Z" transform="translate(3.566 3.664)" fill="url(#linear-gradient-5)"/>
      <g id="Grupo_15602" data-name="Grupo 15602" transform="translate(307.309 415.023)">
        <path id="Trazado_31252" data-name="Trazado 31252" d="M314.777,415.777v2.363h-.016a2.679,2.679,0,0,1-1.59,2.219,8.466,8.466,0,0,1-7.685,0,2.679,2.679,0,0,1-1.59-2.219v-2.363Z" transform="translate(-303.895 -412.638)" fill="url(#linear-gradient-2)"/>
        <path id="Trazado_31253" data-name="Trazado 31253" d="M313.178,419.371a8.5,8.5,0,0,1-7.691,0c-2.123-1.226-2.123-3.215,0-4.441a8.5,8.5,0,0,1,7.691,0C315.3,416.156,315.3,418.145,313.178,419.371Z" transform="translate(-303.895 -414.011)" fill="url(#linear-gradient-7)"/>
      </g>
      <g id="Grupo_15603" data-name="Grupo 15603" transform="translate(307.656 412.707)">
        <path id="Trazado_31254" data-name="Trazado 31254" d="M314.279,414.362v2.211h-.014a2.515,2.515,0,0,1-1.489,2.081,7.939,7.939,0,0,1-7.2,0,2.515,2.515,0,0,1-1.489-2.081v-2.211Z" transform="translate(-304.09 -411.422)" fill="url(#linear-gradient-8)"/>
        <path id="Trazado_31255" data-name="Trazado 31255" d="M312.781,417.725a7.947,7.947,0,0,1-7.2,0c-1.988-1.148-1.988-3.008,0-4.156a7.958,7.958,0,0,1,7.2,0C314.772,414.716,314.772,416.577,312.781,417.725Z" transform="translate(-304.09 -412.708)" fill="url(#linear-gradient-9)"/>
      </g>
      <g id="Grupo_15604" data-name="Grupo 15604" transform="translate(299.502 465.349)">
        <path id="Trazado_31256" data-name="Trazado 31256" d="M326,442.332V465.1h-.044c0,1.96-1.253,3.922-3.863,5.411-5.146,2.994-13.537,2.994-18.713,0-2.61-1.489-3.877-3.451-3.877-5.411v-22.77c0,1.948,1.267,3.908,3.877,5.4,5.176,2.992,13.567,2.992,18.713,0,2.61-1.491,3.863-3.451,3.863-5.4Z" transform="translate(-299.501 -442.332)" fill="url(#linear-gradient-10)"/>
      </g>
      <g id="Grupo_15607" data-name="Grupo 15607" transform="translate(299.502 467.48)">
        <g id="Grupo_15605" data-name="Grupo 15605">
          <path id="Trazado_31257" data-name="Trazado 31257" d="M326,443.531V446.2h-.044c0,1.946-1.253,3.908-3.863,5.4-5.146,2.994-13.537,2.994-18.713,0-2.61-1.489-3.877-3.451-3.877-5.4v-2.669c0,1.946,1.267,3.908,3.877,5.4,5.176,2.994,13.567,2.994,18.713,0,2.61-1.489,3.863-3.451,3.863-5.4Z" transform="translate(-299.501 -443.531)" fill="url(#linear-gradient-11)"/>
        </g>
        <g id="Grupo_15606" data-name="Grupo 15606" transform="translate(0 15.854)">
          <path id="Trazado_31258" data-name="Trazado 31258" d="M326,452.453v2.669h-.044c0,1.948-1.253,3.909-3.863,5.4-5.146,2.992-13.537,2.992-18.713,0-2.61-1.489-3.877-3.451-3.877-5.4v-2.669c0,1.948,1.267,3.909,3.877,5.4,5.176,2.992,13.567,2.992,18.713,0,2.61-1.489,3.863-3.451,3.863-5.4Z" transform="translate(-299.501 -452.453)" fill="url(#linear-gradient-11)"/>
        </g>
      </g>
      <path id="Trazado_31259" data-name="Trazado 31259" d="M320.3,449.416v3.037c-5.118,2.95-13.405,2.95-18.566.016V449.43C306.893,452.366,315.181,452.366,320.3,449.416Z" transform="translate(1.735 28.521)" fill="url(#linear-gradient-2)"/>
      <path id="Trazado_31260" data-name="Trazado 31260" d="M314.407,453.365V456.4a22.219,22.219,0,0,1-10.367-.014v-3.039A22.2,22.2,0,0,0,314.407,453.365Z" transform="translate(3.527 31.577)" fill="url(#linear-gradient-14)"/>
      <path id="Trazado_31261" data-name="Trazado 31261" d="M308.836,439.765v53.972a17.854,17.854,0,0,1-6.9-2.093c-.206-.119-.4-.236-.576-.354V437.316l.576.354A17.855,17.855,0,0,0,308.836,439.765Z" transform="translate(1.444 19.12)" fill="#fff" opacity="0.2"/>
    </g>
  </g>
</svg>
