<svg xmlns="http://www.w3.org/2000/svg" xmlns:xlink="http://www.w3.org/1999/xlink" width="1063.982" height="561.839" viewBox="0 0 1063.982 561.839">
  <defs>
    <radialGradient id="radial-gradient" cx="0.5" cy="0.5" r="0.36" gradientTransform="translate(-6.157 47.39) scale(5.266 3)" gradientUnits="objectBoundingBox">
      <stop offset="0" stop-color="#c9d6ff"/>
      <stop offset="0.02" stop-color="#acbce5"/>
      <stop offset="0.051" stop-color="#859ac4"/>
      <stop offset="0.086" stop-color="#637ca6"/>
      <stop offset="0.123" stop-color="#46638d"/>
      <stop offset="0.165" stop-color="#2e4f79"/>
      <stop offset="0.212" stop-color="#1d3f6a"/>
      <stop offset="0.269" stop-color="#10345f"/>
      <stop offset="0.345" stop-color="#092d58"/>
      <stop offset="0.516" stop-color="#072c57"/>
    </radialGradient>
    <radialGradient id="radial-gradient-2" cx="0.5" cy="0.5" r="0.36" gradientTransform="translate(-1.614 19.762) scale(5.266 3)" xlink:href="#radial-gradient"/>
    <linearGradient id="linear-gradient" x1="0.5" y1="1" x2="0.5" gradientUnits="objectBoundingBox">
      <stop offset="0.006" stop-color="#8baddc"/>
      <stop offset="0.5" stop-color="#e7edf9"/>
      <stop offset="0.618" stop-color="#c8d5ef"/>
      <stop offset="0.666" stop-color="#c4d2ed"/>
      <stop offset="0.714" stop-color="#b8caea"/>
      <stop offset="0.761" stop-color="#a4bde3"/>
      <stop offset="0.808" stop-color="#88abdb"/>
      <stop offset="0.809" stop-color="#88abdb"/>
      <stop offset="1" stop-color="#26516a"/>
    </linearGradient>
    <linearGradient id="linear-gradient-2" x1="0.5" y1="1" x2="0.5" gradientUnits="objectBoundingBox">
      <stop offset="0.006" stop-color="#8baddc"/>
      <stop offset="0.073" stop-color="#3d5780"/>
      <stop offset="0.5" stop-color="#e7edf9"/>
      <stop offset="0.618" stop-color="#c8d5ef"/>
      <stop offset="0.666" stop-color="#c4d2ed"/>
      <stop offset="0.714" stop-color="#b8caea"/>
      <stop offset="0.761" stop-color="#a4bde3"/>
      <stop offset="0.808" stop-color="#88abdb"/>
      <stop offset="0.809" stop-color="#88abdb"/>
      <stop offset="1" stop-color="#26516a"/>
    </linearGradient>
  </defs>
  <g id="Grupo_15710" data-name="Grupo 15710" transform="translate(-6.009 -6.334)">
    <g id="Grupo_15709" data-name="Grupo 15709" transform="translate(6.009 6.334)">
      <g id="Grupo_15699" data-name="Grupo 15699" transform="translate(0 314.665)">
        <path id="Trazado_31445" data-name="Trazado 31445" d="M25.739,837.057c4.662,0,8.442,19.9,8.442,44.459s-3.779,44.459-8.442,44.459S17.3,906.07,17.3,881.516s3.779-44.459,8.442-44.459Z" transform="translate(-16.66 -836.419)" fill="gray" fill-rule="evenodd"/>
        <path id="Trazado_31446" data-name="Trazado 31446" d="M24.717,925.59c-5.9,0-9.079-23.235-9.079-45.1s3.182-45.1,9.079-45.1,9.079,23.235,9.079,45.1S30.615,925.59,24.717,925.59Zm0-88.918c-3.691,0-7.8,18-7.8,43.821s4.113,43.822,7.8,43.822,7.8-18,7.8-43.822S28.409,836.672,24.717,836.672Z" transform="translate(-15.638 -835.397)"/>
      </g>
      <g id="Grupo_15700" data-name="Grupo 15700" transform="translate(8.123 32.356)">
        <path id="Trazado_31447" data-name="Trazado 31447" d="M553.053,452.977,672.31,316.495c22.481-19,42.3-21.092,69.97-21.092h332.683c10.079,0,18.25-43.031,18.25-96.112s-8.171-96.112-18.25-96.112H719.1c-46.718,0-66.713,4.871-95.342,42.879L506.121,350.47c-24.453,31.492-51.808,34.7-88.072,34.7H39.267c4.662,0,8.442,19.9,8.442,44.459s-3.778,44.448-8.438,44.459H478.956c27.072,0,53.01-3.412,74.1-21.11Z" transform="translate(-38.311 -102.222)" fill="#3b3d40" fill-rule="evenodd"/>
        <path id="Trazado_31448" data-name="Trazado 31448" d="M1087.139,116.452H725.395c-11.158,0-22.609.005-33.709,1.2-8.676.938-17.3,2.684-25.251,6.4-14.5,6.777-24.148,19.141-31.962,32.718L516.836,361.188c-20.992,36.478-55.04,37.254-92.492,37.254H49.49C52.174,405.887,54,420.718,54,437.8s-1.83,31.914-4.514,39.358H485.251c23.793,0,53.28.063,70.257-19.365L674.765,321.313c20.518-23.482,45.1-22.838,73.811-22.838h338.563c7.194-12.887,12.369-48.766,12.369-91.011s-5.175-78.124-12.369-91.011Z" transform="translate(-44.605 -110.395)" fill="#45474a" fill-rule="evenodd"/>
        <path id="Trazado_31449" data-name="Trazado 31449" d="M1091.774,129.716H727.722c-17.5,0-40.669-.416-56.8,7.125-13.475,6.3-22.448,18.038-29.7,30.642L523.585,371.9c-22.093,38.39-57.428,39.811-96.913,39.811H53.27c1.87,8.154,3.061,20.473,3.061,34.258s-1.191,26.1-3.061,34.259H487.578c21.961,0,50.736.322,66.415-17.621L673.251,326.122c21.71-24.844,47.258-24.581,77.652-24.581h340.871c5.967-15.8,10.062-48.338,10.062-85.912s-4.095-70.107-10.062-85.912Z" transform="translate(-46.933 -118.56)" fill="#4f5254" fill-rule="evenodd"/>
        <path id="Trazado_31450" data-name="Trazado 31450" d="M1095.059,142.987H729.312c-16.5,0-39.44-.461-54.64,6.644-12.444,5.816-20.754,16.946-27.441,28.565L529.6,382.611c-23.177,40.275-59.832,42.368-101.334,42.368H55.852a186.039,186.039,0,0,1,2.069,29.158A186.045,186.045,0,0,1,55.852,483.3H489.168c20.088,0,48.231.538,62.575-15.877L671,330.936c22.881-26.186,49.436-26.326,81.492-26.326h342.566c5.034-17.111,8.367-46.91,8.367-80.811s-3.333-63.7-8.367-80.811Z" transform="translate(-48.523 -126.73)" fill="#595c5e" fill-rule="evenodd"/>
        <path id="Trazado_31451" data-name="Trazado 31451" d="M1097.584,156.257H730.477c-15.469,0-38.23-.5-52.48,6.164-11.4,5.328-19.067,15.868-25.18,26.489L535.181,393.324c-9.108,15.826-21.6,27.959-38.356,35.419-21.122,9.4-44.712,9.5-67.4,9.5H57.744a201.973,201.973,0,0,1,1.342,24.059,202.044,202.044,0,0,1-1.342,24.057H490.333c18.17,0,45.77.7,58.734-14.131L668.325,335.75c24.036-27.509,51.632-28.071,85.333-28.071h343.926c4.266-17.592,7.006-44.965,7.006-75.711s-2.74-58.119-7.006-75.711Z" transform="translate(-49.688 -134.9)" fill="#636669" fill-rule="evenodd"/>
        <path id="Trazado_31452" data-name="Trazado 31452" d="M1099.583,169.526H731.339c-14.416,0-37.04-.523-50.32,5.685-10.34,4.833-17.389,14.8-22.919,24.413L540.464,404.036c-9.648,16.765-22.955,29.634-40.7,37.536-21.919,9.759-45.942,9.945-69.472,9.945H59.144c.515,5.751.8,12.176.8,18.958s-.289,13.207-.8,18.958H491.2c16.2,0,43.365.807,54.894-12.388L665.346,340.563A81.342,81.342,0,0,1,702.3,315.971c17.092-5.5,34.515-5.222,52.222-5.222h345.063c3.61-17.559,5.87-42.694,5.87-70.612s-2.26-53.052-5.87-70.611Z" transform="translate(-50.55 -143.069)" fill="#6b7073" fill-rule="evenodd"/>
        <path id="Trazado_31453" data-name="Trazado 31453" d="M1101.172,182.794H731.956c-13.338,0-35.874-.539-48.16,5.2-9.258,4.327-15.725,13.763-20.659,22.336L545.5,414.749c-10.189,17.7-24.312,31.308-43.049,39.651-22.708,10.11-47.181,10.386-71.547,10.386H60.146c.272,4.361.419,9.019.419,13.858s-.148,9.5-.419,13.858H491.812c14.179,0,41.023.835,51.053-10.644L662.122,345.376a86.435,86.435,0,0,1,39.229-26.091c17.7-5.7,35.458-5.468,53.785-5.468h346.035c3.039-17.167,4.9-40.193,4.9-65.511s-1.859-48.344-4.9-65.511Z" transform="translate(-51.167 -151.237)" fill="#757a7d" fill-rule="evenodd"/>
        <path id="Trazado_31454" data-name="Trazado 31454" d="M1102.423,196.063H732.364c-12.232,0-34.736-.54-46,4.725-8.144,3.807-14.08,12.758-18.4,20.26L550.33,425.462c-10.727,18.64-25.669,32.983-45.4,41.766-23.49,10.459-48.426,10.827-73.621,10.827H60.809c.108,2.831.164,5.758.164,8.757s-.056,5.927-.164,8.758H492.22c12.1,0,38.76.772,47.212-8.9L658.69,350.189A91.528,91.528,0,0,1,700.2,322.6c18.311-5.9,36.406-5.714,55.349-5.714h346.878c2.536-16.507,4.055-37.522,4.055-60.411s-1.52-43.9-4.055-60.411Z" transform="translate(-51.575 -159.406)" fill="#808587" fill-rule="evenodd"/>
        <path id="Trazado_31455" data-name="Trazado 31455" d="M1103.372,209.335H732.582c-11.1,0-33.631-.528-43.84,4.244-6.991,3.268-12.462,11.8-16.137,18.183L554.969,436.176c-11.266,19.579-27.027,34.66-47.742,43.881-24.267,10.8-49.679,11.268-75.7,11.268H61.163q.028,1.81.028,3.658t-.028,3.658H492.438c9.959,0,36.6.6,43.371-7.155L655.067,355a96.618,96.618,0,0,1,43.784-29.089c18.912-6.089,37.359-5.959,56.912-5.959h347.609a427.367,427.367,0,0,0,3.324-55.311,427.371,427.371,0,0,0-3.324-55.31Z" transform="translate(-51.793 -167.578)" fill="#8a8f8f" fill-rule="evenodd"/>
        <path id="Trazado_31456" data-name="Trazado 31456" d="M1774.4,222.606H1402.973c-9.925,0-32.565-.5-41.68,3.765-5.786,2.7-10.875,10.891-13.876,16.107L1229.779,446.892c-17.953,31.2-45.173,48.889-79.883,54.821h12.933c7.767,0,34.547.293,39.53-5.411L1321.616,359.82a101.727,101.727,0,0,1,46.063-30.588c19.509-6.281,38.317-6.2,58.474-6.2H1774.4a441.7,441.7,0,0,0,2.686-50.211,441.713,441.713,0,0,0-2.686-50.211Z" transform="translate(-722.183 -175.749)" fill="#94999c" fill-rule="evenodd"/>
        <path id="Trazado_31457" data-name="Trazado 31457" d="M1831.771,235.883H1459.789c-8.72,0-31.546-.444-39.52,3.284-4.495,2.1-9.332,10.063-11.616,14.031L1291.017,457.611q-2.942,5.113-6.267,9.849l89.842-102.82a106.82,106.82,0,0,1,48.34-32.086c20.1-6.471,39.281-6.45,60.038-6.45h348.8c1.361-13.452,2.132-28.806,2.132-45.11s-.771-31.658-2.132-45.11ZM1268.347,486.231a109.347,109.347,0,0,1-26.179,17.821c5.96-.522,11.2-1.414,13.177-2.941l13-14.88Z" transform="translate(-779 -183.925)" fill="#9ea3a6" fill-rule="evenodd"/>
        <path id="Trazado_31458" data-name="Trazado 31458" d="M1436.422,431.2l53.943-61.732a111.918,111.918,0,0,1,50.615-33.586c20.69-6.661,40.246-6.7,61.6-6.7h349.281c1.061-12.182,1.652-25.731,1.652-40.01s-.592-27.828-1.652-40.011H1579.4c-7.475,0-30.587-.362-37.36,2.8-3.061,1.431-7.842,9.325-9.356,11.954L1436.422,431.2Z" transform="translate(-898.612 -192.103)" fill="#a8adb0" fill-rule="evenodd"/>
        <path id="Trazado_31459" data-name="Trazado 31459" d="M1515.283,396.951l19.8-22.658a117.026,117.026,0,0,1,52.9-35.084c21.273-6.849,41.215-6.941,63.164-6.941h349.692c.8-10.822,1.241-22.595,1.241-34.91s-.439-24.089-1.241-34.91H1627.961c-5.962,0-29.708-.219-35.131,2.292-2.2,1.624-5.9,7.708-7.163,9.911l-70.383,122.3Z" transform="translate(-947.171 -200.288)" fill="#b3b8ba" fill-rule="evenodd"/>
        <path id="Trazado_31460" data-name="Trazado 31460" d="M1587.2,367.306a120.82,120.82,0,0,1,43.495-24.8c21.853-7.035,42.189-7.186,64.728-7.186h350.036c.581-9.386.9-19.4.9-29.811s-.315-20.425-.9-29.81H1672.247c-6.31,0-25.62-.315-32.453,1.671a49.886,49.886,0,0,0-5.421,7.975L1587.2,367.306Z" transform="translate(-991.457 -208.44)" fill="#bdc2c2" fill-rule="evenodd"/>
        <path id="Trazado_31461" data-name="Trazado 31461" d="M1629.783,357.3a126.7,126.7,0,0,1,25.572-11.452c22.428-7.221,43.165-7.431,66.29-7.431h350.324c.4-7.886.609-16.166.609-24.71s-.213-16.825-.609-24.711h-373.5c-7.913,0-16.044-.037-23.936.578-1.535.12-3.834.289-5.747.626a56.991,56.991,0,0,0-3.771,5.886L1629.783,357.3Z" transform="translate(-1017.675 -216.641)" fill="#c4cccc" fill-rule="evenodd"/>
        <path id="Trazado_31462" data-name="Trazado 31462" d="M1663.344,353.295c26.558-11.223,50.725-11.8,78.966-11.8h350.552c.25-6.331.381-12.89.381-19.61s-.131-13.278-.381-19.61H1719.129c-7.908,0-18.916-.058-26.791.842-.852,1.284-1.655,2.672-2.241,3.691l-26.753,46.489Z" transform="translate(-1038.34 -224.814)" fill="#cfd6d6" fill-rule="evenodd"/>
        <path id="Trazado_31463" data-name="Trazado 31463" d="M1692.971,351.911c22.86-7.029,43.923-7.345,67.582-7.345h350.726c.136-4.733.207-9.578.207-14.51s-.072-9.777-.207-14.51H1737.372c-8.015,0-15.78-.01-23.8.583-.294.5-.569.973-.811,1.395l-19.79,34.388Z" transform="translate(-1056.583 -232.987)" fill="#d9dee0" fill-rule="evenodd"/>
        <path id="Trazado_31464" data-name="Trazado 31464" d="M1720.315,352.052c18.908-4.156,37.053-4.412,57.075-4.412h350.846q.085-4.644.086-9.41t-.086-9.409H1754.21c-7.02,0-13.724,0-20.751.4l-13.143,22.837Z" transform="translate(-1073.42 -241.161)" fill="#e3e8eb" fill-rule="evenodd"/>
        <path id="Trazado_31465" data-name="Trazado 31465" d="M1746.125,353.216c15.411-2.311,30.642-2.5,47.158-2.5H2144.2q.018-2.144.019-4.31t-.019-4.31H1770.1c-5.883,0-11.828-.007-17.717.248l-6.26,10.876Z" transform="translate(-1089.313 -249.333)" fill="#edf2f5" fill-rule="evenodd"/>
        <path id="Trazado_31466" data-name="Trazado 31466" d="M477.423,473.51H37.738a.956.956,0,0,1,0-1.912h0c1.018-.021,3.2-2.62,5.027-12.25A176.26,176.26,0,0,0,45.22,428.1a176.223,176.223,0,0,0-2.456-31.259c-1.835-9.665-4.025-12.244-5.03-12.244a.956.956,0,1,1,0-1.912H416.528c18.868,0,34.277-.934,48.155-5.492,15.329-5.034,27.757-14.18,39.109-28.784L621.4,144.047a.993.993,0,0,1,.065-.1c14.507-19.259,26.854-30.025,41.286-36,14.6-6.045,31.8-7.26,54.82-7.26h355.863c6.9,0,11.338,15.731,13.844,28.928,3.458,18.211,5.362,42.41,5.362,68.14s-1.9,49.929-5.362,68.14c-2.506,13.2-6.942,28.928-13.844,28.928H740.748c-26.13,0-46.4,1.494-69.3,20.82L552.24,452.073a.951.951,0,0,1-.105.1C529.737,470.975,501.8,473.51,477.423,473.51ZM40.658,471.6H477.423c42.758,0,61.121-10.526,73.426-20.839L670.058,314.333a.97.97,0,0,1,.1-.1c10.738-9.075,21.357-14.752,33.419-17.866,11.1-2.865,22.884-3.452,37.169-3.452h332.682c4.238,0,8.71-10.233,11.965-27.373,3.436-18.1,5.329-42.169,5.329-67.783s-1.893-49.686-5.329-67.783c-3.255-17.14-7.728-27.373-11.965-27.373H717.567c-22.784,0-39.78,1.19-54.088,7.114-14.082,5.83-26.183,16.4-40.454,35.337L505.418,349.415a.98.98,0,0,1-.074.11c-25.221,32.48-53.92,35.067-88.812,35.067H40.657c4.263,5.944,6.475,24.819,6.475,43.5S44.92,465.653,40.658,471.6Z" transform="translate(-36.778 -100.689)"/>
      </g>
      <g id="Grupo_15701" data-name="Grupo 15701" transform="translate(77.746 314.628)" style="mix-blend-mode: screen;isolation: isolate">
        <path id="Trazado_31467" data-name="Trazado 31467" d="M228.17,837.055c4.662,0,8.442,19.905,8.442,44.459s-3.779,44.458-8.442,44.458-8.442-19.9-8.442-44.458,3.78-44.459,8.442-44.459Z" transform="translate(-219.053 -836.38)" fill-rule="evenodd" fill="url(#radial-gradient)"/>
        <path id="Trazado_31468" data-name="Trazado 31468" d="M227.089,925.566c-5.922,0-9.117-23.254-9.117-45.133s3.2-45.134,9.117-45.134,9.116,23.254,9.116,45.134S233.01,925.566,227.089,925.566Zm0-88.918c-3.175,0-7.768,15.592-7.768,43.785s4.593,43.784,7.768,43.784,7.767-15.592,7.767-43.784S230.263,836.649,227.089,836.649Z" transform="translate(-217.972 -835.299)" fill="#0b2e38"/>
      </g>
      <path id="Trazado_31469" data-name="Trazado 31469" d="M2704.39,295.018a4.8,4.8,0,0,1-2.7-.894l.714-1.057a3.554,3.554,0,0,0,1.987.676Zm-3.765-1.767a13.179,13.179,0,0,1-1.693-2.062l1.055-.715a11.926,11.926,0,0,0,1.526,1.862Zm-2.4-3.175c-.408-.692-.816-1.469-1.212-2.307l1.153-.545c.38.8.77,1.546,1.158,2.206Zm-1.746-3.488c-.324-.75-.648-1.557-.962-2.4l1.2-.445c.305.821.621,1.607.937,2.336Zm-1.4-3.61c-.272-.781-.543-1.6-.8-2.445l1.218-.378c.256.827.522,1.635.79,2.4Zm-1.176-3.674c-.231-.786-.465-1.617-.693-2.472l1.231-.33c.226.844.457,1.666.686,2.441Zm-1.017-3.713c-.2-.8-.409-1.641-.608-2.491l1.241-.29q.3,1.266.6,2.466Zm-.9-3.739q-.275-1.224-.541-2.5l1.248-.259q.263,1.269.537,2.483Zm-.8-3.758q-.246-1.233-.485-2.514l1.253-.233q.237,1.271.482,2.5Zm-.714-3.773q-.222-1.24-.437-2.521l1.258-.21q.214,1.274.433,2.506Zm-.643-3.783q-.2-1.246-.394-2.528l1.261-.189q.192,1.275.391,2.514Zm-.581-3.792q-.182-1.25-.356-2.532l1.263-.172q.174,1.276.354,2.52Zm-.525-3.8q-.164-1.254-.321-2.536l1.265-.155q.156,1.276.32,2.525Zm-.475-3.8q-.15-1.257-.291-2.54l1.268-.14q.141,1.278.29,2.53Zm-.428-3.81q-.134-1.259-.262-2.542l1.269-.126q.127,1.278.26,2.533Zm-.386-3.814q-.121-1.262-.234-2.544l1.27-.113q.114,1.279.234,2.536Zm-.345-3.817q-.108-1.263-.209-2.546l1.271-.1q.1,1.278.208,2.539Zm-.307-3.82q-.1-1.265-.185-2.548l1.272-.088q.089,1.279.184,2.54Zm-.271-3.822q-.083-1.267-.162-2.549l1.273-.078q.078,1.279.161,2.542Zm-.237-3.824q-.073-1.268-.14-2.551l1.273-.066q.066,1.279.139,2.543Zm-.2-3.826q-.062-1.269-.118-2.551l1.274-.055q.055,1.279.117,2.544Zm-.172-3.827q-.052-1.27-.1-2.553l1.274-.045q.046,1.279.1,2.546Zm-.141-3.829q-.042-1.27-.077-2.553l1.274-.035q.036,1.278.077,2.546Zm-.11-3.829q-.032-1.271-.057-2.553l1.275-.025q.026,1.278.057,2.547Zm-.082-3.83q-.022-1.272-.037-2.553l1.275-.016q.016,1.278.037,2.547Zm-.052-3.831q-.012-1.272-.018-2.553l1.275-.006q.007,1.277.018,2.547Zm-.022-3.828v-1.163l0-1.39,1.275,0,0,1.386,0,1.161Zm1.28-3.824-1.275-.007q.006-1.281.019-2.554l1.275.013Q2686.791,194.33,2686.785,195.609Zm.034-3.821-1.275-.016q.016-1.282.039-2.554l1.275.023Q2686.835,190.51,2686.819,191.788Zm.063-3.821-1.275-.026q.026-1.282.059-2.553l1.274.032Q2686.909,186.688,2686.882,187.967Zm.092-3.82-1.274-.036q.036-1.282.078-2.553l1.274.043Q2687.01,182.868,2686.974,184.147Zm.122-3.819-1.274-.046q.046-1.282.1-2.553l1.274.053Q2687.141,179.049,2687.1,180.328Zm.152-3.818-1.274-.056q.056-1.282.119-2.551l1.274.063Q2687.3,175.231,2687.248,176.51Zm.184-3.816-1.273-.066q.067-1.283.141-2.551l1.273.073Q2687.5,171.415,2687.432,172.694Zm.216-3.814-1.273-.078q.079-1.282.164-2.549l1.272.085Q2687.726,167.6,2687.648,168.879Zm.25-3.812-1.272-.089q.089-1.282.186-2.548l1.271.1Q2687.987,163.788,2687.9,165.067Zm.285-3.809-1.271-.1q.1-1.282.211-2.546l1.27.109Q2688.284,159.979,2688.183,161.258Zm.321-3.806-1.27-.113q.115-1.283.237-2.545l1.269.123Q2688.616,156.173,2688.5,157.451Zm.36-3.8-1.269-.126q.129-1.283.264-2.543l1.268.137Q2688.99,152.371,2688.863,153.648Zm.4-3.8L2688,149.71q.142-1.282.292-2.539l1.266.15Q2689.406,148.573,2689.264,149.851Zm.444-3.793-1.266-.156q.158-1.282.324-2.536l1.264.168Q2689.865,144.781,2689.708,146.057Zm.491-3.786-1.264-.173q.175-1.282.358-2.532l1.262.185Q2690.374,141,2690.2,142.271Zm.544-3.778-1.261-.191q.194-1.282.4-2.527l1.258.2Q2690.936,137.218,2690.744,138.494Zm.6-3.769-1.258-.211q.216-1.281.439-2.521l1.255.226Q2691.558,133.451,2691.345,134.725Zm.666-3.756-1.253-.234q.239-1.28.487-2.513l1.25.251Q2692.248,129.7,2692.01,130.969Zm.739-3.741-1.248-.261q.268-1.28.545-2.5l1.244.282Q2693.014,125.959,2692.749,127.228Zm.826-3.72-1.242-.293c.2-.856.409-1.693.615-2.49l1.235.319C2693.979,121.831,2693.775,122.661,2693.576,123.508Zm.929-3.691-1.23-.332c.229-.855.464-1.686.7-2.471l1.222.364C2694.965,118.153,2694.732,118.973,2694.505,119.817Zm1.06-3.65-1.216-.382c.265-.842.538-1.664.813-2.442l1.2.424C2696.093,114.532,2695.825,115.339,2695.565,116.167Zm1.231-3.584-1.193-.45c.318-.842.645-1.647.973-2.394l1.167.513C2697.424,110.978,2697.1,111.762,2696.8,112.583Zm1.471-3.47-1.149-.553c.4-.838.818-1.612,1.232-2.3l1.092.658C2699.048,107.572,2698.653,108.311,2698.267,109.113Zm1.842-3.227-1.046-.729a12.41,12.41,0,0,1,1.737-2.035l.863.939A11.192,11.192,0,0,0,2700.109,105.886Zm2.457-2.521-.672-1.083a4.708,4.708,0,0,1,2.5-.762v1.275A3.458,3.458,0,0,0,2702.566,103.365Z" transform="translate(-1659.614 -68.845)" fill="#464e48"/>
      <path id="Trazado_31470" data-name="Trazado 31470" d="M17.3,1434.461H1079.685v3.755h-3.541l-13.221,13.229h-5.537l13.22-13.229h-3.541l-13.221,13.229H1048.3l13.221-13.229h-3.541l-13.221,13.229h-5.539l13.222-13.229H1048.9l-13.221,13.229h-5.538l13.22-13.229h-3.542l-13.22,13.229h-5.538l13.221-13.229h-3.543l-13.22,13.229h-5.537l13.221-13.229h-3.543l-13.221,13.229H1002.9l13.221-13.229h-3.543l-13.221,13.229h-5.538l13.22-13.229H1003.5l-13.221,13.229h-5.538l13.219-13.229h-3.542l-13.22,13.229h-5.539l13.22-13.229h-3.542l-13.221,13.229h-5.537l13.221-13.229h-3.543l-13.22,13.229H957.5l13.22-13.229H967.18l-13.219,13.229h-5.539l13.22-13.229H958.1l-13.219,13.229h-5.539l13.22-13.229H949.02l-13.22,13.229h-5.537l13.221-13.229H939.94l-13.22,13.229h-5.538l13.22-13.229h-3.542l-13.22,13.229H912.1l13.22-13.229H921.78l-13.22,13.229h-5.539l13.221-13.229H912.7l-13.221,13.229h-5.538l13.221-13.229h-3.543l-13.22,13.229h-5.539l13.22-13.229h-3.542l-13.221,13.229h-5.537L889,1438.216h-3.541l-13.221,13.229H866.7l13.221-13.229h-3.542l-13.22,13.229H857.62l13.22-13.229H867.3l-13.219,13.229H848.54l13.22-13.229h-3.542L845,1451.446h-5.538l13.221-13.229h-3.543l-13.22,13.229h-5.539l13.221-13.229h-3.542l-13.221,13.229H821.3l13.22-13.229h-3.543l-13.221,13.229h-5.538l13.22-13.229H821.9l-13.221,13.229h-5.538l13.22-13.229h-3.541L799.6,1451.446h-5.538l13.221-13.229h-3.543l-13.219,13.229h-5.538l13.219-13.229h-3.542l-13.22,13.229H775.9l13.22-13.229h-3.542l-13.219,13.229h-5.54l13.221-13.229H776.5l-13.221,13.229h-5.538l13.22-13.229h-3.543l-13.22,13.229h-5.538l13.22-13.229h-3.542l-13.219,13.229h-5.539l13.221-13.229h-3.543l-13.22,13.229H730.5l13.22-13.229h-3.542l-13.22,13.229h-5.537l13.22-13.229h-3.542l-13.221,13.229h-5.538l13.22-13.229h-3.542l-13.22,13.229h-5.538l13.22-13.229h-3.543l-13.22,13.229h-5.539l13.22-13.229h-3.541l-13.221,13.229h-5.539l13.221-13.229h-3.542l-13.22,13.229h-5.539l13.221-13.229h-3.542l-13.22,13.229h-5.539l13.221-13.229h-3.542l-13.22,13.229h-5.539l13.221-13.229h-3.542l-13.22,13.229h-5.539l13.22-13.229h-3.542l-13.22,13.229h-5.539l13.221-13.229h-3.542l-13.22,13.229h-5.539l13.221-13.229h-3.541l-13.221,13.229h-5.538l13.221-13.229h-3.542l-13.221,13.229h-5.539l13.22-13.229h-3.542l-13.221,13.229h-5.538l13.22-13.229h-3.541l-13.221,13.229h-5.538l13.22-13.229h-3.542l-13.221,13.229h-5.538l13.22-13.229H594.89l-13.22,13.229h-5.539l13.22-13.229h-3.542l-13.221,13.229h-5.539l13.222-13.229H576.73l-13.22,13.229h-5.539l13.221-13.229H567.65l-13.22,13.229h-5.539l13.222-13.229h-3.543l-13.22,13.229h-5.538l13.22-13.229h-3.542l-13.22,13.229H530.73l13.22-13.229h-3.542l-13.219,13.229h-5.538l13.22-13.229h-3.542l-13.22,13.229h-5.538l13.22-13.229h-3.543l-13.22,13.229H503.49l13.22-13.229h-3.542l-13.221,13.229H494.41l13.22-13.229h-3.542l-13.22,13.229h-5.538l13.219-13.229h-3.54l-13.221,13.229H476.25l13.22-13.229h-3.542l-13.22,13.229h-5.539l13.22-13.229h-3.542l-13.22,13.229h-5.538l13.221-13.229h-3.543l-13.22,13.229h-5.538l13.221-13.229h-3.542l-13.221,13.229h-5.537l13.22-13.229h-3.542l-13.22,13.229h-5.538l13.22-13.229h-3.542l-13.22,13.229h-5.539l13.221-13.229h-3.542l-13.22,13.229h-5.538l13.22-13.229h-3.542l-13.22,13.229h-5.539l13.221-13.229h-3.542l-13.22,13.229h-5.539l13.221-13.229h-3.543l-13.22,13.229h-5.538l13.22-13.229h-3.542l-13.22,13.229h-5.538l13.22-13.229h-3.542l-13.22,13.229h-5.538l13.22-13.229h-3.542l-13.22,13.229h-5.539l13.22-13.229h-3.542l-13.22,13.229h-5.538l13.221-13.229H358.8l-13.22,13.229h-5.539l13.22-13.229h-3.542L336.5,1451.446h-5.538l13.22-13.229h-3.542l-13.22,13.229h-5.539l13.221-13.229h-3.542l-13.22,13.229H312.8l13.221-13.229h-3.542l-13.22,13.229h-5.539l13.22-13.229H313.4l-13.22,13.229h-5.539l13.22-13.229h-3.542L291.1,1451.446h-5.538l13.22-13.229h-3.542l-13.221,13.229h-5.538l13.22-13.229h-3.542l-13.221,13.229H267.4l13.22-13.229h-3.542l-13.22,13.229h-5.538l13.22-13.229H268l-13.22,13.229h-5.538l13.22-13.229h-3.542l-13.22,13.229h-5.539l13.22-13.229h-3.541l-13.222,13.229h-5.537l13.221-13.229h-3.542l-13.22,13.229H222l13.22-13.229h-3.542l-13.22,13.229h-5.538l13.22-13.229H222.6l-13.22,13.229h-5.539l13.221-13.229H213.52l-13.22,13.229h-5.539l13.221-13.229H204.44l-13.22,13.229h-5.538l13.22-13.229H195.36l-13.221,13.229H176.6l13.22-13.229h-3.542l-13.22,13.229h-5.538l13.22-13.229H177.2l-13.22,13.229H158.44l13.221-13.229h-3.543l-13.22,13.229h-5.538l13.22-13.229h-3.542l-13.22,13.229H140.28l13.22-13.229h-3.542l-13.22,13.229H131.2l13.22-13.229h-3.542l-13.221,13.229H122.12l13.22-13.229H131.8l-13.22,13.229h-5.539l13.22-13.229h-3.542l-13.22,13.229h-5.539l13.221-13.229h-3.542l-13.221,13.229H94.878l13.221-13.229h-3.542l-13.22,13.229H85.8l13.221-13.229H95.477l-13.22,13.229H76.719l13.221-13.229H86.4l-13.22,13.229H67.638l13.22-13.229H77.316L64.1,1451.446H58.558l13.22-13.229H68.237l-13.221,13.229H49.478l13.22-13.229H59.156l-13.22,13.229H40.4l13.22-13.229H50.076l-13.221,13.229H31.317l13.22-13.229H41l-13.221,13.229H22.237l13.22-13.229H31.915l-13.22,13.229H17.3V1447.3l9.08-9.085H22.835l-5.538,5.542v-9.3Zm1062.388,16.985h-4.14l4.14-4.144v4.144Zm0-7.688-7.682,7.688h-5.538l13.22-13.229v5.542Z" transform="translate(-16.66 -889.607)" fill-rule="evenodd"/>
      <path id="Trazado_31471" data-name="Trazado 31471" d="M2122.808,39.428c2.138-1.274,2.344-.494,4.187-.494.668,0,.91-.469,1.117-1.168l.445.108c-.391,2.6-.8,2.854-3.568,2.356a3.84,3.84,0,0,0-2.931.176l-.332-.576a15.751,15.751,0,0,1,2.68-2.6c4.606-3.6,1.117-5.973-.748-4.463a1.279,1.279,0,0,0-.537,1.286c1.723,0,1.563,1.784.448,1.784-1.706,0-1.986-4.236,1.885-4.236,3.165,0,3.666,2.723,2.648,4.174-1.047,1.491-3.616,1.881-5.3,3.653Zm-11.685-17.392a57.293,57.293,0,0,0,6.34,0v.922c-1.6,0-1.462.524-1.268,1.631l1.727,8.759c.747-1.622,3.7-7.837,4.109-9.068.209-.63.336-1.322-1.288-1.322v-.922a23.125,23.125,0,0,0,4.187,0l-.01.922c-1.036.067-1.328.6-1.906,1.829L2117.5,36.428l-1.915.234-2.714-12.238c-.27-1.225-.5-1.391-1.747-1.476v-.913Zm69.2,17.586c2.138-1.275,2.343-.494,4.187-.494.667,0,.91-.469,1.117-1.169l.445.109c-.392,2.6-.8,2.854-3.567,2.355a3.845,3.845,0,0,0-2.932.176l-.331-.576a15.819,15.819,0,0,1,2.679-2.6c4.606-3.6,1.117-5.972-.747-4.463a1.279,1.279,0,0,0-.537,1.285c1.723,0,1.564,1.784.449,1.784-1.706,0-1.986-4.236,1.886-4.236,3.163,0,3.666,2.724,2.648,4.174-1.048,1.491-3.617,1.881-5.3,3.653Zm-3.031-16.269.316-.7h.8a35.639,35.639,0,0,0-.617,4.264h-.906c0-4.695-3.75-4.233-4.77-3.3a2,2,0,0,0-.644,1.554c0,2.567,6.4,3.328,6.4,7.34,0,4.482-6.11,5.567-9.3,2.959l-.226.826h-.884a33.994,33.994,0,0,0,.667-4.895h.926c-.754,5.474,5.68,5.662,5.68,2.3,0-3.119-6.241-3.688-6.241-7.373,0-3.963,5.034-5.694,8.8-2.976ZM2147.4,22.037h2.764l-.688,3.439h2.437l-.138.912h-2.5c-.174.844-1.248,5.808-1.248,6.317,0,1.006,1.457,1.643,2.9-1.228l.58.342c-.824,1.8-1.922,2.9-3.861,2.9-2.182,0-2.663-1.246-2.282-3.039l1.11-5.294h-1.829l.159-.912h1.877l.715-3.439Zm-9.289,0,4.954,12.687h-11.031l5.133-12.687Zm1.8,10.75-2.843-7.318-2.943,7.318Zm14.727-3.494h9.474v1.574h-9.474V29.292Zm0-3.4h9.474v1.573h-9.474V25.892Z" transform="translate(-1305.938 -19.903)"/>
      <path id="Trazado_31472" data-name="Trazado 31472" d="M2588.609,346.753c2.137-1.274,2.344-.494,4.187-.494.668,0,.911-.469,1.118-1.168l.444.109c-.391,2.6-.8,2.854-3.566,2.355a3.847,3.847,0,0,0-2.933.177l-.331-.576a15.715,15.715,0,0,1,2.68-2.6c4.607-3.6,1.117-5.973-.747-4.463a1.285,1.285,0,0,0-.539,1.286c1.724,0,1.564,1.784.45,1.784-1.707,0-1.985-4.236,1.886-4.236,3.164,0,3.666,2.724,2.648,4.174-1.047,1.49-3.616,1.881-5.3,3.653Zm-11.685-17.392a57.212,57.212,0,0,0,6.34,0v.923c-1.6,0-1.463.524-1.268,1.63l1.727,8.759c.747-1.622,3.7-7.836,4.11-9.068.208-.631.335-1.322-1.288-1.322v-.923a23.085,23.085,0,0,0,4.187,0l-.01.923c-1.037.066-1.327.6-1.906,1.828l-5.515,11.641-1.916.235-2.713-12.238c-.271-1.226-.5-1.391-1.748-1.476v-.913Z" transform="translate(-1592.756 -209.139)"/>
      <path id="Trazado_31473" data-name="Trazado 31473" d="M532.829,774.794c-.179.993-1.3,6.867-1.3,7.5s.424.62,1.033.62l-.084.554a38.8,38.8,0,0,0-4.174,0l.09-.554c.814,0,1.3-.362,1.507-1.556l.006,0c1.047-5.991,1.354-5.557-.691-5.1l-.112-.468a31.3,31.3,0,0,0,3.729-.986Zm-14.923-9.6a57.2,57.2,0,0,0,6.341,0v.923c-1.6,0-1.463.524-1.268,1.631l1.728,8.76c.746-1.623,3.7-7.837,4.11-9.068.209-.63.335-1.322-1.288-1.322v-.923a23.111,23.111,0,0,0,4.186,0l-.01.923c-1.037.067-1.327.6-1.906,1.829l-5.515,11.64-1.916.234-2.714-12.237c-.27-1.225-.5-1.391-1.748-1.476v-.913Zm73.047,9.8c-.18.994-1.3,6.868-1.3,7.5s.424.62,1.033.62l-.084.553a38.7,38.7,0,0,0-4.174,0l.09-.553c.814,0,1.3-.362,1.507-1.556l.006,0c1.047-5.99,1.354-5.557-.691-5.1l-.113-.468a31.341,31.341,0,0,0,3.73-.986Zm-6.268-8.478.315-.7h.8a35.278,35.278,0,0,0-.617,4.263h-.906c0-4.694-3.75-4.232-4.77-3.3a2,2,0,0,0-.644,1.553c0,2.568,6.4,3.329,6.4,7.34,0,4.482-6.11,5.567-9.3,2.958l-.224.827h-.886a33.854,33.854,0,0,0,.667-4.9h.926c-.753,5.476,5.68,5.663,5.68,2.3,0-3.119-6.241-3.689-6.241-7.374,0-3.962,5.035-5.694,8.8-2.976Zm-31.849-1.316H555.6l-.688,3.439h2.436l-.138.913h-2.5c-.173.843-1.248,5.807-1.248,6.317,0,1.007,1.458,1.642,2.9-1.228l.58.342c-.824,1.8-1.922,2.9-3.861,2.9-2.18,0-2.663-1.247-2.281-3.04l1.11-5.293h-1.829l.158-.913h1.879l.715-3.439Zm-9.291,0,4.954,12.687H537.468l5.131-12.687Zm1.805,10.751-2.844-7.317-2.942,7.317Zm16.635-3.494h9.473v1.574h-9.473v-1.574Zm0-3.4h9.473v1.573h-9.473v-1.573Z" transform="translate(-324.911 -477.502)"/>
      <path id="Trazado_31474" data-name="Trazado 31474" d="M1114.242,938.584c-.18.992-1.3,6.867-1.3,7.5s.423.619,1.033.619l-.084.554a39.153,39.153,0,0,0-4.174,0l.09-.554c.814,0,1.3-.362,1.507-1.556l.006,0c1.047-5.991,1.354-5.557-.69-5.1l-.113-.468a31.281,31.281,0,0,0,3.729-.985Zm-14.923-9.6a57.4,57.4,0,0,0,6.341,0v.922c-1.6,0-1.463.524-1.268,1.631l1.728,8.76c.747-1.622,3.7-7.837,4.11-9.068.208-.63.334-1.322-1.288-1.322v-.922a23.193,23.193,0,0,0,4.187,0l-.01.922c-1.037.068-1.327.6-1.906,1.829l-5.515,11.64-1.915.235-2.714-12.238c-.27-1.225-.5-1.391-1.748-1.476v-.912Z" transform="translate(-682.917 -578.357)"/>
      <path id="Trazado_31475" data-name="Trazado 31475" d="M1803.132,346.748c2.137-1.275,2.344-.495,4.187-.495.668,0,.909-.468,1.117-1.168l.445.109c-.39,2.6-.8,2.853-3.567,2.355a3.836,3.836,0,0,0-2.931.176l-.33-.576a15.747,15.747,0,0,1,2.679-2.6c4.606-3.6,1.117-5.972-.749-4.462a1.28,1.28,0,0,0-.536,1.285c1.723,0,1.562,1.783.449,1.783-1.708,0-1.985-4.235,1.886-4.235,3.163,0,3.665,2.724,2.646,4.174-1.048,1.491-3.616,1.881-5.3,3.653Zm-5.663-16.507-1.03,6.418c1.17,0,2.527.229,3.491-.859.918-1.033,1.177-3.879.168-4.911a3.44,3.44,0,0,0-2.63-.647Zm-1.189,7.44c-.089.537-.707,4-.707,4.489,0,.731.814.728,1.8.728l-.009.906a58.951,58.951,0,0,0-6.536,0V342.9c1.13-.027,1.436-.225,1.611-1.308.212-1.311,1.669-9.877,1.669-10.631,0-.582-.552-.652-1.3-.728v-.9c2.386.088,3.578,0,5.935,0,2.952,0,5.358,1.025,5.358,4.066,0,4.124-4.021,4.556-7.625,4.3-.081-.007-.142-.013-.19-.02Z" transform="translate(-1108.715 -209.123)"/>
      <path id="Trazado_31476" data-name="Trazado 31476" d="M1958.347,647.5c2.139-1.274,2.344-.494,4.188-.494.667,0,.908-.469,1.116-1.168l.445.109c-.39,2.6-.8,2.853-3.567,2.356a3.84,3.84,0,0,0-2.931.176l-.331-.576a15.759,15.759,0,0,1,2.679-2.6c4.606-3.6,1.117-5.973-.749-4.463a1.281,1.281,0,0,0-.537,1.286c1.724,0,1.563,1.783.449,1.783-1.706,0-1.984-4.236,1.886-4.236,3.165,0,3.666,2.724,2.648,4.174-1.047,1.491-3.617,1.881-5.3,3.653Zm-5.155-17.657,1.96,11.9c.2,1.207.792,1.835,1.768,1.889v.922a57.134,57.134,0,0,0-6.4,0v-.922c2.019-.111,1.533-.86,1.023-4.171h-4.166l-1.435,3.063c-.307,1.051.325,1.085,1.238,1.107v.922a22.794,22.794,0,0,0-4.147,0v-.922c1.17-.034,1.58-.766,2.231-2.114l5.638-11.655,2.292-.023Zm-2.573,2.731-2.8,5.907h3.606l-.806-5.907Z" transform="translate(-1202.435 -394.163)" fill="blue"/>
      <path id="Trazado_31477" data-name="Trazado 31477" d="M236.228,1097.007c-.164.9-1.185,6.243-1.185,6.817s.383.563.939.563l-.077.5a35.7,35.7,0,0,0-3.794,0l.082-.5c.74,0,1.183-.328,1.37-1.414l0,0c.953-5.45,1.231-5.052-.627-4.641l-.1-.424a28.556,28.556,0,0,0,3.39-.9Zm-8-10.655,1.959,11.9c.2,1.208.792,1.835,1.768,1.888v.922a57.416,57.416,0,0,0-6.4,0v-.922c2.018-.111,1.534-.858,1.023-4.169h-4.167l-1.436,3.062c-.307,1.051.326,1.085,1.238,1.107v.922a22.893,22.893,0,0,0-4.146,0v-.922c1.17-.034,1.58-.766,2.231-2.114l5.7-11.663,2.229-.014Zm-2.573,2.73-2.8,5.908h3.607l-.806-5.908Z" transform="translate(-140.285 -675.258)" fill="blue"/>
      <path id="Trazado_31478" data-name="Trazado 31478" d="M2197.18,887.248c2.138-1.275,2.344-.495,4.186-.495.669,0,.911-.469,1.118-1.168l.445.109c-.391,2.6-.8,2.854-3.567,2.355a3.843,3.843,0,0,0-2.933.176l-.329-.576a15.655,15.655,0,0,1,2.679-2.6c4.607-3.6,1.118-5.974-.748-4.464a1.28,1.28,0,0,0-.536,1.286c1.723,0,1.563,1.783.447,1.783-1.706,0-1.984-4.236,1.888-4.236,3.164,0,3.665,2.724,2.646,4.175-1.046,1.491-3.616,1.88-5.3,3.653Zm-7.4-17.9-1.731,8.155c1.1-1.641,2.365-3,4.186-3,1.645,0,2.233,1.156,1.939,2.707-.264,1.388-1.587,4.705-1.587,5.461,0,.708,1.059,1.162,2.281-1.229l.581.3c-.779,1.616-1.79,2.734-3.52,2.734-1.958,0-2.541-1.226-2-2.958a39.333,39.333,0,0,0,1.493-5.093c0-.853-1.033-.872-2.413.9a7.733,7.733,0,0,0-1.5,3.117l-.825,3.86h-2.735l2.5-12.2c.341-1.664.11-1.706-1.267-1.876l.138-.778a32.573,32.573,0,0,0,4.455-.106Z" transform="translate(-1350.786 -541.636)"/>
      <path id="Trazado_31479" data-name="Trazado 31479" d="M608,1179.28c-.18.993-1.3,6.867-1.3,7.5s.424.618,1.034.618l-.084.554a39.089,39.089,0,0,0-4.174,0l.09-.554c.814,0,1.3-.361,1.507-1.556l.006,0c1.047-5.991,1.354-5.557-.691-5.1l-.113-.468a31.54,31.54,0,0,0,3.729-.986Zm-10.639-10.112-1.731,8.155c1.1-1.642,2.366-3,4.187-3,1.645,0,2.233,1.156,1.939,2.707-.263,1.387-1.587,4.706-1.587,5.461,0,.708,1.059,1.163,2.281-1.227l.581.3c-.779,1.615-1.788,2.734-3.519,2.734-1.957,0-2.541-1.226-2-2.958a39.244,39.244,0,0,0,1.493-5.092c0-.853-1.033-.874-2.412.9a7.72,7.72,0,0,0-1.5,3.116l-.825,3.862H591.54l2.5-12.2c.34-1.664.11-1.705-1.268-1.874l.137-.779a32.467,32.467,0,0,0,4.456-.107Z" transform="translate(-370.251 -726.252)"/>
      <g id="Grupo_15702" data-name="Grupo 15702" transform="translate(370.993 354.409)">
        <path id="Trazado_31480" data-name="Trazado 31480" d="M981.144,944.182l4.672.32.083-.32-.083-.32-4.672.32Zm5.368.367,3,.206.148-.573-.148-.572-3,.205.1.367-.1.367Zm3.739.255,2.808.193.211-.815-.211-.815-2.808.192.161.623-.161.622Zm3.589.246,2.627.179.271-1.047-.271-1.049-2.627.18.225.868-.225.869Zm3.45.235,2.457.169.33-1.272-.33-1.272-2.457.168.285,1.1-.285,1.1Zm3.321.228,2.3.157.385-1.488-.385-1.489-2.3.157.344,1.331-.344,1.331Zm3.2.219,2.143.147.44-1.7-.44-1.7-2.143.147.4,1.55-.4,1.551Zm3.09.211,2,.136.491-1.9-.491-1.9-2,.138.455,1.761-.455,1.761Zm2.988.2,1.861.128.541-2.093-.541-2.094-1.861.128.509,1.966-.509,1.965Zm2.891.2,1.729.118.59-2.281-.59-2.282-1.729.119.56,2.164-.56,2.164Zm2.8.191,2.208.151-.736,2.846,9.994-5.352-9.994-5.353.736,2.847-2.208.151.609,2.355-.609,2.355Z" transform="translate(-981.144 -938.83)" fill="#b80000"/>
        <path id="Trazado_31481" data-name="Trazado 31481" d="M987.185,944.68l2.391.163.042-.163-.042-.163-2.391.163Zm3.088.211,3,.206.108-.417-.108-.417-3,.206.055.211-.055.211Zm3.739.256,2.808.192.17-.659-.17-.659-2.808.192.121.467-.121.467Zm3.588.245,2.628.18.231-.891-.231-.892-2.628.18.185.712-.185.712Zm3.45.236,2.458.168.289-1.116-.289-1.117-2.458.169.245.948-.245.948Zm3.321.227,2.3.157.345-1.332-.345-1.333-2.3.158.3,1.175-.3,1.175Zm3.2.219,2.144.147.4-1.541-.4-1.541-2.144.147.36,1.394-.36,1.394Zm3.091.211,2,.136.451-1.742-.451-1.743-2,.136.415,1.606-.415,1.605Zm2.988.2,1.86.127.5-1.937-.5-1.937-1.86.127.468,1.81-.468,1.81Zm2.891.2,1.728.118.55-2.125-.55-2.126-1.728.117.519,2.009-.519,2.007Zm2.8.191,2.369.162-.694,2.681,9.415-5.042-9.415-5.042.694,2.68-2.369.162.569,2.2-.569,2.2Z" transform="translate(-984.864 -939.327)" fill="#bd0a0a" fill-rule="evenodd"/>
        <path id="Trazado_31482" data-name="Trazado 31482" d="M993.226,945.177l.11.007,0-.007,0-.008-.11.008Zm.807.055,3,.2.068-.259-.068-.26-3,.206.014.055-.014.055Zm3.739.256,2.808.192.13-.5-.13-.5-2.808.192.08.311-.08.31Zm3.588.246,2.628.179.19-.735-.19-.736-2.628.18.144.556-.144.556Zm3.449.235,2.458.168.249-.96-.249-.961-2.458.169.205.792-.205.792Zm3.321.228,2.3.158.3-1.177-.3-1.176-2.3.156.264,1.02-.264,1.019Zm3.2.218,2.144.147.359-1.384-.359-1.385-2.144.147.32,1.238-.32,1.237Zm3.09.213,2,.136.411-1.586-.411-1.586-2,.136.375,1.449-.375,1.45Zm2.988.2,1.861.128.461-1.781-.461-1.782-1.861.128.428,1.654-.428,1.654Zm2.891.2,1.729.117.51-1.969-.51-1.97-1.729.118.479,1.852-.479,1.852Zm2.8.191,2.529.173-.651,2.515,8.835-4.731-8.835-4.732.651,2.516-2.529.172.528,2.044-.528,2.043Z" transform="translate(-988.584 -939.824)" fill="#bf1212" fill-rule="evenodd"/>
        <path id="Trazado_31483" data-name="Trazado 31483" d="M999.268,945.675l1.526.1.027-.1-.027-.105-1.526.105Zm2.264.155,2.808.191.09-.347-.09-.347-2.808.191.04.156-.04.155Zm3.588.245,2.627.18.15-.58-.15-.579-2.627.179.1.4-.1.4Zm3.449.235,2.458.169.208-.8-.208-.8-2.458.169.165.636-.165.635Zm3.321.228,2.3.156.264-1.02-.264-1.021-2.3.158.223.863-.223.864Zm3.2.219,2.145.146.318-1.228-.318-1.228-2.145.146.28,1.083-.28,1.083Zm3.091.211,2,.136.371-1.429-.371-1.43-2,.136.334,1.294-.334,1.294Zm2.988.2,1.861.127.42-1.625-.42-1.625-1.861.128.388,1.5-.388,1.5Zm2.891.2,1.728.118.469-1.814-.469-1.814-1.728.118.438,1.7-.438,1.7Zm2.8.191,2.69.184-.608,2.35,8.256-4.421-8.256-4.421.608,2.35-2.69.185.488,1.887-.488,1.887Z" transform="translate(-992.304 -940.323)" fill="#c41f1f" fill-rule="evenodd"/>
        <path id="Trazado_31484" data-name="Trazado 31484" d="M1005.309,946.172l2.792.191.049-.191-.049-.191-2.792.191Zm3.571.244,2.628.179.109-.424-.109-.424-2.628.18.064.244-.064.244Zm3.45.236,2.458.167.168-.647-.168-.649-2.458.169.124.479-.124.48Zm3.321.227,2.3.158.224-.865-.224-.865-2.3.157.183.708-.183.707Zm3.2.219,2.144.146.278-1.072L1021,945.1l-2.144.148.239.926-.239.926Zm3.091.212,2,.136.33-1.273-.33-1.275-2,.138.294,1.138-.294,1.138Zm2.987.2,1.861.127.38-1.469-.38-1.469-1.861.126.348,1.343-.348,1.343Zm2.891.2,1.728.118.429-1.658-.429-1.659-1.728.12.4,1.539-.4,1.54Zm2.8.191,2.851.195-.566,2.185,7.677-4.111-7.677-4.111.566,2.186-2.851.194.447,1.731-.447,1.731Z" transform="translate(-996.024 -940.819)" fill="#c92929" fill-rule="evenodd"/>
        <path id="Trazado_31485" data-name="Trazado 31485" d="M1011.351,946.669l.51.035.009-.035-.009-.035-.51.035Zm1.29.088,2.628.18.069-.268-.069-.268-2.628.179.023.089-.023.088Zm3.45.236,2.457.168.128-.492-.128-.493-2.457.169.083.323-.083.324Zm3.32.227,2.3.157.183-.708-.183-.708-2.3.157.143.552-.143.551Zm3.2.219,2.144.147.238-.917-.238-.917-2.144.147.2.77-.2.77Zm3.091.211,2,.137.29-1.118-.29-1.119-2,.137.254.982-.254.981Zm2.988.205,1.861.127.34-1.313-.34-1.313-1.861.128.307,1.186-.307,1.187Zm2.891.2,1.729.119.389-1.5-.389-1.5-1.729.118.358,1.383-.358,1.384Zm2.8.191,3.012.206-.522,2.019,7.1-3.8-7.1-3.8.522,2.019-3.012.206.408,1.575-.408,1.575Z" transform="translate(-999.744 -941.317)" fill="#c33" fill-rule="evenodd"/>
        <path id="Trazado_31486" data-name="Trazado 31486" d="M1017.391,947.166l1.637.112.029-.112-.029-.112-1.637.112Zm2.459.168,2.458.167.087-.335-.087-.337-2.458.169.044.167-.044.168Zm3.321.228,2.3.157.143-.552-.143-.552-2.3.157.1.4-.1.4Zm3.2.218,2.144.146.2-.76-.2-.761-2.144.147.159.614-.159.614Zm3.091.213,2,.136.249-.962-.249-.962-2,.136.213.826-.213.826Zm2.988.2,1.86.128.3-1.157-.3-1.157-1.86.127.266,1.03-.266,1.029Zm2.89.2,1.729.119.348-1.346-.348-1.346-1.729.118.318,1.228-.318,1.228Zm2.8.191,3.172.217-.48,1.854,6.518-3.491-6.518-3.49.48,1.854-3.172.216.367,1.42-.367,1.419Z" transform="translate(-1003.463 -941.814)" fill="#d13d3d" fill-rule="evenodd"/>
        <path id="Trazado_31487" data-name="Trazado 31487" d="M1023.9,947.676l2.458.168.047-.18-.047-.181-2.458.169,0,.012,0,.012Zm3.321.228,2.3.157.1-.4-.1-.4-2.3.158.062.239-.062.239Zm3.2.219,2.145.146.156-.6-.156-.606-2.145.147.118.459-.118.458Zm3.091.211,2,.137.209-.807-.209-.806-2,.137.173.669-.173.669Zm2.987.2,1.862.126.259-1-.259-1-1.862.128.226.874-.226.874Zm2.892.2,1.728.118.308-1.19-.308-1.19-1.728.118.277,1.072-.277,1.072Zm2.8.191,3.333.229-.437,1.688,5.939-3.18-5.939-3.18.437,1.689-3.333.228.327,1.263-.327,1.263Z" transform="translate(-1007.468 -942.311)" fill="#d64747" fill-rule="evenodd"/>
        <path id="Trazado_31488" data-name="Trazado 31488" d="M1029.473,948.161l.355.024.007-.024-.007-.026-.355.026Zm1.219.083,2.3.158.062-.241-.062-.241-2.3.158.021.083-.021.083Zm3.2.22,2.144.147.116-.45-.116-.449-2.144.146.078.3-.078.3Zm3.091.211,2,.136.168-.65-.168-.651-2,.137.132.514-.132.513Zm2.988.2,1.861.128.218-.845-.218-.844-1.861.126.186.718-.186.717Zm2.891.2,1.729.118.267-1.034-.267-1.034-1.729.119.237.916-.237.916Zm2.8.191,3.494.239-.394,1.523,5.359-2.87-5.359-2.87.394,1.524-3.494.24.286,1.107-.286,1.107Z" transform="translate(-1010.903 -942.808)" fill="#d95454" fill-rule="evenodd"/>
        <path id="Trazado_31489" data-name="Trazado 31489" d="M1035.515,948.659l1.234.084.021-.084-.021-.084-1.234.084Zm2.139.147,2.144.146.076-.293-.076-.293-2.144.146.037.146-.037.147Zm3.091.21,2,.138.128-.495-.128-.495-2,.136.092.358-.092.357Zm2.987.205,1.861.127.178-.689-.178-.69-1.861.127.146.562-.146.562Zm2.891.2,1.729.119.227-.878-.227-.878-1.729.118.2.76-.2.759Zm2.8.191,3.655.25-.352,1.359,4.78-2.56-4.78-2.559.352,1.358-3.655.249.246.952-.246.951Z" transform="translate(-1014.623 -943.307)" fill="#de5c5c" fill-rule="evenodd"/>
        <path id="Trazado_31490" data-name="Trazado 31490" d="M1041.556,949.155l2,.137.035-.137-.035-.137-2,.137Zm2.949.2,2,.136.088-.338-.088-.339-2,.136.052.2-.052.2Zm2.988.2,1.861.128.138-.533-.138-.533-1.861.127.1.406-.1.406Zm2.89.2,1.729.118.187-.721-.187-.722-1.729.118.156.6-.156.6Zm2.8.192,3.816.26-.309,1.193,4.2-2.249-4.2-2.249L1057,948.1l-3.816.26.206.8-.206.8Z" transform="translate(-1018.343 -943.803)" fill="#e36969" fill-rule="evenodd"/>
        <path id="Trazado_31491" data-name="Trazado 31491" d="M1049.334,949.7l2,.136.048-.181-.048-.183-2,.138.012.046-.012.046Zm2.988.2,1.861.127.1-.376-.1-.377-1.861.126.065.251-.065.25Zm2.891.2,1.729.118.146-.566-.146-.566-1.729.118.116.448-.116.448Zm2.8.191,3.976.272-.266,1.027,3.621-1.938-3.621-1.939.266,1.028-3.976.272.165.639-.165.639Z" transform="translate(-1023.132 -944.3)" fill="#e67373" fill-rule="evenodd"/>
        <path id="Trazado_31492" data-name="Trazado 31492" d="M1053.638,950.149l.387.025.007-.025-.007-.027-.387.027Zm1.375.094,1.861.127.057-.221-.057-.221-1.861.127.024.094-.024.094Zm2.891.2,1.729.117.106-.41-.106-.411-1.729.119.076.292-.076.292Zm2.8.191,4.137.283-.223.862,3.041-1.628-3.041-1.629.223.863-4.137.284.125.483-.125.483Z" transform="translate(-1025.782 -944.797)" fill="#eb7d7d" fill-rule="evenodd"/>
        <path id="Trazado_31493" data-name="Trazado 31493" d="M1059.679,950.645l.955.065.016-.065-.016-.065-.955.065Zm1.985.136,1.729.118.065-.254-.065-.254-1.729.118.035.136-.035.136Zm2.8.191,4.3.294-.18.7,2.462-1.318-2.462-1.319.18.7-4.3.292.084.328-.084.327Z" transform="translate(-1029.502 -945.293)" fill="#ed8787" fill-rule="evenodd"/>
        <path id="Trazado_31494" data-name="Trazado 31494" d="M1065.72,951.145l1.432.1.026-.1-.026-.1-1.432.1Zm2.5.172,4.458.3-.138.532,1.883-1.009-1.883-1.008.138.532-4.458.3.044.171-.044.172Z" transform="translate(-1033.222 -945.792)" fill="#f29191" fill-rule="evenodd"/>
        <path id="Trazado_31495" data-name="Trazado 31495" d="M1072.342,951.656l4.619.316-.094.367,1.3-.7-1.3-.7.094.367-4.619.315,0,.016,0,.015Z" transform="translate(-1037.299 -946.289)" fill="#f79c9c" fill-rule="evenodd"/>
        <path id="Trazado_31496" data-name="Trazado 31496" d="M1077.8,952.138l2.722.187-.052.2.724-.388-.724-.388.052.2-2.722.185Z" transform="translate(-1040.662 -946.785)" fill="#faa6a6" fill-rule="evenodd"/>
        <path id="Trazado_31497" data-name="Trazado 31497" d="M1083.844,952.635l.6.041-.01.036.145-.077-.145-.078.01.037-.6.041Z" transform="translate(-1044.382 -947.282)" fill="#ffb0b0" fill-rule="evenodd"/>
      </g>
      <g id="Grupo_15703" data-name="Grupo 15703" transform="translate(931.815 123.477)">
        <path id="Trazado_31498" data-name="Trazado 31498" d="M2440.678,343.778l5.191.355.091-.355-.091-.355-5.191.355Zm5.966.408,3.333.227.165-.636-.165-.636-3.333.228.1.408-.1.408Zm4.153.284,3.12.213.235-.905-.235-.905-3.12.213.179.692-.179.692Zm3.987.272,2.919.2.3-1.164-.3-1.164-2.919.2.25.964-.25.964Zm3.832.262,2.731.187.366-1.414-.366-1.414-2.731.188.318,1.227-.318,1.227Zm3.691.252,2.552.174.428-1.653-.428-1.654-2.552.174.382,1.479-.382,1.479Zm3.558.243,2.382.163.488-1.885-.488-1.885-2.382.163.445,1.723-.445,1.722Zm3.435.236,2.22.152.547-2.11-.547-2.109-2.22.152.506,1.957-.506,1.958Zm3.317.227,2.069.141.6-2.326-.6-2.326-2.069.141.566,2.184-.566,2.184Zm3.213.219,1.922.131.655-2.535-.655-2.536-1.922.131.622,2.4-.622,2.4Zm3.113.213,2.452.168-.817,3.163,11.1-5.947-11.1-5.947.817,3.162-2.452.168.676,2.617-.676,2.617Z" transform="translate(-2440.678 -337.831)" fill="#b80000"/>
        <path id="Trazado_31499" data-name="Trazado 31499" d="M2447.393,344.331l2.656.181.046-.181-.046-.182-2.656.182Zm3.43.234,3.334.228.119-.462-.119-.463-3.334.228.062.234-.062.234Zm4.155.284,3.12.214.19-.732-.19-.732-3.12.213.134.519-.134.519Zm3.987.273,2.919.2.256-.991-.256-.991-2.919.2.2.792-.2.792Zm3.832.262,2.731.187.322-1.24-.322-1.24-2.731.187.273,1.053-.273,1.053Zm3.691.252,2.551.175.384-1.481-.384-1.481-2.551.175.337,1.306-.337,1.306Zm3.557.243,2.383.163.443-1.712-.443-1.712-2.383.163.4,1.549-.4,1.549Zm3.435.235,2.221.152.5-1.936-.5-1.936-2.222.152.462,1.784-.462,1.784Zm3.319.227,2.068.142.556-2.153-.556-2.153-2.068.141.521,2.011-.521,2.011Zm3.213.22,1.92.131.611-2.362-.611-2.362-1.92.131.576,2.231-.576,2.231Zm3.112.213,2.632.18-.771,2.978,10.461-5.6-10.461-5.6.771,2.978-2.632.18.632,2.443-.632,2.443Z" transform="translate(-2444.813 -338.384)" fill="#bd0a0a" fill-rule="evenodd"/>
        <path id="Trazado_31500" data-name="Trazado 31500" d="M2454.1,344.883l.123.008,0-.008,0-.008-.123.008Zm.9.061,3.333.227.075-.289-.075-.289-3.333.228.015.061-.015.061Zm4.153.284,3.12.214.145-.559-.145-.559-3.12.213.089.345-.089.345Zm3.987.273,2.919.2.211-.818-.211-.818-2.919.2.16.618-.16.618Zm3.832.262,2.731.187.277-1.067-.277-1.067-2.731.186.228.881-.228.88Zm3.691.252,2.551.174.339-1.307-.339-1.307-2.551.174.292,1.132-.292,1.132Zm3.557.243,2.382.163.4-1.539-.4-1.539-2.382.163.356,1.376-.356,1.376Zm3.435.235,2.221.152.457-1.763-.457-1.763-2.221.152.417,1.61-.417,1.61Zm3.319.227,2.067.141.512-1.979-.512-1.979-2.067.141.476,1.838-.476,1.837Zm3.213.22,1.921.131.566-2.189-.566-2.189-1.921.131.531,2.057-.531,2.057Zm3.113.213,2.81.192-.723,2.8,9.815-5.258-9.815-5.257.723,2.795-2.81.193.585,2.27-.585,2.27Z" transform="translate(-2448.945 -338.936)" fill="#bf1212" fill-rule="evenodd"/>
        <path id="Trazado_31501" data-name="Trazado 31501" d="M2460.816,345.436l1.7.116.03-.116-.03-.116-1.7.116Zm2.516.172,3.12.213.1-.385-.1-.386-3.12.214.045.172-.045.172Zm3.988.272,2.919.2.167-.644-.167-.645-2.919.2.115.445-.115.444Zm3.833.262,2.731.187.231-.893-.231-.894-2.731.187.183.707-.183.707Zm3.69.252,2.552.174.293-1.134-.293-1.134-2.552.174.248.959-.248.959Zm3.557.243,2.383.163.353-1.366-.353-1.366-2.383.163.312,1.2-.312,1.2Zm3.434.235,2.222.152.412-1.589-.412-1.589-2.222.152.373,1.437-.373,1.437Zm3.32.227,2.068.141.467-1.806-.467-1.806-2.068.141.431,1.664-.431,1.664Zm3.212.219,1.921.132.521-2.015-.521-2.016-1.921.132.487,1.884-.487,1.884Zm3.111.213,2.989.2-.675,2.611,9.174-4.913-9.174-4.913.675,2.611-2.989.2.542,2.1-.542,2.1Z" transform="translate(-2453.078 -339.489)" fill="#c41f1f" fill-rule="evenodd"/>
        <path id="Trazado_31502" data-name="Trazado 31502" d="M2467.529,345.988l3.1.212.055-.212-.055-.212-3.1.212Zm3.969.271,2.918.2.122-.471-.122-.471-2.918.2.071.271-.071.271Zm3.833.262,2.731.187.186-.72-.186-.72-2.731.187.138.534-.138.533Zm3.689.253,2.551.174.25-.96-.25-.96-2.551.174.2.786-.2.786Zm3.558.243,2.382.163.308-1.192-.308-1.192-2.382.163.266,1.029-.266,1.029Zm3.435.234,2.219.152.368-1.416-.368-1.416-2.219.153.326,1.264-.326,1.264Zm3.318.227,2.067.141.422-1.632-.422-1.633-2.067.142.385,1.491-.385,1.491Zm3.212.22,1.921.131.476-1.842-.476-1.842-1.921.132.442,1.711-.442,1.711Zm3.112.213,3.168.216-.63,2.428,8.531-4.568-8.531-4.568.63,2.428-3.168.216.5,1.924-.5,1.924Z" transform="translate(-2457.211 -340.041)" fill="#c92929" fill-rule="evenodd"/>
        <path id="Trazado_31503" data-name="Trazado 31503" d="M2474.24,346.54l.568.039.009-.039-.009-.039-.568.039Zm1.435.1,2.919.2.076-.3-.076-.3-2.919.2.025.1-.025.1Zm3.832.262,2.73.187.142-.547-.142-.547-2.73.187.093.36-.093.36Zm3.689.252,2.551.174.2-.787-.2-.787-2.551.175.158.613-.158.612Zm3.558.243,2.382.163.263-1.018-.263-1.019-2.382.163.22.856-.22.856Zm3.434.235,2.221.152.322-1.243-.322-1.243-2.221.152.282,1.091-.282,1.09Zm3.319.227,2.068.141.377-1.459-.377-1.459-2.068.141.341,1.318-.341,1.318Zm3.213.22,1.92.131.432-1.668-.432-1.669-1.92.132.4,1.537-.4,1.538Zm3.111.212,3.346.229-.58,2.244,7.886-4.223-7.886-4.223.58,2.244-3.346.228.452,1.751-.452,1.75Z" transform="translate(-2461.344 -340.593)" fill="#c33" fill-rule="evenodd"/>
        <path id="Trazado_31504" data-name="Trazado 31504" d="M2480.955,347.093l1.818.124.032-.124-.032-.125-1.818.125Zm2.732.186,2.73.187.1-.373-.1-.374-2.73.187.049.187-.049.186Zm3.689.253,2.552.174.16-.614-.16-.614-2.552.175.114.439-.114.439Zm3.56.243,2.381.163.218-.845-.218-.845-2.381.163.175.682-.175.682Zm3.432.236,2.222.151.277-1.069-.277-1.07-2.222.152.238.918-.238.918Zm3.319.227,2.069.142.332-1.286-.332-1.286-2.069.141.3,1.144-.3,1.144Zm3.213.22,1.921.131.386-1.5-.386-1.5-1.921.131.352,1.364-.352,1.364Zm3.111.213,3.525.241-.533,2.061,7.242-3.879L2507,343.214l.533,2.061-3.525.241.408,1.577-.408,1.577Z" transform="translate(-2465.479 -341.146)" fill="#d13d3d" fill-rule="evenodd"/>
        <path id="Trazado_31505" data-name="Trazado 31505" d="M2488.182,347.658l2.73.187.052-.2-.052-.2-2.73.186,0,.013,0,.013Zm3.69.252,2.552.175.114-.441-.114-.44-2.552.174.068.266-.068.265Zm3.557.244,2.384.163.173-.672-.173-.672-2.384.163.132.509-.132.509Zm3.435.235,2.221.152.233-.9-.233-.9-2.221.152.193.744-.193.744Zm3.32.227,2.067.142.288-1.113-.288-1.112-2.067.141.251.971-.251.971Zm3.212.22,1.921.131.341-1.322-.341-1.322-1.921.131.307,1.191-.307,1.191Zm3.111.212,3.7.254-.486,1.876,6.6-3.534-6.6-3.534.486,1.877-3.7.253.363,1.4-.363,1.4Z" transform="translate(-2469.928 -341.698)" fill="#d64747" fill-rule="evenodd"/>
        <path id="Trazado_31506" data-name="Trazado 31506" d="M2494.379,348.2l.395.026.007-.026-.007-.027-.395.027Zm1.353.093,2.552.174.069-.267-.069-.267-2.552.174.024.093-.024.093Zm3.557.243,2.383.163.129-.5-.129-.5-2.383.164.087.336-.087.336Zm3.435.235,2.221.152.188-.722-.188-.723-2.221.152.148.571-.148.571Zm3.32.227,2.068.141.242-.939-.242-.939-2.068.141.207.8-.207.8Zm3.212.22,1.922.131.3-1.148-.3-1.149-1.922.131.262,1.017-.262,1.017Zm3.111.212,3.883.266-.438,1.693,5.954-3.189-5.954-3.189.438,1.694-3.883.265.318,1.23-.318,1.23Z" transform="translate(-2473.744 -342.25)" fill="#d95454" fill-rule="evenodd"/>
        <path id="Trazado_31507" data-name="Trazado 31507" d="M2501.092,348.751l1.372.094.023-.094-.023-.093-1.372.093Zm2.375.163,2.383.163.084-.326-.084-.326-2.383.163.043.163-.043.163Zm3.435.234,2.22.152.144-.549-.144-.55-2.22.152.1.4-.1.4Zm3.32.227,2.068.141.2-.766-.2-.766-2.068.141.161.625-.161.624Zm3.212.22,1.921.131.251-.975-.251-.975-1.921.131.218.844-.218.844Zm3.111.212,4.062.278-.391,1.509,5.311-2.843-5.311-2.844.391,1.509-4.062.277.273,1.057-.273,1.057Z" transform="translate(-2477.878 -342.804)" fill="#de5c5c" fill-rule="evenodd"/>
        <path id="Trazado_31508" data-name="Trazado 31508" d="M2507.8,349.3l2.225.152.039-.152-.039-.152-2.225.152Zm3.276.224,2.222.152.1-.376-.1-.376-2.222.152.059.224-.059.224Zm3.321.227,2.068.141.152-.593-.152-.593-2.068.141.116.451-.116.451Zm3.211.219,1.922.131.207-.8-.207-.8-1.922.131.173.671-.173.671Zm3.112.213,4.24.29-.344,1.326,4.668-2.5-4.668-2.5.344,1.325-4.24.29.229.884-.229.884Z" transform="translate(-2482.012 -343.356)" fill="#e36969" fill-rule="evenodd"/>
        <path id="Trazado_31509" data-name="Trazado 31509" d="M2516.445,349.906l2.223.152.052-.2-.052-.2-2.223.151.014.051-.014.05Zm3.32.227,2.068.141.107-.419-.107-.419-2.068.141.072.278-.072.278Zm3.213.219,1.919.131.163-.629-.163-.629-1.919.131.127.5-.127.5Zm3.111.213,4.418.3-.3,1.142,4.023-2.154-4.023-2.155.3,1.142-4.418.3.184.711-.184.71Z" transform="translate(-2487.331 -343.908)" fill="#e67373" fill-rule="evenodd"/>
        <path id="Trazado_31510" data-name="Trazado 31510" d="M2521.23,350.407l.429.029.008-.029-.008-.029-.429.029Zm1.527.1,2.067.141.064-.246-.064-.246-2.067.141.027.1-.027.1Zm3.212.219,1.921.131.117-.456-.117-.455-1.921.131.083.324-.083.324Zm3.111.212,4.6.315-.248.958,3.38-1.81-3.38-1.81.248.959-4.6.315.139.537-.139.537Z" transform="translate(-2490.278 -344.46)" fill="#eb7d7d" fill-rule="evenodd"/>
        <path id="Trazado_31511" data-name="Trazado 31511" d="M2527.941,350.961l1.06.073.019-.073-.019-.072-1.06.072Zm2.206.151,1.92.131.073-.282-.073-.282-1.92.131.037.151-.037.151Zm3.11.212,4.777.327-.2.775,2.734-1.465-2.734-1.465.2.774-4.777.327.094.363-.094.363Z" transform="translate(-2494.41 -345.014)" fill="#ed8787" fill-rule="evenodd"/>
        <path id="Trazado_31512" data-name="Trazado 31512" d="M2534.654,351.512l1.591.109.028-.109-.028-.109-1.591.109Zm2.782.19,4.953.339-.153.591,2.092-1.12-2.092-1.12.153.591-4.953.339.048.19-.048.19Z" transform="translate(-2498.544 -345.565)" fill="#f29191" fill-rule="evenodd"/>
        <path id="Trazado_31513" data-name="Trazado 31513" d="M2542.01,352.081l5.133.351-.1.408,1.447-.775-1.447-.776.1.408-5.133.351,0,.017,0,.017Z" transform="translate(-2503.073 -346.118)" fill="#f79c9c" fill-rule="evenodd"/>
        <path id="Trazado_31514" data-name="Trazado 31514" d="M2548.078,352.618l3.024.207-.058.224.8-.431-.8-.431.058.224-3.024.207Z" transform="translate(-2506.81 -346.671)" fill="#faa6a6" fill-rule="evenodd"/>
        <path id="Trazado_31515" data-name="Trazado 31515" d="M2554.791,353.17l.669.046-.011.041.161-.086-.161-.086.011.04-.669.046Z" transform="translate(-2510.944 -347.223)" fill="#ffb0b0" fill-rule="evenodd"/>
      </g>
      <path id="Trazado_31516" data-name="Trazado 31516" d="M240.868,783.674V750.362h.638v33.312Zm285.312,0V750.362h.638v33.312Z" transform="translate(-154.324 -468.371)" fill="#4d4d4d"/>
      <path id="Trazado_31517" data-name="Trazado 31517" d="M2152.7,49.8V16.484h.637V49.8Zm-183.057,0V16.484h.636V49.8Z" transform="translate(-1218.823 -16.484)" fill="#4d4d4d"/>
      <path id="Trazado_31518" data-name="Trazado 31518" d="M241.7,772.639l8.925-3.826a8.133,8.133,0,0,0,0,7.651l-8.925-3.825Zm285.311,0-8.925-3.826a8.708,8.708,0,0,1,.929,3.188h-2.367v1.275h2.367a8.732,8.732,0,0,1-.929,3.188l8.925-3.825Zm-11.6-.638v1.275h-2.471V772Zm-3.705,0v1.275h-2.47V772Zm-3.7,0v1.275h-2.47V772Zm-3.7,0v1.275h-2.471V772Zm-3.706,0v1.275h-2.469V772Zm-3.7,0v1.275h-2.47V772Zm-3.7,0v1.275h-2.47V772Zm-3.705,0v1.275h-2.47V772Zm-3.705,0v1.275H483.3V772Zm-3.7,0v1.275H479.6V772Zm-3.705,0v1.275h-2.47V772Zm-3.7,0v1.275h-2.47V772Zm-3.705,0v1.275h-2.47V772Zm-3.705,0v1.275h-2.47V772Zm-3.7,0v1.275h-2.47V772Zm-3.705,0v1.275h-2.47V772Zm-3.705,0v1.275h-2.47V772Zm-3.7,0v1.275h-2.471V772Zm-3.706,0v1.275h-2.47V772Zm-3.705,0v1.275h-2.47V772Zm-3.7,0v1.275h-2.47V772Zm-3.705,0v1.275h-2.47V772Zm-3.7,0v1.275h-2.47V772Zm-3.705,0v1.275h-2.47V772Zm-3.7,0v1.275h-2.47V772Zm-81.663,1.275h-2.315V772h2.315v1.275ZM341.277,772v1.275h-2.47V772Zm-3.705,0v1.275H335.1V772Zm-3.7,0v1.275H331.4V772Zm-3.7,0v1.275h-2.47V772Zm-3.705,0v1.275h-2.47V772Zm-3.7,0v1.275h-2.47V772Zm-3.7,0v1.275h-2.47V772Zm-3.7,0v1.275h-2.47V772Zm-3.7,0v1.275h-2.47V772Zm-3.7,0v1.275h-2.47V772Zm-3.7,0v1.275h-2.47V772Zm-3.7,0v1.275h-2.47V772Zm-3.7,0v1.275h-2.47V772Zm-3.705,0v1.275h-2.47V772Zm-3.7,0v1.275h-2.47V772Zm-3.7,0v1.275h-2.47V772ZM282,772v1.275h-2.47V772Zm-3.7,0v1.275h-2.47V772Zm-3.7,0v1.275h-2.471V772Zm-3.706,0v1.275h-2.47V772Zm-3.7,0v1.275h-2.47V772Zm-3.7,0v1.275H261V772Zm-3.705,0v1.275H257.3V772Zm-3.7,0v1.275h-2.47V772Zm-3.7,0v1.275h-2.47V772Z" transform="translate(-154.836 -479.733)" fill="#4d4d4d"/>
      <path id="Trazado_31519" data-name="Trazado 31519" d="M1970.473,40.1l8.925-3.825a8.133,8.133,0,0,0,0,7.65l-8.925-3.825Zm183.057,0L2144.6,36.28a8.126,8.126,0,0,1,0,7.65l8.926-3.825Zm-8.809-.637v1.275H2142.3V39.467Zm-3.638,0v1.275h-2.425V39.467Zm-3.638,0v1.275h-2.424V39.467Zm-3.636,0v1.275h-2.427V39.467Zm-3.638,0v1.275h-2.426V39.467Zm-3.638,0v1.275h-2.424V39.467Zm-3.638,0v1.275h-2.425V39.467Zm-3.637,0v1.275h-2.426V39.467Zm-3.638,0v1.275h-2.425V39.467Zm-3.638,0v1.275h-2.425V39.467Zm-3.638,0v1.275h-2.424V39.467Zm-3.637,0v1.275h-2.427V39.467Zm-83.67,0v1.275h-2.426V39.467Zm-3.639,0v1.275h-2.424V39.467Zm-3.637,0v1.275h-2.425V39.467Zm-3.638,0v1.275H2007.7V39.467Zm-3.638,0v1.275h-2.425V39.467Zm-3.637,0v1.275h-2.426V39.467Zm-3.639,0v1.275h-2.424V39.467Zm-3.637,0v1.275h-2.425V39.467Zm-3.638,0v1.275h-2.424V39.467Zm-3.637,0v1.275h-2.426V39.467Zm-3.638,0v1.275h-2.425V39.467Zm-3.637,0v1.275H1978.6V39.467Z" transform="translate(-1219.333 -28.673)" fill="#4d4d4d"/>
      <path id="Trazado_31520" data-name="Trazado 31520" d="M124.323,938.577c-.181.993-1.3,6.868-1.3,7.5s.424.618,1.033.618l-.083.553a39.426,39.426,0,0,0-4.175,0l.09-.553c.814,0,1.3-.362,1.507-1.556l.006,0c1.047-5.992,1.354-5.557-.69-5.1l-.113-.468a31.069,31.069,0,0,0,3.73-.985Zm-8.9-8.717-1.029,6.418c1.17,0,2.526.229,3.492-.86.918-1.032,1.175-3.879.168-4.911a3.442,3.442,0,0,0-2.631-.648Zm-1.187,7.441c-.089.536-.708,4-.708,4.488,0,.731.814.729,1.8.729l-.01.9a59.007,59.007,0,0,0-6.535,0v-.9c1.129-.028,1.434-.225,1.61-1.309.213-1.312,1.671-9.878,1.671-10.631,0-.582-.554-.652-1.3-.727v-.9c2.385.088,3.578,0,5.935,0,2.95,0,5.358,1.024,5.358,4.065,0,4.125-4.022,4.557-7.625,4.3-.081-.006-.141-.013-.188-.02Z" transform="translate(-72.99 -578.34)"/>
      <g id="Grupo_15704" data-name="Grupo 15704" transform="translate(732.215 32.637)" style="mix-blend-mode: screen;isolation: isolate">
        <path id="Trazado_31521" data-name="Trazado 31521" d="M1941.227,103.178c10.079,0,18.249,43.031,18.249,96.112s-8.171,96.112-18.249,96.112-18.25-43.031-18.25-96.112,8.171-96.112,18.25-96.112Z" transform="translate(-1922.302 -102.503)" fill-rule="evenodd" fill="url(#radial-gradient-2)"/>
        <path id="Trazado_31522" data-name="Trazado 31522" d="M1940.146,295c-11.846,0-18.925-49.211-18.925-96.787s7.079-96.787,18.925-96.787,18.924,49.211,18.924,96.787S1951.992,295,1940.146,295Zm0-192.224c-4.449,0-8.911,10.06-12.242,27.6-3.439,18.113-5.334,42.2-5.334,67.835s1.895,49.722,5.334,67.835c3.331,17.541,7.793,27.6,12.242,27.6s8.911-10.06,12.241-27.6c3.439-18.113,5.333-42.2,5.333-67.835s-1.894-49.722-5.333-67.835C1949.057,112.832,1944.595,102.771,1940.146,102.771Z" transform="translate(-1921.221 -101.422)" fill="#0b2e38"/>
      </g>
      <g id="Grupo_15705" data-name="Grupo 15705" transform="translate(750.466 32.637)" style="mix-blend-mode: screen;isolation: isolate">
        <path id="Trazado_31523" data-name="Trazado 31523" d="M1970.473,295.4H2153.53c10.08,0,18.251-43.031,18.251-96.112s-8.171-96.112-18.251-96.112H1970.473c10.079,0,18.25,43.031,18.25,96.112s-8.171,96.112-18.25,96.112Z" transform="translate(-1969.798 -102.503)" fill="url(#linear-gradient)"/>
        <path id="Trazado_31524" data-name="Trazado 31524" d="M2152.448,295H1969.392a.675.675,0,0,1,0-1.349c4.449,0,8.911-10.06,12.241-27.6,3.439-18.113,5.334-42.2,5.334-67.835s-1.895-49.722-5.334-67.835c-3.331-17.541-7.792-27.6-12.241-27.6a.675.675,0,0,1,0-1.349h183.057c11.846,0,18.925,49.211,18.925,96.787S2164.295,295,2152.448,295Zm-179.738-1.349h179.738c4.449,0,8.911-10.06,12.242-27.6,3.44-18.113,5.334-42.2,5.334-67.835s-1.894-49.722-5.334-67.835c-3.331-17.541-7.793-27.6-12.242-27.6H1972.71c9.837,8.205,15.606,52.487,15.606,95.437S1982.547,285.441,1972.71,293.646Z" transform="translate(-1968.717 -101.422)" fill="#26516a"/>
      </g>
      <g id="Grupo_15706" data-name="Grupo 15706" transform="translate(86.189 314.628)" style="mix-blend-mode: screen;isolation: isolate">
        <path id="Trazado_31525" data-name="Trazado 31525" d="M527.01,925.973H241.7c4.662,0,8.441-19.9,8.441-44.458s-3.779-44.459-8.441-44.459H527.01c4.663,0,8.443,19.905,8.443,44.459s-3.78,44.458-8.443,44.458Z" transform="translate(-241.024 -836.38)" fill="url(#linear-gradient-2)"/>
        <path id="Trazado_31526" data-name="Trazado 31526" d="M525.929,925.566H240.618a.675.675,0,1,1,0-1.349c3.174,0,7.767-15.592,7.767-43.784s-4.593-43.785-7.767-43.785a.675.675,0,1,1,0-1.349H525.929c5.922,0,9.117,23.254,9.117,45.134S531.851,925.566,525.929,925.566Zm-282.944-1.349H525.929c3.175,0,7.768-15.592,7.768-43.784s-4.593-43.785-7.768-43.785H242.985c4.4,5.26,6.749,25.027,6.749,43.785S247.386,918.957,242.985,924.217Z" transform="translate(-239.943 -835.299)" fill="#26516a"/>
      </g>
      <path id="Trazado_31527" data-name="Trazado 31527" d="M606.828,1137.851,603,1128.925a8.132,8.132,0,0,0,7.65,0l-3.825,8.926Zm0-185.093L603,961.683a8.719,8.719,0,0,1,3.188-.929V962.3h1.275v-1.546a8.734,8.734,0,0,1,3.187.929l-3.825-8.925Zm-.637,10.755h1.275v2.427h-1.275v-2.427Zm0,3.64h1.275v2.426h-1.275v-2.426Zm0,3.641h1.275v2.426h-1.275v-2.426Zm0,3.639h1.275v2.427h-1.275v-2.427Zm0,3.64h1.275V980.5h-1.275v-2.426Zm0,3.64h1.275v2.427h-1.275v-2.427Zm0,3.639h1.275v2.428h-1.275v-2.428Zm0,3.641h1.275v2.426h-1.275v-2.426Zm0,3.64h1.275v2.427h-1.275v-2.427Zm0,3.64h1.275V998.7h-1.275v-2.426Zm0,3.639h1.275v2.426h-1.275v-2.426Zm0,3.64h1.275v2.427h-1.275v-2.427Zm0,3.639h1.275v2.427h-1.275v-2.427Zm0,3.64h1.275v2.426h-1.275v-2.426Zm0,3.64h1.275v2.427h-1.275v-2.427Zm0,3.64h1.275v2.426h-1.275v-2.426Zm0,3.64h1.275v2.427h-1.275v-2.427Zm0,3.639h1.275v2.427h-1.275v-2.427Zm0,3.641h1.275v2.426h-1.275v-2.426Zm0,3.639h1.275v1.05q-.317,0-.638,0t-.637,0v-1.05Zm1.275,24.221v.044h-1.275v-.044c.212,0,.424,0,.637,0s.426,0,.638,0Zm-1.275,1.257h1.275v2.427h-1.275v-2.427Zm0,3.64h1.275v2.426h-1.275v-2.426Zm0,3.64h1.275v2.426h-1.275v-2.426Zm0,3.639h1.275v2.427h-1.275v-2.427Zm0,3.641h1.275v2.426h-1.275v-2.426Zm0,3.639h1.275v2.426h-1.275v-2.426Zm0,3.639h1.275v2.427h-1.275v-2.427Zm0,3.64h1.275v2.426h-1.275v-2.426Zm0,3.639h1.275v2.426h-1.275v-2.426Zm0,3.64h1.275v2.426h-1.275V1090.9Zm0,3.639h1.275v2.426h-1.275v-2.426Zm0,3.64h1.275v2.426h-1.275v-2.426Zm0,3.639h1.275v2.427h-1.275v-2.427Zm0,3.64h1.275v2.426h-1.275v-2.426Zm0,3.64h1.275v2.425h-1.275V1109.1Zm0,3.639h1.275v2.427h-1.275v-2.427Zm0,3.64h1.275v2.426h-1.275v-2.426Zm0,3.639h1.275v2.427h-1.275v-2.427Zm0,3.64h1.275v2.426h-1.275v-2.426Zm0,3.641h1.275v2.425h-1.275V1127.3Z" transform="translate(-377.31 -592.997)" fill="#2e3333"/>
      <path id="Trazado_31528" data-name="Trazado 31528" d="M2202.544,768.791l-3.825-8.926a8.127,8.127,0,0,0,7.651,0l-3.826,8.926Zm0-415.484-3.825,8.925a8.131,8.131,0,0,1,7.651,0l-3.826-8.925Zm-.638,8.057h1.276v2.5h-1.276v-2.5Zm0,3.743h1.276v2.5h-1.276v-2.5Zm0,3.743h1.276v2.5h-1.276v-2.5Zm0,3.743h1.276v2.495h-1.276v-2.495Zm0,3.743h1.276v2.495h-1.276v-2.495Zm0,3.742h1.276v2.5h-1.276v-2.5Zm0,3.743h1.276v2.495h-1.276V383.82Zm0,3.742h1.276v2.5h-1.276v-2.5Zm0,3.743h1.276v2.5h-1.276v-2.5Zm0,3.743h1.276v2.5h-1.276v-2.5Zm0,3.742h1.276v2.495h-1.276V398.79Zm0,3.743h1.276v2.495h-1.276v-2.495Zm0,3.743h1.276v2.5h-1.276v-2.5Zm0,3.743h1.276v2.495h-1.276v-2.495Zm0,3.742h1.276v2.5h-1.276v-2.5Zm0,3.743h1.276V420h-1.276v-2.5Zm0,3.743h1.276v2.5h-1.276v-2.5Zm0,3.742h1.276v2.495h-1.276v-2.495Zm0,3.743h1.276v2.495h-1.276v-2.495Zm0,3.742h1.276v2.5h-1.276v-2.5Zm0,3.743h1.276v2.495h-1.276v-2.495Zm0,3.742h1.276v2.5h-1.276v-2.5Zm0,3.743h1.276V446.2h-1.276V443.7Zm0,3.743h1.276v2.495h-1.276v-2.495Zm0,3.743h1.276v2.495h-1.276v-2.495Zm0,3.742h1.276v2.495h-1.276v-2.495Zm0,3.742h1.276v2.495h-1.276v-2.495Zm0,3.742h1.276v2.495h-1.276v-2.495Zm0,3.743h1.276v2.495h-1.276v-2.495Zm0,3.743h1.276v2.495h-1.276V469.9Zm0,3.742h1.276v2.495h-1.276v-2.495Zm0,3.743h1.276v2.495h-1.276v-2.495Zm0,3.742h1.276v2.5h-1.276v-2.5Zm0,3.743h1.276v2.495h-1.276v-2.495Zm0,3.742h1.276v2.495h-1.276V488.61Zm0,3.742h1.276v2.495h-1.276v-2.495Zm0,3.743h1.276v2.5h-1.276v-2.5Zm0,3.743h1.276v2.495h-1.276v-2.495Zm0,3.742h1.276v2.5h-1.276v-2.5Zm0,3.743h1.276v2.5h-1.276v-2.5Zm0,3.742h1.276v2.5h-1.276v-2.5Zm0,3.743h1.276V517.3h-1.276v-2.494Zm0,3.741h1.276v2.5h-1.276v-2.5Zm0,3.743h1.276v2.5h-1.276v-2.5Zm0,3.743h1.276v2.5h-1.276v-2.5Zm0,3.743h1.276v2.495h-1.276v-2.495Zm0,3.743h1.276v2.495h-1.276V533.52Zm0,3.743h1.276v2.494h-1.276v-2.494Zm0,3.742h1.276v2.5h-1.276V541Zm0,3.743h1.276v2.5h-1.276v-2.5Zm0,3.743h1.276v.973c-.213,0-.425,0-.638,0s-.425,0-.638,0v-.973Zm1.276,24.144v.8h-1.276v-.8c.213,0,.424,0,.638,0s.425,0,.638,0Zm-1.276,2.053h1.276v2.495h-1.276v-2.495Zm0,3.742h1.276v2.495h-1.276v-2.495Zm0,3.742h1.276v2.5h-1.276v-2.5Zm0,3.743h1.276v2.495h-1.276v-2.495Zm0,3.743h1.276v2.495h-1.276v-2.495Zm0,3.743h1.276v2.495h-1.276V593.4Zm0,3.742h1.276v2.495h-1.276v-2.495Zm0,3.743h1.276v2.5h-1.276v-2.5Zm0,3.742h1.276v2.5h-1.276v-2.5Zm0,3.743h1.276v2.5h-1.276v-2.5Zm0,3.743h1.276v2.5h-1.276v-2.5Zm0,3.743h1.276v2.5h-1.276v-2.5Zm0,3.742h1.276v2.5h-1.276v-2.5Zm0,3.743h1.276v2.495h-1.276V623.34Zm0,3.743h1.276v2.495h-1.276v-2.495Zm0,3.743h1.276v2.494h-1.276v-2.494Zm0,3.742h1.276v2.495h-1.276v-2.495Zm0,3.743h1.276v2.5h-1.276v-2.5Zm0,3.743h1.276v2.494h-1.276v-2.494Zm0,3.742h1.276v2.495h-1.276v-2.495Zm0,3.743h1.276v2.495h-1.276v-2.495Zm0,3.742h1.276v2.5h-1.276v-2.5Zm0,3.743h1.276v2.5h-1.276v-2.5Zm0,3.743h1.276v2.495h-1.276v-2.495Zm0,3.742h1.276V667h-1.276v-2.5Zm0,3.743h1.276v2.5h-1.276v-2.5Zm0,3.743h1.276v2.5h-1.276v-2.5Zm0,3.743h1.276v2.495h-1.276v-2.495Zm0,3.742h1.276v2.5h-1.276v-2.5Zm0,3.743h1.276v2.495h-1.276v-2.495Zm0,3.743h1.276v2.5h-1.276v-2.5Zm0,3.743h1.276v2.5h-1.276v-2.5Zm0,3.743h1.276v2.494h-1.276v-2.494Zm0,3.742h1.276v2.495h-1.276v-2.495Zm0,3.743h1.276v2.495h-1.276v-2.495Zm0,3.743h1.276v2.495h-1.276v-2.495Zm0,3.743h1.276v2.495h-1.276v-2.495Zm0,3.742h1.276v2.5h-1.276v-2.5Zm0,3.742h1.276v2.5h-1.276v-2.5Zm0,3.743h1.276v2.5h-1.276v-2.5Zm0,3.743h1.276v2.495h-1.276v-2.495Zm0,3.742h1.276v2.495h-1.276v-2.495Zm0,3.743h1.276v2.495h-1.276v-2.495Zm0,3.743h1.276v2.5h-1.276v-2.5Zm0,3.743h1.276v2.5h-1.276v-2.5Zm0,3.742h1.276v2.5h-1.276v-2.5Zm0,3.743h1.276v2.5h-1.276v-2.5Zm0,3.743h1.276v2.5h-1.276v-2.5Zm0,3.743h1.276v2.495h-1.276v-2.495Zm0,3.742h1.276v2.494h-1.276v-2.494Z" transform="translate(-1359.876 -223.884)" fill="#2e3333"/>
      <path id="Trazado_31529" data-name="Trazado 31529" d="M2416.61,295.018a4.8,4.8,0,0,1-2.7-.894l.713-1.057a3.555,3.555,0,0,0,1.987.676Zm-3.765-1.767a13.174,13.174,0,0,1-1.694-2.062l1.055-.716a11.874,11.874,0,0,0,1.526,1.862Zm-2.4-3.175c-.407-.692-.815-1.469-1.212-2.307l1.153-.545c.381.8.77,1.546,1.158,2.206Zm-1.745-3.488c-.325-.75-.649-1.557-.962-2.4l1.194-.445c.306.821.621,1.607.937,2.336Zm-1.4-3.61c-.271-.778-.542-1.6-.8-2.445l1.218-.378c.258.83.524,1.638.791,2.4Zm-1.177-3.674c-.232-.786-.465-1.617-.694-2.472l1.232-.33c.226.844.457,1.666.685,2.441Zm-1.018-3.713c-.2-.8-.409-1.641-.608-2.491l1.241-.29q.3,1.266.6,2.466Zm-.9-3.74q-.275-1.224-.541-2.5l1.249-.259q.263,1.269.536,2.483Zm-.8-3.758q-.247-1.233-.484-2.514l1.253-.233q.237,1.271.481,2.5Zm-.713-3.772q-.223-1.24-.436-2.521l1.258-.21q.212,1.274.433,2.507Zm-.643-3.784q-.2-1.246-.394-2.527l1.261-.189q.191,1.274.391,2.514Zm-.581-3.792q-.182-1.25-.356-2.532l1.263-.172q.174,1.275.355,2.52Zm-.525-3.8q-.164-1.254-.322-2.536l1.265-.155q.157,1.276.321,2.525Zm-.475-3.8q-.149-1.257-.29-2.54l1.267-.14q.141,1.278.29,2.53Zm-.428-3.81q-.134-1.259-.262-2.542l1.269-.126q.127,1.278.26,2.533Zm-.386-3.814q-.121-1.262-.234-2.544l1.27-.113q.114,1.279.233,2.536Zm-.345-3.817q-.107-1.264-.209-2.546l1.271-.1q.1,1.279.208,2.539Zm-.307-3.82q-.1-1.265-.185-2.548l1.271-.088q.089,1.278.185,2.54Zm-.271-3.822q-.084-1.267-.162-2.549l1.273-.077q.077,1.279.161,2.542Zm-.237-3.824q-.074-1.268-.14-2.551l1.274-.066q.066,1.279.139,2.543Zm-.2-3.826q-.062-1.269-.118-2.551l1.274-.056q.055,1.28.118,2.545Zm-.172-3.827q-.052-1.27-.1-2.552l1.275-.045q.045,1.278.1,2.546Zm-.141-3.829q-.041-1.27-.077-2.553l1.274-.035q.036,1.278.077,2.546Zm-.11-3.829q-.032-1.271-.058-2.553l1.275-.025q.025,1.278.056,2.547Zm-.081-3.83q-.022-1.272-.038-2.554l1.275-.016q.015,1.278.037,2.547Zm-.052-3.831q-.012-1.272-.018-2.553L2399,200.7q.006,1.277.018,2.547Zm-.023-3.828v-1.164l0-1.389,1.275,0,0,1.386v1.162Zm1.281-3.823-1.275-.007q.007-1.281.02-2.554l1.274.013Q2399.01,194.331,2399,195.609Zm.034-3.821-1.275-.016q.016-1.282.039-2.554l1.275.023Q2399.054,190.51,2399.038,191.788Zm.063-3.821-1.275-.026q.026-1.282.059-2.553l1.274.032Q2399.126,186.689,2399.1,187.967Zm.092-3.82-1.274-.036q.037-1.281.078-2.553l1.274.042Q2399.229,182.869,2399.193,184.148Zm.122-3.819-1.274-.046q.047-1.282.1-2.552l1.274.053Q2399.361,179.049,2399.315,180.329Zm.153-3.818-1.274-.056q.057-1.282.119-2.551l1.273.063Q2399.524,175.231,2399.467,176.51Zm.184-3.816-1.273-.066q.067-1.282.141-2.551l1.273.074Q2399.718,171.416,2399.651,172.694Zm.217-3.814-1.273-.078q.078-1.283.163-2.549l1.272.085Q2399.945,167.6,2399.867,168.88Zm.249-3.812-1.272-.089q.089-1.283.187-2.548l1.271.1Q2400.206,163.789,2400.117,165.067Zm.285-3.809-1.271-.1q.1-1.282.21-2.546l1.27.109Q2400.5,159.98,2400.4,161.258Zm.321-3.806-1.27-.113q.114-1.283.236-2.545l1.269.123Q2400.836,156.173,2400.722,157.452Zm.36-3.8-1.27-.127q.129-1.282.264-2.542l1.267.136Q2401.21,152.371,2401.083,153.649Zm.4-3.8-1.268-.141q.143-1.282.292-2.539l1.266.15Q2401.625,148.574,2401.483,149.851Zm.444-3.793-1.265-.156q.158-1.282.324-2.536l1.264.168Q2402.084,144.781,2401.927,146.058Zm.492-3.786-1.263-.173q.175-1.282.358-2.532l1.261.185Q2402.594,141,2402.419,142.272Zm.543-3.778-1.261-.191q.194-1.282.4-2.527l1.259.2Q2403.156,137.219,2402.962,138.494Zm.6-3.769-1.258-.211q.216-1.281.439-2.521l1.255.226Q2403.777,133.452,2403.564,134.725Zm.665-3.756-1.253-.235q.239-1.28.487-2.513l1.25.252Q2404.467,129.7,2404.229,130.969Zm.74-3.741-1.248-.261q.267-1.28.545-2.5l1.243.282Q2405.234,125.959,2404.969,127.228Zm.826-3.72-1.241-.293c.2-.856.408-1.693.614-2.49l1.235.319C2406.2,121.832,2405.994,122.661,2405.794,123.508Zm.93-3.691-1.231-.332c.23-.855.466-1.686.7-2.471l1.222.364C2407.184,118.153,2406.951,118.974,2406.724,119.818Zm1.06-3.65-1.217-.382c.265-.842.538-1.664.812-2.442l1.2.424C2408.312,114.533,2408.044,115.34,2407.784,116.168Zm1.231-3.585-1.193-.45c.318-.842.646-1.647.973-2.394l1.168.513C2409.644,110.978,2409.325,111.763,2409.015,112.583Zm1.47-3.47-1.149-.553c.4-.838.817-1.612,1.232-2.3l1.092.658C2411.267,107.574,2410.871,108.312,2410.485,109.114Zm1.842-3.227-1.045-.73a12.424,12.424,0,0,1,1.735-2.035l.863.939A11.2,11.2,0,0,0,2412.328,105.887Zm2.458-2.523-.673-1.083a4.706,4.706,0,0,1,2.5-.763h0v1.275h0A3.454,3.454,0,0,0,2414.785,103.365Z" transform="translate(-1482.412 -68.845)" fill="#3d5780"/>
      <path id="Trazado_31530" data-name="Trazado 31530" d="M969.924,925.685a2.775,2.775,0,0,1-1.979-.979l.687-.665a1.878,1.878,0,0,0,1.292.688Zm-2.627-1.78a12.035,12.035,0,0,1-.975-1.734l.866-.406a11.073,11.073,0,0,0,.895,1.6Zm-1.368-2.633c-.228-.556-.452-1.171-.669-1.829l.908-.3c.209.636.426,1.23.645,1.765Zm-.959-2.752c-.177-.586-.351-1.213-.518-1.863l.926-.238c.164.637.334,1.251.507,1.825Zm-.75-2.8c-.143-.594-.285-1.227-.422-1.88l.936-.2c.136.644.276,1.268.416,1.854Zm-.614-2.823q-.182-.918-.352-1.892l.942-.165q.169.963.348,1.871Zm-.514-2.839q-.154-.927-.3-1.9l.946-.141q.142.963.3,1.883Zm-.435-2.849q-.131-.934-.253-1.9l.949-.119q.12.962.251,1.89Zm-.369-2.856q-.112-.938-.214-1.907l.951-.1q.1.962.213,1.9Zm-.313-2.862q-.094-.942-.18-1.91l.952-.085q.086.962.179,1.9Zm-.262-2.866q-.079-.945-.149-1.912l.954-.07q.07.962.149,1.9Zm-.217-2.87q-.065-.947-.121-1.914l.955-.056q.056.962.12,1.905Zm-.175-2.871q-.051-.949-.094-1.916l.955-.043q.043.961.094,1.907Zm-.135-2.873q-.038-.951-.068-1.916l.956-.03q.03.961.068,1.908Zm-.1-2.874q-.026-.953-.044-1.917L962,885.2q.018.961.044,1.908Zm-.06-2.875q-.014-.953-.021-1.917l.956-.007q.007.96.021,1.909ZM961,881.39v-.642q0-.64,0-1.276l.956.005q0,.633,0,1.271v.639Zm.966-2.867-.956-.009q.009-.964.026-1.917l.956.017Q961.98,877.563,961.971,878.523Zm.045-2.863-.956-.021q.021-.964.05-1.916l.956.028Q962.036,874.7,962.015,875.66Zm.08-2.863-.956-.033q.034-.965.075-1.916l.955.042Q962.128,871.835,962.1,872.8Zm.117-2.861-.955-.046q.046-.965.1-1.915l.954.054Q962.258,868.975,962.212,869.936Zm.156-2.859-.955-.059q.06-.966.127-1.914l.954.068Q962.427,866.115,962.368,867.078Zm.2-2.857-.954-.073q.074-.968.156-1.912l.953.083Q962.638,863.259,962.564,864.221Zm.24-2.852-.953-.088q.09-.968.188-1.91l.951.1Q962.894,860.406,962.8,861.369Zm.287-2.847-.95-.1q.107-.969.222-1.907l.949.117Q963.2,857.559,963.092,858.522Zm.341-2.84-.948-.124q.127-.969.262-1.9l.946.137Q963.559,854.719,963.433,855.682Zm.4-2.831-.945-.146q.15-.971.309-1.9l.943.162Q963.983,851.888,963.834,852.851Zm.472-2.817-.941-.172q.177-.973.366-1.889l.936.193Q964.482,849.071,964.307,850.034Zm.559-2.8-.934-.2c.143-.651.291-1.282.44-1.877l.928.233C965.152,845.973,965.006,846.595,964.866,847.236Zm.672-2.767-.923-.25c.177-.655.36-1.28.544-1.857l.911.291C965.891,843.217,965.712,843.828,965.538,844.469Zm.832-2.71-.9-.318c.232-.659.473-1.269.716-1.815l.873.39C966.824,840.538,966.593,841.125,966.37,841.76Zm1.089-2.578-.848-.442a9.181,9.181,0,0,1,1.1-1.688l.729.619A8.222,8.222,0,0,0,967.459,839.182Zm1.581-2.086-.562-.773a2.443,2.443,0,0,1,1.445-.511v.956A1.493,1.493,0,0,0,969.041,837.1Z" transform="translate(-597.75 -520.987)" fill="#3d5780"/>
      <g id="Grupo_15707" data-name="Grupo 15707" transform="translate(41.296 354.409)">
        <path id="Trazado_31531" data-name="Trazado 31531" d="M123.11,944.182l4.672.32.083-.32-.083-.32-4.672.32Zm5.368.367,3,.206.148-.573-.148-.572-3,.205.095.367-.095.367Zm3.739.255,2.808.193.211-.815-.211-.815-2.808.192.161.623-.161.622Zm3.588.246,2.628.179.271-1.047-.271-1.049-2.628.18.225.868-.225.869Zm3.45.235,2.457.169.329-1.272-.329-1.272-2.457.168.285,1.1-.285,1.1Zm3.321.228,2.3.157.385-1.488-.385-1.489-2.3.157.344,1.331-.344,1.331Zm3.2.219,2.144.147.439-1.7-.439-1.7-2.144.147.4,1.55-.4,1.551Zm3.091.211,2,.136.491-1.9-.491-1.9-2,.138.456,1.761-.456,1.761Zm2.988.2,1.861.128.541-2.093-.541-2.094-1.861.128.509,1.966-.509,1.965Zm2.891.2,1.729.118.59-2.281-.59-2.282-1.729.119.56,2.164-.56,2.164Zm2.8.191,2.208.151-.737,2.846,9.994-5.352-9.994-5.353.737,2.847-2.208.151.609,2.355-.609,2.355Z" transform="translate(-123.11 -938.83)" fill="#b80000"/>
        <path id="Trazado_31532" data-name="Trazado 31532" d="M129.15,944.68l2.39.163.043-.163-.043-.163-2.39.163Zm3.087.211,3,.206.107-.417-.107-.417-3,.206.055.211-.055.211Zm3.739.256,2.808.192.17-.659-.17-.659-2.808.192.121.467-.121.467Zm3.588.245,2.627.18.231-.891-.231-.892-2.627.18.184.712-.184.712Zm3.449.236,2.458.168.289-1.116-.289-1.117-2.458.169.245.948-.245.948Zm3.321.227,2.3.157.345-1.332-.345-1.333-2.3.158.3,1.175-.3,1.175Zm3.2.219,2.144.147.4-1.541-.4-1.541-2.144.147.36,1.394-.36,1.394Zm3.09.211,2,.136.451-1.742-.451-1.743-2,.136.416,1.606-.416,1.605Zm2.988.2,1.861.127.5-1.937-.5-1.937-1.861.127.468,1.81-.468,1.81Zm2.891.2,1.729.118.55-2.125-.55-2.126-1.729.117.52,2.009-.52,2.007Zm2.8.191,2.369.162-.694,2.681,9.416-5.042-9.416-5.042.694,2.68-2.369.162.569,2.2-.569,2.2Z" transform="translate(-126.829 -939.327)" fill="#bd0a0a" fill-rule="evenodd"/>
        <path id="Trazado_31533" data-name="Trazado 31533" d="M135.192,945.177l.11.007,0-.007,0-.008-.11.008Zm.807.055,3,.2.067-.259-.067-.26-3,.206.014.055-.014.055Zm3.738.256,2.808.192.13-.5-.13-.5-2.808.192.08.311-.08.31Zm3.588.246,2.628.179.19-.735-.19-.736-2.628.18.144.556-.144.556Zm3.449.235,2.458.168.248-.96-.248-.961-2.458.169.2.792-.2.792Zm3.321.228,2.3.158.3-1.177-.3-1.176-2.3.156.264,1.02L150.1,946.2Zm3.2.218,2.144.147.358-1.384-.358-1.385-2.144.147.32,1.238-.32,1.237Zm3.091.213,2,.136.41-1.586-.41-1.586-2,.136.375,1.449-.375,1.45Zm2.988.2,1.861.128.461-1.781-.461-1.782-1.861.128.428,1.654-.428,1.654Zm2.891.2,1.729.117.51-1.969-.51-1.97-1.729.118.479,1.852-.479,1.852Zm2.8.191,2.529.173-.651,2.515,8.836-4.731-8.836-4.732.651,2.516-2.529.172.529,2.044-.529,2.043Z" transform="translate(-130.55 -939.824)" fill="#bf1212" fill-rule="evenodd"/>
        <path id="Trazado_31534" data-name="Trazado 31534" d="M141.232,945.675l1.526.1.027-.1-.027-.105-1.526.105Zm2.264.155,2.808.191.09-.347-.09-.347-2.808.191.04.156-.04.155Zm3.588.245,2.628.18.15-.58-.15-.579-2.628.179.1.4-.1.4Zm3.449.235,2.458.169.208-.8-.208-.8-2.458.169.164.636-.164.635Zm3.321.228,2.3.156.264-1.02-.264-1.021-2.3.158.223.863-.223.864Zm3.2.219,2.144.146.318-1.228-.318-1.228-2.144.146.28,1.083-.28,1.083Zm3.091.211,2,.136.37-1.429-.37-1.43-2,.136.335,1.294-.335,1.294Zm2.988.2L165,947.3l.42-1.625L165,944.05l-1.861.128.388,1.5-.388,1.5Zm2.891.2,1.729.118.47-1.814-.47-1.814-1.729.118.439,1.7-.439,1.7Zm2.8.191,2.69.184-.608,2.35,8.256-4.421-8.256-4.421.608,2.35-2.69.185.488,1.887-.488,1.887Z" transform="translate(-134.269 -940.323)" fill="#c41f1f" fill-rule="evenodd"/>
        <path id="Trazado_31535" data-name="Trazado 31535" d="M147.274,946.172l2.791.191.05-.191-.05-.191-2.791.191Zm3.571.244,2.628.179.109-.424-.109-.424-2.628.18.063.244-.063.244Zm3.449.236,2.458.167.167-.647-.167-.649-2.458.169.124.479-.124.48Zm3.321.227,2.3.158.224-.865-.224-.865-2.3.157.183.708-.183.707Zm3.2.219,2.144.146.278-1.072-.278-1.074-2.144.148.24.926-.24.926Zm3.091.212,2,.136.33-1.273-.33-1.275-2,.138.294,1.138-.294,1.138Zm2.988.2,1.861.127.38-1.469-.38-1.469-1.861.126.347,1.343-.347,1.343Zm2.891.2,1.729.118.429-1.658-.429-1.659-1.729.12.4,1.539-.4,1.54Zm2.8.191,2.852.195-.566,2.185,7.677-4.111-7.677-4.111.566,2.186-2.852.194.448,1.731-.448,1.731Z" transform="translate(-137.989 -940.819)" fill="#c92929" fill-rule="evenodd"/>
        <path id="Trazado_31536" data-name="Trazado 31536" d="M153.315,946.669l.511.035.009-.035-.009-.035-.511.035Zm1.29.088,2.628.18.07-.268-.07-.268-2.628.179.023.089-.023.088Zm3.45.236,2.457.168.127-.492-.127-.493-2.457.169.083.323-.083.324Zm3.321.227,2.3.157.184-.708-.184-.708-2.3.157.142.552-.142.551Zm3.2.219,2.144.147.237-.917-.237-.917-2.144.147.2.77-.2.77Zm3.09.211,2,.137.29-1.118-.29-1.119-2,.137.254.982-.254.981Zm2.988.205,1.861.127.34-1.313-.34-1.313-1.861.128.307,1.186-.307,1.187Zm2.891.2,1.729.119.388-1.5-.388-1.5-1.729.118.358,1.383-.358,1.384Zm2.8.191,3.012.206-.523,2.019,7.1-3.8-7.1-3.8.523,2.019-3.012.206.407,1.575-.407,1.575Z" transform="translate(-141.709 -941.317)" fill="#c33" fill-rule="evenodd"/>
        <path id="Trazado_31537" data-name="Trazado 31537" d="M159.357,947.166l1.637.112.029-.112-.029-.112-1.637.112Zm2.459.168,2.457.167.087-.335-.087-.337-2.457.169.043.167-.043.168Zm3.321.228,2.3.157.143-.552-.143-.552-2.3.157.1.4-.1.4Zm3.2.218,2.144.146.2-.76-.2-.761-2.144.147.159.614-.159.614Zm3.091.213,2,.136.249-.962-.249-.962-2,.136.213.826-.213.826Zm2.988.2,1.861.128.3-1.157-.3-1.157-1.861.127.266,1.03-.266,1.029Zm2.891.2,1.729.119.348-1.346-.348-1.346-1.729.118.318,1.228-.318,1.228Zm2.8.191,3.173.217-.48,1.854,6.518-3.491-6.518-3.49.48,1.854-3.173.216.367,1.42-.367,1.419Z" transform="translate(-145.429 -941.814)" fill="#d13d3d" fill-rule="evenodd"/>
        <path id="Trazado_31538" data-name="Trazado 31538" d="M165.86,947.676l2.458.168.046-.18-.046-.181-2.458.169,0,.012,0,.012Zm3.321.228,2.3.157.1-.4-.1-.4-2.3.158.062.239-.062.239Zm3.2.219,2.145.146.157-.6-.157-.606-2.145.147.119.459-.119.458Zm3.092.211,2,.137.209-.807-.209-.806-2,.137.173.669-.173.669Zm2.988.2,1.861.126.259-1-.259-1-1.861.128.226.874-.226.874Zm2.891.2,1.729.118.308-1.19-.308-1.19-1.729.118.277,1.072-.277,1.072Zm2.8.191,3.334.229-.438,1.688,5.939-3.18-5.939-3.18.438,1.689-3.334.228.327,1.263-.327,1.263Z" transform="translate(-149.433 -942.311)" fill="#d64747" fill-rule="evenodd"/>
        <path id="Trazado_31539" data-name="Trazado 31539" d="M171.439,948.161l.354.024.007-.024-.007-.026-.354.026Zm1.218.083,2.3.158.063-.241-.063-.241-2.3.158.021.083-.021.083Zm3.2.22,2.144.147.116-.45-.116-.449-2.144.146.078.3-.078.3Zm3.091.211,2,.136.168-.65-.168-.651-2,.137.133.514-.133.513Zm2.988.2,1.861.128.219-.845-.219-.844-1.861.126.186.718-.186.717Zm2.891.2,1.729.118.267-1.034-.267-1.034-1.729.119.237.916-.237.916Zm2.8.191,3.494.239-.395,1.523,5.359-2.87-5.359-2.87.395,1.524-3.494.24.286,1.107-.286,1.107Z" transform="translate(-152.869 -942.808)" fill="#d95454" fill-rule="evenodd"/>
        <path id="Trazado_31540" data-name="Trazado 31540" d="M177.479,948.659l1.234.084.022-.084-.022-.084-1.234.084Zm2.139.147,2.144.146.076-.293-.076-.293-2.144.146.038.146-.038.147Zm3.091.21,2,.138.128-.495-.128-.495-2,.136.093.358-.093.357Zm2.988.205,1.861.127.178-.689-.178-.69-1.861.127.146.562-.146.562Zm2.891.2,1.73.119.227-.878-.227-.878-1.73.118.2.76-.2.759Zm2.8.191,3.655.25-.352,1.359,4.78-2.56-4.78-2.559.352,1.358-3.655.249.246.952-.246.951Z" transform="translate(-156.588 -943.307)" fill="#de5c5c" fill-rule="evenodd"/>
        <path id="Trazado_31541" data-name="Trazado 31541" d="M183.52,949.155l2,.137.035-.137-.035-.137-2,.137Zm2.949.2,2,.136.088-.338-.088-.339-2,.136.053.2-.053.2Zm2.988.2,1.861.128.138-.533-.138-.533-1.861.127.105.406-.105.406Zm2.891.2,1.728.118.187-.721-.187-.722-1.728.118.156.6-.156.6Zm2.8.192,3.816.26-.309,1.193,4.2-2.249-4.2-2.249.309,1.193-3.816.26.206.8-.206.8Z" transform="translate(-160.308 -943.803)" fill="#e36969" fill-rule="evenodd"/>
        <path id="Trazado_31542" data-name="Trazado 31542" d="M191.3,949.7l2,.136.047-.181-.047-.183-2,.138.012.046-.012.046Zm2.988.2,1.861.127.1-.376-.1-.377-1.861.126.065.251-.065.25Zm2.891.2,1.729.118.146-.566-.146-.566-1.729.118.116.448-.116.448Zm2.8.191,3.976.272-.266,1.027,3.621-1.938-3.621-1.939.266,1.028-3.976.272.165.639-.165.639Z" transform="translate(-165.098 -944.3)" fill="#e67373" fill-rule="evenodd"/>
        <path id="Trazado_31543" data-name="Trazado 31543" d="M195.6,950.149l.386.025.007-.025-.007-.027-.386.027Zm1.375.094,1.861.127.057-.221-.057-.221-1.861.127.024.094-.024.094Zm2.891.2,1.729.117.106-.41-.106-.411-1.729.119.076.292-.076.292Zm2.8.191,4.137.283-.223.862,3.041-1.628-3.041-1.629.223.863-4.137.284.125.483-.125.483Z" transform="translate(-167.748 -944.797)" fill="#eb7d7d" fill-rule="evenodd"/>
        <path id="Trazado_31544" data-name="Trazado 31544" d="M201.645,950.645l.954.065.017-.065-.017-.065-.954.065Zm1.984.136,1.729.118.065-.254-.065-.254-1.729.118.035.136-.035.136Zm2.8.191,4.3.294-.18.7,2.462-1.318-2.462-1.319.18.7-4.3.292.084.328-.084.327Z" transform="translate(-171.468 -945.293)" fill="#ed8787" fill-rule="evenodd"/>
        <path id="Trazado_31545" data-name="Trazado 31545" d="M207.685,951.145l1.432.1.025-.1-.025-.1-1.432.1Zm2.5.172,4.458.3-.138.532,1.883-1.009-1.883-1.008.138.532-4.458.3.044.171-.044.172Z" transform="translate(-175.187 -945.792)" fill="#f29191" fill-rule="evenodd"/>
        <path id="Trazado_31546" data-name="Trazado 31546" d="M214.307,951.656l4.62.316-.095.367,1.3-.7-1.3-.7.095.367-4.62.315,0,.016,0,.015Z" transform="translate(-179.265 -946.289)" fill="#f79c9c" fill-rule="evenodd"/>
        <path id="Trazado_31547" data-name="Trazado 31547" d="M219.769,952.138l2.722.187-.052.2.724-.388-.724-.388.052.2-2.722.185Z" transform="translate(-182.628 -946.785)" fill="#faa6a6" fill-rule="evenodd"/>
        <path id="Trazado_31548" data-name="Trazado 31548" d="M225.809,952.635l.6.041-.009.036.144-.077-.144-.078.009.037-.6.041Z" transform="translate(-186.347 -947.282)" fill="#ffb0b0" fill-rule="evenodd"/>
      </g>
      <g id="Grupo_15708" data-name="Grupo 15708" transform="translate(700.136 123.477)">
        <path id="Trazado_31549" data-name="Trazado 31549" d="M1837.736,343.778l5.191.355.091-.355-.091-.355-5.191.355Zm5.965.408,3.334.227.164-.636-.164-.636-3.334.228.105.408-.105.408Zm4.154.284,3.12.213.234-.905-.234-.905-3.12.213.179.692-.179.692Zm3.987.272,2.92.2.3-1.164-.3-1.164-2.92.2.249.964-.249.964Zm3.833.262,2.73.187.365-1.414-.365-1.414-2.73.188.316,1.227-.316,1.227Zm3.689.252,2.552.174.427-1.653-.427-1.654-2.552.174.382,1.479-.382,1.479Zm3.557.243,2.383.163.487-1.885-.487-1.885-2.383.163.447,1.723-.447,1.722Zm3.434.236,2.221.152.546-2.11-.546-2.109-2.221.152.506,1.957-.506,1.958Zm3.32.227,2.068.141.6-2.326-.6-2.326-2.068.141.565,2.184-.565,2.184Zm3.212.219,1.921.131.656-2.535-.656-2.536-1.921.131.623,2.4-.623,2.4Zm3.112.213,2.454.168-.818,3.163,11.105-5.947-11.105-5.947.818,3.162-2.454.168.677,2.617L1876,346.4Z" transform="translate(-1837.736 -337.831)" fill="#b80000"/>
        <path id="Trazado_31550" data-name="Trazado 31550" d="M1844.449,344.331l2.656.181.047-.181-.047-.182-2.656.182Zm3.43.234,3.334.228.119-.462-.119-.463-3.334.228.061.234-.061.234Zm4.155.284,3.12.214.189-.732-.189-.732-3.12.213.134.519-.134.519Zm3.987.273,2.918.2.258-.991-.258-.991-2.918.2.2.792-.2.792Zm3.832.262,2.731.187.32-1.24-.32-1.24-2.731.187.272,1.053-.272,1.053Zm3.69.252,2.551.175.384-1.481-.384-1.481-2.551.175.337,1.306-.337,1.306Zm3.557.243,2.383.163.442-1.712-.442-1.712-2.383.163.4,1.549-.4,1.549Zm3.435.235,2.222.152.5-1.936-.5-1.936-2.222.152.46,1.784-.46,1.784Zm3.319.227,2.068.142.557-2.153-.557-2.153-2.068.141.521,2.011-.521,2.011Zm3.212.22,1.921.131.612-2.362-.612-2.362-1.921.131.578,2.231-.578,2.231Zm3.112.213,2.633.18-.77,2.978,10.46-5.6-10.46-5.6.77,2.978-2.633.18.633,2.443-.633,2.443Z" transform="translate(-1841.87 -338.384)" fill="#bd0a0a" fill-rule="evenodd"/>
        <path id="Trazado_31551" data-name="Trazado 31551" d="M1851.158,344.883l.122.008,0-.008,0-.008-.122.008Zm.9.061,3.333.227.076-.289-.076-.289-3.333.228.016.061-.016.061Zm4.155.284,3.12.214.145-.559-.145-.559-3.12.213.089.345-.089.345Zm3.986.273,2.92.2.212-.818-.212-.818-2.92.2.16.618-.16.618Zm3.832.262,2.731.187.276-1.067-.276-1.067-2.731.186.228.881-.228.88Zm3.69.252,2.551.174.339-1.307-.339-1.307-2.551.174.293,1.132-.293,1.132Zm3.557.243,2.384.163.4-1.539-.4-1.539-2.384.163.357,1.376-.357,1.376Zm3.434.235,2.222.152.456-1.763-.456-1.763-2.222.152.417,1.61-.417,1.61Zm3.32.227,2.068.141.512-1.979-.512-1.979-2.068.141.476,1.838-.476,1.837Zm3.213.22,1.92.131.567-2.189-.567-2.189-1.92.131.532,2.057-.532,2.057Zm3.111.213,2.811.192-.723,2.8,9.816-5.258-9.816-5.257.723,2.795-2.811.193.587,2.27-.587,2.27Z" transform="translate(-1846.001 -338.936)" fill="#bf1212" fill-rule="evenodd"/>
        <path id="Trazado_31552" data-name="Trazado 31552" d="M1857.871,345.436l1.7.116.031-.116-.031-.116-1.7.116Zm2.517.172,3.12.213.1-.385-.1-.386-3.12.214.045.172-.045.172Zm3.987.272,2.92.2.167-.644-.167-.645-2.92.2.115.445-.115.444Zm3.833.262,2.73.187.231-.893-.231-.894-2.73.187.182.707-.182.707Zm3.69.252,2.552.174.292-1.134-.292-1.134-2.552.174.248.959-.248.959Zm3.558.243,2.382.163.353-1.366-.353-1.366-2.382.163.311,1.2-.311,1.2Zm3.435.235,2.22.152.411-1.589-.411-1.589-2.22.152.37,1.437-.37,1.437Zm3.319.227,2.067.141.468-1.806-.468-1.806-2.067.141.431,1.664-.431,1.664Zm3.212.219,1.921.132.522-2.015-.522-2.016-1.921.132.488,1.884-.488,1.884Zm3.112.213,2.988.2-.674,2.611,9.172-4.913-9.172-4.913.674,2.611-2.988.2.542,2.1-.542,2.1Z" transform="translate(-1850.134 -339.489)" fill="#c41f1f" fill-rule="evenodd"/>
        <path id="Trazado_31553" data-name="Trazado 31553" d="M1864.586,345.988l3.1.212.055-.212-.055-.212-3.1.212Zm3.968.271,2.92.2.123-.471-.123-.471-2.92.2.07.271-.07.271Zm3.834.262,2.73.187.186-.72-.186-.72-2.73.187.136.534-.136.533Zm3.689.253,2.552.174.248-.96-.248-.96-2.552.174.2.786-.2.786Zm3.557.243,2.383.163.308-1.192-.308-1.192-2.383.163.267,1.029-.267,1.029Zm3.435.234,2.22.152.366-1.416-.366-1.416-2.22.153.325,1.264-.325,1.264Zm3.319.227,2.067.141.423-1.632-.423-1.633-2.067.142.386,1.491-.386,1.491Zm3.212.22,1.92.131.477-1.842-.477-1.842-1.92.132.443,1.711-.443,1.711Zm3.111.213,3.168.216-.628,2.428,8.53-4.568-8.53-4.568.628,2.428-3.168.216.5,1.924-.5,1.924Z" transform="translate(-1854.269 -340.041)" fill="#c92929" fill-rule="evenodd"/>
        <path id="Trazado_31554" data-name="Trazado 31554" d="M1871.3,346.54l.566.039.012-.039-.012-.039-.566.039Zm1.433.1,2.921.2.077-.3-.077-.3-2.921.2.026.1-.026.1Zm3.834.262,2.73.187.142-.547-.142-.547-2.73.187.092.36-.092.36Zm3.689.252,2.552.174.2-.787-.2-.787-2.552.175.159.613-.159.612Zm3.558.243,2.382.163.263-1.018-.263-1.019-2.382.163.222.856-.222.856Zm3.434.235,2.221.152.322-1.243-.322-1.243-2.221.152.281,1.091-.281,1.09Zm3.32.227,2.068.141.378-1.459-.378-1.459-2.068.141.341,1.318-.341,1.318Zm3.211.22,1.922.131.432-1.668-.432-1.669-1.922.132.4,1.537-.4,1.538Zm3.112.212,3.346.229-.581,2.244,7.886-4.223-7.886-4.223.581,2.244-3.346.228.453,1.751-.453,1.75Z" transform="translate(-1858.401 -340.593)" fill="#c33" fill-rule="evenodd"/>
        <path id="Trazado_31555" data-name="Trazado 31555" d="M1878.012,347.093l1.818.124.033-.124-.033-.125-1.818.125Zm2.731.186,2.732.187.1-.373-.1-.374-2.732.187.048.187-.048.186Zm3.691.253,2.551.174.159-.614-.159-.614-2.551.175.113.439-.113.439Zm3.558.243,2.382.163.218-.845-.218-.845-2.382.163.177.682-.177.682Zm3.435.236,2.221.151.276-1.069-.276-1.07-2.221.152.236.918-.236.918Zm3.32.227,2.067.142.333-1.286-.333-1.286-2.067.141.3,1.144-.3,1.144Zm3.211.22,1.921.131.387-1.5-.387-1.5-1.921.131.354,1.364-.354,1.364Zm3.112.213,3.525.241-.532,2.061,7.241-3.879-7.241-3.879.532,2.061-3.525.241.407,1.577-.407,1.577Z" transform="translate(-1862.536 -341.146)" fill="#d13d3d" fill-rule="evenodd"/>
        <path id="Trazado_31556" data-name="Trazado 31556" d="M1885.236,347.658l2.731.187.051-.2-.051-.2-2.731.186,0,.013,0,.013Zm3.691.252,2.55.175.115-.441-.115-.44-2.55.174.068.266-.068.265Zm3.557.244,2.383.163.173-.672-.173-.672-2.383.163.133.509-.133.509Zm3.435.235,2.22.152.232-.9-.232-.9-2.22.152.191.744-.191.744Zm3.32.227,2.067.142.288-1.113-.288-1.112-2.067.141.251.971-.251.971Zm3.211.22,1.921.131.342-1.322-.342-1.322-1.921.131.308,1.191-.308,1.191Zm3.111.212,3.7.254-.485,1.876,6.6-3.534-6.6-3.534.485,1.877-3.7.253.363,1.4-.363,1.4Z" transform="translate(-1866.984 -341.698)" fill="#d64747" fill-rule="evenodd"/>
        <path id="Trazado_31557" data-name="Trazado 31557" d="M1891.434,348.2l.394.026.007-.026-.007-.027-.394.027Zm1.354.093,2.552.174.069-.267-.069-.267-2.552.174.023.093-.023.093Zm3.557.243,2.383.163.128-.5-.128-.5-2.383.164.088.336-.088.336Zm3.435.235,2.221.152.187-.722-.187-.723-2.221.152.146.571-.146.571Zm3.32.227,2.067.141.244-.939-.244-.939-2.067.141.207.8-.207.8Zm3.211.22,1.921.131.3-1.148-.3-1.149-1.921.131.264,1.017-.264,1.017Zm3.112.212,3.882.266-.437,1.693,5.954-3.189-5.954-3.189.437,1.694-3.882.265.318,1.23-.318,1.23Z" transform="translate(-1870.801 -342.25)" fill="#d95454" fill-rule="evenodd"/>
        <path id="Trazado_31558" data-name="Trazado 31558" d="M1898.148,348.751l1.37.094.025-.094-.025-.093-1.37.093Zm2.376.163,2.382.163.084-.326-.084-.326-2.382.163.043.163-.043.163Zm3.435.234,2.221.152.142-.549-.142-.55-2.221.152.1.4-.1.4Zm3.32.227,2.067.141.2-.766-.2-.766-2.067.141.162.625-.162.624Zm3.212.22,1.921.131.253-.975-.253-.975-1.921.131.219.844-.219.844Zm3.112.212,4.061.278-.391,1.509,5.311-2.843-5.311-2.844.391,1.509-4.061.277.273,1.057-.273,1.057Z" transform="translate(-1874.935 -342.804)" fill="#de5c5c" fill-rule="evenodd"/>
        <path id="Trazado_31559" data-name="Trazado 31559" d="M1904.859,349.3l2.224.152.039-.152-.039-.152-2.224.152Zm3.277.224,2.221.152.1-.376-.1-.376-2.221.152.057.224-.057.224Zm3.319.227,2.068.141.154-.593-.154-.593-2.068.141.117.451-.117.451Zm3.212.219,1.921.131.208-.8-.208-.8-1.921.131.174.671-.174.671Zm3.112.213,4.24.29-.344,1.326,4.668-2.5-4.668-2.5.344,1.325-4.24.29.229.884-.229.884Z" transform="translate(-1879.067 -343.356)" fill="#e36969" fill-rule="evenodd"/>
        <path id="Trazado_31560" data-name="Trazado 31560" d="M1913.5,349.906l2.219.152.053-.2-.053-.2-2.219.151.012.051-.012.05Zm3.32.227,2.067.141.109-.419-.109-.419-2.067.141.071.278-.071.278Zm3.211.219,1.92.131.164-.629-.164-.629-1.92.131.129.5-.129.5Zm3.112.213,4.419.3-.3,1.142,4.022-2.154-4.022-2.155.3,1.142-4.419.3.184.711-.184.71Z" transform="translate(-1884.391 -343.908)" fill="#e67373" fill-rule="evenodd"/>
        <path id="Trazado_31561" data-name="Trazado 31561" d="M1918.283,350.407l.429.029.008-.029-.008-.029-.429.029Zm1.528.1,2.068.141.064-.246-.064-.246-2.068.141.028.1-.028.1Zm3.213.219,1.92.131.119-.456-.119-.455-1.92.131.084.324-.084.324Zm3.112.212,4.6.315-.247.958,3.379-1.81-3.379-1.81.247.959-4.6.315.139.537-.139.537Z" transform="translate(-1887.333 -344.46)" fill="#eb7d7d" fill-rule="evenodd"/>
        <path id="Trazado_31562" data-name="Trazado 31562" d="M1925,350.961l1.061.073.019-.073-.019-.072-1.061.072Zm2.206.151,1.92.131.074-.282-.074-.282-1.92.131.04.151-.04.151Zm3.112.212,4.776.327-.2.775,2.735-1.465-2.735-1.465.2.774-4.776.327.094.363-.094.363Z" transform="translate(-1891.467 -345.014)" fill="#ed8787" fill-rule="evenodd"/>
        <path id="Trazado_31563" data-name="Trazado 31563" d="M1931.709,351.512l1.592.109.028-.109-.028-.109-1.592.109Zm2.782.19,4.955.339-.154.591,2.092-1.12-2.092-1.12.154.591-4.955.339.05.19-.05.19Z" transform="translate(-1895.6 -345.565)" fill="#f29191" fill-rule="evenodd"/>
        <path id="Trazado_31564" data-name="Trazado 31564" d="M1939.068,352.081l5.132.351-.105.408,1.448-.775-1.448-.776.105.408-5.132.351,0,.017,0,.017Z" transform="translate(-1900.132 -346.118)" fill="#f79c9c" fill-rule="evenodd"/>
        <path id="Trazado_31565" data-name="Trazado 31565" d="M1945.133,352.618l3.025.207-.058.224.8-.431-.8-.431.058.224-3.025.207Z" transform="translate(-1903.866 -346.671)" fill="#faa6a6" fill-rule="evenodd"/>
        <path id="Trazado_31566" data-name="Trazado 31566" d="M1951.848,353.17l.669.046-.011.041.161-.086-.161-.086.011.04-.669.046Z" transform="translate(-1908.001 -347.223)" fill="#ffb0b0" fill-rule="evenodd"/>
      </g>
    </g>
  </g>
</svg>
