<svg xmlns="http://www.w3.org/2000/svg" width="831.326" height="222.814" viewBox="0 0 831.326 222.814">
  <g id="Grupo_15955" data-name="Grupo 15955" transform="translate(-604.43 -3672.16)">
    <g id="Grupo_15913" data-name="Grupo 15913" transform="translate(887.273 3487.43)">
      <g id="Grupo_15905" data-name="Grupo 15905" transform="translate(77.191 230)">
        <g id="Grupo_15893" data-name="Grupo 15893" transform="translate(2.825)">
          <path id="Trazado_32398" data-name="Trazado 32398" d="M95.543,230.007h-21.5s-3.636-.221-3.229,1.769,3.768,25.845,3.768,25.845a2.916,2.916,0,0,0,2.426,1.766H92.58A2.907,2.907,0,0,0,95,257.621s3.365-23.858,3.766-25.845S95.543,230.007,95.543,230.007Z" transform="translate(-70.784 -230)" fill="#31302e" stroke="#0a0c07" stroke-linecap="round" stroke-linejoin="round" stroke-width="1"/>
          <path id="Trazado_32399" data-name="Trazado 32399" d="M95.543,230.007h-21.5s-3.636-.221-3.229,1.769,3.768,25.845,3.768,25.845a2.916,2.916,0,0,0,2.426,1.766H92.58A2.907,2.907,0,0,0,95,257.621s3.365-23.858,3.766-25.845S95.543,230.007,95.543,230.007ZM83.758,257.024H78.594a2.224,2.224,0,0,1-2.278-2.018s-2.539-19.174-2.975-21.536,2.8-1.748,2.8-1.748l7.884.085c1.836.17,1.75,3.064,1.75,3.064l.087,20.487A1.869,1.869,0,0,1,83.758,257.024Z" transform="translate(-70.784 -230)" fill="#3e3d3b" opacity="0.7" style="mix-blend-mode: multiply;isolation: isolate"/>
          <path id="Trazado_32400" data-name="Trazado 32400" d="M72.725,232.092,75.748,253.5s.258,1.808.95,1.9l.985.032L76.14,231.469H73.315S72.626,231.434,72.725,232.092Z" transform="translate(-69.305 -228.875)" fill="#3e3d3b" style="mix-blend-mode: screen;isolation: isolate"/>
        </g>
        <g id="Grupo_15894" data-name="Grupo 15894" transform="translate(44.125)">
          <path id="Trazado_32401" data-name="Trazado 32401" d="M118.929,230.007H97.435s-3.636-.221-3.229,1.769,3.766,25.845,3.766,25.845a2.918,2.918,0,0,0,2.423,1.766H115.97a2.913,2.913,0,0,0,2.421-1.766s3.365-23.858,3.768-25.845S118.929,230.007,118.929,230.007Z" transform="translate(-94.174 -230)" fill="#31302e" stroke="#0a0c07" stroke-linecap="round" stroke-linejoin="round" stroke-width="1"/>
          <path id="Trazado_32402" data-name="Trazado 32402" d="M118.929,230.007H97.435s-3.636-.221-3.229,1.769,3.766,25.845,3.766,25.845a2.918,2.918,0,0,0,2.423,1.766H115.97a2.913,2.913,0,0,0,2.421-1.766s3.365-23.858,3.768-25.845S118.929,230.007,118.929,230.007Zm-11.783,27.017h-5.165a2.222,2.222,0,0,1-2.278-2.018s-2.539-19.174-2.979-21.536,2.8-1.748,2.8-1.748l7.882.085c1.836.17,1.752,3.064,1.752,3.064l.085,20.487A1.869,1.869,0,0,1,107.147,257.024Z" transform="translate(-94.174 -230)" fill="#3e3d3b" opacity="0.7" style="mix-blend-mode: multiply;isolation: isolate"/>
          <path id="Trazado_32403" data-name="Trazado 32403" d="M96.113,232.092,99.136,253.5s.26,1.808.95,1.9l.983.032-1.54-23.968H96.7S96.018,231.434,96.113,232.092Z" transform="translate(-92.696 -228.875)" fill="#3e3d3b" style="mix-blend-mode: screen;isolation: isolate"/>
        </g>
        <g id="Grupo_15895" data-name="Grupo 15895" transform="translate(85.325)">
          <path id="Trazado_32404" data-name="Trazado 32404" d="M142.267,230.007h-21.5s-3.634-.221-3.231,1.769,3.772,25.845,3.772,25.845a2.906,2.906,0,0,0,2.421,1.766H139.3a2.919,2.919,0,0,0,2.426-1.766s3.365-23.858,3.764-25.845S142.267,230.007,142.267,230.007Z" transform="translate(-117.507 -230)" fill="#31302e" stroke="#0a0c07" stroke-linecap="round" stroke-linejoin="round" stroke-width="1"/>
          <path id="Trazado_32405" data-name="Trazado 32405" d="M142.267,230.007h-21.5s-3.634-.221-3.231,1.769,3.772,25.845,3.772,25.845a2.906,2.906,0,0,0,2.421,1.766H139.3a2.919,2.919,0,0,0,2.426-1.766s3.365-23.858,3.764-25.845S142.267,230.007,142.267,230.007Zm-11.784,27.017h-5.166a2.219,2.219,0,0,1-2.274-2.018s-2.541-19.174-2.979-21.536,2.8-1.748,2.8-1.748l7.88.085c1.84.17,1.752,3.064,1.752,3.064l.088,20.487A1.871,1.871,0,0,1,130.483,257.024Z" transform="translate(-117.507 -230)" fill="#3e3d3b" opacity="0.7" style="mix-blend-mode: multiply;isolation: isolate"/>
          <path id="Trazado_32406" data-name="Trazado 32406" d="M119.447,232.092l3.021,21.409s.265,1.808.953,1.9l.985.032-1.543-23.968H120.04S119.35,231.434,119.447,232.092Z" transform="translate(-116.029 -228.875)" fill="#3e3d3b" style="mix-blend-mode: screen;isolation: isolate"/>
        </g>
        <g id="Grupo_15898" data-name="Grupo 15898" transform="translate(0 10.27)">
          <path id="Trazado_32407" data-name="Trazado 32407" d="M98.528,371.341a13.82,13.82,0,0,1-13.815,13.82h0a13.818,13.818,0,0,1-13.82-13.82V239.35H98.528Z" transform="translate(-67.875 -233.11)" fill="#e4eef3" stroke="#bebebe" stroke-linecap="round" stroke-linejoin="round" stroke-width="1" opacity="0.5"/>
          <path id="Trazado_32408" data-name="Trazado 32408" d="M71.71,267.82V348.7c0,7.2,5.585,13.05,12.468,13.05s12.471-5.846,12.471-13.05V267.82Z" transform="translate(-67.25 -211.31)" fill="#73c2ff" opacity="0.8"/>
          <g id="Grupo_15897" data-name="Grupo 15897">
            <path id="Trazado_32409" data-name="Trazado 32409" d="M70.893,239.35V371.341a13.817,13.817,0,1,0,27.635,0V239.35ZM89.624,361.72c0,6.787-2.023,14.913-8.475,14.74-4.677-.12-8.477-3.473-8.474-14.74V241.515l16.949.256Z" transform="translate(-67.875 -233.11)" fill="#c3ccd1" opacity="0.4" style="mix-blend-mode: multiply;isolation: isolate"/>
            <path id="Trazado_32410" data-name="Trazado 32410" d="M70.893,239.35v1.317H94.216V371.032s-.7,11.286-12.72,10.518c-8.989-.574-10-7.677-10.6-12.939v2.73a13.817,13.817,0,1,0,27.635,0V239.35Z" transform="translate(-67.875 -233.11)" fill="#b5bdc2" opacity="0.5" style="mix-blend-mode: multiply;isolation: isolate"/>
            <g id="Grupo_15896" data-name="Grupo 15896">
              <path id="Trazado_32411" data-name="Trazado 32411" d="M102.854,238.934a3.12,3.12,0,0,1-3.12,3.122H72.3a3.12,3.12,0,0,1-3.118-3.122h0a3.122,3.122,0,0,1,3.118-3.118H99.734a3.123,3.123,0,0,1,3.12,3.118Z" transform="translate(-69.184 -235.816)" fill="#e4eef3" stroke="#bebebe" stroke-linecap="round" stroke-linejoin="round" stroke-width="1" opacity="0.6"/>
              <path id="Trazado_32412" data-name="Trazado 32412" d="M99.734,235.816H72.3a3.12,3.12,0,0,0,0,6.24H99.734a3.12,3.12,0,0,0,0-6.24Zm-9.793,4.843H72.68a1.736,1.736,0,1,1,0-3.443H89.942a1.736,1.736,0,1,1,0,3.443Z" transform="translate(-69.184 -235.816)" fill="#c3ccd1" opacity="0.4" style="mix-blend-mode: multiply;isolation: isolate"/>
              <path id="Trazado_32413" data-name="Trazado 32413" d="M88.616,235.816H83.7a3.289,3.289,0,0,1,2.62,2.615,3.363,3.363,0,0,1-2.2,3.625h4.492a3.12,3.12,0,0,0,0-6.24Z" transform="translate(-58.066 -235.816)" fill="#c3ccd1" opacity="0.4" style="mix-blend-mode: multiply;isolation: isolate"/>
              <path id="Trazado_32414" data-name="Trazado 32414" d="M74.575,237.9a1.016,1.016,0,0,1-1.021,1.014H71.861a1.013,1.013,0,0,1-1.017-1.014h0a1.019,1.019,0,0,1,1.017-1.021h1.693a1.022,1.022,0,0,1,1.021,1.021Z" transform="translate(-67.913 -235.004)" fill="#e4f4fe" opacity="0.9" style="mix-blend-mode: color-dodge;isolation: isolate"/>
            </g>
            <path id="Trazado_32415" data-name="Trazado 32415" d="M77.722,242.906H72.379v114.76s.129,9.03,3.44,9.288c0,0,1.271.507,1.9-1.783Z" transform="translate(-66.738 -230.387)" fill="#fff" opacity="0.7" style="mix-blend-mode: overlay;isolation: isolate"/>
          </g>
        </g>
        <g id="Grupo_15901" data-name="Grupo 15901" transform="translate(41.296 10.27)">
          <path id="Trazado_32416" data-name="Trazado 32416" d="M121.922,371.341a13.824,13.824,0,0,1-13.824,13.82h0a13.82,13.82,0,0,1-13.818-13.82V239.35h27.642Z" transform="translate(-91.264 -233.11)" fill="#e4eef3" stroke="#bebebe" stroke-linecap="round" stroke-linejoin="round" stroke-width="1" opacity="0.5"/>
          <path id="Trazado_32417" data-name="Trazado 32417" d="M95.1,267.82V348.7c0,7.2,5.585,13.05,12.471,13.05s12.475-5.846,12.475-13.05V267.82Z" transform="translate(-90.639 -211.31)" fill="#c3368c" opacity="0.8"/>
          <g id="Grupo_15900" data-name="Grupo 15900">
            <path id="Trazado_32418" data-name="Trazado 32418" d="M94.28,239.35V371.341a13.821,13.821,0,0,0,27.642,0V239.35Zm18.734,122.37c0,6.787-2.025,14.913-8.475,14.74-4.677-.12-8.481-3.473-8.477-14.74V241.515l16.952.256Z" transform="translate(-91.264 -233.11)" fill="#c3ccd1" opacity="0.4" style="mix-blend-mode: multiply;isolation: isolate"/>
            <path id="Trazado_32419" data-name="Trazado 32419" d="M94.28,239.35v1.317H117.6V371.032s-.692,11.286-12.724,10.518c-8.987-.574-10-7.677-10.6-12.939v2.73a13.821,13.821,0,0,0,27.642,0V239.35Z" transform="translate(-91.264 -233.11)" fill="#b5bdc2" opacity="0.5" style="mix-blend-mode: multiply;isolation: isolate"/>
            <g id="Grupo_15899" data-name="Grupo 15899">
              <path id="Trazado_32420" data-name="Trazado 32420" d="M126.244,238.934a3.122,3.122,0,0,1-3.124,3.122H95.692a3.12,3.12,0,0,1-3.12-3.122h0a3.123,3.123,0,0,1,3.12-3.118H123.12a3.125,3.125,0,0,1,3.124,3.118Z" transform="translate(-92.572 -235.816)" fill="#e4eef3" stroke="#bebebe" stroke-linecap="round" stroke-linejoin="round" stroke-width="1" opacity="0.6"/>
              <path id="Trazado_32421" data-name="Trazado 32421" d="M123.12,235.816H95.692a3.12,3.12,0,0,0,0,6.24H123.12a3.12,3.12,0,1,0,0-6.24Zm-9.793,4.843H96.07a1.736,1.736,0,1,1,0-3.443h17.258a1.737,1.737,0,1,1,0,3.443Z" transform="translate(-92.572 -235.816)" fill="#c3ccd1" opacity="0.4" style="mix-blend-mode: multiply;isolation: isolate"/>
              <path id="Trazado_32422" data-name="Trazado 32422" d="M112,235.816h-4.907a3.285,3.285,0,0,1,2.617,2.615,3.354,3.354,0,0,1-2.2,3.625H112a3.12,3.12,0,1,0,0-6.24Z" transform="translate(-81.452 -235.816)" fill="#c3ccd1" opacity="0.4" style="mix-blend-mode: multiply;isolation: isolate"/>
              <path id="Trazado_32423" data-name="Trazado 32423" d="M97.964,237.9a1.012,1.012,0,0,1-1.017,1.014h-1.7A1.018,1.018,0,0,1,94.23,237.9h0a1.024,1.024,0,0,1,1.022-1.021h1.7a1.018,1.018,0,0,1,1.017,1.021Z" transform="translate(-91.302 -235.004)" fill="#e4f4fe" opacity="0.9" style="mix-blend-mode: color-dodge;isolation: isolate"/>
            </g>
            <path id="Trazado_32424" data-name="Trazado 32424" d="M101.114,242.906H95.769v114.76s.127,9.03,3.434,9.288c0,0,1.271.507,1.91-1.783Z" transform="translate(-90.124 -230.387)" fill="#fff" opacity="0.7" style="mix-blend-mode: overlay;isolation: isolate"/>
          </g>
        </g>
        <g id="Grupo_15904" data-name="Grupo 15904" transform="translate(82.501 10.27)">
          <path id="Trazado_32425" data-name="Trazado 32425" d="M145.254,371.341a13.821,13.821,0,0,1-13.82,13.82h0a13.82,13.82,0,0,1-13.818-13.82V239.35h27.639Z" transform="translate(-114.601 -233.11)" fill="#e4eef3" stroke="#bebebe" stroke-linecap="round" stroke-linejoin="round" stroke-width="1" opacity="0.5"/>
          <path id="Trazado_32426" data-name="Trazado 32426" d="M118.432,267.82V348.7c0,7.2,5.587,13.05,12.471,13.05s12.473-5.846,12.473-13.05V267.82Z" transform="translate(-113.975 -211.31)" fill="#5e2483" opacity="0.8"/>
          <g id="Grupo_15903" data-name="Grupo 15903">
            <path id="Trazado_32427" data-name="Trazado 32427" d="M117.615,239.35V371.341a13.819,13.819,0,1,0,27.639,0V239.35Zm18.732,122.37c0,6.787-2.022,14.913-8.475,14.74-4.677-.12-8.477-3.473-8.474-14.74V241.515l16.949.256Z" transform="translate(-114.601 -233.11)" fill="#c3ccd1" opacity="0.4" style="mix-blend-mode: multiply;isolation: isolate"/>
            <path id="Trazado_32428" data-name="Trazado 32428" d="M117.615,239.35v1.317h23.323V371.032s-.69,11.286-12.72,10.518c-8.989-.574-10-7.677-10.6-12.939v2.73a13.819,13.819,0,1,0,27.639,0V239.35Z" transform="translate(-114.601 -233.11)" fill="#b5bdc2" opacity="0.5" style="mix-blend-mode: multiply;isolation: isolate"/>
            <g id="Grupo_15902" data-name="Grupo 15902">
              <path id="Trazado_32429" data-name="Trazado 32429" d="M149.578,238.934a3.122,3.122,0,0,1-3.122,3.122H119.028a3.118,3.118,0,0,1-3.12-3.122h0a3.121,3.121,0,0,1,3.12-3.118h27.428a3.124,3.124,0,0,1,3.122,3.118Z" transform="translate(-115.908 -235.816)" fill="#e4eef3" stroke="#bebebe" stroke-linecap="round" stroke-linejoin="round" stroke-width="1" opacity="0.6"/>
              <path id="Trazado_32430" data-name="Trazado 32430" d="M146.456,235.816H119.028a3.12,3.12,0,1,0,0,6.24h27.428a3.12,3.12,0,1,0,0-6.24Zm-9.794,4.843H119.4a1.736,1.736,0,1,1,0-3.443h17.258a1.736,1.736,0,1,1,0,3.443Z" transform="translate(-115.908 -235.816)" fill="#c3ccd1" opacity="0.4" style="mix-blend-mode: multiply;isolation: isolate"/>
              <path id="Trazado_32431" data-name="Trazado 32431" d="M135.339,235.816h-4.912a3.283,3.283,0,0,1,2.617,2.615,3.35,3.35,0,0,1-2.193,3.625h4.488a3.12,3.12,0,1,0,0-6.24Z" transform="translate(-104.791 -235.816)" fill="#c3ccd1" opacity="0.4" style="mix-blend-mode: multiply;isolation: isolate"/>
              <path id="Trazado_32432" data-name="Trazado 32432" d="M121.3,237.9a1.014,1.014,0,0,1-1.017,1.014h-1.7a1.014,1.014,0,0,1-1.019-1.014h0a1.02,1.02,0,0,1,1.019-1.021h1.7A1.02,1.02,0,0,1,121.3,237.9Z" transform="translate(-114.638 -235.004)" fill="#e4f4fe" opacity="0.9" style="mix-blend-mode: color-dodge;isolation: isolate"/>
            </g>
            <path id="Trazado_32433" data-name="Trazado 32433" d="M124.447,242.906H119.1v114.76s.127,9.03,3.436,9.288c0,0,1.27.507,1.907-1.783Z" transform="translate(-113.461 -230.387)" fill="#fff" opacity="0.7" style="mix-blend-mode: overlay;isolation: isolate"/>
          </g>
        </g>
      </g>
      <g id="Grupo_15912" data-name="Grupo 15912" transform="translate(58.727 284.264)">
        <g id="Grupo_15911" data-name="Grupo 15911">
          <g id="Grupo_15908" data-name="Grupo 15908" transform="translate(7.761 1.528)">
            <g id="Grupo_15906" data-name="Grupo 15906" transform="translate(132.643)">
              <rect id="Rectángulo_3823" data-name="Rectángulo 3823" width="5.649" height="111.65" fill="#3e4242" stroke="#535453" stroke-linecap="round" stroke-linejoin="round" stroke-width="1"/>
              <rect id="Rectángulo_3824" data-name="Rectángulo 3824" width="2.218" height="111.65" fill="#8b9194" style="mix-blend-mode: multiply;isolation: isolate"/>
            </g>
            <g id="Grupo_15907" data-name="Grupo 15907">
              <rect id="Rectángulo_3825" data-name="Rectángulo 3825" width="5.649" height="111.65" fill="#3e4242" stroke="#535453" stroke-linecap="round" stroke-linejoin="round" stroke-width="1"/>
              <rect id="Rectángulo_3826" data-name="Rectángulo 3826" width="2.219" height="111.65" transform="translate(3.43)" fill="#8b9194" style="mix-blend-mode: multiply;isolation: isolate"/>
            </g>
          </g>
          <g id="Grupo_15909" data-name="Grupo 15909" transform="translate(0 108.06)">
            <rect id="Rectángulo_3827" data-name="Rectángulo 3827" width="153.814" height="14.246" fill="#8b9194" stroke="#535453" stroke-linecap="round" stroke-linejoin="round" stroke-width="1"/>
            <rect id="Rectángulo_3828" data-name="Rectángulo 3828" width="153.814" height="5.597" transform="translate(0 8.649)" fill="#8b9194" style="mix-blend-mode: multiply;isolation: isolate"/>
            <rect id="Rectángulo_3829" data-name="Rectángulo 3829" width="153.814" height="3.849" transform="translate(0 2.652)" fill="#8b9194" style="mix-blend-mode: screen;isolation: isolate"/>
          </g>
          <g id="Grupo_15910" data-name="Grupo 15910" transform="translate(0.152)">
            <rect id="Rectángulo_3830" data-name="Rectángulo 3830" width="153.507" height="7.294" fill="#8b9194" stroke="#535453" stroke-linecap="round" stroke-linejoin="round" stroke-width="1"/>
            <rect id="Rectángulo_3831" data-name="Rectángulo 3831" width="153.507" height="2.866" transform="translate(0 4.428)" fill="#8b9194" style="mix-blend-mode: multiply;isolation: isolate"/>
            <rect id="Rectángulo_3832" data-name="Rectángulo 3832" width="153.507" height="1.966" transform="translate(0 1.362)" fill="#8b9194" style="mix-blend-mode: screen;isolation: isolate"/>
          </g>
        </g>
      </g>
    </g>
    <g id="Grupo_15892" data-name="Grupo 15892" transform="translate(720.205 3663)">
      <g id="Grupo_15883" data-name="Grupo 15883" transform="translate(109.795 20.046)" opacity="0.5">
        <g id="Grupo_15882" data-name="Grupo 15882">
          <g id="Grupo_15881" data-name="Grupo 15881">
            <path id="Trazado_32377" data-name="Trazado 32377" d="M203.879,111.508V14.543H162.347v96.965l-50.341,95.216s-11.744,18.907,18.907,18.907h104.4c31.052,0,18.9-18.907,18.9-18.907Z" transform="translate(-109.795 -14.543)" fill="#e4eef3" stroke="#bebebe" stroke-linecap="round" stroke-linejoin="round" stroke-width="1.679"/>
          </g>
        </g>
      </g>
      <g id="Grupo_15886" data-name="Grupo 15886" transform="translate(112.87 142.537)" opacity="0.8">
        <g id="Grupo_15884" data-name="Grupo 15884" transform="translate(0 4.009)" opacity="0.4">
          <path id="Trazado_32378" data-name="Trazado 32378" d="M249.007,135.289,215.6,71.748H147.5L113.23,136.021s-10.862,17.894,17.494,17.894,67.754.559,96.477.19C260.57,153.685,249.007,135.289,249.007,135.289Z" transform="translate(-111.186 -71.748)" fill="#8e17ff"/>
        </g>
        <g id="Grupo_15885" data-name="Grupo 15885" transform="translate(44.727)" opacity="0.8" style="mix-blend-mode: overlay;isolation: isolate">
          <path id="Trazado_32379" data-name="Trazado 32379" d="M146.945,102.942a3.723,3.723,0,1,1-3.722-3.717A3.723,3.723,0,0,1,146.945,102.942Z" transform="translate(-121.616 -34.455)" fill="#ffff82" opacity="0.7" style="mix-blend-mode: overlay;isolation: isolate"/>
          <path id="Trazado_32380" data-name="Trazado 32380" d="M143.136,98.132a1.727,1.727,0,1,1-1.729-1.734A1.728,1.728,0,0,1,143.136,98.132Z" transform="translate(-121.394 -37.879)" fill="#ffff82" opacity="0.7" style="mix-blend-mode: overlay;isolation: isolate"/>
          <path id="Trazado_32381" data-name="Trazado 32381" d="M141.331,107.742a1.726,1.726,0,1,1-1.729-1.729A1.727,1.727,0,0,1,141.331,107.742Z" transform="translate(-123.578 -26.232)" fill="#ffff82" opacity="0.7" style="mix-blend-mode: overlay;isolation: isolate"/>
          <path id="Trazado_32382" data-name="Trazado 32382" d="M146.326,107.38a2.39,2.39,0,1,1-2.4-2.388A2.4,2.4,0,0,1,146.326,107.38Z" transform="translate(-119.137 -27.469)" fill="#ffff82" opacity="0.7" style="mix-blend-mode: overlay;isolation: isolate"/>
          <path id="Trazado_32383" data-name="Trazado 32383" d="M142.114,80.04a1.728,1.728,0,1,1-1.727-1.725A1.725,1.725,0,0,1,142.114,80.04Z" transform="translate(-122.635 -59.784)" fill="#ffff82" opacity="0.7" style="mix-blend-mode: overlay;isolation: isolate"/>
          <path id="Trazado_32384" data-name="Trazado 32384" d="M147.611,88.979a3.455,3.455,0,1,1-3.45-3.454A3.451,3.451,0,0,1,147.611,88.979Z" transform="translate(-120.16 -51.05)" fill="#ffff82" opacity="0.7" style="mix-blend-mode: overlay;isolation: isolate"/>
          <path id="Trazado_32385" data-name="Trazado 32385" d="M149.826,73.387a3.453,3.453,0,1,1-3.452-3.452A3.444,3.444,0,0,1,149.826,73.387Z" transform="translate(-117.472 -69.935)" fill="#ffff82" opacity="0.7" style="mix-blend-mode: overlay;isolation: isolate"/>
          <path id="Trazado_32386" data-name="Trazado 32386" d="M136.793,78.965a2.157,2.157,0,1,1-2.156-2.16A2.157,2.157,0,0,1,136.793,78.965Z" transform="translate(-130.119 -61.613)" fill="#ffff82" opacity="0.7" style="mix-blend-mode: overlay;isolation: isolate"/>
          <path id="Trazado_32387" data-name="Trazado 32387" d="M161.628,78.429a2.156,2.156,0,1,1-2.156-2.156A2.155,2.155,0,0,1,161.628,78.429Z" transform="translate(-100.033 -62.257)" fill="#ffff82" opacity="0.7" style="mix-blend-mode: overlay;isolation: isolate"/>
          <path id="Trazado_32388" data-name="Trazado 32388" d="M160.193,92.8a5.223,5.223,0,1,1-5.225-5.223A5.22,5.22,0,0,1,160.193,92.8Z" transform="translate(-109.202 -48.57)" fill="#ffff82" opacity="0.7" style="mix-blend-mode: overlay;isolation: isolate"/>
          <path id="Trazado_32389" data-name="Trazado 32389" d="M139.968,101.656a4.278,4.278,0,1,1-4.275-4.277A4.275,4.275,0,0,1,139.968,101.656Z" transform="translate(-131.412 -36.691)" fill="#ffff82" opacity="0.7" style="mix-blend-mode: overlay;isolation: isolate"/>
        </g>
      </g>
      <g id="Grupo_15891" data-name="Grupo 15891" transform="translate(109.795 10)">
        <g id="Grupo_15889" data-name="Grupo 15889" opacity="0.6">
          <g id="Grupo_15888" data-name="Grupo 15888" transform="translate(46.619)">
            <g id="Grupo_15887" data-name="Grupo 15887">
              <path id="Trazado_32390" data-name="Trazado 32390" d="M184.407,14.958a4.966,4.966,0,0,1-4.96,4.962H135.835a4.964,4.964,0,0,1-4.958-4.962h0A4.957,4.957,0,0,1,135.835,10h43.612a4.959,4.959,0,0,1,4.96,4.958Z" transform="translate(-130.877 -10)" fill="#e4eef3" stroke="#bebebe" stroke-linecap="round" stroke-linejoin="round" stroke-width="1.679"/>
              <path id="Trazado_32391" data-name="Trazado 32391" d="M179.447,10H135.835a4.96,4.96,0,0,0,0,9.92h43.612a4.96,4.96,0,0,0,0-9.92Zm-15.57,7.693H136.434a2.947,2.947,0,0,1-3.12-2.735,2.95,2.95,0,0,1,3.12-2.735h27.443A2.947,2.947,0,0,1,167,14.958,2.944,2.944,0,0,1,163.877,17.693Z" transform="translate(-130.877 -10)" fill="#c3ccd1" opacity="0.4" style="mix-blend-mode: multiply;isolation: isolate"/>
              <path id="Trazado_32392" data-name="Trazado 32392" d="M138.922,12.966a1.619,1.619,0,0,1-1.619,1.616h-2.7a1.621,1.621,0,0,1-1.623-1.616h0a1.62,1.62,0,0,1,1.623-1.619h2.7a1.618,1.618,0,0,1,1.619,1.619Z" transform="translate(-128.33 -8.368)" fill="#e4f4fe" opacity="0.9" style="mix-blend-mode: color-dodge;isolation: isolate"/>
            </g>
            <path id="Trazado_32393" data-name="Trazado 32393" d="M157.118,10H149.31c2,.639,3.7,1.628,4.157,4.157.5,2.72-1.245,4.67-3.49,5.763h7.14a4.96,4.96,0,0,0,0-9.92Z" transform="translate(-108.548 -10)" fill="#c3ccd1" opacity="0.4" style="mix-blend-mode: multiply;isolation: isolate"/>
          </g>
          <path id="Trazado_32394" data-name="Trazado 32394" d="M254.22,206.725l-50.341-95.216V14.543H162.347v96.965l-50.341,95.216s-11.744,18.907,18.907,18.907h104.4C266.367,225.632,254.22,206.725,254.22,206.725Zm-54.006,8.666h-68.8c-11.871-1.935-5.57-13.569-5.57-13.569L166.3,110.741V18.209h21.561v93.5s23.785,80.573,25.919,90.842C216.444,215.391,200.215,215.391,200.215,215.391Z" transform="translate(-109.795 -4.497)" fill="#c3ccd1" opacity="0.4" style="mix-blend-mode: multiply;isolation: isolate"/>
        </g>
        <g id="Grupo_15890" data-name="Grupo 15890" transform="translate(0 10.046)">
          <path id="Trazado_32395" data-name="Trazado 32395" d="M123.539,213.383h68.8s16.229,0,13.567-12.839c-2.134-10.27-25.919-90.842-25.919-90.842V16.2H158.423v92.532l-40.454,91.081S111.669,211.448,123.539,213.383Z" transform="translate(-101.918 -12.535)" fill="none"/>
          <path id="Trazado_32396" data-name="Trazado 32396" d="M254.22,206.725l-50.341-95.216V14.543h-8.8l-.192.272v95.2s42.4,91.322,42.874,100.771-21.8,8.719-21.8,8.719H117.61c-8.235-3.151-4.363-14.774-4.363-14.774l-.248.122-.993,1.871s-11.744,18.907,18.907,18.907h104.4C266.367,225.632,254.22,206.725,254.22,206.725Z" transform="translate(-109.795 -14.543)" fill="#b5bdc2" opacity="0.5" style="mix-blend-mode: multiply;isolation: isolate"/>
        </g>
        <path id="Trazado_32397" data-name="Trazado 32397" d="M161.593,17.076h-3.635v90.6L120.411,197.3s-4.845,8.965,1.694,10.659h11.386s5.568,1.214,7.753-4.115,25.919-96.415,25.919-96.415V17.076Z" transform="translate(-99.028 -1.428)" fill="#fff" opacity="0.7" style="mix-blend-mode: overlay;isolation: isolate"/>
      </g>
    </g>
    <g id="Grupo_15880" data-name="Grupo 15880" transform="translate(400.259 3446.269)">
      <path id="Trazado_32359" data-name="Trazado 32359" d="M415.709,234.725c0-5.23-13.332-4.712-13.332-4.712H222.865s-12.84-.294-16.058,2.624c-2.8,2.547-2.822,6.933.344,8.735,0,0,11.751,6.462,11.749,20.408V419.065s-1.849,28.666,23.5,28.666H388.14c25.344,0,23.5-28.666,23.5-28.666V261.781s.309-17.177.111-19.89a3.43,3.43,0,0,1,2.375-3.488A4.1,4.1,0,0,0,415.709,234.725Z" transform="translate(0 0)" fill="#e4eef3" stroke="#bebebe" stroke-linecap="round" stroke-linejoin="round" stroke-width="1.138" opacity="0.5"/>
      <g id="Grupo_15877" data-name="Grupo 15877" transform="translate(221.508 320.355)" opacity="0.8">
        <path id="Trazado_32360" data-name="Trazado 32360" d="M399.933,271.5H212.471v96s-1.8,27.887,22.855,27.887H377.082c24.645,0,22.851-27.887,22.851-27.887Z" transform="translate(-212.442 -271.498)" fill="#d57f15"/>
      </g>
      <g id="Grupo_15878" data-name="Grupo 15878" transform="translate(204.741 229.999)">
        <path id="Trazado_32361" data-name="Trazado 32361" d="M415.709,234.725c0-5.23-13.332-4.712-13.332-4.712H222.865s-12.84-.294-16.058,2.624c-2.8,2.547-2.822,6.933.344,8.735,0,0,11.751,6.462,11.749,20.408V419.065s-1.849,28.666,23.5,28.666H388.14c25.344,0,23.5-28.666,23.5-28.666V261.781s.309-17.177.111-19.89a3.43,3.43,0,0,1,2.375-3.488A4.1,4.1,0,0,0,415.709,234.725Zm-28.462.888c-.8,3.092-7.919,3.61-7.919,3.61l-97.415,3.364H347.12l.853,178.137c-2.632,13.43-17.88,13.747-17.88,13.747H246.8c-22.439,0-22.7-24.018-22.7-24.018v-148.5c-.525-10.841-3.956-17.04-8.185-20.4s-4.485-4.649-4.485-4.649c-2.112-5.171,5.807-4.912,5.807-4.912H380.646C388.565,231.991,387.247,235.614,387.247,235.614Z" transform="translate(-204.741 -229.999)" fill="#c3ccd1" opacity="0.4" style="mix-blend-mode: multiply;isolation: isolate"/>
        <path id="Trazado_32362" data-name="Trazado 32362" d="M238.183,233.057H220.229s-8.444.769-5.541,4.9c0,0,9.511,7.742,10.562,15.5V405.319s1.844,19.515,18.738,19.515l11.618-.388V253.974S253.234,236.153,238.183,233.057Z" transform="translate(-193.746 -226.4)" fill="#fff" opacity="0.7" style="mix-blend-mode: overlay;isolation: isolate"/>
        <path id="Trazado_32363" data-name="Trazado 32363" d="M220.676,409.379s.266,24.018,22.7,24.018H326.67s15.248-.318,17.88-13.748L343.7,241.512H278.491l97.415-3.364s7.122-.518,7.919-3.61c0,0,1.317-3.623-6.6-3.623H213.814s-7.919-.259-5.807,4.912c0,0,.259,1.289,4.485,4.649s7.66,9.558,8.184,20.4Z" transform="translate(-201.318 -228.924)" fill="none"/>
        <path id="Trazado_32364" data-name="Trazado 32364" d="M406.92,234.725c0-5.23-13.332-4.712-13.332-4.712H374.582a3.049,3.049,0,0,0,1.365.25c9.7.192,23.526-.335,24.355,4.065,1.38,7.361-17.227,6.78-17.227,6.78l.4,183.626c-3.963,20.334-23.563,19.173-23.563,19.173H232.2a25.992,25.992,0,0,1-20-11.426l.033.584c2.648,7.283,8.5,14.666,21.366,14.666H379.35c25.344,0,23.5-28.666,23.5-28.666V261.781s.309-17.177.111-19.89a3.43,3.43,0,0,1,2.375-3.488A4.1,4.1,0,0,0,406.92,234.725Z" transform="translate(-195.951 -229.999)" fill="#b5bdc2" opacity="0.5" style="mix-blend-mode: multiply;isolation: isolate"/>
      </g>
      <g id="Grupo_15879" data-name="Grupo 15879" transform="translate(281.924 324.753)" opacity="0.8" style="mix-blend-mode: overlay;isolation: isolate">
        <path id="Trazado_32365" data-name="Trazado 32365" d="M261.424,317.918a5.049,5.049,0,1,1-5.049-4.934A4.99,4.99,0,0,1,261.424,317.918Z" transform="translate(-227.077 -227.054)" fill="#fff" opacity="0.7" style="mix-blend-mode: overlay;isolation: isolate"/>
        <path id="Trazado_32366" data-name="Trazado 32366" d="M256.262,311.471a2.342,2.342,0,1,1-2.347-2.291A2.312,2.312,0,0,1,256.262,311.471Z" transform="translate(-226.782 -231.533)" fill="#fff" opacity="0.7" style="mix-blend-mode: overlay;isolation: isolate"/>
        <path id="Trazado_32367" data-name="Trazado 32367" d="M253.779,324.424a2.342,2.342,0,1,1-2.341-2.291A2.317,2.317,0,0,1,253.779,324.424Z" transform="translate(-229.705 -216.283)" fill="#fff" opacity="0.7" style="mix-blend-mode: overlay;isolation: isolate"/>
        <path id="Trazado_32368" data-name="Trazado 32368" d="M260.629,323.926a3.243,3.243,0,1,1-3.24-3.168A3.216,3.216,0,0,1,260.629,323.926Z" transform="translate(-223.761 -217.902)" fill="#fff" opacity="0.7" style="mix-blend-mode: overlay;isolation: isolate"/>
        <path id="Trazado_32369" data-name="Trazado 32369" d="M254.855,287.1a2.342,2.342,0,1,1-2.343-2.293A2.313,2.313,0,0,1,254.855,287.1Z" transform="translate(-228.438 -260.224)" fill="#fff" opacity="0.7" style="mix-blend-mode: overlay;isolation: isolate"/>
        <path id="Trazado_32370" data-name="Trazado 32370" d="M262.355,299.11a4.687,4.687,0,1,1-4.683-4.585A4.635,4.635,0,0,1,262.355,299.11Z" transform="translate(-225.127 -248.786)" fill="#fff" opacity="0.7" style="mix-blend-mode: overlay;isolation: isolate"/>
        <path id="Trazado_32371" data-name="Trazado 32371" d="M265.406,278.1a4.683,4.683,0,1,1-4.683-4.583A4.629,4.629,0,0,1,265.406,278.1Z" transform="translate(-221.528 -273.518)" fill="#fff" opacity="0.7" style="mix-blend-mode: overlay;isolation: isolate"/>
        <path id="Trazado_32372" data-name="Trazado 32372" d="M247.511,285.64a2.927,2.927,0,1,1-2.924-2.863A2.9,2.9,0,0,1,247.511,285.64Z" transform="translate(-238.462 -262.617)" fill="#fff" opacity="0.7" style="mix-blend-mode: overlay;isolation: isolate"/>
        <path id="Trazado_32373" data-name="Trazado 32373" d="M281.718,284.92a2.926,2.926,0,1,1-2.922-2.861A2.895,2.895,0,0,1,281.718,284.92Z" transform="translate(-198.186 -263.463)" fill="#fff" opacity="0.7" style="mix-blend-mode: overlay;isolation: isolate"/>
        <path id="Trazado_32374" data-name="Trazado 32374" d="M268.524,321.879a2.981,2.981,0,1,1-2.976-2.922A2.949,2.949,0,0,1,268.524,321.879Z" transform="translate(-213.85 -220.022)" fill="#fff" opacity="0.7" style="mix-blend-mode: overlay;isolation: isolate"/>
        <path id="Trazado_32375" data-name="Trazado 32375" d="M279.6,304.209a7.082,7.082,0,1,1-7.081-6.924A7,7,0,0,1,279.6,304.209Z" transform="translate(-210.459 -245.537)" fill="#fff" opacity="0.7" style="mix-blend-mode: overlay;isolation: isolate"/>
        <path id="Trazado_32376" data-name="Trazado 32376" d="M251.8,316.179a5.8,5.8,0,1,1-5.8-5.681A5.74,5.74,0,0,1,251.8,316.179Z" transform="translate(-240.19 -229.981)" fill="#fff" opacity="0.7" style="mix-blend-mode: overlay;isolation: isolate"/>
      </g>
    </g>
    <g id="Grupo_15953" data-name="Grupo 15953" transform="translate(480.198 3556.268)">
      <g id="Grupo_15918" data-name="Grupo 15918" transform="translate(767.94 120)">
        <path id="Trazado_32434" data-name="Trazado 32434" d="M771.208,209.4v-86.86H748.665V209.4a55.879,55.879,0,1,0,22.544,0Z" transform="translate(-704.06 -117.011)" fill="#e4eef3" stroke="#bebebe" stroke-linecap="round" stroke-linejoin="round" stroke-width="1" opacity="0.6"/>
        <path id="Trazado_32435" data-name="Trazado 32435" d="M714.244,173.77a53.589,53.589,0,1,0,88.915,0Z" transform="translate(-702.824 -56.696)" fill="#ee7da6" opacity="0.8"/>
        <g id="Grupo_15917" data-name="Grupo 15917">
          <g id="Grupo_15916" data-name="Grupo 15916" transform="translate(41.254)" opacity="0.6">
            <g id="Grupo_15915" data-name="Grupo 15915">
              <g id="Grupo_15914" data-name="Grupo 15914">
                <path id="Trazado_32436" data-name="Trazado 32436" d="M752.255,122.711a2.71,2.71,0,0,1-2.713,2.711H725.716a2.709,2.709,0,0,1-2.708-2.711h0A2.71,2.71,0,0,1,725.716,120h23.826a2.711,2.711,0,0,1,2.713,2.711Z" transform="translate(-723.007 -120)" fill="#e4eef3" stroke="#bebebe" stroke-linecap="round" stroke-linejoin="round" stroke-width="1"/>
                <path id="Trazado_32437" data-name="Trazado 32437" d="M749.542,120H725.716a2.711,2.711,0,0,0,0,5.422h23.826a2.711,2.711,0,1,0,0-5.422Zm-8.5,4.207H726.044a1.508,1.508,0,1,1,0-2.989h14.993a1.508,1.508,0,1,1,0,2.989Z" transform="translate(-723.007 -120)" fill="#c3ccd1" opacity="0.4" style="mix-blend-mode: multiply;isolation: isolate"/>
                <path id="Trazado_32438" data-name="Trazado 32438" d="M727.417,121.632a.882.882,0,0,1-.884.884h-1.474a.883.883,0,0,1-.884-.884h0a.885.885,0,0,1,.884-.884h1.474a.883.883,0,0,1,.884.884Z" transform="translate(-721.632 -119.119)" fill="#e4f4fe" opacity="0.9" style="mix-blend-mode: color-dodge;isolation: isolate"/>
              </g>
              <path id="Trazado_32439" data-name="Trazado 32439" d="M737.5,120h-4.263a2.853,2.853,0,0,1,2.273,2.273,2.92,2.92,0,0,1-1.907,3.148h3.9a2.711,2.711,0,1,0,0-5.422Z" transform="translate(-710.964 -120)" fill="#c3ccd1" opacity="0.4" style="mix-blend-mode: multiply;isolation: isolate"/>
            </g>
          </g>
          <path id="Trazado_32440" data-name="Trazado 32440" d="M771.208,209.4v-86.86H748.665V209.4a55.879,55.879,0,1,0,22.544,0Zm-20.769-4.96V127.118a2.071,2.071,0,0,1,1.8-2.258h4.966c5.267-.451,5.115,2.258,5.115,2.258s.451,69.8,0,76.419S754.2,208.2,754.2,208.2C749.838,208.2,750.439,204.439,750.439,204.439Zm6.094,106.808c-26.672,0-48.291-22.224-48.291-49.636s21.619-49.636,48.291-49.636,48.289,22.222,48.289,49.636S783.2,311.247,756.533,311.247Z" transform="translate(-704.06 -117.011)" fill="#c3ccd1" opacity="0.4" style="mix-blend-mode: multiply;isolation: isolate"/>
          <path id="Trazado_32441" data-name="Trazado 32441" d="M770.745,209.4v-86.86h-4.973v81.75a5.316,5.316,0,0,1-4.514,4.812s-2.7.753-.6,1.2,36.4,1.5,47.986,38.212S789.089,315.909,757.5,316.66c-31.048.74-49.009-24.384-53.044-42.815A55.875,55.875,0,1,0,770.745,209.4Z" transform="translate(-703.596 -117.011)" fill="#b5bdc2" opacity="0.5" style="mix-blend-mode: multiply;isolation: isolate"/>
          <path id="Trazado_32442" data-name="Trazado 32442" d="M727.641,124.231a1.315,1.315,0,0,0-1.5,1.354V200.8s-.451,3.307,1.958,3.612a1.948,1.948,0,0,0,2.105-1.507v-76.72S730.352,124.081,727.641,124.231Z" transform="translate(-678.105 -115.028)" fill="#fff" opacity="0.7" style="mix-blend-mode: overlay;isolation: isolate"/>
          <path id="Trazado_32443" data-name="Trazado 32443" d="M769.111,166.631s-27.38-9.628-49.04,13.238-9.931,58.37,2.406,68.6c0,0-18.385-27.447-3.309-52.652C738.424,163.622,769.111,166.631,769.111,166.631Z" transform="translate(-699.415 -67.469)" fill="#fff" opacity="0.7" style="mix-blend-mode: overlay;isolation: isolate"/>
        </g>
      </g>
      <g id="Grupo_15920" data-name="Grupo 15920" transform="translate(674.232 194.114)">
        <path id="Trazado_32444" data-name="Trazado 32444" d="M775.875,156.669c0-2.911-7.259-2.621-7.259-2.621H670.887s-6.991-.163-8.742,1.463a3.027,3.027,0,0,0,.189,4.86,13.567,13.567,0,0,1,6.4,11.355v87.526s-1.008,15.955,12.787,15.955h79.346c13.8,0,12.792-15.955,12.792-15.955V171.725s.17-9.556.061-11.067a1.9,1.9,0,0,1,1.293-1.94A2.32,2.32,0,0,0,775.875,156.669Z" transform="translate(-661.022 -154.039)" fill="#e4eef3" stroke="#bebebe" stroke-linecap="round" stroke-linejoin="round" stroke-width="1" opacity="0.5"/>
        <path id="Trazado_32445" data-name="Trazado 32445" d="M767.287,177.133H665.23V230.56s-.978,15.516,12.441,15.516h77.175c13.419,0,12.441-15.516,12.441-15.516Z" transform="translate(-656.087 -126.851)" fill="#17b8d3" opacity="0.8"/>
        <g id="Grupo_15919" data-name="Grupo 15919">
          <path id="Trazado_32446" data-name="Trazado 32446" d="M775.875,156.669c0-2.911-7.259-2.621-7.259-2.621H670.887s-6.991-.163-8.742,1.463a3.027,3.027,0,0,0,.189,4.86,13.567,13.567,0,0,1,6.4,11.355v87.526s-1.008,15.955,12.787,15.955h79.346c13.8,0,12.792-15.955,12.792-15.955V171.725s.17-9.556.061-11.067a1.9,1.9,0,0,1,1.293-1.94A2.32,2.32,0,0,0,775.875,156.669Zm-15.5.494c-.431,1.724-4.311,2.012-4.311,2.012l-53.035,1.868h35.5L739,260.176c-1.435,7.475-9.737,7.653-9.737,7.653H683.921c-12.217,0-12.363-13.367-12.363-13.367v-82.64c-.285-6.036-2.153-9.487-4.455-11.355s-2.443-2.587-2.443-2.587c-1.15-2.876,3.164-2.73,3.164-2.73h88.963C761.1,155.151,760.38,157.163,760.38,157.163Z" transform="translate(-661.022 -154.039)" fill="#c3ccd1" opacity="0.4" style="mix-blend-mode: multiply;isolation: isolate"/>
          <path id="Trazado_32447" data-name="Trazado 32447" d="M679.229,155.74h-9.774s-4.6.431-3.018,2.728c0,0,5.176,4.313,5.748,8.624v84.513s1.006,10.86,10.205,10.86l6.323-.216V167.382S687.422,157.467,679.229,155.74Z" transform="translate(-655.036 -152.037)" fill="#fff" opacity="0.7" style="mix-blend-mode: overlay;isolation: isolate"/>
          <path id="Trazado_32448" data-name="Trazado 32448" d="M669.7,253.862s.146,13.367,12.363,13.367H727.4s8.3-.179,9.737-7.653l-.468-99.133h-35.5l53.035-1.868s3.88-.287,4.311-2.012c0,0,.718-2.012-3.593-2.012H665.962s-4.313-.146-3.164,2.73c0,0,.144.716,2.443,2.587s4.17,5.319,4.455,11.355Z" transform="translate(-659.16 -153.439)" fill="none"/>
          <path id="Trazado_32449" data-name="Trazado 32449" d="M771.091,156.669c0-2.911-7.259-2.621-7.259-2.621H753.485a1.607,1.607,0,0,0,.743.137c5.282.109,12.809-.185,13.26,2.264.753,4.1-9.378,3.773-9.378,3.773l.216,102.184c-2.156,11.32-12.824,10.675-12.824,10.675H675.973a14.133,14.133,0,0,1-10.887-6.362l.017.324c1.441,4.052,4.627,8.163,11.631,8.163H756.08c13.8,0,12.792-15.955,12.792-15.955V171.725s.17-9.556.061-11.067a1.9,1.9,0,0,1,1.293-1.94A2.32,2.32,0,0,0,771.091,156.669Z" transform="translate(-656.237 -154.039)" fill="#b5bdc2" opacity="0.5" style="mix-blend-mode: multiply;isolation: isolate"/>
        </g>
      </g>
      <g id="Grupo_15922" data-name="Grupo 15922" transform="translate(649.801 256.528)">
        <path id="Trazado_32450" data-name="Trazado 32450" d="M718.294,184.273c0-1.735-4.331-1.563-4.331-1.563h-58.28s-4.167-.1-5.213.871a1.808,1.808,0,0,0,.113,2.9,8.087,8.087,0,0,1,3.815,6.769v52.195s-.6,9.515,7.627,9.515h47.315c8.23,0,7.629-9.515,7.629-9.515V193.25s.1-5.7.037-6.6a1.13,1.13,0,0,1,.771-1.156A1.385,1.385,0,0,0,718.294,184.273Z" transform="translate(-649.801 -182.705)" fill="#e4eef3" stroke="#bebebe" stroke-linecap="round" stroke-linejoin="round" stroke-width="1" opacity="0.5"/>
        <path id="Trazado_32451" data-name="Trazado 32451" d="M713.17,196.476H652.312v31.859s-.586,9.256,7.418,9.256h46.022c8,0,7.418-9.256,7.418-9.256Z" transform="translate(-646.857 -166.492)" fill="#6a4b99" opacity="0.8"/>
        <g id="Grupo_15921" data-name="Grupo 15921">
          <path id="Trazado_32452" data-name="Trazado 32452" d="M718.294,184.273c0-1.735-4.331-1.563-4.331-1.563h-58.28s-4.167-.1-5.213.871a1.808,1.808,0,0,0,.113,2.9,8.087,8.087,0,0,1,3.815,6.769v52.195s-.6,9.515,7.627,9.515h47.315c8.23,0,7.629-9.515,7.629-9.515V193.25s.1-5.7.037-6.6a1.13,1.13,0,0,1,.771-1.156A1.385,1.385,0,0,0,718.294,184.273Zm-9.24.292c-.257,1.03-2.574,1.2-2.574,1.2l-31.623,1.117h21.166L696.3,246c-.854,4.455-5.8,4.561-5.8,4.561h-27.04c-7.283,0-7.37-7.969-7.37-7.969V193.309c-.172-3.6-1.285-5.657-2.656-6.771s-1.457-1.544-1.457-1.544c-.688-1.714,1.883-1.626,1.883-1.626h53.053C709.481,183.367,709.054,184.565,709.054,184.565Z" transform="translate(-649.801 -182.705)" fill="#c3ccd1" opacity="0.4" style="mix-blend-mode: multiply;isolation: isolate"/>
          <path id="Trazado_32453" data-name="Trazado 32453" d="M660.659,183.719h-5.829s-2.743.257-1.8,1.626c0,0,3.085,2.569,3.427,5.143v50.4s.6,6.475,6.086,6.475l3.769-.126V190.66S665.543,184.747,660.659,183.719Z" transform="translate(-646.231 -181.511)" fill="#fff" opacity="0.7" style="mix-blend-mode: overlay;isolation: isolate"/>
          <path id="Trazado_32454" data-name="Trazado 32454" d="M654.975,242.232s.087,7.969,7.37,7.969h27.04s4.951-.107,5.8-4.561l-.279-59.116H673.746l31.623-1.117s2.317-.17,2.574-1.2c0,0,.427-1.2-2.145-1.2H652.746s-2.571-.087-1.883,1.626c0,0,.085.429,1.457,1.544s2.484,3.172,2.656,6.771Z" transform="translate(-648.69 -182.347)" fill="none"/>
          <path id="Trazado_32455" data-name="Trazado 32455" d="M715.441,184.273c0-1.735-4.331-1.563-4.331-1.563H704.94a.976.976,0,0,0,.446.081c3.148.063,7.636-.109,7.906,1.35.451,2.443-5.594,2.251-5.594,2.251l.129,60.937a7.442,7.442,0,0,1-7.649,6.364H658.718a8.436,8.436,0,0,1-6.493-3.793l.011.194a6.826,6.826,0,0,0,6.937,4.866h47.315c8.23,0,7.629-9.515,7.629-9.515V193.25s.1-5.7.037-6.6a1.13,1.13,0,0,1,.771-1.156A1.385,1.385,0,0,0,715.441,184.273Z" transform="translate(-646.948 -182.705)" fill="#b5bdc2" opacity="0.5" style="mix-blend-mode: multiply;isolation: isolate"/>
        </g>
      </g>
      <g id="Grupo_15941" data-name="Grupo 15941" transform="translate(813.347 229.772)">
        <g id="Grupo_15925" data-name="Grupo 15925" transform="translate(13.288)">
          <path id="Trazado_32456" data-name="Trazado 32456" d="M749.856,257.963a8.973,8.973,0,0,1-8.968,8.973h0a8.974,8.974,0,0,1-8.971-8.973V172.277h17.939Z" transform="translate(-729.96 -168.225)" fill="#e4eef3" stroke="#bebebe" stroke-linecap="round" stroke-linejoin="round" stroke-width="1" opacity="0.5"/>
          <path id="Trazado_32457" data-name="Trazado 32457" d="M732.347,187.266v52.506a8.1,8.1,0,1,0,16.191,0V187.266Z" transform="translate(-729.453 -150.578)" fill="#17b8d3" opacity="0.8"/>
          <g id="Grupo_15924" data-name="Grupo 15924">
            <path id="Trazado_32458" data-name="Trazado 32458" d="M731.917,172.277v85.686a8.969,8.969,0,1,0,17.939,0V172.277Zm12.158,79.442c0,4.4-1.313,9.678-5.5,9.567-3.037-.078-5.5-2.258-5.5-9.567V173.684l11,.163Z" transform="translate(-729.96 -168.225)" fill="#c3ccd1" opacity="0.4" style="mix-blend-mode: multiply;isolation: isolate"/>
            <path id="Trazado_32459" data-name="Trazado 32459" d="M731.917,172.277v.856h15.141v84.63s-.451,7.324-8.261,6.828c-5.835-.372-6.486-4.982-6.88-8.4v1.77a8.969,8.969,0,1,0,17.939,0V172.277Z" transform="translate(-729.96 -168.225)" fill="#b5bdc2" opacity="0.5" style="mix-blend-mode: multiply;isolation: isolate"/>
            <g id="Grupo_15923" data-name="Grupo 15923">
              <path id="Trazado_32460" data-name="Trazado 32460" d="M752.876,172.443a2.027,2.027,0,0,1-2.027,2.025H733.041a2.026,2.026,0,0,1-2.023-2.025h0a2.027,2.027,0,0,1,2.023-2.027h17.808a2.028,2.028,0,0,1,2.027,2.027Z" transform="translate(-731.018 -170.416)" fill="#e4eef3" stroke="#bebebe" stroke-linecap="round" stroke-linejoin="round" stroke-width="1" opacity="0.6"/>
              <path id="Trazado_32461" data-name="Trazado 32461" d="M750.849,170.416H733.041a2.026,2.026,0,0,0,0,4.052h17.808a2.026,2.026,0,1,0,0-4.052Zm-6.358,3.142h-11.2a1.125,1.125,0,1,1,0-2.232h11.2a1.126,1.126,0,1,1,0,2.232Z" transform="translate(-731.018 -170.416)" fill="#c3ccd1" opacity="0.4" style="mix-blend-mode: multiply;isolation: isolate"/>
              <path id="Trazado_32462" data-name="Trazado 32462" d="M741.85,170.416h-3.187a2.138,2.138,0,0,1,1.7,1.7,2.184,2.184,0,0,1-1.426,2.354h2.915a2.026,2.026,0,1,0,0-4.052Z" transform="translate(-722.019 -170.416)" fill="#c3ccd1" opacity="0.4" style="mix-blend-mode: multiply;isolation: isolate"/>
              <path id="Trazado_32463" data-name="Trazado 32463" d="M734.314,171.636a.661.661,0,0,1-.662.66h-1.1a.659.659,0,0,1-.66-.66h0a.658.658,0,0,1,.66-.66h1.1a.66.66,0,0,1,.662.66Z" transform="translate(-729.99 -169.757)" fill="#e4f4fe" opacity="0.9" style="mix-blend-mode: color-dodge;isolation: isolate"/>
            </g>
            <path id="Trazado_32464" data-name="Trazado 32464" d="M736.168,174.148H732.7v74.5s.081,5.866,2.232,6.029c0,0,.825.329,1.237-1.154Z" transform="translate(-729.038 -166.022)" fill="#fff" opacity="0.7" style="mix-blend-mode: overlay;isolation: isolate"/>
          </g>
        </g>
        <g id="Grupo_15928" data-name="Grupo 15928" transform="translate(44.672)">
          <path id="Trazado_32465" data-name="Trazado 32465" d="M764.272,257.963a8.972,8.972,0,0,1-8.971,8.973h0a8.975,8.975,0,0,1-8.97-8.973V172.277h17.941Z" transform="translate(-744.374 -168.225)" fill="#e4eef3" stroke="#bebebe" stroke-linecap="round" stroke-linejoin="round" stroke-width="1" opacity="0.5"/>
          <path id="Trazado_32466" data-name="Trazado 32466" d="M746.761,187.266v52.506a8.1,8.1,0,1,0,16.193,0V187.266Z" transform="translate(-743.867 -150.578)" fill="#a3c61f" opacity="0.8"/>
          <g id="Grupo_15927" data-name="Grupo 15927">
            <path id="Trazado_32467" data-name="Trazado 32467" d="M746.331,172.277v85.686a8.971,8.971,0,1,0,17.941,0V172.277Zm12.16,79.442c0,4.4-1.313,9.678-5.5,9.567-3.035-.078-5.5-2.258-5.5-9.567V173.684l11,.163Z" transform="translate(-744.374 -168.225)" fill="#c3ccd1" opacity="0.4" style="mix-blend-mode: multiply;isolation: isolate"/>
            <path id="Trazado_32468" data-name="Trazado 32468" d="M746.331,172.277v.856h15.141v84.63s-.451,7.324-8.259,6.828c-5.833-.372-6.486-4.982-6.882-8.4v1.77a8.971,8.971,0,1,0,17.941,0V172.277Z" transform="translate(-744.374 -168.225)" fill="#b5bdc2" opacity="0.5" style="mix-blend-mode: multiply;isolation: isolate"/>
            <g id="Grupo_15926" data-name="Grupo 15926">
              <path id="Trazado_32469" data-name="Trazado 32469" d="M767.29,172.443a2.027,2.027,0,0,1-2.027,2.025H747.457a2.027,2.027,0,0,1-2.025-2.025h0a2.027,2.027,0,0,1,2.025-2.027h17.806a2.028,2.028,0,0,1,2.027,2.027Z" transform="translate(-745.432 -170.416)" fill="#e4eef3" stroke="#bebebe" stroke-linecap="round" stroke-linejoin="round" stroke-width="1" opacity="0.6"/>
              <path id="Trazado_32470" data-name="Trazado 32470" d="M765.263,170.416H747.457a2.026,2.026,0,0,0,0,4.052h17.806a2.026,2.026,0,1,0,0-4.052Zm-6.356,3.142H747.7a1.126,1.126,0,1,1,0-2.232h11.2a1.126,1.126,0,1,1,0,2.232Z" transform="translate(-745.432 -170.416)" fill="#c3ccd1" opacity="0.4" style="mix-blend-mode: multiply;isolation: isolate"/>
              <path id="Trazado_32471" data-name="Trazado 32471" d="M756.264,170.416h-3.188a2.132,2.132,0,0,1,1.7,1.7,2.18,2.18,0,0,1-1.424,2.354h2.913a2.026,2.026,0,1,0,0-4.052Z" transform="translate(-736.433 -170.416)" fill="#c3ccd1" opacity="0.4" style="mix-blend-mode: multiply;isolation: isolate"/>
              <path id="Trazado_32472" data-name="Trazado 32472" d="M748.727,171.636a.661.661,0,0,1-.662.66h-1.1a.659.659,0,0,1-.657-.66h0a.657.657,0,0,1,.657-.66h1.1a.66.66,0,0,1,.662.66Z" transform="translate(-744.403 -169.757)" fill="#e4f4fe" opacity="0.9" style="mix-blend-mode: color-dodge;isolation: isolate"/>
            </g>
            <path id="Trazado_32473" data-name="Trazado 32473" d="M750.585,174.148h-3.471v74.5s.083,5.866,2.234,6.029c0,0,.823.329,1.237-1.154Z" transform="translate(-743.452 -166.022)" fill="#fff" opacity="0.7" style="mix-blend-mode: overlay;isolation: isolate"/>
          </g>
        </g>
        <g id="Grupo_15931" data-name="Grupo 15931" transform="translate(76.058)">
          <path id="Trazado_32474" data-name="Trazado 32474" d="M778.687,257.963a8.972,8.972,0,0,1-8.971,8.973h0a8.974,8.974,0,0,1-8.971-8.973V172.277h17.941Z" transform="translate(-758.789 -168.225)" fill="#e4eef3" stroke="#bebebe" stroke-linecap="round" stroke-linejoin="round" stroke-width="1" opacity="0.5"/>
          <path id="Trazado_32475" data-name="Trazado 32475" d="M761.176,187.266v52.506a8.1,8.1,0,1,0,16.19,0V187.266Z" transform="translate(-758.282 -150.578)" fill="#f49624" opacity="0.8"/>
          <g id="Grupo_15930" data-name="Grupo 15930">
            <path id="Trazado_32476" data-name="Trazado 32476" d="M760.746,172.277v85.686a8.971,8.971,0,1,0,17.941,0V172.277Zm12.16,79.442c0,4.4-1.313,9.678-5.5,9.567-3.037-.078-5.5-2.258-5.5-9.567V173.684l11,.163Z" transform="translate(-758.789 -168.225)" fill="#c3ccd1" opacity="0.4" style="mix-blend-mode: multiply;isolation: isolate"/>
            <path id="Trazado_32477" data-name="Trazado 32477" d="M760.746,172.277v.856h15.141v84.63s-.451,7.324-8.261,6.828c-5.831-.372-6.486-4.982-6.88-8.4v1.77a8.971,8.971,0,1,0,17.941,0V172.277Z" transform="translate(-758.789 -168.225)" fill="#b5bdc2" opacity="0.5" style="mix-blend-mode: multiply;isolation: isolate"/>
            <g id="Grupo_15929" data-name="Grupo 15929">
              <path id="Trazado_32478" data-name="Trazado 32478" d="M781.705,172.443a2.027,2.027,0,0,1-2.027,2.025H761.87a2.026,2.026,0,0,1-2.023-2.025h0a2.027,2.027,0,0,1,2.023-2.027h17.808a2.028,2.028,0,0,1,2.027,2.027Z" transform="translate(-759.847 -170.416)" fill="#e4eef3" stroke="#bebebe" stroke-linecap="round" stroke-linejoin="round" stroke-width="1" opacity="0.6"/>
              <path id="Trazado_32479" data-name="Trazado 32479" d="M779.678,170.416H761.87a2.026,2.026,0,0,0,0,4.052h17.808a2.026,2.026,0,1,0,0-4.052Zm-6.358,3.142h-11.2a1.126,1.126,0,1,1,0-2.232h11.2a1.126,1.126,0,1,1,0,2.232Z" transform="translate(-759.847 -170.416)" fill="#c3ccd1" opacity="0.4" style="mix-blend-mode: multiply;isolation: isolate"/>
              <path id="Trazado_32480" data-name="Trazado 32480" d="M770.679,170.416h-3.188a2.137,2.137,0,0,1,1.7,1.7,2.186,2.186,0,0,1-1.426,2.354h2.913a2.026,2.026,0,1,0,0-4.052Z" transform="translate(-750.848 -170.416)" fill="#c3ccd1" opacity="0.4" style="mix-blend-mode: multiply;isolation: isolate"/>
              <path id="Trazado_32481" data-name="Trazado 32481" d="M763.143,171.636a.661.661,0,0,1-.662.66h-1.1a.659.659,0,0,1-.66-.66h0a.658.658,0,0,1,.66-.66h1.1a.66.66,0,0,1,.662.66Z" transform="translate(-758.819 -169.757)" fill="#e4f4fe" opacity="0.9" style="mix-blend-mode: color-dodge;isolation: isolate"/>
            </g>
            <path id="Trazado_32482" data-name="Trazado 32482" d="M765,174.148h-3.471v74.5s.083,5.866,2.232,6.029c0,0,.825.329,1.239-1.154Z" transform="translate(-757.867 -166.022)" fill="#fff" opacity="0.7" style="mix-blend-mode: overlay;isolation: isolate"/>
          </g>
        </g>
        <g id="Grupo_15934" data-name="Grupo 15934" transform="translate(107.442)">
          <path id="Trazado_32483" data-name="Trazado 32483" d="M793.1,257.963a8.972,8.972,0,0,1-8.968,8.973h0a8.974,8.974,0,0,1-8.971-8.973V172.277H793.1Z" transform="translate(-773.201 -168.225)" fill="#e4eef3" stroke="#bebebe" stroke-linecap="round" stroke-linejoin="round" stroke-width="1" opacity="0.5"/>
          <path id="Trazado_32484" data-name="Trazado 32484" d="M775.591,187.266v52.506a8.1,8.1,0,1,0,16.19,0V187.266Z" transform="translate(-772.695 -150.578)" fill="#c3368c" opacity="0.8"/>
          <g id="Grupo_15933" data-name="Grupo 15933">
            <path id="Trazado_32485" data-name="Trazado 32485" d="M775.161,172.277v85.686a8.969,8.969,0,1,0,17.939,0V172.277Zm12.158,79.442c0,4.4-1.313,9.678-5.5,9.567-3.037-.078-5.506-2.258-5.5-9.567V173.684l11,.163Z" transform="translate(-773.201 -168.225)" fill="#c3ccd1" opacity="0.4" style="mix-blend-mode: multiply;isolation: isolate"/>
            <path id="Trazado_32486" data-name="Trazado 32486" d="M775.161,172.277v.856H790.3v84.63s-.451,7.324-8.261,6.828c-5.833-.372-6.486-4.982-6.88-8.4v1.77a8.969,8.969,0,1,0,17.939,0V172.277Z" transform="translate(-773.201 -168.225)" fill="#b5bdc2" opacity="0.5" style="mix-blend-mode: multiply;isolation: isolate"/>
            <g id="Grupo_15932" data-name="Grupo 15932">
              <path id="Trazado_32487" data-name="Trazado 32487" d="M796.119,172.443a2.027,2.027,0,0,1-2.025,2.025H776.286a2.027,2.027,0,0,1-2.025-2.025h0a2.027,2.027,0,0,1,2.025-2.027h17.808a2.027,2.027,0,0,1,2.025,2.027Z" transform="translate(-774.261 -170.416)" fill="#e4eef3" stroke="#bebebe" stroke-linecap="round" stroke-linejoin="round" stroke-width="1" opacity="0.6"/>
              <path id="Trazado_32488" data-name="Trazado 32488" d="M794.094,170.416H776.286a2.026,2.026,0,0,0,0,4.052h17.808a2.026,2.026,0,0,0,0-4.052Zm-6.358,3.142h-11.2a1.126,1.126,0,1,1,0-2.232h11.2a1.126,1.126,0,1,1,0,2.232Z" transform="translate(-774.261 -170.416)" fill="#c3ccd1" opacity="0.4" style="mix-blend-mode: multiply;isolation: isolate"/>
              <path id="Trazado_32489" data-name="Trazado 32489" d="M785.094,170.416h-3.188a2.132,2.132,0,0,1,1.7,1.7,2.18,2.18,0,0,1-1.424,2.354h2.915a2.026,2.026,0,0,0,0-4.052Z" transform="translate(-765.26 -170.416)" fill="#c3ccd1" opacity="0.4" style="mix-blend-mode: multiply;isolation: isolate"/>
              <path id="Trazado_32490" data-name="Trazado 32490" d="M777.558,171.636a.662.662,0,0,1-.662.66h-1.1a.662.662,0,0,1-.662-.66h0a.661.661,0,0,1,.662-.66h1.1a.661.661,0,0,1,.662.66Z" transform="translate(-773.232 -169.757)" fill="#e4f4fe" opacity="0.9" style="mix-blend-mode: color-dodge;isolation: isolate"/>
            </g>
            <path id="Trazado_32491" data-name="Trazado 32491" d="M779.413,174.148h-3.469v74.5s.083,5.866,2.232,6.029c0,0,.825.329,1.237-1.154Z" transform="translate(-772.28 -166.022)" fill="#fff" opacity="0.7" style="mix-blend-mode: overlay;isolation: isolate"/>
          </g>
        </g>
        <g id="Grupo_15940" data-name="Grupo 15940" transform="translate(0 28.56)">
          <g id="Grupo_15937" data-name="Grupo 15937" transform="translate(4.378 0.991)">
            <g id="Grupo_15935" data-name="Grupo 15935" transform="translate(129.287)">
              <rect id="Rectángulo_3833" data-name="Rectángulo 3833" width="3.666" height="72.485" fill="#3e4242" stroke="#535453" stroke-linecap="round" stroke-linejoin="round" stroke-width="1"/>
              <rect id="Rectángulo_3834" data-name="Rectángulo 3834" width="1.442" height="72.485" fill="#8b9194" style="mix-blend-mode: multiply;isolation: isolate"/>
            </g>
            <g id="Grupo_15936" data-name="Grupo 15936">
              <rect id="Rectángulo_3835" data-name="Rectángulo 3835" width="3.668" height="72.485" fill="#3e4242" stroke="#535453" stroke-linecap="round" stroke-linejoin="round" stroke-width="1"/>
              <rect id="Rectángulo_3836" data-name="Rectángulo 3836" width="1.442" height="72.485" transform="translate(2.226)" fill="#8b9194" style="mix-blend-mode: multiply;isolation: isolate"/>
            </g>
          </g>
          <g id="Grupo_15938" data-name="Grupo 15938" transform="translate(0 70.151)">
            <rect id="Rectángulo_3837" data-name="Rectángulo 3837" width="141.711" height="9.249" fill="#8b9194" stroke="#535453" stroke-linecap="round" stroke-linejoin="round" stroke-width="1"/>
            <rect id="Rectángulo_3838" data-name="Rectángulo 3838" width="141.711" height="3.634" transform="translate(0 5.616)" fill="#8b9194" style="mix-blend-mode: multiply;isolation: isolate"/>
            <rect id="Rectángulo_3839" data-name="Rectángulo 3839" width="141.711" height="2.498" transform="translate(0 1.722)" fill="#8b9194" style="mix-blend-mode: screen;isolation: isolate"/>
          </g>
          <g id="Grupo_15939" data-name="Grupo 15939" transform="translate(0.079)">
            <rect id="Rectángulo_3840" data-name="Rectángulo 3840" width="141.553" height="4.737" fill="#8b9194" stroke="#535453" stroke-linecap="round" stroke-linejoin="round" stroke-width="1"/>
            <rect id="Rectángulo_3841" data-name="Rectángulo 3841" width="141.553" height="1.863" transform="translate(0 2.875)" fill="#8b9194" style="mix-blend-mode: multiply;isolation: isolate"/>
            <rect id="Rectángulo_3842" data-name="Rectángulo 3842" width="141.553" height="1.28" transform="translate(0 0.882)" fill="#8b9194" style="mix-blend-mode: screen;isolation: isolate"/>
          </g>
        </g>
      </g>
      <g id="Grupo_15952" data-name="Grupo 15952" transform="translate(699.608 185.833)">
        <g id="Grupo_15944" data-name="Grupo 15944" transform="translate(0 6.902)" opacity="0.5">
          <g id="Grupo_15943" data-name="Grupo 15943">
            <g id="Grupo_15942" data-name="Grupo 15942">
              <path id="Trazado_32492" data-name="Trazado 32492" d="M737.3,220.01v-66.6H708.777v66.6l-34.582,65.4S666.128,298.4,687.181,298.4h71.71c21.329,0,12.988-12.988,12.988-12.988Z" transform="translate(-672.677 -153.406)" fill="#e4eef3" stroke="#bebebe" stroke-linecap="round" stroke-linejoin="round" stroke-width="1"/>
            </g>
          </g>
        </g>
        <g id="Grupo_15946" data-name="Grupo 15946" transform="translate(2.111 93.792)" opacity="0.8">
          <g id="Grupo_15945" data-name="Grupo 15945">
            <path id="Trazado_32493" data-name="Trazado 32493" d="M768.309,236.964l-22.94-43.651H698.587L675.05,237.465s-7.462,12.289,12.016,12.289,46.54.383,66.267.133C776.254,249.594,768.309,236.964,768.309,236.964Z" transform="translate(-673.646 -193.313)" fill="#345ea9"/>
          </g>
        </g>
        <g id="Grupo_15951" data-name="Grupo 15951">
          <g id="Grupo_15949" data-name="Grupo 15949" opacity="0.6">
            <g id="Grupo_15948" data-name="Grupo 15948" transform="translate(32.018)">
              <g id="Grupo_15947" data-name="Grupo 15947">
                <path id="Trazado_32494" data-name="Trazado 32494" d="M724.153,153.646a3.41,3.41,0,0,1-3.41,3.405H690.79a3.408,3.408,0,0,1-3.408-3.405h0a3.408,3.408,0,0,1,3.408-3.41h29.953a3.409,3.409,0,0,1,3.41,3.41Z" transform="translate(-687.382 -150.236)" fill="#e4eef3" stroke="#bebebe" stroke-linecap="round" stroke-linejoin="round" stroke-width="1"/>
                <path id="Trazado_32495" data-name="Trazado 32495" d="M720.743,150.236H690.79a3.408,3.408,0,1,0,0,6.815h29.953a3.408,3.408,0,1,0,0-6.815Zm-10.693,5.287H691.2a1.9,1.9,0,1,1,0-3.758H710.05a1.9,1.9,0,1,1,0,3.758Z" transform="translate(-687.382 -150.236)" fill="#c3ccd1" opacity="0.4" style="mix-blend-mode: multiply;isolation: isolate"/>
                <path id="Trazado_32496" data-name="Trazado 32496" d="M692.929,152.29a1.111,1.111,0,0,1-1.113,1.108h-1.855a1.11,1.11,0,0,1-1.11-1.108h0a1.111,1.111,0,0,1,1.11-1.113h1.855a1.112,1.112,0,0,1,1.113,1.113Z" transform="translate(-685.653 -149.128)" fill="#e4f4fe" opacity="0.9" style="mix-blend-mode: color-dodge;isolation: isolate"/>
              </g>
              <path id="Trazado_32497" data-name="Trazado 32497" d="M705.6,150.236h-5.36a3.592,3.592,0,0,1,2.859,2.857c.338,1.87-.858,3.212-2.4,3.958h4.9a3.408,3.408,0,1,0,0-6.815Z" transform="translate(-672.242 -150.236)" fill="#c3ccd1" opacity="0.4" style="mix-blend-mode: multiply;isolation: isolate"/>
            </g>
            <path id="Trazado_32498" data-name="Trazado 32498" d="M771.878,285.415,737.3,220.01v-66.6H708.777v66.6l-34.582,65.4S666.128,298.4,687.181,298.4h71.71C780.219,298.4,771.878,285.415,771.878,285.415Zm-37.1,5.953H687.527c-8.154-1.335-3.826-9.321-3.826-9.321l27.785-62.561V155.921H726.3v64.229s16.339,55.345,17.8,62.4C745.929,291.367,734.781,291.367,734.781,291.367Z" transform="translate(-672.677 -146.504)" fill="#c3ccd1" opacity="0.4" style="mix-blend-mode: multiply;isolation: isolate"/>
          </g>
          <g id="Grupo_15950" data-name="Grupo 15950" transform="translate(0 6.902)">
            <path id="Trazado_32499" data-name="Trazado 32499" d="M682.186,290.008H729.44s11.148,0,9.317-8.818c-1.461-7.054-17.8-62.4-17.8-62.4V154.561H706.145v63.565l-27.785,62.561S674.032,288.673,682.186,290.008Z" transform="translate(-667.336 -152.046)" fill="none"/>
            <path id="Trazado_32500" data-name="Trazado 32500" d="M771.878,285.415,737.3,220.01v-66.6h-6.04c-.087.12-.133.185-.133.185v65.391s29.119,62.733,29.45,69.219-14.975,5.992-14.975,5.992H678.045c-5.659-2.164-3-10.151-3-10.151l-.174.083-.679,1.289S666.128,298.4,687.181,298.4h71.71C780.219,298.4,771.878,285.415,771.878,285.415Z" transform="translate(-672.677 -153.406)" fill="#b5bdc2" opacity="0.5" style="mix-blend-mode: multiply;isolation: isolate"/>
          </g>
          <path id="Trazado_32501" data-name="Trazado 32501" d="M708.35,155.173h-2.5v62.232l-25.79,61.566s-3.327,6.155,1.163,7.32h7.823a4.717,4.717,0,0,0,5.324-2.828c1.5-3.662,17.8-66.223,17.8-66.223V155.173Z" transform="translate(-665.378 -144.424)" fill="#fff" opacity="0.7" style="mix-blend-mode: overlay;isolation: isolate"/>
        </g>
      </g>
    </g>
  </g>
</svg>
