<svg xmlns="http://www.w3.org/2000/svg" xmlns:xlink="http://www.w3.org/1999/xlink" width="183" height="153" viewBox="0 0 183 153">
  <defs>
    <linearGradient id="linear-gradient" x1="0.5" y1="-0.016" x2="0.5" y2="1.048" gradientUnits="objectBoundingBox">
      <stop offset="0" stop-color="#c96c47"/>
      <stop offset="1" stop-color="#9e4530"/>
    </linearGradient>
    <radialGradient id="radial-gradient" cx="0.533" cy="-0.083" r="2.033" gradientTransform="translate(0.385) scale(0.23 1)" gradientUnits="objectBoundingBox">
      <stop offset="0" stop-color="#89c33f"/>
      <stop offset="1" stop-color="#008f45"/>
    </radialGradient>
    <linearGradient id="linear-gradient-4" x1="0.5" y1="0.302" x2="0.5" y2="0.028" gradientUnits="objectBoundingBox">
      <stop offset="0" stop-color="#4d4d4d"/>
      <stop offset="1" stop-color="gray"/>
    </linearGradient>
    <linearGradient id="linear-gradient-5" x1="0.5" y1="1.346" x2="0.5" y2="-0.193" gradientUnits="objectBoundingBox">
      <stop offset="0" stop-color="#4d4d4d"/>
      <stop offset="1" stop-color="#969696"/>
    </linearGradient>
    <linearGradient id="linear-gradient-6" x1="0.5" y1="1.368" x2="0.5" y2="-0.508" xlink:href="#linear-gradient-5"/>
    <linearGradient id="linear-gradient-7" x1="0.5" y1="1.833" x2="0.5" y2="-1.257" xlink:href="#linear-gradient-5"/>
    <linearGradient id="linear-gradient-11" x1="0.34" y1="0.5" x2="11.589" y2="0.5" gradientUnits="objectBoundingBox">
      <stop offset="0" stop-color="gray"/>
      <stop offset="0.597" stop-color="#b0b0b0"/>
      <stop offset="1" stop-color="gray"/>
    </linearGradient>
    <linearGradient id="linear-gradient-12" x1="0.111" y1="0.5" x2="11.849" y2="0.5" xlink:href="#linear-gradient-11"/>
    <linearGradient id="linear-gradient-13" x1="-0.152" y1="0.5" x2="12.54" y2="0.5" xlink:href="#linear-gradient-11"/>
    <linearGradient id="linear-gradient-14" x1="-0.413" y1="0.5" x2="13.792" y2="0.5" xlink:href="#linear-gradient-11"/>
    <linearGradient id="linear-gradient-15" x1="-2.176" y1="0.5" x2="2.217" y2="0.5" xlink:href="#linear-gradient-11"/>
    <linearGradient id="linear-gradient-16" x1="-250.595" y1="0.5" x2="27.533" y2="0.5" xlink:href="#linear-gradient-11"/>
    <linearGradient id="linear-gradient-17" x1="-3.841" y1="0.5" x2="1.387" y2="0.5" xlink:href="#linear-gradient-11"/>
    <linearGradient id="linear-gradient-18" x1="-8.718" y1="0.5" x2="0.754" y2="0.5" xlink:href="#linear-gradient-11"/>
    <linearGradient id="linear-gradient-19" x1="-1.102" y1="0.5" x2="3.263" y2="0.5" xlink:href="#linear-gradient-11"/>
    <linearGradient id="linear-gradient-20" x1="-0.331" y1="0.5" x2="5.302" y2="0.5" xlink:href="#linear-gradient-11"/>
    <linearGradient id="linear-gradient-21" x1="-1.182" y1="0.5" x2="3.309" y2="0.5" xlink:href="#linear-gradient-11"/>
    <linearGradient id="linear-gradient-22" x1="-1357.726" y1="0.478" x2="4163.975" y2="0.478" xlink:href="#linear-gradient-11"/>
    <linearGradient id="linear-gradient-23" x1="-1025.304" y1="0.483" x2="3141.409" y2="0.483" xlink:href="#linear-gradient-11"/>
    <linearGradient id="linear-gradient-24" x1="-0.475" y1="0.5" x2="5.514" y2="0.5" xlink:href="#linear-gradient-11"/>
    <linearGradient id="linear-gradient-25" x1="-9.248" y1="0.5" x2="0.947" y2="0.5" xlink:href="#linear-gradient-11"/>
    <linearGradient id="linear-gradient-26" x1="-1393.606" y1="0.495" x2="153.597" y2="0.495" xlink:href="#linear-gradient-11"/>
    <linearGradient id="linear-gradient-27" x1="-3754.567" y1="0.487" x2="414.922" y2="0.487" xlink:href="#linear-gradient-11"/>
    <linearGradient id="linear-gradient-28" x1="-2523.114" y1="0.498" x2="276.078" y2="0.498" xlink:href="#linear-gradient-11"/>
    <linearGradient id="linear-gradient-29" x1="-4.154" y1="0.5" x2="1.605" y2="0.5" xlink:href="#linear-gradient-11"/>
    <linearGradient id="linear-gradient-30" x1="-2.28" y1="0.5" x2="2.33" y2="0.5" xlink:href="#linear-gradient-11"/>
    <linearGradient id="linear-gradient-31" x1="-1.339" y1="0.5" x2="3.549" y2="0.5" xlink:href="#linear-gradient-11"/>
    <linearGradient id="linear-gradient-32" x1="-0.604" y1="0.5" x2="5.71" y2="0.5" xlink:href="#linear-gradient-11"/>
    <linearGradient id="linear-gradient-33" x1="-658.983" y1="0.498" x2="1944.315" y2="0.498" xlink:href="#linear-gradient-11"/>
    <linearGradient id="linear-gradient-34" x1="-9.82" y1="0.5" x2="1.177" y2="0.5" xlink:href="#linear-gradient-11"/>
    <linearGradient id="linear-gradient-35" x1="-4.388" y1="0.5" x2="1.734" y2="0.5" xlink:href="#linear-gradient-11"/>
    <linearGradient id="linear-gradient-36" x1="-609.436" y1="0.5" x2="79.632" y2="0.5" xlink:href="#linear-gradient-11"/>
    <linearGradient id="linear-gradient-37" x1="-4181.276" y1="0.465" x2="4181.286" y2="0.465" xlink:href="#linear-gradient-11"/>
    <linearGradient id="linear-gradient-38" x1="-1249.561" y1="0.5" x2="164.405" y2="0.5" xlink:href="#linear-gradient-11"/>
    <linearGradient id="linear-gradient-39" x1="-1111.699" y1="0.5" x2="473.11" y2="0.5" xlink:href="#linear-gradient-11"/>
    <linearGradient id="linear-gradient-40" x1="-2.408" y1="0.5" x2="2.446" y2="0.5" xlink:href="#linear-gradient-11"/>
    <linearGradient id="linear-gradient-41" x1="-1.385" y1="0.5" x2="3.597" y2="0.5" xlink:href="#linear-gradient-11"/>
    <linearGradient id="linear-gradient-42" x1="-0.689" y1="0.5" x2="5.855" y2="0.5" xlink:href="#linear-gradient-11"/>
    <linearGradient id="linear-gradient-43" x1="-599.069" y1="0.506" x2="1739.859" y2="0.506" xlink:href="#linear-gradient-11"/>
    <linearGradient id="linear-gradient-44" x1="-10.742" y1="0.5" x2="1.4" y2="0.5" xlink:href="#linear-gradient-11"/>
    <linearGradient id="linear-gradient-45" x1="-4.614" y1="0.5" x2="1.86" y2="0.5" xlink:href="#linear-gradient-11"/>
    <linearGradient id="linear-gradient-46" x1="-6677.091" y1="0.5" x2="1034.683" y2="0.5" xlink:href="#linear-gradient-11"/>
    <linearGradient id="linear-gradient-47" x1="-2.422" y1="0.5" x2="2.468" y2="0.5" xlink:href="#linear-gradient-11"/>
    <linearGradient id="linear-gradient-48" x1="1.069" y1="0.895" x2="1.069" y2="-0.008" xlink:href="#linear-gradient"/>
    <linearGradient id="linear-gradient-49" x1="15.221" y1="0.895" x2="15.221" y2="-0.008" xlink:href="#linear-gradient"/>
    <linearGradient id="linear-gradient-50" x1="0.5" y1="0.75" x2="0.5" y2="-0.022" gradientUnits="objectBoundingBox">
      <stop offset="0" stop-color="#c96c47"/>
      <stop offset="1" stop-color="#fac488"/>
    </linearGradient>
    <linearGradient id="linear-gradient-52" x1="0.5" y1="0.822" x2="0.5" y2="0.007" gradientUnits="objectBoundingBox">
      <stop offset="0" stop-color="#ee9e5f"/>
      <stop offset="1" stop-color="#fac488"/>
    </linearGradient>
  </defs>
  <g id="Grupo_15780" data-name="Grupo 15780" transform="translate(-461 -4821)">
    <circle id="Elipse_977" data-name="Elipse 977" cx="76.5" cy="76.5" r="76.5" transform="translate(491 4821)" fill="#eaeaea"/>
    <g id="Grupo_15778" data-name="Grupo 15778" transform="translate(235.04 4323.016)">
      <g id="Grupo_15756" data-name="Grupo 15756" transform="translate(266.616 548.192)">
        <path id="Trazado_31664" data-name="Trazado 31664" d="M509.854,764.639a675.861,675.861,0,0,1-73.28-.63l.106-1.686a674.151,674.151,0,0,0,73.1.628Z" transform="translate(-436.574 -757.866)" fill="#4c2a1e"/>
        <g id="Grupo_15755" data-name="Grupo 15755" transform="translate(14.266 0)">
          <path id="Trazado_31665" data-name="Trazado 31665" d="M556.091,751.769q-21.52.486-43.042-.389.247-6.076.494-12.151,21.126.859,42.273.382Q555.953,745.69,556.091,751.769Z" transform="translate(-512.552 -739.229)" fill="url(#linear-gradient)"/>
          <path id="Trazado_31666" data-name="Trazado 31666" d="M730.485,747.308c.07,3.358.545,6.071,1.061,6.059s.868-2.743.787-6.1-.556-6.069-1.061-6.058S730.414,743.951,730.485,747.308Z" transform="translate(-688.008 -740.827)" fill="url(#linear-gradient)"/>
          <path id="Trazado_31667" data-name="Trazado 31667" d="M510.511,745.311c-.141,3.355.163,6.093.679,6.113s1.039-2.683,1.169-6.039-.174-6.092-.678-6.112S510.652,741.956,510.511,745.311Z" transform="translate(-510.476 -739.265)" fill="url(#linear-gradient)"/>
        </g>
        <path id="Trazado_31668" data-name="Trazado 31668" d="M815.794,765.578q.663,5.086,1.338,10.172,4.919-.6,9.823-1.273" transform="translate(-742.591 -760.492)" fill="none" stroke="#4c2a1e" stroke-linecap="round" stroke-linejoin="round" stroke-width="6"/>
        <path id="Trazado_31669" data-name="Trazado 31669" d="M870.423,807.51a1,1,0,1,1-1.062-.917A.992.992,0,0,1,870.423,807.51Z" transform="translate(-785.056 -793.588)" fill="#4c2a1e"/>
        <path id="Trazado_31670" data-name="Trazado 31670" d="M562.806,749.981q-18.371.325-36.74-.353a.832.832,0,0,1-.843-.867l-.045-1.64a.889.889,0,0,1,.9-.851q18.338.331,36.652-.342a.85.85,0,0,1,.884.836q.023,1.159.045,2.317A.889.889,0,0,1,562.806,749.981Z" transform="translate(-508.074 -744.634)" fill="#fff" opacity="0.3"/>
      </g>
      <path id="Trazado_31671" data-name="Trazado 31671" d="M380.019,1021.935c0,7.517-34.487,13.611-77.029,13.611s-77.029-6.094-77.029-13.611,34.487-21.771,77.029-21.771S380.019,1014.418,380.019,1021.935Z" transform="translate(0 -401.602)" fill="url(#radial-gradient)"/>
      <path id="Trazado_31672" data-name="Trazado 31672" d="M489.982,824.086a12.082,12.082,0,0,0-.376,1.25c-.174.711-1.373,8.469-1.373,8.469a3.094,3.094,0,0,0-.246,1.557l-1.388,8.423a2.533,2.533,0,0,0-.286,1.848l-1.164,8.419a2.749,2.749,0,0,0-.165,1.459l-.736,8.5s-5.216,2.567-5.57,2.536a6.889,6.889,0,0,0-1.678.63l-11.741,1.949-2.034.267-15.134.7H446.3l-14.973-.7-2.42-.268-11.36-2.041-1.008-.51-5.522-11.394s.3-.075-.139-1.106l-1.21-8.769s.232-.463-.232-1.48l-1.454-8.787s.368.1-.208-1.229l-1.454-8.833.345-.265-.337-.973,7.1-3.171-.027-.588,15.749-2.716.194-.765,18.718-1.168s.605.531.879.5a5.969,5.969,0,0,0,1.1-.47l18.525,1.417.186.814,15.074,2.767.006.764Z" transform="translate(-145.547 -252.451)" fill="url(#linear-gradient-4)"/>
      <g id="Grupo_15757" data-name="Grupo 15757" transform="translate(275.662 563.929)">
        <path id="Trazado_31673" data-name="Trazado 31673" d="M568.415,821.958s.069,8.249-.315,8.466-11.653,1.375-12.088,1.279-.748-9-.483-9.073,6.9-1.906,7.842-1.882A44.958,44.958,0,0,1,568.415,821.958Z" transform="translate(-541.534 -820.748)" fill="url(#linear-gradient-5)"/>
        <path id="Trazado_31674" data-name="Trazado 31674" d="M514.767,833.456s.7,8.864.292,8.984-9.121-1.472-9.121-1.472v-5.7Z" transform="translate(-501.594 -831.003)" fill="url(#linear-gradient-6)"/>
        <path id="Trazado_31675" data-name="Trazado 31675" d="M487.426,845.351l-.171,5.453s-3.793-1.52-3.817-2.172S485.912,845.206,487.426,845.351Z" transform="translate(-483.437 -840.597)" fill="url(#linear-gradient-7)"/>
        <path id="Trazado_31676" data-name="Trazado 31676" d="M629.519,821.958s-.069,8.249.315,8.466,11.653,1.375,12.088,1.279.748-9,.483-9.073-6.9-1.906-7.842-1.882A44.956,44.956,0,0,0,629.519,821.958Z" transform="translate(-601.316 -820.748)" fill="url(#linear-gradient-5)"/>
        <path id="Trazado_31677" data-name="Trazado 31677" d="M698.795,833.456s-.7,8.864-.292,8.984,9.121-1.472,9.121-1.472v-5.7Z" transform="translate(-656.884 -831.003)" fill="url(#linear-gradient-6)"/>
        <path id="Trazado_31678" data-name="Trazado 31678" d="M748.131,845.351l.171,5.453s3.793-1.52,3.817-2.172S749.644,845.206,748.131,845.351Z" transform="translate(-697.035 -840.597)" fill="url(#linear-gradient-7)"/>
      </g>
      <g id="Grupo_15758" data-name="Grupo 15758" transform="translate(260.777 572.53)">
        <path id="Trazado_31679" data-name="Trazado 31679" d="M408.865,875.15c1.117.99,2.518.848,3.754,1.088a.6.6,0,0,0,.712-.659c-.327-2.637-.24-5.145-1.17-6.891-1.082-2.03-3.483-2.481-5.837-3.379C406.814,868.488,406.349,872.92,408.865,875.15Z" transform="translate(-406.324 -865.309)" fill="url(#linear-gradient-11)"/>
        <path id="Trazado_31680" data-name="Trazado 31680" d="M417.339,927.068a5.107,5.107,0,0,0,2.992,1.055,1.057,1.057,0,0,0,1.214-1.146c-.27-2.868-.379-6.446-1.291-7.363-.363-.364-1.988-.11-2.652-.531a29.094,29.094,0,0,0-2.772-1.879C415.363,920.353,414.894,924.8,417.339,927.068Z" transform="translate(-413.189 -907.186)" fill="url(#linear-gradient-12)"/>
        <path id="Trazado_31681" data-name="Trazado 31681" d="M428.479,981.35a1.115,1.115,0,0,0,1.305-1.162c-.164-2.845-.179-6.352-1.062-7.279-.344-.361-1.9-.152-2.523-.584-.7-.485-1.948-1.6-2.627-1.937.48,3.1-.138,7.582,2.195,9.894A4.554,4.554,0,0,0,428.479,981.35Z" transform="translate(-420.242 -950.104)" fill="url(#linear-gradient-13)"/>
        <path id="Trazado_31682" data-name="Trazado 31682" d="M435.416,1024.122c-.287-.344-1.832-.162-2.4-.608-.754-.592-1.707-1.442-2.445-1.969.346,3.034-.557,7.585,1.638,9.931.879.939,1.992.936,3,1.169a.737.737,0,0,0,.909-.721C436.086,1029.019,436.319,1025.205,435.416,1024.122Z" transform="translate(-425.89 -991.386)" fill="url(#linear-gradient-14)"/>
        <path id="Trazado_31683" data-name="Trazado 31683" d="M626.157,897.195c2.756-.061,6.537.257,9.214-.469,4.2-1.138,3.03-5.492,3.635-9.743q-4.423.067-8.844.2-2.75.08-5.5.187c-2.247.085-2.5-1.487-3.292.141-.592,1.212-.293,8.842.417,9.509C622.459,897.648,625.388,897.212,626.157,897.195Z" transform="translate(-579.605 -882.625)" fill="url(#linear-gradient-15)"/>
        <path id="Trazado_31684" data-name="Trazado 31684" d="M787.095,918.918c-.094.422-.19.843-.284,1.265C786.816,920.2,787.063,919.075,787.095,918.918Z" transform="translate(-713.363 -908.57)" fill="url(#linear-gradient-16)"/>
        <path id="Trazado_31685" data-name="Trazado 31685" d="M720.348,890.761c3.072.054,8.618.121,10.871-1.109l.877-1.2c.149-.671.187-.834.171-.756q.833-3.736,1.687-7.468c-3.379.243-12.946-.125-14.3,2.306-.769,1.378-.8,4.468-.78,6.734A1.5,1.5,0,0,0,720.348,890.761Z" transform="translate(-658.536 -877.35)" fill="url(#linear-gradient-17)"/>
        <path id="Trazado_31686" data-name="Trazado 31686" d="M797.024,877.728c.481-.184,1.127-.3,1.615-.464,4.679-1.589,3.7-5.405,4.428-10.1-1.492.343-6.22.695-7.241,1.791-.643.69-.183,5.268-.485,5.916C794.343,877.012,794.393,878.735,797.024,877.728Z" transform="translate(-719.763 -866.803)" fill="url(#linear-gradient-18)"/>
        <path id="Trazado_31687" data-name="Trazado 31687" d="M530.04,898.153c2.132.1,5.247.762,7.307.21,1.966-.527,1.406.271,2.211-1.518.833-1.851-.044-6.17-.059-8.219q-8.822-.356-17.652-.467c.271,1.8.325,8.261,1.729,9.529C524.65,898.657,528.691,898.09,530.04,898.153Z" transform="translate(-499.547 -883.747)" fill="url(#linear-gradient-19)"/>
        <path id="Trazado_31688" data-name="Trazado 31688" d="M447.19,888.935c2.867.542,6.552,1.454,9.491.929.141-.023-.282-5.088-.259-4.729-.137-2.165.3-3.617-1.364-4.635-2.588-1.587-9.372-1.115-12.349-1.4C443.429,884.319,441.9,887.935,447.19,888.935Z" transform="translate(-435.685 -876.435)" fill="url(#linear-gradient-20)"/>
        <path id="Trazado_31689" data-name="Trazado 31689" d="M543.245,947.085a1.337,1.337,0,0,0-1.455-1.217,80.582,80.582,0,0,1-14-.369,1.339,1.339,0,0,0-1.554,1.312c-.013,2.8-.139,6.234,1.588,7.474,1.255.9,4.35.41,5.874.494,2.9.159,6.042.57,8.969.137a1.332,1.332,0,0,0,1.121-1.433Q543.522,950.284,543.245,947.085Z" transform="translate(-503.084 -930.006)" fill="url(#linear-gradient-21)"/>
        <path id="Trazado_31690" data-name="Trazado 31690" d="M519.151,988.344l.014,0Z" transform="translate(-497.371 -964.592)" fill="url(#linear-gradient-22)"/>
        <path id="Trazado_31691" data-name="Trazado 31691" d="M519.225,988.329Z" transform="translate(-497.431 -964.579)" fill="url(#linear-gradient-23)"/>
        <path id="Trazado_31692" data-name="Trazado 31692" d="M460.688,937.648c-1.509-.1-5.787-.127-8.228-.879a1.04,1.04,0,0,0-1.343,1.055c.229,4.048-.38,6.839,4.045,7.818.317.07,9.086,1.59,9.086,1.047a66.824,66.824,0,0,0-.3-6.839C463.213,936.815,464.478,937.9,460.688,937.648Z" transform="translate(-442.469 -922.937)" fill="url(#linear-gradient-24)"/>
        <path id="Trazado_31693" data-name="Trazado 31693" d="M791.268,921.391c-1.432.879-1.359.776-1.59,3.193q-.2,2.036-.379,4.074a.915.915,0,0,0,1.047.983c1.242-.178,2.6-.119,3.769-.954,2.927-2.09,2.339-6.161,2.916-9.6-.719.2-1.658,1.136-2.442,1.474C793.706,920.946,791.983,920.951,791.268,921.391Z" transform="translate(-715.367 -908.708)" fill="url(#linear-gradient-25)"/>
        <path id="Trazado_31694" data-name="Trazado 31694" d="M786.748,935l-.051.01Z" transform="translate(-713.271 -921.547)" fill="url(#linear-gradient-26)"/>
        <path id="Trazado_31695" data-name="Trazado 31695" d="M786.618,935.053l-.019,0Z" transform="translate(-713.192 -921.59)" fill="url(#linear-gradient-27)"/>
        <path id="Trazado_31696" data-name="Trazado 31696" d="M786.961,934.976l.028-.006Z" transform="translate(-713.484 -921.523)" fill="url(#linear-gradient-28)"/>
        <path id="Trazado_31697" data-name="Trazado 31697" d="M714.849,947.82c3.344.133,8.777-.121,10.611-1.643.695-.576,1.244-4.039,1.617-6.426a1.5,1.5,0,0,0-1.8-1.7,47.7,47.7,0,0,1-7.612.839c-3.829.163-3.214.257-3.758,4.207-.129.934-.351,1.995-.491,3.02A1.5,1.5,0,0,0,714.849,947.82Z" transform="translate(-654.122 -923.98)" fill="url(#linear-gradient-29)"/>
        <path id="Trazado_31698" data-name="Trazado 31698" d="M636.595,944.7c-3.143.192-10.724.543-13.956.443a1.56,1.56,0,0,0-1.6,1.443c-.194,2.55-.541,6.9.1,7.461.848.744.742-.142,1.64.339,1.692.908,5.68-.13,7.538-.23,1.508-.081,3.687.25,5.083-.4,2.657-1.237,2.311-4.663,2.475-7.783A1.208,1.208,0,0,0,636.595,944.7Z" transform="translate(-579.371 -929.375)" fill="url(#linear-gradient-30)"/>
        <path id="Trazado_31699" data-name="Trazado 31699" d="M535.9,1009.482c1.108.076,7.074.789,9.653.494a1.335,1.335,0,0,0,1.179-1.334q-.01-3.225-.025-6.451a1.336,1.336,0,0,0-1.443-1.328,76.932,76.932,0,0,1-13.118-.412,1.338,1.338,0,0,0-1.546,1.4C530.914,1006.89,530.079,1009.082,535.9,1009.482Z" transform="translate(-506.606 -974.351)" fill="url(#linear-gradient-31)"/>
        <path id="Trazado_31700" data-name="Trazado 31700" d="M466.963,991.463c-1.445-.111-5.687-.232-7.985-1.043a.9.9,0,0,0-1.194.881c.138,4.037-.681,6.969,3.677,8.013.3.073,8.74,1.644,8.74,1.1a53.94,53.94,0,0,0-.143-6.743C469.4,990.7,470.625,991.743,466.963,991.463Z" transform="translate(-447.85 -966.227)" fill="url(#linear-gradient-32)"/>
        <path id="Trazado_31701" data-name="Trazado 31701" d="M522.111,1042.394l.03-.005Z" transform="translate(-499.76 -1008.206)" fill="url(#linear-gradient-33)"/>
        <path id="Trazado_31702" data-name="Trazado 31702" d="M785.241,974.713c-1.35.887-1.294.861-1.458,3.195q-.13,1.862-.239,3.725a1.2,1.2,0,0,0,1.333,1.268,5.55,5.55,0,0,0,3.254-.974c2.681-2.336,2.043-6.107,2.583-9.629-.69.22-1.565,1.171-2.315,1.526C787.565,974.219,785.911,974.273,785.241,974.713Z" transform="translate(-710.726 -951.645)" fill="url(#linear-gradient-34)"/>
        <path id="Trazado_31703" data-name="Trazado 31703" d="M722.551,993.981a39.646,39.646,0,0,1-8.879.676,1.5,1.5,0,0,0-1.558,1.3c-.329,2.448-.935,6.922-.371,7.339,1.286.95,6.241-.522,7.568-.784,2.869-.565,3.59-.318,4.632-2.463a31.168,31.168,0,0,0,.448-4.5A1.5,1.5,0,0,0,722.551,993.981Z" transform="translate(-652.6 -969.111)" fill="url(#linear-gradient-35)"/>
        <path id="Trazado_31704" data-name="Trazado 31704" d="M780.041,988.955l.114-.03Z" transform="translate(-707.9 -965.063)" fill="url(#linear-gradient-36)"/>
        <path id="Trazado_31705" data-name="Trazado 31705" d="M780.634,988.924Z" transform="translate(-708.378 -965.061)" fill="url(#linear-gradient-37)"/>
        <path id="Trazado_31706" data-name="Trazado 31706" d="M779.752,989.153a.8.8,0,0,0,.056-.074C779.788,989.084,779.77,989.111,779.752,989.153Z" transform="translate(-707.667 -965.187)" fill="url(#linear-gradient-38)"/>
        <path id="Trazado_31707" data-name="Trazado 31707" d="M705.288,1037.019c.017.373.031.746.048,1.119C705.346,1038.167,705.305,1037.333,705.288,1037.019Z" transform="translate(-647.577 -1003.873)" fill="url(#linear-gradient-39)"/>
        <path id="Trazado_31708" data-name="Trazado 31708" d="M637.578,1007.221q-.138-3.048-.245-6.1a1.066,1.066,0,0,0-1.2-1.022,96.766,96.766,0,0,1-13.4.445,1.067,1.067,0,0,0-1.15,1c-.182,2.883-.709,6.954,1.24,7.977,1.414.742,4.848-.053,6.351-.127.625-.031,8.589-.62,8.451-1.058C637.565,1007.06,637.563,1006.959,637.578,1007.221Z" transform="translate(-579.867 -974.075)" fill="url(#linear-gradient-40)"/>
        <path id="Trazado_31709" data-name="Trazado 31709" d="M614.275,1093.656v0Z" transform="translate(-574.133 -1049.339)" fill="#fff"/>
        <path id="Trazado_31710" data-name="Trazado 31710" d="M547.065,1052.3a69.273,69.273,0,0,1-13.694-.5.918.918,0,0,0-1.1.912c.026,2.524-.056,6.916.929,7.695,1.062.839,3.941.463,5.228.544,2.947.187,5.887,0,8.765-.038a.92.92,0,0,0,.907-.922q0-3.388-.009-6.776A.924.924,0,0,0,547.065,1052.3Z" transform="translate(-507.961 -1015.786)" fill="url(#linear-gradient-41)"/>
        <path id="Trazado_31711" data-name="Trazado 31711" d="M614.275,1097.627v0Z" transform="translate(-574.133 -1052.613)" fill="#fff"/>
        <path id="Trazado_31712" data-name="Trazado 31712" d="M614.275,1095.881v0Z" transform="translate(-574.133 -1051.075)" fill="#fff"/>
        <path id="Trazado_31713" data-name="Trazado 31713" d="M614.275,1098.69v0Z" transform="translate(-574.133 -1053.579)" fill="#fff"/>
        <path id="Trazado_31714" data-name="Trazado 31714" d="M614.275,1098.519v0Z" transform="translate(-574.133 -1053.482)" fill="#fff"/>
        <path id="Trazado_31715" data-name="Trazado 31715" d="M473.676,1045.42c-.647-3.391.672-1.313-2.946-2.206-1.471-.363-5.406-.28-7.605-1.047a.957.957,0,0,0-1.273.89c-.06,3.961-1.046,6.831,3.207,7.959.3.08,8.548,1.661,8.548,1.117C473.845,1052.089,473.763,1045.874,473.676,1045.42Z" transform="translate(-451.02 -1007.983)" fill="url(#linear-gradient-42)"/>
        <path id="Trazado_31716" data-name="Trazado 31716" d="M523.335,1093.992Z" transform="translate(-500.748 -1049.843)" fill="url(#linear-gradient-43)"/>
        <path id="Trazado_31717" data-name="Trazado 31717" d="M781.5,1025.943c-1.283.893-1.219.913-1.277,3.2q-.048,1.877-.059,3.754a1.23,1.23,0,0,0,1.373,1.232,5.043,5.043,0,0,0,3.1-.99c2.537-2.376,1.642-6.242,2.024-9.667-.641.224-1.457,1.192-2.161,1.553C783.708,1025.428,782.123,1025.508,781.5,1025.943Z" transform="translate(-707.997 -992.939)" fill="url(#linear-gradient-44)"/>
        <path id="Trazado_31718" data-name="Trazado 31718" d="M720.19,1043.4a28.325,28.325,0,0,1-8.262,1.2,1.5,1.5,0,0,0-1.571,1.293c-.4,2.788-1.2,6.462.929,7.329,1.181.481,7.035-.361,9.554-1.347l1.015-1.546c-.035-1.219.091-3.636.2-5.38A1.5,1.5,0,0,0,720.19,1043.4Z" transform="translate(-651.278 -1008.982)" fill="url(#linear-gradient-45)"/>
        <path id="Trazado_31719" data-name="Trazado 31719" d="M772.44,1083.384Z" transform="translate(-701.766 -1041.288)" fill="url(#linear-gradient-46)"/>
        <path id="Trazado_31720" data-name="Trazado 31720" d="M637.142,1052.963a.935.935,0,0,0-1.064-.929,97.456,97.456,0,0,1-13.77.423.933.933,0,0,0-1.01.869c-.2,2.889-.917,6.958,1.225,8.075,1.6.837,5.612-.088,7.4-.188,1.463-.082,3.363.186,4.676-.383.573-.248,1.4.11,1.883-.431C637.287,1059.494,637.136,1055.282,637.142,1052.963Z" transform="translate(-579.576 -1015.982)" fill="url(#linear-gradient-47)"/>
      </g>
      <g id="Grupo_15771" data-name="Grupo 15771" transform="translate(260.766 562.536)">
        <g id="Grupo_15759" data-name="Grupo 15759" transform="translate(64.288 8.748)">
          <path id="Trazado_31721" data-name="Trazado 31721" d="M739.466,860.379s.07-.018.165-.052l.417-.14.526-.2.26-.118.136-.061.115-.063.235-.126.188-.125a2.02,2.02,0,0,0,.293-.225.854.854,0,0,0,.161-.164l.054-.063a.588.588,0,0,1,.261-.1,4.117,4.117,0,0,1,.546-.064,13.9,13.9,0,0,1,1.679.015q5.87.386,11.787.909a7.59,7.59,0,0,1,1.575.279,1.37,1.37,0,0,1,.407.19c.087.065.105.131.041.191l-.093.094a1.78,1.78,0,0,1-.28.243,3.846,3.846,0,0,1-.5.334l-.329.184-.4.185-.2.093-.227.089-.448.173c-.316.109-.623.209-.893.3l-.7.2c-.167.049-.279.075-.279.075a7.086,7.086,0,0,1-1.564.149,11.7,11.7,0,0,1-1.819-.127q-5-.8-9.987-1.539a4.473,4.473,0,0,1-1.122-.273C739.275,860.536,739.235,860.444,739.466,860.379Z" transform="translate(-739.308 -858.852)" fill="#c9c9c9"/>
        </g>
        <g id="Grupo_15760" data-name="Grupo 15760" transform="translate(55.019 10.817)">
          <path id="Trazado_31722" data-name="Trazado 31722" d="M692,870.509l1.092-.113c.635-.073,1.483-.168,2.256-.28.8-.107,1.509-.229,2.043-.319l.613-.115.231-.044a6.079,6.079,0,0,1,1.27-.063,13.123,13.123,0,0,1,1.632.145q4.838.767,9.676,1.587c.527.089.833.2.887.32s-.178.226-.649.31l-.382.062c-.247.039-.591.1-1.021.162-.877.129-2.068.3-3.372.451-1.28.157-2.665.294-3.714.4-1.068.1-1.792.16-1.792.16a15.523,15.523,0,0,1-2.015.022,6.243,6.243,0,0,1-1.481-.221q-2.8-.977-5.624-1.95c-.307-.105-.407-.216-.339-.306S691.6,870.545,692,870.509Z" transform="translate(-691.29 -869.571)" fill="#c9c9c9"/>
        </g>
        <g id="Grupo_15761" data-name="Grupo 15761" transform="translate(41.777 12.06)">
          <path id="Trazado_31723" data-name="Trazado 31723" d="M624.4,876.3l.363,0c.232,0,.562,0,.954-.014s.854-.013,1.34-.028c.243-.007.5-.011.751-.019l.768-.026c2.067-.065,4.011-.19,4.012-.191a8.283,8.283,0,0,1,1.385.042,5.216,5.216,0,0,1,1.179.24q2.588.986,5.144,1.975c.279.107.263.222-.008.322a6.2,6.2,0,0,1-1.514.219l-.142.008-.407.021-1.462.072c-.61.028-1.329.057-2.1.09l-1.2.043c-.408.015-.824.03-1.245.041l-1.252.036c-.414.011-.825.019-1.221.028-.792.02-1.537.03-2.175.041s-1.171.017-1.544.02l-.587.006a13.1,13.1,0,0,1-1.954-.11c-.5-.073-.793-.174-.792-.288v-2.1c0-.114.2-.219.513-.3A5.543,5.543,0,0,1,624.4,876.3Z" transform="translate(-622.69 -876.01)" fill="#c9c9c9"/>
        </g>
        <g id="Grupo_15762" data-name="Grupo 15762" transform="translate(22.306 11.986)">
          <path id="Trazado_31724" data-name="Trazado 31724" d="M530.318,875.64s.115.01.33.023l.877.057,1.264.071.725.035.372.019.382.015.758.031.744.024c.479.018.939.027,1.328.037s.718.015.948.02l.361.007c.232.006.448.02.644.042a3.586,3.586,0,0,1,.512.095c.288.079.465.185.438.3q-.262,1.052-.519,2.1c-.027.114-.347.215-.863.284-.257.035-.563.062-.9.08s-.7.026-1.082.019l-.585-.009c-.372-.006-.9-.012-1.538-.029s-1.377-.029-2.161-.054l-1.212-.035-1.239-.045-.622-.022-.609-.026-1.184-.05-2.067-.1-1.436-.081c-.348-.019-.539-.032-.539-.033a5.466,5.466,0,0,1-1.449-.228c-.244-.1-.23-.217.075-.323q2.8-.977,5.625-1.95a5.953,5.953,0,0,1,1.235-.233A8.34,8.34,0,0,1,530.318,875.64Z" transform="translate(-521.825 -875.624)" fill="#c9c9c9"/>
        </g>
        <g id="Grupo_15763" data-name="Grupo 15763" transform="translate(7.018 10.661)">
          <path id="Trazado_31725" data-name="Trazado 31725" d="M456.489,868.836l.8.165c.505.095,1.181.223,1.943.336.738.118,1.556.219,2.169.3l.766.088.291.033c.391.038.593.117.632.211s-.084.2-.416.306q-3.062.957-6.094,1.923a6.845,6.845,0,0,1-1.528.214,14.978,14.978,0,0,1-2-.034l-.48-.047c-.3-.031-.742-.072-1.256-.124-1.013-.108-2.35-.254-3.576-.42-1.251-.16-2.384-.34-3.215-.475-.805-.14-1.325-.235-1.325-.235-.442-.088-.631-.2-.556-.318a1.829,1.829,0,0,1,.964-.318q5-.8,9.987-1.539a13.548,13.548,0,0,1,1.654-.135A5.666,5.666,0,0,1,456.489,868.836Z" transform="translate(-442.627 -868.761)" fill="#c9c9c9"/>
        </g>
        <g id="Grupo_15764" data-name="Grupo 15764" transform="translate(0.01 8.525)">
          <path id="Trazado_31726" data-name="Trazado 31726" d="M422.737,857.9l.035.064a.539.539,0,0,0,.116.167,1.233,1.233,0,0,0,.228.231c.052.042.093.086.153.128l.2.129a7.351,7.351,0,0,0,1.43.657c.211.067.144.161-.068.253a5.253,5.253,0,0,1-1.183.268q-5.133.71-10.277,1.488a11.868,11.868,0,0,1-1.827.117,6.182,6.182,0,0,1-1.5-.161l-.069-.02c-.047-.013-.11-.032-.185-.058l-.632-.209c-.245-.088-.511-.193-.795-.305l-.388-.179a3.423,3.423,0,0,1-.369-.187l-.333-.191c-.1-.064-.183-.128-.27-.19a2.378,2.378,0,0,1-.4-.344,1.081,1.081,0,0,1-.2-.25l-.062-.1c-.093-.123.154-.265.546-.385a8.273,8.273,0,0,1,1.615-.273q5.938-.487,11.821-.83a13.219,13.219,0,0,1,1.662,0C422.425,857.753,422.677,857.816,422.737,857.9Z" transform="translate(-406.321 -857.696)" fill="#c9c9c9"/>
        </g>
        <g id="Grupo_15765" data-name="Grupo 15765" transform="translate(0 5.585)">
          <path id="Trazado_31727" data-name="Trazado 31727" d="M425.014,843.176a1.672,1.672,0,0,0-.157.068l-.393.181-.489.257-.238.145-.125.074-.1.075-.21.149-.163.144a1.731,1.731,0,0,0-.247.255.745.745,0,0,0-.127.179l-.041.068a.527.527,0,0,1-.239.13,3.934,3.934,0,0,1-.528.122,14.381,14.381,0,0,1-1.665.174q-5.889.3-11.828.747a8.154,8.154,0,0,1-1.622-.012,1.569,1.569,0,0,1-.455-.116c-.1-.049-.142-.109-.1-.179l.063-.107a1.468,1.468,0,0,1,.2-.285,3.145,3.145,0,0,1,.4-.411l.269-.235.336-.246.172-.124.2-.124.392-.242c.281-.159.556-.307.8-.434l.641-.31c.152-.075.257-.118.257-.118a6.709,6.709,0,0,1,1.519-.39,11.547,11.547,0,0,1,1.855-.145q5.221.063,10.4.3a4.715,4.715,0,0,1,1.182.162C425.178,843,425.235,843.088,425.014,843.176Z" transform="translate(-406.27 -842.466)" fill="#c9c9c9"/>
        </g>
        <g id="Grupo_15766" data-name="Grupo 15766" transform="translate(7.089 1.87)">
          <path id="Trazado_31728" data-name="Trazado 31728" d="M463.288,825.45l-1.107.186c-.642.116-1.5.274-2.27.446-.8.169-1.5.351-2.031.488l-.6.169-.227.064a6.241,6.241,0,0,1-1.276.178,14.352,14.352,0,0,1-1.677.011q-5.032-.287-10.113-.416c-.552-.013-.89-.083-.975-.19s.12-.251.574-.4l.369-.117c.239-.074.573-.18.992-.306.856-.251,2.026-.584,3.325-.9,1.272-.321,2.669-.624,3.731-.846,1.084-.218,1.822-.358,1.822-.358a15.163,15.163,0,0,1,2.088-.225,6.551,6.551,0,0,1,1.578.091q3.07.757,6.1,1.584c.329.09.444.2.384.294S463.7,825.388,463.288,825.45Z" transform="translate(-442.992 -823.222)" fill="#c9c9c9"/>
        </g>
        <g id="Grupo_15767" data-name="Grupo 15767" transform="translate(23.022 0)">
          <path id="Trazado_31729" data-name="Trazado 31729" d="M542.516,816.584l-.377.007c-.24,0-.584.01-.991.025s-.887.027-1.39.052c-.252.012-.516.022-.779.036l-.8.046c-2.141.121-4.14.34-4.14.34a8.972,8.972,0,0,1-1.434.023,5.68,5.68,0,0,1-1.242-.184q-2.779-.868-5.6-1.682c-.307-.088-.308-.208-.039-.334a6.217,6.217,0,0,1,1.555-.347l.148-.019c.1-.013.239-.031.424-.052.369-.044.9-.106,1.529-.178s1.394-.146,2.2-.224l1.264-.11c.43-.037.869-.073,1.315-.1l1.325-.092c.439-.028.874-.052,1.294-.075.839-.048,1.631-.08,2.309-.106s1.245-.042,1.642-.051l.624-.015a13.274,13.274,0,0,1,2.081.1c.531.075.843.183.842.3v2.2c0,.119-.214.227-.534.307A5.909,5.909,0,0,1,542.516,816.584Z" transform="translate(-525.534 -813.534)" fill="#c9c9c9"/>
        </g>
        <g id="Grupo_15768" data-name="Grupo 15768" transform="translate(43.124 0.05)">
          <path id="Trazado_31730" data-name="Trazado 31730" d="M639.677,817.423s-.118-.016-.338-.039l-.9-.1-1.3-.125-.748-.062-.384-.032-.394-.028-.784-.055-.77-.045c-.5-.031-.973-.05-1.376-.068s-.745-.029-.983-.036l-.374-.012c-.241-.009-.465-.026-.668-.051a3.816,3.816,0,0,1-.531-.1c-.3-.084-.482-.195-.452-.312q.285-1.091.575-2.19c.031-.12.372-.224.923-.29.275-.034.6-.058.959-.071s.75-.014,1.151,0l.622.024c.4.016.961.037,1.633.075s1.46.079,2.29.139l1.281.093,1.307.111.655.058.641.063,1.243.127c.8.088,1.534.175,2.162.252s1.134.149,1.5.2.56.078.56.078a5.438,5.438,0,0,1,1.478.362c.237.127.2.244-.13.326q-3.07.757-6.1,1.584a6.5,6.5,0,0,1-1.3.167A8.961,8.961,0,0,1,639.677,817.423Z" transform="translate(-629.667 -813.794)" fill="#c9c9c9"/>
        </g>
        <g id="Grupo_15769" data-name="Grupo 15769" transform="translate(56.537 2.161)">
          <path id="Trazado_31731" data-name="Trazado 31731" d="M705.719,828.231l-.778-.238c-.5-.14-1.162-.327-1.921-.5-.734-.178-1.556-.343-2.172-.465l-.773-.142-.294-.054c-.4-.065-.594-.158-.622-.257s.11-.2.466-.286q3.273-.777,6.588-1.48a7.152,7.152,0,0,1,1.623-.067,14.7,14.7,0,0,1,2.058.249l.486.1c.306.065.75.158,1.268.272,1.019.23,2.357.544,3.566.872,1.237.326,2.34.665,3.144.919.777.255,1.274.426,1.274.427.422.153.579.295.474.4a2.075,2.075,0,0,1-1.05.173q-5.222.063-10.4.3a14.821,14.821,0,0,1-1.694-.029A5.777,5.777,0,0,1,705.719,828.231Z" transform="translate(-699.153 -824.727)" fill="#c9c9c9"/>
        </g>
        <g id="Grupo_15770" data-name="Grupo 15770" transform="translate(65.191 5.947)">
          <path id="Trazado_31732" data-name="Trazado 31732" d="M745.983,846.506l-.022-.067a.481.481,0,0,0-.082-.178,1.1,1.1,0,0,0-.181-.253c-.043-.047-.076-.095-.127-.144l-.17-.149a6.468,6.468,0,0,0-1.305-.8c-.2-.088-.115-.175.116-.247a5.455,5.455,0,0,1,1.242-.147q5.3-.172,10.659-.178a11.645,11.645,0,0,1,1.855.162,5.8,5.8,0,0,1,1.444.4l.063.031c.043.02.1.049.167.086l.566.307c.217.127.45.273.7.43l.33.239a2.854,2.854,0,0,1,.308.245l.271.242c.082.08.141.156.208.231a1.916,1.916,0,0,1,.284.4.909.909,0,0,1,.125.279l.031.1c.054.136-.231.232-.649.282a8.8,8.8,0,0,1-1.656,0q-5.938-.487-11.821-.83a13.728,13.728,0,0,1-1.644-.186C746.265,846.682,746.026,846.593,745.983,846.506Z" transform="translate(-743.985 -844.343)" fill="#c9c9c9"/>
        </g>
      </g>
      <g id="Grupo_15772" data-name="Grupo 15772" transform="translate(264.112 572.37)">
        <path id="Trazado_31733" data-name="Trazado 31733" d="M843.725,864.476h0Z" transform="translate(-762.626 -864.476)" fill="#b0b0b0"/>
        <path id="Trazado_31734" data-name="Trazado 31734" d="M423.6,877.4a3.5,3.5,0,0,1,1.927,1.434,11.722,11.722,0,0,1,.746,4.032q.02.239.04.481a2.008,2.008,0,0,1-1.1-.4c-1.22-1.082-1.449-3.312-1.615-5.543" transform="translate(-423.604 -874.909)" fill="#b0b0b0"/>
        <path id="Trazado_31735" data-name="Trazado 31735" d="M432.65,934.155a6.363,6.363,0,0,0,1.817.3h0a31.533,31.533,0,0,1,.526,4.261c.013.159.026.319.039.48a1.733,1.733,0,0,1-.873-.385c-1.027-.954-1.335-2.754-1.512-4.66" transform="translate(-430.904 -920.704)" fill="#b0b0b0"/>
        <path id="Trazado_31736" data-name="Trazado 31736" d="M440.944,987.8a6.274,6.274,0,0,0,1.593.3,31.509,31.509,0,0,1,.4,4.359q.008.164.016.331a1.41,1.41,0,0,1-.678-.346c-.96-.952-1.206-2.748-1.329-4.643" transform="translate(-437.597 -963.995)" fill="#b0b0b0"/>
        <path id="Trazado_31737" data-name="Trazado 31737" d="M446.9,1039.155a5.7,5.7,0,0,0,1.425.3,31.359,31.359,0,0,1,.17,4.429c0,.091,0,.183,0,.275a1.127,1.127,0,0,1-.568-.311c-.881-.942-1.011-2.832-1.025-4.695" transform="translate(-442.402 -1005.436)" fill="#b0b0b0"/>
        <path id="Trazado_31738" data-name="Trazado 31738" d="M650.811,895.39c-.018.352-.032.7-.046,1.042-.141,3.5-.389,4.439-1.982,4.871a19.732,19.732,0,0,1-4.712.419c-.545,0-1.095-.007-1.627-.014s-1.028-.013-1.52-.013c-.331,0-.623,0-.893.009-.224.005-.5.029-.856.059-.533.046-1.2.1-1.779.1l-.186,0a26.93,26.93,0,0,1-.282-3.266,28.949,28.949,0,0,1,.027-3.033,5.859,5.859,0,0,0,1.449.176c.081,0,.165,0,.25,0,1.967-.075,3.76-.136,5.482-.186,2.245-.066,4.481-.12,6.675-.161" transform="translate(-595.729 -889.422)" fill="#c9c9c9"/>
        <path id="Trazado_31739" data-name="Trazado 31739" d="M745.438,888.037c-.4,1.761-.765,3.382-1.131,5.023l.019,0c-.036.117-.068.235-.1.351l-.02.027-.331.452c-.857.329-2.835.743-7.356.743-.648,0-1.255-.008-1.8-.016-.006-2.83.165-4.614.509-5.308.133-.107.871-.6,3.609-.918,2.051-.241,4.449-.3,6.376-.352l.22-.006" transform="translate(-674.666 -883.489)" fill="#c9c9c9"/>
        <path id="Trazado_31740" data-name="Trazado 31740" d="M816.539,876.432q-.02.249-.039.488c-.271,3.454-.484,4.689-2.815,5.48-.149.051-.359.1-.582.161l-.347.09,0,0a7.454,7.454,0,0,0,.3-3.04c0-.672-.007-1.812.059-2.445a20.764,20.764,0,0,1,3.424-.729" transform="translate(-737.636 -874.124)" fill="#c9c9c9"/>
        <path id="Trazado_31741" data-name="Trazado 31741" d="M538.65,895.627c4.5.071,9.1.194,13.729.368.021.223.044.45.068.681.153,1.52.41,4.065.04,4.885l-.115.258c-.23.041-.506.1-.836.188a5.986,5.986,0,0,1-1.493.151,29.147,29.147,0,0,1-3.026-.228c-.778-.085-1.513-.165-2.2-.2-.1,0-.212-.007-.335-.007-.387,0-.842.023-1.37.049-.6.03-1.286.064-1.927.064a7.079,7.079,0,0,1-1.625-.13,8.771,8.771,0,0,1-.531-2.226c-.185-1.253-.293-2.688-.38-3.858" transform="translate(-516.442 -889.614)" fill="#b0b0b0"/>
        <path id="Trazado_31742" data-name="Trazado 31742" d="M459.567,886.948l1.055.021c2.686.05,6.744.125,8.16.993.335.205.4.242.407,1.721,0,.411.007.876.039,1.387v.014c0,.042.007.083.013.124.035.385.134,1.64.2,2.7a32.412,32.412,0,0,1-5.909-.807c-.431-.086-.85-.169-1.253-.245-1.784-.337-2.079-.929-2.205-1.181a9.6,9.6,0,0,1-.45-3.356c-.016-.434-.033-.892-.059-1.371" transform="translate(-452.625 -882.61)" fill="#b0b0b0"/>
        <path id="Trazado_31743" data-name="Trazado 31743" d="M542.083,953.26a83.5,83.5,0,0,0,9.139.448c1.6,0,3.012-.039,4.07-.112.148,1.716.3,3.474.445,5.241a19.418,19.418,0,0,1-2.061.1c-1.3,0-2.664-.1-3.979-.194-.649-.047-1.32-.1-1.972-.132-.16-.009-.333-.013-.529-.013-.381,0-.792.016-1.227.033-.456.018-.927.036-1.381.036a4.3,4.3,0,0,1-1.726-.2c-.109-.083-.434-.428-.623-1.648a23.612,23.612,0,0,1-.156-3.562" transform="translate(-519.21 -936.121)" fill="#c9c9c9"/>
        <path id="Trazado_31744" data-name="Trazado 31744" d="M467.221,945.4a42.744,42.744,0,0,0,6.363.6c.447.019.834.035,1.1.053.475.032.916.047,1.349.047h.014c.036.186.08.39.133.613.068.541.2,2.875.264,4.539-2.313-.253-6.127-.894-6.753-1.018-1.663-.37-1.937-.941-2.054-1.186a9.347,9.347,0,0,1-.4-3.221q-.006-.214-.013-.432" transform="translate(-458.801 -929.782)" fill="#b0b0b0"/>
        <path id="Trazado_31745" data-name="Trazado 31745" d="M809.11,934.342c-.213,2.237-.541,3.7-1.743,4.562a3.39,3.39,0,0,1-1.659.473c.078-.846.165-1.768.265-2.82l.03-.312c.04-.417.08-.845.118-1.089.116-.075.276-.174.425-.265l.071-.044a8.136,8.136,0,0,1,1.079-.22,13.056,13.056,0,0,0,1.414-.285" transform="translate(-731.948 -920.855)" fill="#b0b0b0"/>
        <path id="Trazado_31746" data-name="Trazado 31746" d="M739.267,945.914a30.752,30.752,0,0,1-1,4.744c-.9.558-3.566,1.118-7.628,1.118-.355,0-.705,0-1.047-.014.055-.349.117-.705.178-1.053.086-.5.176-1.008.243-1.494.08-.581.135-1.07.183-1.5.036-.325.076-.677.115-.937.442-.053,1.155-.084,1.63-.1a51.267,51.267,0,0,0,7.331-.759" transform="translate(-670.522 -930.193)" fill="#b0b0b0"/>
        <path id="Trazado_31747" data-name="Trazado 31747" d="M649.818,952.252c-.007.206-.013.41-.018.611a15.367,15.367,0,0,1-.321,3.366,1.8,1.8,0,0,1-.99,1.356,5.578,5.578,0,0,1-1.864.234c-.3,0-.6-.007-.9-.014s-.607-.014-.905-.014c-.263,0-.491.006-.7.017-.608.033-1.351.143-2.137.259a24.321,24.321,0,0,1-3.274.339,2.694,2.694,0,0,1-1.111-.14,3.142,3.142,0,0,0-.987-.347c-.055-1.408.135-3.993.23-5.257.315.006.668.009,1.053.009,3.517,0,9.07-.256,11.926-.417" transform="translate(-595.483 -935.308)" fill="#c9c9c9"/>
        <path id="Trazado_31748" data-name="Trazado 31748" d="M546.644,1008.237a82.309,82.309,0,0,0,8.95.452c1.261,0,2.373-.027,3.264-.079q.012,2.633.021,5.267c-.24.012-.513.018-.815.018-2.126,0-5.142-.294-6.762-.451-.55-.053-.947-.092-1.19-.109-2.229-.153-2.84-.567-3.006-.8a7.73,7.73,0,0,1-.414-3.074c-.013-.377-.027-.787-.048-1.222" transform="translate(-522.893 -980.486)" fill="#b0b0b0"/>
        <path id="Trazado_31749" data-name="Trazado 31749" d="M473.726,999.4a42.084,42.084,0,0,0,6.217.7c.348.021.649.038.865.055.429.033.834.052,1.229.058.031.176.068.368.113.576.059.537.153,2.84.18,4.464-2.212-.267-5.834-.923-6.443-1.052-1.534-.371-1.764-.9-1.875-1.156a9.245,9.245,0,0,1-.288-3.158q0-.242,0-.49" transform="translate(-464.049 -973.354)" fill="#b0b0b0"/>
        <path id="Trazado_31750" data-name="Trazado 31750" d="M802.588,988.014c-.169,2.168-.442,3.613-1.6,4.622a2.481,2.481,0,0,1-1.341.417c.054-.892.116-1.831.187-2.846l.019-.27c.03-.435.061-.882.095-1.124.115-.082.285-.195.438-.295a8.113,8.113,0,0,1,1-.232c.4-.078.812-.158,1.206-.272" transform="translate(-727.057 -964.167)" fill="#b0b0b0"/>
        <path id="Trazado_31751" data-name="Trazado 31751" d="M736.346,1001.819l-.026.382c-.068,1-.169,2.484-.259,2.977a1.972,1.972,0,0,1-.493.715,6.445,6.445,0,0,1-1.45.336c-.366.063-.782.135-1.26.229-.277.055-.639.142-1.1.253a26.953,26.953,0,0,1-4.4.8c.052-1.4.368-3.84.533-5.076.315.01.651.015,1.005.015a42.934,42.934,0,0,0,7.445-.634" transform="translate(-668.726 -975.307)" fill="#b0b0b0"/>
        <path id="Trazado_31752" data-name="Trazado 31752" d="M649.358,1007.923c.058,1.57.122,3.158.192,4.737-1.985.266-5.619.565-6.549.611-.483.023-1.052.1-1.711.186a22.557,22.557,0,0,1-2.742.253,2.91,2.91,0,0,1-.9-.093c-.038-.041-.294-.363-.382-1.544a26.921,26.921,0,0,1,.1-3.66l.006-.088c.6.025,1.316.038,2.138.038,3.191,0,7.319-.189,9.848-.44" transform="translate(-595.994 -980.232)" fill="#c9c9c9"/>
        <path id="Trazado_31753" data-name="Trazado 31753" d="M548.164,1060.025a79.016,79.016,0,0,0,9.063.484c.842,0,1.921-.014,2.89-.067,0,1.593.005,3.164.006,4.693-.5.011-1,.025-1.493.039-1.117.031-2.273.063-3.4.063-1.008,0-1.9-.025-2.723-.078-.174-.011-.373-.016-.609-.016-.266,0-.548.006-.847.013-.317.007-.645.015-.97.015a7.58,7.58,0,0,1-1.57-.116,10.211,10.211,0,0,1-.256-1.889c-.069-1.008-.082-2.12-.089-3.141" transform="translate(-524.119 -1022.277)" fill="#b0b0b0"/>
        <path id="Trazado_31754" data-name="Trazado 31754" d="M477.658,1050.923a33.063,33.063,0,0,0,4.225.508,20.142,20.142,0,0,1,2.3.249,10.762,10.762,0,0,0,1.434.262q.029.174.066.369c.049.562.08,2.892.057,4.487-2.156-.267-5.724-.936-6.3-1.062-1.433-.385-1.618-.871-1.707-1.106a8.879,8.879,0,0,1-.117-3.049c.012-.216.024-.434.035-.657" transform="translate(-467.145 -1014.932)" fill="#b0b0b0"/>
        <path id="Trazado_31755" data-name="Trazado 31755" d="M798.537,1039.345c-.034,1.964-.174,3.638-1.281,4.675a2.162,2.162,0,0,1-1.216.391c.009-.93.027-1.9.053-2.928l.008-.318c.01-.405.02-.821.041-1.057.105-.08.249-.18.351-.252a8.2,8.2,0,0,1,.9-.227c.38-.083.767-.167,1.142-.282" transform="translate(-724.146 -1005.589)" fill="#b0b0b0"/>
        <path id="Trazado_31756" data-name="Trazado 31756" d="M734.012,1051.334c-.112,1.9-.169,3.358-.173,4.349l-.335.51a29.233,29.233,0,0,1-7.1,1.16,4.652,4.652,0,0,1-.492-.021,2.676,2.676,0,0,1-.19-1.263,22.9,22.9,0,0,1,.335-3.114q.037-.246.073-.486c.181.007.366.01.552.01a31.848,31.848,0,0,0,7.328-1.145" transform="translate(-667.404 -1015.264)" fill="#b0b0b0"/>
        <path id="Trazado_31757" data-name="Trazado 31757" d="M649.133,1059.961a36.954,36.954,0,0,1-.178,4.727,3.351,3.351,0,0,0-1.211.256,5.534,5.534,0,0,1-1.87.218c-.214,0-.428,0-.639-.006s-.444-.006-.66-.006c-.33,0-.6.007-.847.021-.553.031-1.21.119-1.971.222a26.688,26.688,0,0,1-3.3.31,2.975,2.975,0,0,1-1.126-.129c-.141-.074-.336-.447-.421-1.256a20.9,20.9,0,0,1,.123-3.7q.013-.147.026-.291c.654.027,1.445.041,2.365.041,2.943,0,7.065-.149,9.707-.407" transform="translate(-595.7 -1022.225)" fill="#c9c9c9"/>
      </g>
      <path id="Trazado_31758" data-name="Trazado 31758" d="M658.682,898.623s-9.435.024-9.507.7,1.057,3.185,4.582,3.185,5.6,1.531,5.866-.694S660.442,898.6,658.682,898.623Z" transform="translate(-341.516 -319.661)" fill="#fff" opacity="0.5"/>
      <path id="Trazado_31759" data-name="Trazado 31759" d="M660.67,956.2s-7.769.021-7.829.617.87,2.806,3.773,2.806,4.612,1.349,4.83-.612S662.12,956.188,660.67,956.2Z" transform="translate(-344.475 -366.127)" fill="#fff" opacity="0.5"/>
      <path id="Trazado_31760" data-name="Trazado 31760" d="M663.965,1011.81s-6.788-.133-6.241.915,6.338,2.4,6.724,1.223S664.48,1011.815,663.965,1011.81Z" transform="translate(-348.392 -410.995)" fill="#fff" opacity="0.5"/>
      <path id="Trazado_31761" data-name="Trazado 31761" d="M666.3,1065.593s-6.789-.133-6.242.915,6.338,2.4,6.724,1.223S666.813,1065.6,666.3,1065.593Z" transform="translate(-350.275 -454.396)" fill="#fff" opacity="0.5"/>
      <path id="Trazado_31762" data-name="Trazado 31762" d="M750.827,895.632s-6.788-.133-6.242.915,6.338,2.4,6.724,1.223S751.342,895.637,750.827,895.632Z" transform="translate(-418.487 -317.244)" fill="#fff" opacity="0.5"/>
      <path id="Trazado_31763" data-name="Trazado 31763" d="M749.539,949.53s-6.152.22-5.6,1.212,5.87,2.008,6.154.845S750.005,949.509,749.539,949.53Z" transform="translate(-417.963 -360.742)" fill="#fff" opacity="0.5"/>
      <path id="Trazado_31764" data-name="Trazado 31764" d="M482.273,952.252s-6.152.22-5.6,1.212,5.87,2.008,6.154.845S482.739,952.231,482.273,952.252Z" transform="translate(-202.289 -362.938)" fill="#fff" opacity="0.5"/>
      <g id="Grupo_15773" data-name="Grupo 15773" transform="translate(270.284 538.014)">
        <path id="Trazado_31765" data-name="Trazado 31765" d="M763.118,718.916h0c-1.577,0-2.839-.575-2.818-1.284l.873-29.846c.021-.709,1.317-1.284,2.895-1.284h0c1.577,0,2.839.574,2.818,1.283l-.873,29.846C765.992,718.341,764.7,718.916,763.118,718.916Z" transform="translate(-701.477 -686.503)" fill="url(#linear-gradient-48)"/>
        <path id="Trazado_31766" data-name="Trazado 31766" d="M460.093,718.916h0c-1.577,0-2.886-.575-2.924-1.284l-1.591-29.846c-.038-.709,1.211-1.284,2.789-1.284h0c1.578,0,2.886.574,2.924,1.284l1.591,29.846C462.919,718.341,461.671,718.916,460.093,718.916Z" transform="translate(-455.577 -686.503)" fill="url(#linear-gradient-49)"/>
      </g>
      <g id="Grupo_15774" data-name="Grupo 15774" transform="translate(257.532 502.494)">
        <path id="Trazado_31767" data-name="Trazado 31767" d="M397.669,546.538q-3.325-.171-6.649-.373a1.449,1.449,0,0,1-1.369-2.086q7.382-18.535,14.118-37.212a1.863,1.863,0,0,1,1.8-.95q1.764.076,3.528.143c.78.03,1.294.491,1.155,1.047q-4.693,18.793-9.829,37.521A2.822,2.822,0,0,1,397.669,546.538Z" transform="translate(-389.514 -505.255)" fill="url(#linear-gradient-50)"/>
        <path id="Trazado_31768" data-name="Trazado 31768" d="M460.606,548.43q-3.787-.127-7.573-.293a1.581,1.581,0,0,1-1.565-2.1q5.785-18.707,11.058-37.5a1.689,1.689,0,0,1,1.7-.958q1.175.036,2.351.067c.764.02,1.312.458,1.247,1q-2.239,18.886-4.672,37.758A2.5,2.5,0,0,1,460.606,548.43Z" transform="translate(-439.44 -506.594)" fill="url(#linear-gradient-50)"/>
        <path id="Trazado_31769" data-name="Trazado 31769" d="M438.6,539.61q-3.2-.131-6.4-.291a1.445,1.445,0,0,1-1.447-1.948q5.686-16.922,10.916-33.929a1.746,1.746,0,0,1,1.731-.947q1.748.063,3.5.118c.772.024,1.3.474,1.2,1.022q-3.343,17.094-6.971,34.154A2.525,2.525,0,0,1,438.6,539.61Z" transform="translate(-422.726 -502.494)" fill="url(#linear-gradient-52)"/>
        <path id="Trazado_31770" data-name="Trazado 31770" d="M534.743,549.664q-3.328-.049-6.656-.128a1.769,1.769,0,0,1-1.823-2.044q3.1-18.887,5.934-37.8a1.5,1.5,0,0,1,1.592-1q1.765.03,3.53.05c.781.009,1.386.458,1.363,1.018q-.788,18.943-1.643,37.885A2.228,2.228,0,0,1,534.743,549.664Z" transform="translate(-499.846 -507.498)" fill="url(#linear-gradient-50)"/>
        <path id="Trazado_31771" data-name="Trazado 31771" d="M597.573,550.119q-3.789.013-7.578-.014a1.951,1.951,0,0,1-2.026-2.047q1.5-18.94,2.87-37.885c.041-.563.7-1.007,1.488-1s1.568.005,2.352.006c.764,0,1.4.424,1.448.971q1.666,18.934,3.512,37.859A1.989,1.989,0,0,1,597.573,550.119Z" transform="translate(-549.656 -507.88)" fill="url(#linear-gradient-50)"/>
        <path id="Trazado_31772" data-name="Trazado 31772" d="M570.437,541.938q-3.2-.017-6.4-.063a1.777,1.777,0,0,1-1.868-1.9q1.843-17.166,3.537-34.341c.055-.56.738-1,1.524-.994q1.749.018,3.5.027c.772,0,1.394.44,1.4.991q.192,17.185.408,34.37A2,2,0,0,1,570.437,541.938Z" transform="translate(-528.832 -504.224)" fill="url(#linear-gradient-52)"/>
        <path id="Trazado_31773" data-name="Trazado 31773" d="M506.493,541.265q-3.167-.072-6.334-.172a1.6,1.6,0,0,1-1.651-1.984q4.287-17.047,8.222-34.142a1.564,1.564,0,0,1,1.605-.944q1.176.025,2.353.046c.773.014,1.35.458,1.3,1.007q-1.531,17.162-3.189,34.318A2.239,2.239,0,0,1,506.493,541.265Z" transform="translate(-477.426 -503.728)" fill="url(#linear-gradient-52)"/>
        <path id="Trazado_31774" data-name="Trazado 31774" d="M666.088,549.67q-3.788.09-7.576.14a2.212,2.212,0,0,1-2.28-2q-.859-18.946-1.649-37.894c-.023-.563.588-1.016,1.373-1.024s1.568-.018,2.352-.028a1.5,1.5,0,0,1,1.558.949q3.819,18.877,8.025,37.71A1.767,1.767,0,0,1,666.088,549.67Z" transform="translate(-603.414 -507.632)" fill="url(#linear-gradient-50)"/>
        <path id="Trazado_31775" data-name="Trazado 31775" d="M640.793,541.908q-3.2.046-6.4.064a2.01,2.01,0,0,1-2.1-1.864q-.28-17.194-.537-34.389c-.008-.561.623-1.012,1.41-1.015q1.749-.007,3.5-.023a1.412,1.412,0,0,1,1.511.97q2.142,17.161,4.479,34.309A1.771,1.771,0,0,1,640.793,541.908Z" transform="translate(-584.994 -504.258)" fill="url(#linear-gradient-52)"/>
        <path id="Trazado_31776" data-name="Trazado 31776" d="M718.534,548.288q-3.326.142-6.654.253a2.521,2.521,0,0,1-2.525-1.918q-3.547-18.863-6.783-37.759c-.1-.569.469-1.039,1.263-1.058q1.765-.042,3.529-.093a1.677,1.677,0,0,1,1.683.953q5.273,18.794,11.062,37.5A1.592,1.592,0,0,1,718.534,548.288Z" transform="translate(-642.132 -506.706)" fill="url(#linear-gradient-50)"/>
        <path id="Trazado_31777" data-name="Trazado 31777" d="M768.385,546.526q-3.784.23-7.569.42a2.8,2.8,0,0,1-2.738-1.9q-5.141-18.734-9.837-37.538c-.139-.559.379-1.025,1.164-1.053s1.567-.058,2.35-.09a1.857,1.857,0,0,1,1.757.9q7.719,18.625,16.2,37.071A1.458,1.458,0,0,1,768.385,546.526Z" transform="translate(-678.975 -505.616)" fill="url(#linear-gradient-50)"/>
        <path id="Trazado_31778" data-name="Trazado 31778" d="M741.375,539.442q-3.2.16-6.4.292a2.538,2.538,0,0,1-2.518-1.774q-4.126-17.051-7.921-34.147c-.124-.558.415-1.023,1.2-1.046q1.749-.052,3.5-.114a1.748,1.748,0,0,1,1.713.923q5.675,16.984,11.852,33.871A1.445,1.445,0,0,1,741.375,539.442Z" transform="translate(-659.854 -502.621)" fill="url(#linear-gradient-52)"/>
        <path id="Trazado_31779" data-name="Trazado 31779" d="M697.223,541q-3.166.1-6.334.179a2.253,2.253,0,0,1-2.322-1.877q-1.677-17.151-3.227-34.31c-.049-.547.523-.988,1.293-1s1.569-.031,2.353-.049a1.575,1.575,0,0,1,1.615.947q3.954,17.092,8.261,34.137A1.59,1.59,0,0,1,697.223,541Z" transform="translate(-628.233 -503.66)" fill="url(#linear-gradient-52)"/>
      </g>
      <g id="Grupo_15776" data-name="Grupo 15776" transform="translate(306.134 547.938)">
        <g id="Grupo_15775" data-name="Grupo 15775" transform="translate(0 0)">
          <path id="Trazado_31780" data-name="Trazado 31780" d="M641.444,738.7q.168.74.315,1.483c.1.495.2.99.289,1.486s.185.992.27,1.489.178.993.257,1.49l.241,1.492c.083.5.157.995.229,1.493.145,1,.3,1.992.431,2.99l-1.332.043c.041-1.014.086-2.028.144-3.041s.131-2.025.224-3.037l.148-1.516c.048-.506.108-1.01.162-1.516.109-1.01.227-2.02.326-3.031l0-.032a.341.341,0,0,1,.678-.005q.088.766.195,1.529c.07.509.134,1.019.214,1.526s.158,1.015.239,1.522l.264,1.518c.085.507.184,1.011.279,1.515s.191,1.009.3,1.512c.2,1.008.419,2.013.633,3.018l-.867-.038.642-3.033.334-1.513c.112-.5.233-1.006.349-1.509l.715-3.014.724-3.011a.789.789,0,0,1,1.556.159v.023c.038,1.21.082,2.42.108,3.63s.052,2.42.067,3.631.023,2.421.029,3.632l0,3.632c0,1.211-.02,2.422-.029,3.633s-.04,2.422-.058,3.634l-.045,1.817q-.021.908-.054,1.817-.057,1.817-.151,3.635a.077.077,0,0,1-.154,0q-.167-1.813-.3-3.626-.069-.907-.126-1.814l-.117-1.814c-.067-1.21-.145-2.419-.2-3.628s-.127-2.419-.173-3.629l-.147-3.629c-.042-1.21-.085-2.42-.115-3.63s-.06-2.42-.078-3.631-.026-2.421-.036-3.632l1.557.182-.826,2.985-.836,2.982c-.142.5-.28.994-.426,1.489l-.441,1.485-.909,2.964-.012.038a.439.439,0,0,1-.856-.076c-.123-1.021-.242-2.042-.378-3.061-.064-.51-.135-1.019-.209-1.527s-.142-1.018-.226-1.524l-.241-1.522c-.087-.506-.171-1.013-.266-1.517s-.193-1.009-.292-1.513-.2-1.008-.31-1.51l.681-.037c-.014,1.016-.009,2.032-.013,3.048,0,.508,0,1.016-.007,1.524l-.021,1.523c-.02,1.015-.061,2.029-.116,3.043s-.123,2.026-.2,3.038v.018a.668.668,0,0,1-1.331.025c-.109-1-.2-2-.292-3.007-.048-.5-.094-1-.132-1.505l-.12-1.506c-.041-.5-.069-1.006-.1-1.509s-.067-1.006-.091-1.51-.055-1.007-.072-1.512-.038-1.009-.046-1.515a.078.078,0,0,1,.153-.018Z" transform="translate(-641.291 -737.91)" fill="#682f1d"/>
        </g>
      </g>
      <g id="Grupo_15777" data-name="Grupo 15777" transform="translate(302.543 574.596)">
        <path id="Trazado_31781" data-name="Trazado 31781" d="M624.4,876.3l.363,0c.232,0,.562,0,.954-.014s.854-.013,1.34-.028c.243-.007.5-.011.751-.019l.768-.026c2.067-.065,4.011-.19,4.012-.191a8.283,8.283,0,0,1,1.385.042,5.216,5.216,0,0,1,1.179.24q2.588.986,5.144,1.975c.279.107.263.222-.008.322a6.2,6.2,0,0,1-1.514.219l-.142.008-.407.021-1.462.072c-.61.028-1.329.057-2.1.09l-1.2.043c-.408.015-.824.03-1.245.041l-1.252.036c-.414.011-.825.019-1.221.028-.792.02-1.537.03-2.175.041s-1.171.017-1.544.02l-.587.006a13.1,13.1,0,0,1-1.954-.11c-.5-.073-.793-.174-.792-.288v-2.1c0-.114.2-.219.513-.3A5.543,5.543,0,0,1,624.4,876.3Z" transform="translate(-622.69 -876.01)" fill="#c9c9c9"/>
      </g>
      <path id="Trazado_31782" data-name="Trazado 31782" d="M378.77,1024.678l1.641-7.094s.676,5.743,1.689,5.164,1.641-4.1,2.027-4.005.579,1.206,1.448,3.137,3.6-1.062,4.238-3.185-.146-9.652,1.572-1.737,3.583,9.4,3.64,9.575a23.438,23.438,0,0,0,2.605,0,12.14,12.14,0,0,0,2.616,1.094,2.888,2.888,0,0,0,2.413-1.894c.29-1.247.982-12.877,1.939-5.88s.184,6.458,1.39,7.6,4.682,3,4.827,2.625.662-3.384,1.972-1.929,5.846,2.758,5.556,3.289-2.944,1.3-7.721,1.014-13.175,1.67-18.1.063-8.3-.8-10.327-3.062-4.1-1.489-6.177-2.309S378.77,1024.678,378.77,1024.678Z" transform="translate(-120.674 -412.297)" fill="#89c33f"/>
      <path id="Trazado_31783" data-name="Trazado 31783" d="M427.032,1068.55l1.279-4.969s.526,4.022,1.316,3.617,1.279-2.873,1.58-2.806.451.845,1.128,2.2,2.806-.744,3.3-2.231-.114-6.761,1.225-1.217,2.792,6.585,2.837,6.707a20.227,20.227,0,0,0,2.031,0,10.059,10.059,0,0,0,2.038.767,2.236,2.236,0,0,0,1.881-1.327c.226-.873.766-9.02,1.511-4.118s.143,4.524,1.084,5.321,3.649,2.1,3.762,1.839.516-2.37,1.537-1.351,4.556,1.932,4.33,2.3-2.294.913-6.018.71-10.268,1.17-14.1.044-6.469-.561-8.049-2.145-3.2-1.043-4.814-1.618S427.032,1068.55,427.032,1068.55Z" transform="translate(-160.202 -450.421)" fill="#d6dd21"/>
      <path id="Trazado_31784" data-name="Trazado 31784" d="M705.168,1037.955c-.8-1.943,3.254-3.377,2.385-5.459s-6.957,2.729-6.957,2.729,2.365-3.766,1.17-3.983-5.416,1.715-5.3,2.583-3.317,6.7-3.82,4.363.775-8.453.775-8.453-3.1,8.007-3.124,8.22-1.886.78-2.594,1.236-2.242,4.7-5.271,4.832-5.8.45-5.508.9,14.772-.772,16.057-.772,7.072.073,8.168-1.894,6.713-1.492,7.187-2.984S705.168,1037.955,705.168,1037.955Z" transform="translate(-363.893 -425.464)" fill="#d6dd21"/>
    </g>
  </g>
</svg>
