<svg xmlns="http://www.w3.org/2000/svg" width="167" height="167" viewBox="0 0 167 167">
  <g id="Grupo_15561" data-name="Grupo 15561" transform="translate(-1122 -3423)">
    <g id="Elipse_968" data-name="Elipse 968" transform="translate(1122 3423)" fill="#b3d4ef" stroke="#000" stroke-width="3">
      <circle cx="83.5" cy="83.5" r="83.5" stroke="none"/>
      <circle cx="83.5" cy="83.5" r="82" fill="none"/>
    </g>
    <g id="Grupo_15553" data-name="Grupo 15553" transform="translate(1829 6961.635) rotate(180)">
      <path id="Trazado_31224" data-name="Trazado 31224" d="M6586.708,2154.221v39.1" transform="translate(-5963 1315.413)" fill="none" stroke="#000" stroke-width="2"/>
      <path id="Polígono_39" data-name="Polígono 39" d="M6.5,0,13,11H0Z" transform="translate(630 3514) rotate(180)"/>
    </g>
    <g id="Grupo_15554" data-name="Grupo 15554" transform="translate(1212 3566) rotate(180)">
      <path id="Trazado_31224-2" data-name="Trazado 31224" d="M0,39.1V0" transform="translate(6.708 5.263)" fill="none" stroke="#000" stroke-width="2"/>
      <path id="Polígono_39-2" data-name="Polígono 39" d="M6.5,0,13,11H0Z"/>
    </g>
    <g id="Grupo_15555" data-name="Grupo 15555" transform="translate(1143.317 3513) rotate(-90)">
      <path id="Trazado_31224-3" data-name="Trazado 31224" d="M0,39.1V0" transform="translate(6.708 5.263)" fill="none" stroke="#000" stroke-width="2"/>
      <path id="Polígono_39-3" data-name="Polígono 39" d="M6.5,0,13,11H0Z"/>
    </g>
    <g id="Grupo_15556" data-name="Grupo 15556" transform="translate(1226.317 3513) rotate(-90)">
      <path id="Trazado_31224-4" data-name="Trazado 31224" d="M0,0V39.1" transform="translate(6.708)" fill="none" stroke="#000" stroke-width="2"/>
      <path id="Polígono_39-4" data-name="Polígono 39" d="M6.5,0,13,11H0Z" transform="translate(13 44.365) rotate(180)"/>
    </g>
    <g id="Grupo_15557" data-name="Grupo 15557" transform="translate(4084.469 5507.024) rotate(135)">
      <path id="Trazado_31224-5" data-name="Trazado 31224" d="M6586.708,2154.221v39.1" transform="translate(-5963 1315.413)" fill="none" stroke="#000" stroke-width="2"/>
      <path id="Polígono_39-5" data-name="Polígono 39" d="M6.5,0,13,11H0Z" transform="translate(630 3514) rotate(180)"/>
    </g>
    <g id="Grupo_15558" data-name="Grupo 15558" transform="translate(-1675.469 1505.611) rotate(-45)">
      <path id="Trazado_31224-6" data-name="Trazado 31224" d="M6586.708,2154.221v39.1" transform="translate(-5963 1315.413)" fill="none" stroke="#000" stroke-width="2"/>
      <path id="Polígono_39-6" data-name="Polígono 39" d="M6.5,0,13,11H0Z" transform="translate(630 3514) rotate(180)"/>
    </g>
    <g id="Grupo_15559" data-name="Grupo 15559" transform="translate(1167.411 3554.782) rotate(-135)">
      <path id="Trazado_31224-7" data-name="Trazado 31224" d="M0,39.1V0" transform="translate(6.708 5.263)" fill="none" stroke="#000" stroke-width="2"/>
      <path id="Polígono_39-7" data-name="Polígono 39" d="M6.5,0,13,11H0Z"/>
    </g>
    <g id="Grupo_15560" data-name="Grupo 15560" transform="translate(1224.411 3501.782) rotate(-135)">
      <path id="Trazado_31224-8" data-name="Trazado 31224" d="M0,0V39.1" transform="translate(6.708)" fill="none" stroke="#000" stroke-width="2"/>
      <path id="Polígono_39-8" data-name="Polígono 39" d="M6.5,0,13,11H0Z" transform="translate(13 44.365) rotate(180)"/>
    </g>
  </g>
</svg>
