<svg xmlns="http://www.w3.org/2000/svg" width="366.602" height="175.816" viewBox="0 0 366.602 175.816">
  <g id="Grupo_15562" data-name="Grupo 15562" transform="translate(-523.184 -3415.609)">
    <rect id="Rectángulo_3766" data-name="Rectángulo 3766" width="365" height="153" transform="translate(524 3437)" fill="#b3d4ef"/>
    <path id="Trazado_31222" data-name="Trazado 31222" d="M6487.184,2115.609v174.816h364.6V2115.609" transform="translate(-5963 1300)" fill="none" stroke="#000" stroke-width="2"/>
    <path id="Trazado_31223" data-name="Trazado 31223" d="M6487.184,2137h364.5" transform="translate(-5963 1300)" fill="none" stroke="#1a64a1" stroke-width="2" stroke-dasharray="6"/>
    <circle id="Elipse_967" data-name="Elipse 967" cx="6" cy="6" r="6" transform="translate(701 3508)"/>
    <g id="Grupo_15545" data-name="Grupo 15545" transform="translate(84 -11)">
      <path id="Trazado_31224" data-name="Trazado 31224" d="M6586.708,2154.221v39.1" transform="translate(-5963 1315.413)" fill="none" stroke="#000" stroke-width="2"/>
      <path id="Polígono_39" data-name="Polígono 39" d="M6.5,0,13,11H0Z" transform="translate(630 3514) rotate(180)"/>
    </g>
    <g id="Grupo_15546" data-name="Grupo 15546" transform="translate(2759.707 580.849) rotate(45)">
      <path id="Trazado_31224-2" data-name="Trazado 31224" d="M6586.708,2154.221v39.1" transform="translate(-5963 1315.413)" fill="none" stroke="#000" stroke-width="2"/>
      <path id="Polígono_39-2" data-name="Polígono 39" d="M6.5,0,13,11H0Z" transform="translate(630 3514) rotate(180)"/>
    </g>
    <g id="Grupo_15547" data-name="Grupo 15547" transform="translate(4231.318 2891.317) rotate(90)">
      <path id="Trazado_31224-3" data-name="Trazado 31224" d="M6586.708,2154.221v39.1" transform="translate(-5963 1315.413)" fill="none" stroke="#000" stroke-width="2"/>
      <path id="Polígono_39-3" data-name="Polígono 39" d="M6.5,0,13,11H0Z" transform="translate(630 3514) rotate(180)"/>
    </g>
    <g id="Grupo_15548" data-name="Grupo 15548" transform="translate(701 3523.635)">
      <path id="Trazado_31224-4" data-name="Trazado 31224" d="M6586.708,2193.323v-39.1" transform="translate(-6580 -2148.958)" fill="none" stroke="#000" stroke-width="2"/>
      <path id="Polígono_39-4" data-name="Polígono 39" d="M6.5,0,13,11H0Z"/>
    </g>
    <g id="Grupo_15549" data-name="Grupo 15549" transform="translate(696.684 3508.317) rotate(90)">
      <path id="Trazado_31224-5" data-name="Trazado 31224" d="M0,39.1V0" transform="translate(6.708 5.263)" fill="none" stroke="#000" stroke-width="2"/>
      <path id="Polígono_39-5" data-name="Polígono 39" d="M6.5,0,13,11H0Z"/>
    </g>
    <g id="Grupo_15550" data-name="Grupo 15550" transform="matrix(0.656, 0.755, -0.755, 0.656, 693.978, 3517.358)">
      <path id="Trazado_31224-6" data-name="Trazado 31224" d="M0,39.1V0" transform="translate(6.708 5.263)" fill="none" stroke="#000" stroke-width="2"/>
      <path id="Polígono_39-6" data-name="Polígono 39" d="M6.5,0,13,11H0Z"/>
    </g>
    <g id="Grupo_15551" data-name="Grupo 15551" transform="translate(702.783 3502.906) rotate(135)">
      <path id="Trazado_31224-7" data-name="Trazado 31224" d="M0,39.1V0" transform="translate(6.708 5.263)" fill="none" stroke="#000" stroke-width="2"/>
      <path id="Polígono_39-7" data-name="Polígono 39" d="M6.5,0,13,11H0Z"/>
    </g>
    <g id="Grupo_15552" data-name="Grupo 15552" transform="translate(752.783 3548.906) rotate(135)">
      <path id="Trazado_31224-8" data-name="Trazado 31224" d="M0,0V39.1" transform="translate(6.709 0)" fill="none" stroke="#000" stroke-width="2"/>
      <path id="Polígono_39-8" data-name="Polígono 39" d="M6.5,0,13,11H0Z" transform="translate(13 44.365) rotate(180)"/>
    </g>
  </g>
</svg>
