<svg xmlns="http://www.w3.org/2000/svg" width="932.992" height="487.293" viewBox="0 0 932.992 487.293">
  <g id="Grupo_15680" data-name="Grupo 15680" transform="translate(-476.51 -6073)">
    <g id="Grupo_15678" data-name="Grupo 15678" transform="translate(468.202 6049.979)">
      <g id="Grupo_15677" data-name="Grupo 15677">
        <path id="Trazado_31292" data-name="Trazado 31292" d="M426.05,296.094l8.813,22.567H415.572l9.128-22.567Zm3.877,19.589-5.578-14.355-5.771,14.355Zm15.236-7.488c4.844-7.513,9.457-5.474,9.457-2.9l-.462,2.487c5.1-7.369,9.809-4.925,9.809-1.763,0,3.728-4.375,10.625-1.734,10.625,1.078,0,2.12-1.7,2.671-2.793l.933.471c-3.15,6.395-8.948,4.7-8.948,1.447,0-3.139,4.352-10.625,1.828-10.625-1.994,0-4.679,4.417-5.276,7.141l-1.32,6.029h-4.439c.371-1.517,2.856-11.2,2.856-12.2,0-2.889-4.7,1.042-5.853,6.173l-1.347,6.029H438.9c.418-1.872,2.64-11.164,2.64-12.418,0-1.707-1.827-1.436-3.636,1.536l-.89-.6c2.986-5.142,9.346-5.117,8.519-.4-.074.4-.2,1-.371,1.77Zm29.792.838-1.943,11.18c0,.94.625.924,1.539.924l-.124.823H468.2l.133-.823c1.213,0,1.94-.539,2.246-2.321l.01-.005c1.554-8.9,2.042-8.293-1.03-7.612l-.168-.7,5.559-1.47Zm39.093-12.939,8.814,22.567H503.57l9.129-22.567Zm3.878,19.589-5.577-14.355-5.772,14.355ZM533.16,308.2c4.846-7.513,9.458-5.474,9.458-2.9l-.46,2.487c5.1-7.369,9.809-4.925,9.809-1.763,0,3.728-4.377,10.625-1.736,10.625,1.078,0,2.121-1.7,2.672-2.793l.932.471c-3.15,6.395-8.948,4.7-8.948,1.447,0-3.139,4.351-10.625,1.828-10.625-2,0-4.677,4.417-5.277,7.141l-1.319,6.029h-4.438c.37-1.517,2.854-11.2,2.854-12.2,0-2.889-4.7,1.042-5.85,6.173l-1.347,6.029H526.9c.417-1.872,2.641-11.164,2.641-12.418,0-1.707-1.828-1.436-3.637,1.536l-.89-.6c2.987-5.142,9.346-5.117,8.519-.4-.073.4-.2,1-.372,1.77Zm25.379,12.214c4.83-2.88,6.736,1.471,7.906-2.476l.664.161c-.906,6.024-3.147,3.213-7.631,3.213l-2.058.562-.493-.86c2.66-3.339,7.387-5.82,7.387-8.577,0-3.967-5.722-3.006-5.307-.034,3.679,0,1.234,4.485-.6,1.959-1.252-1.73-.39-5.616,4.079-5.616,5.073,0,6.552,5.324,1.809,8.014-2.119,1.2-4.145,1.95-5.758,3.654Zm-76.445-5h15.327v2.547H482.094V315.41Zm0-5.5h15.327v2.547H482.094v-2.547Z" fill="#1a1a1a" fill-rule="evenodd"/>
        <path id="Trazado_31293" data-name="Trazado 31293" d="M446.315,270.178H440.8c-.656,1.167-2.884,4.7-.314,5.042l-.212.93h-5.958l.212-.93c1.371-.323,1.812-1.379,2.54-2.685l8.775-15.765H449.9c.107,2.639.469,14.8.71,16.463.139.956.4,1.842,1.442,1.987l-.213.93h-7.3l.211-.93c2.187-.153,1.613-2.877,1.567-5.042Zm-4.647-1.655h4.6l-.067-8.234h-.169l-4.368,8.234Zm22.11,3.221c-.674,3.059.06,3.088,3.133,3.12l-.264,1.286H455.032l.269-1.286c2.848-.122,3.7-.1,4.32-2.908.357-1.6,2.194-9.284,2.194-10.37,0-1.923-3.261.335-3.987.738l-.718-1.457,8.123-4.222h1.919c-1.076,4.053-2.425,10.787-3.374,15.1Zm20.765-9.6.491.929q-1.779,4.717-8.22,13.293h-2.738c-.221-1.811-1.214-11.267-1.63-12.362a1.233,1.233,0,0,0-1.254-.931l.213-.929h4.975l.974,10.548c.984-1.4,6.581-9.457,3.007-9.619l.2-.929Zm10.269,9.6c-.674,3.059.061,3.088,3.135,3.12l-.266,1.286H486.066l.27-1.286c2.847-.122,3.7-.1,4.32-2.908.357-1.6,2.2-9.284,2.2-10.37,0-1.923-3.262.335-3.989.738l-.718-1.457,8.125-4.222h1.918c-1.077,4.053-2.425,10.787-3.375,15.1Zm15.38-5.606.608-2.768h12.573l-.607,2.768Zm-1.4,6.257.607-2.772h12.574l-.606,2.772ZM541,270.178h-5.522c-.655,1.167-2.883,4.7-.312,5.042l-.213.93h-5.958l.212-.93c1.369-.323,1.812-1.379,2.54-2.685l8.775-15.765h4.064c.107,2.639.468,14.8.709,16.463.138.956.4,1.842,1.441,1.987l-.212.93h-7.3l.211-.93c2.187-.153,1.613-2.877,1.568-5.042Zm-4.648-1.655h4.6l-.067-8.234h-.169l-4.369,8.234Zm21.363,4.166a2.1,2.1,0,0,0,2.439-1.6h1.725l-1.257,5.056H548.179l.2-.93c.556-1.439,4.1-5.084,5.692-6.585,2.476-2.332,5.424-4.959,5.424-8.221,0-2.813-3.705-3.549-5.392.937h-2.577l.806-3.39c11.167-3.86,13.5,1.62,10.206,5.809-1.8,2.3-9.309,8.008-9.5,8.919Zm21.51-10.548.494.929q-1.779,4.717-8.22,13.293h-2.74c-.22-1.811-1.213-11.267-1.628-12.362a1.235,1.235,0,0,0-1.254-.931l.211-.929h4.976l.974,10.548c.984-1.4,6.581-9.457,3.009-9.619l.2-.929Zm9.523,10.548a2.1,2.1,0,0,0,2.439-1.6h1.728l-1.259,5.056H579.211l.2-.93c.557-1.439,4.1-5.084,5.693-6.585,2.477-2.332,5.424-4.959,5.424-8.221,0-2.813-3.7-3.549-5.394.937h-2.574l.806-3.39c11.164-3.86,13.5,1.62,10.205,5.809-1.8,2.3-9.308,8.008-9.5,8.919Z"/>
        <g id="Grupo_15673" data-name="Grupo 15673">
          <g id="Grupo_15672" data-name="Grupo 15672">
            <path id="Trazado_31294" data-name="Trazado 31294" d="M930.965,61.646H855.634C668.724,69.108,710.209,397.4,573.354,397.4H416.48c-2,0-3.629,11.612-3.629,25.935,0,14.3,1.62,25.892,3.619,25.931H573.354c184.216-4.3,144.167-257.914,282.28-261.165h75.331c-4.887,0-8.847-28.309-8.847-63.228s3.96-63.228,8.847-63.228Z" fill="#69f" fill-rule="evenodd"/>
            <path id="Trazado_31295" data-name="Trazado 31295" d="M928.19,64.819H855.634c-57.113,0-93.045,31.974-119.886,79.617-22.178,39.369-37.29,87.751-52.84,130.611-6.041,16.655-12.386,33.327-19.848,49.4-17.909,38.564-43.281,76.13-89.706,76.13H414.74c-1.126,4.4-1.889,12.944-1.889,22.76s.763,18.352,1.889,22.758H573.354c181.965,0,141.107-261.167,282.28-261.167H928.19c-3.526-8.315-6.072-32.057-6.072-60.054s2.546-51.737,6.072-60.055Z" fill="#6e9eff" fill-rule="evenodd"/>
            <path id="Trazado_31296" data-name="Trazado 31296" d="M927.1,67.994H855.634c-25.386,0-48.611,6.453-69.36,21.28-41.462,29.631-64.508,87.328-81.41,133.635-12.08,33.1-24.267,71.306-38.927,102.874-18.477,39.79-44.749,77.967-92.583,77.967H414.1a153.95,153.95,0,0,0,0,39.172H573.354c154.14,0,144.661-190.779,230.507-246.428,15.742-10.2,33.078-14.739,51.773-14.739H927.1c-2.949-10.256-4.98-31.871-4.98-56.881s2.031-46.624,4.98-56.88Z" fill="#73a3ff" fill-rule="evenodd"/>
            <path id="Trazado_31297" data-name="Trazado 31297" d="M926.294,71.167h-70.66c-24.722,0-47.306,6.249-67.514,20.689C747.313,121.018,724.477,178.428,707.845,224c-12.517,34.3-23.659,70.022-39.03,103.122-19.044,41.014-46.23,79.8-95.461,79.8H413.67a164.84,164.84,0,0,0,0,32.823H573.354c35.37,0,65.944-10.006,91.935-34.388,61.225-57.429,73.29-170.33,136.846-211.527,16.258-10.54,34.191-15.251,53.5-15.251h70.66c-2.505-11.16-4.176-31.038-4.176-53.707s1.671-42.546,4.176-53.707Z" fill="#7aa8ff" fill-rule="evenodd"/>
            <path id="Trazado_31298" data-name="Trazado 31298" d="M925.647,74.341H855.634c-24.059,0-46,6.043-65.669,20.1-40.146,28.689-62.778,85.818-79.139,130.647-12.55,34.388-23.719,70.18-39.131,103.372-19.612,42.231-47.72,81.641-98.341,81.641H413.36c-.323,3.875-.509,8.4-.509,13.238s.186,9.364.509,13.239H573.354c113.095,0,133.537-106.485,176.937-185.807,23.452-42.867,53.465-75.361,105.343-75.361h70.013c-2.143-11.538-3.529-29.879-3.529-50.534s1.386-38.994,3.529-50.533Z" fill="#82abff" fill-rule="evenodd"/>
            <path id="Trazado_31299" data-name="Trazado 31299" d="M925.1,77.515h-69.47c-23.395,0-44.7,5.837-63.824,19.5-39.482,28.215-61.914,85.069-78,129.154-12.585,34.479-23.781,70.337-39.234,103.618-20.177,43.451-49.219,83.479-101.219,83.479H413.135c-.183,3.093-.284,6.5-.284,10.066s.1,6.969.284,10.066H573.354c74.831,0,108.248-46.787,137.9-108.392,30.813-64.016,58.37-152.777,144.377-152.777H925.1c-1.832-11.583-2.986-28.506-2.986-47.36S923.272,89.1,925.1,77.515Z" fill="#8ab0ff" fill-rule="evenodd"/>
            <path id="Trazado_31300" data-name="Trazado 31300" d="M924.639,80.687H855.634c-22.732,0-43.391,5.634-61.98,18.916C754.84,127.341,732.6,183.926,716.79,227.262c-12.618,34.572-23.841,70.493-39.339,103.867-20.742,44.666-50.728,85.315-104.1,85.315H412.981c-.084,2.2-.13,4.506-.13,6.893s.046,4.7.13,6.892H573.354c73.431,0,105.919-46.1,135.042-106.594,31.538-65.516,59.3-154.573,147.238-154.573h69.005a342.878,342.878,0,0,1-2.521-44.188,342.85,342.85,0,0,1,2.521-44.187Z" fill="#8fb5ff" fill-rule="evenodd"/>
            <path id="Trazado_31301" data-name="Trazado 31301" d="M924.233,83.861h-68.6c-22.064,0-42.087,5.428-60.134,18.324-38.146,27.26-60.189,83.581-75.73,126.165-12.653,34.664-23.9,70.65-39.441,104.115-13.988,30.129-33.135,61.192-63.616,76.879a93.68,93.68,0,0,1-43.359,10.273H412.889q-.037,1.826-.038,3.72c0,1.262.014,2.5.038,3.719H573.354c32.123,0,59.629-8.8,83.25-30.953,71.633-67.2,76.316-230.215,199.03-230.215h68.6a359.673,359.673,0,0,1-2.115-41.014,359.654,359.654,0,0,1,2.115-41.013Z" fill="#96baff" fill-rule="evenodd"/>
            <path id="Trazado_31302" data-name="Trazado 31302" d="M923.878,87.034H855.634c-21.4,0-40.785,5.223-58.288,17.733-97.05,69.354-84.709,318.025-223.992,318.025h-160.5v1.089h160.5c70.611,0,101.259-44.7,129.323-103,32.912-68.367,61.328-158.166,152.957-158.166h68.244a373.55,373.55,0,0,1-1.76-37.841,373.529,373.529,0,0,1,1.76-37.84Z" fill="#9ebfff" fill-rule="evenodd"/>
            <path id="Trazado_31303" data-name="Trazado 31303" d="M923.567,90.208H855.634c-20.737,0-39.481,5.019-56.445,17.141-36.8,26.3-58.467,82.108-73.457,123.177-12.719,34.847-24.023,70.966-39.647,104.613-11.531,24.837-26.358,49.907-47.711,67.453,28.557-19.237,46.83-52.726,61.444-83.087,33.572-69.743,62.447-159.964,155.816-159.964h67.933c-.916-9.954-1.449-21.865-1.449-34.667s.533-24.711,1.449-34.666Z" fill="#a6c4ff" fill-rule="evenodd"/>
            <path id="Trazado_31304" data-name="Trazado 31304" d="M923.292,93.382H855.634c-20.071,0-38.177,4.813-54.6,16.549-36.118,25.808-57.614,81.378-72.324,121.682-10.393,28.477-19.843,57.78-31.464,85.911,34.113-71.029,63.523-161.156,158.385-161.156h67.658c-.745-9.273-1.174-20.027-1.174-31.494s.427-22.221,1.174-31.492Z" fill="#adc9ff" fill-rule="evenodd"/>
            <path id="Trazado_31305" data-name="Trazado 31305" d="M923.053,96.555H855.634c-19.4,0-36.874,4.61-52.751,15.957-35.435,25.322-56.759,80.652-71.19,120.19q-3.14,8.607-6.192,17.3c15.8-30.645,34.926-59.388,62.824-77.472,20.378-13.209,43.091-19.333,67.309-19.333h67.419c-.6-8.519-.935-18.137-.935-28.32s.337-19.8.935-28.319Z" fill="#b5cfff" fill-rule="evenodd"/>
            <path id="Trazado_31306" data-name="Trazado 31306" d="M922.846,99.729H855.634c-18.74,0-35.571,4.406-50.907,15.366-30.035,21.463-49.915,65.543-63.893,102.138,12.43-18.707,27.147-35.3,45.765-47.368,20.893-13.544,44.2-19.845,69.035-19.845h67.212c-.466-7.706-.728-16.208-.728-25.146s.262-17.438.728-25.145Z" fill="#bad4ff" fill-rule="evenodd"/>
            <path id="Trazado_31307" data-name="Trazado 31307" d="M922.667,102.9H855.634c-18.074,0-34.269,4.2-49.062,14.775-23.407,16.727-40.645,47.883-53.638,78.064,26.732-31.492,60.685-48.892,102.7-48.892h67.033c-.356-6.845-.549-14.246-.549-21.974s.2-15.128.549-21.973Z" fill="#c2d9ff" fill-rule="evenodd"/>
            <path id="Trazado_31308" data-name="Trazado 31308" d="M922.516,106.075H855.634c-17.408,0-32.964,4-47.216,14.183-18.4,13.15-33,35.68-44.661,59.486,25.6-23.89,56.556-36.07,91.877-36.07h66.882c-.256-5.939-.4-12.252-.4-18.8s.14-12.86.4-18.8Z" fill="#c9deff" fill-rule="evenodd"/>
            <path id="Trazado_31309" data-name="Trazado 31309" d="M922.392,109.248H855.634c-16.74,0-31.664,3.8-45.372,13.592-14.243,10.179-26.21,26.275-36.278,44.212,24.047-17.928,51.666-26.551,81.65-26.551h66.758c-.179-5-.274-10.234-.274-15.627s.1-10.629.274-15.626Z" fill="#d1e3ff" fill-rule="evenodd"/>
            <path id="Trazado_31310" data-name="Trazado 31310" d="M922.291,112.422H855.634c-33.407,0-53.521,16.374-71.576,44.076,21.829-13.017,46.007-19.171,71.576-19.171h66.657c-.113-4.027-.173-8.189-.173-12.453s.06-8.425.173-12.452Z" fill="#d6e6ff" fill-rule="evenodd"/>
            <path id="Trazado_31311" data-name="Trazado 31311" d="M922.215,115.6H855.634c-27.074,0-44.833,10.735-61.236,31.814a142.607,142.607,0,0,1,61.236-13.257h66.581q-.1-4.544-.1-9.279c0-3.151.032-6.249.1-9.278Z" fill="#deebff" fill-rule="evenodd"/>
            <path id="Trazado_31312" data-name="Trazado 31312" d="M922.16,118.77H855.634c-20.493,0-35.779,6.169-50.025,20.6a148.415,148.415,0,0,1,50.025-8.386H922.16q-.04-3.012-.042-6.105t.042-6.1Z" fill="#e6f0ff" fill-rule="evenodd"/>
          </g>
          <path id="Trazado_31313" data-name="Trazado 31313" d="M930.965,61.646H855.634C668.724,69.108,710.209,397.4,573.352,397.4H416.481c-2,0-3.629,11.612-3.629,25.935,0,14.3,1.619,25.892,3.618,25.931H573.352c184.218-4.3,144.167-257.914,282.282-261.165h75.331c-4.887,0-8.845-28.309-8.845-63.228s3.958-63.228,8.845-63.228Z" fill="#69f" fill-rule="evenodd" style="mix-blend-mode: color;isolation: isolate"/>
          <path id="Trazado_31314" data-name="Trazado 31314" d="M416.42,401.208H573.352c2.521-.006,5.089,2.272,7.5,2.063s4.445-2.883,6.742-3.286,5.063,1.433,7.256.843,3.6-3.544,5.694-4.312,5.066.574,7.063-.365,2.828-4.073,4.734-5.179,5.058-.284,6.877-1.547,2.152-4.5,3.889-5.918,5.015-1.112,6.674-2.668,1.591-4.865,3.179-6.558,4.933-1.879,6.454-3.7,1.132-5.183,2.589-7.125,4.828-2.562,6.226-4.62.766-5.47,2.111-7.633,4.716-3.162,6.011-5.425.475-5.729,1.724-8.086,4.608-3.67,5.817-6.113.25-5.96,1.426-8.483,4.508-4.089,5.654-6.68.081-6.165,1.2-8.819,4.434-4.427,5.528-7.14-.037-6.334,1.044-9.1,4.382-4.682,5.449-7.485-.106-6.47.954-9.307,4.358-4.856,5.414-7.721-.13-6.57.927-9.455,4.366-4.953,5.43-7.851-.11-6.631.967-9.533,4.4-4.973,5.488-7.874-.045-6.655,1.067-9.549,4.462-4.911,5.6-7.789.067-6.639,1.231-9.492,4.556-4.776,5.756-7.6.221-6.585,1.458-9.372,4.674-4.56,5.955-7.3.428-6.5,1.758-9.185,4.815-4.265,6.2-6.9.686-6.37,2.127-8.934,4.975-3.887,6.473-6.377,1.007-6.21,2.573-8.619,5.149-3.431,6.787-5.753,1.387-6.012,3.1-8.238,5.327-2.895,7.122-5.017,1.84-5.78,3.719-7.791,5.505-2.288,7.473-4.183,2.374-5.5,4.436-7.269,5.675-1.613,7.836-3.251,2.989-5.159,5.254-6.659,5.835-.889,8.21-2.243,3.686-4.747,6.17-5.946,5.994-.131,8.6-1.169,4.458-4.247,7.182-5.117,6.16.646,9.009-.049,5.28-3.644,8.263-4.156,6.357,1.436,9.476,1.112,6.158-2.936,9.416-3.062h70.453M416.42,405.934H573.352c2.6-.014,5.238,2.237,7.718,2.028s4.6-2.866,6.971-3.269,5.188,1.421,7.449.839,3.767-3.514,5.925-4.273,5.162.588,7.223-.34,2.994-4.038,4.961-5.127,5.13-.246,7.006-1.488,2.32-4.465,4.113-5.854,5.071-1.051,6.785-2.58,1.746-4.822,3.386-6.483,4.977-1.793,6.544-3.582,1.279-5.135,2.781-7.041,4.865-2.462,6.3-4.481.9-5.414,2.282-7.537,4.745-3.049,6.076-5.268.592-5.667,1.879-7.978,4.626-3.548,5.868-5.941.352-5.892,1.555-8.363,4.525-3.96,5.693-6.5.169-6.081,1.311-8.684,4.439-4.3,5.557-6.952.037-6.245,1.134-8.95,4.382-4.549,5.465-7.294-.049-6.374,1.022-9.153,4.351-4.723,5.416-7.529-.083-6.465.981-9.29,4.344-4.821,5.414-7.658-.077-6.521,1-9.364,4.371-4.841,5.459-7.682-.023-6.539,1.081-9.371,4.427-4.787,5.555-7.605.073-6.519,1.228-9.312,4.508-4.655,5.693-7.418.218-6.467,1.441-9.194,4.616-4.443,5.878-7.127.411-6.375,1.72-9.006,4.746-4.155,6.1-6.728.66-6.252,2.071-8.759,4.9-3.787,6.37-6.222.961-6.093,2.495-8.449,5.061-3.341,6.662-5.61,1.332-5.9,3.007-8.075,5.233-2.815,6.984-4.891,1.771-5.669,3.6-7.636,5.4-2.217,7.323-4.069,2.289-5.4,4.3-7.127,5.563-1.554,7.67-3.154,2.894-5.068,5.1-6.532,5.713-.842,8.025-2.164,3.578-4.665,6-5.834,5.858-.1,8.4-1.11,4.334-4.176,6.99-5.025,6.017.668,8.8-.01,5.144-3.586,8.052-4.085,6.2,1.442,9.245,1.13,6.011-2.895,9.189-3.015h68.635M416.42,410.661H573.351c2.673-.021,5.391,2.2,7.944,1.991s4.76-2.848,7.2-3.247,5.31,1.408,7.641.831,3.931-3.487,6.153-4.234,5.259.6,7.382-.314,3.163-4,5.191-5.074,5.2-.209,7.138-1.429,2.486-4.427,4.334-5.791,5.127-.989,6.893-2.489,1.908-4.781,3.593-6.412,5.023-1.71,6.638-3.465,1.426-5.088,2.973-6.959,4.9-2.361,6.382-4.339,1.031-5.361,2.454-7.442,4.774-2.935,6.141-5.11.711-5.606,2.028-7.87,4.65-3.427,5.923-5.774.452-5.818,1.685-8.238,4.541-3.836,5.736-6.322.255-6.005,1.419-8.553,4.449-4.164,5.587-6.765.109-6.156,1.223-8.8,4.382-4.417,5.478-7.1.014-6.274,1.1-8.995,4.341-4.592,5.416-7.339-.039-6.359,1.032-9.124,4.326-4.689,5.4-7.467-.045-6.41,1.032-9.192,4.343-4.712,5.43-7.493,0-6.423,1.1-9.2,4.388-4.659,5.507-7.415.082-6.4,1.227-9.136,4.46-4.533,5.631-7.237.214-6.344,1.421-9.011,4.559-4.329,5.8-6.955.394-6.252,1.679-8.827,4.68-4.047,6.013-6.563.629-6.132,2.013-8.583,4.82-3.687,6.261-6.069.921-5.974,2.422-8.278,4.973-3.248,6.539-5.467,1.275-5.786,2.911-7.912,5.137-2.733,6.847-4.76,1.7-5.562,3.493-7.485,5.294-2.145,7.167-3.955,2.206-5.295,4.17-6.985,5.446-1.494,7.5-3.057,2.8-4.975,4.948-6.4,5.591-.794,7.843-2.084,3.468-4.584,5.83-5.726,5.725-.061,8.2-1.049,4.212-4.106,6.8-4.933,5.872.688,8.581.03,5.009-3.53,7.844-4.014,6.048,1.448,9.014,1.146,5.859-2.853,8.958-2.965h67.536M416.42,415.387H573.349c2.752-.028,5.542,2.171,8.17,1.954s4.916-2.829,7.428-3.226,5.431,1.4,7.831.823,4.095-3.454,6.387-4.194,5.351.611,7.54-.287,3.332-3.971,5.418-5.022,5.276-.17,7.27-1.371,2.652-4.389,4.556-5.728,5.18-.924,7-2.4,2.067-4.741,3.806-6.34,5.066-1.625,6.727-3.346,1.573-5.044,3.164-6.876,4.937-2.261,6.462-4.2,1.163-5.308,2.624-7.347,4.8-2.824,6.208-4.954.827-5.542,2.177-7.761,4.676-3.305,5.978-5.6.556-5.748,1.816-8.118,4.555-3.708,5.776-6.144.343-5.923,1.529-8.417,4.458-4.035,5.614-6.581.183-6.066,1.314-8.658,4.383-4.283,5.494-6.913.072-6.179,1.166-8.842,4.332-4.457,5.415-7.146.01-6.254,1.087-8.959,4.309-4.556,5.382-7.275-.009-6.3,1.068-9.021,4.316-4.583,5.4-7.3.017-6.308,1.114-9.019,4.351-4.534,5.462-7.23.09-6.284,1.223-8.956,4.415-4.411,5.573-7.055.21-6.226,1.4-8.834,4.5-4.212,5.724-6.777.379-6.134,1.643-8.651,4.612-3.937,5.921-6.4.6-6.012,1.956-8.409,4.744-3.585,6.153-5.914.877-5.856,2.345-8.107,4.889-3.156,6.419-5.324,1.219-5.673,2.816-7.75,5.042-2.651,6.709-4.632,1.632-5.452,3.376-7.33,5.192-2.074,7.018-3.842,2.125-5.192,4.035-6.844,5.332-1.433,7.333-2.96,2.7-4.88,4.8-6.276,5.465-.747,7.658-2,3.357-4.5,5.658-5.616,5.593-.025,8-.989,4.087-4.037,6.609-4.841,5.73.709,8.369.068,4.871-3.473,7.633-3.942,5.9,1.455,8.785,1.163,5.708-2.812,8.729-2.917h66.874M416.42,420.112H573.349c2.827-.035,5.692,2.138,8.4,1.921s5.072-2.814,7.656-3.208,5.554,1.382,8.023.818,4.26-3.428,6.615-4.156,5.448.621,7.7-.261,3.5-3.936,5.649-4.97,5.346-.133,7.4-1.313,2.817-4.35,4.777-5.664,5.237-.862,7.109-2.3,2.226-4.7,4.013-6.269,5.11-1.543,6.82-3.227,1.72-5,3.355-6.795,4.972-2.16,6.538-4.06,1.3-5.255,2.8-7.252,4.831-2.709,6.273-4.8.943-5.48,2.329-7.652,4.7-3.182,6.029-5.431.658-5.677,1.946-8,4.573-3.582,5.819-5.966.428-5.841,1.639-8.282,4.464-3.9,5.642-6.394.254-5.978,1.405-8.512,4.38-4.151,5.505-6.725.132-6.079,1.238-8.682,4.323-4.326,5.417-6.953.056-6.152,1.137-8.8,4.293-4.425,5.37-7.082.023-6.189,1.1-8.851,4.289-4.452,5.37-7.111.039-6.194,1.13-8.843,4.311-4.407,5.418-7.044.1-6.164,1.22-8.777,4.367-4.289,5.511-6.874.206-6.1,1.378-8.654,4.446-4.1,5.652-6.6.361-6.014,1.6-8.472,4.547-3.829,5.827-6.232.571-5.891,1.9-8.234,4.669-3.484,6.048-5.758.832-5.739,2.267-7.938,4.8-3.065,6.3-5.181,1.163-5.558,2.721-7.587,4.945-2.569,6.573-4.5,1.56-5.343,3.261-7.176,5.086-2,6.865-3.728,2.04-5.091,3.9-6.7,5.218-1.373,7.169-2.863,2.6-4.788,4.64-6.149,5.344-.7,7.48-1.925,3.246-4.418,5.485-5.5,5.459.007,7.8-.929,3.963-3.968,6.418-4.75,5.583.731,8.153.109,4.735-3.418,7.423-3.873,5.744,1.461,8.556,1.181,5.556-2.77,8.5-2.869h66.552M416.42,424.837H573.347c2.905-.04,5.842,2.106,8.622,1.885s5.228-2.795,7.883-3.187,5.679,1.368,8.215.812,4.423-3.4,6.845-4.117,5.544.633,7.857-.237,3.67-3.9,5.88-4.917,5.42-.1,7.529-1.252,2.986-4.312,5-5.6,5.292-.8,7.216-2.216,2.383-4.658,4.223-6.2,5.152-1.457,6.911-3.111,1.866-4.951,3.545-6.709,5.009-2.06,6.616-3.922,1.43-5.2,2.969-7.156,4.861-2.6,6.338-4.64,1.062-5.419,2.482-7.543,4.718-3.062,6.084-5.262.759-5.6,2.075-7.873,4.588-3.454,5.859-5.787.518-5.76,1.75-8.147,4.474-3.773,5.671-6.21.328-5.887,1.494-8.367,4.38-4.019,5.522-6.534.189-5.981,1.309-8.527,4.315-4.191,5.414-6.761.1-6.045,1.192-8.632,4.271-4.292,5.352-6.889.059-6.079,1.138-8.679,4.262-4.325,5.34-6.921.058-6.079,1.145-8.668,4.276-4.283,5.374-6.857.107-6.047,1.219-8.6,4.317-4.168,5.449-6.692.2-5.985,1.359-8.475,4.389-3.98,5.573-6.429.346-5.892,1.564-8.294,4.481-3.72,5.739-6.067.539-5.77,1.841-8.057,4.591-3.385,5.939-5.6.791-5.621,2.192-7.767,4.718-2.974,6.175-5.04,1.106-5.443,2.626-7.424,4.85-2.486,6.436-4.374,1.492-5.236,3.147-7.024,4.983-1.931,6.715-3.614,1.956-4.989,3.766-6.559,5.106-1.315,7-2.766,2.505-4.695,4.49-6.021,5.218-.652,7.3-1.845,3.136-4.339,5.311-5.395,5.325.044,7.606-.868,3.838-3.9,6.225-4.658,5.442.752,7.94.148,4.6-3.361,7.214-3.8,5.589,1.465,8.326,1.2,5.407-2.729,8.269-2.822h66.528M416.42,429.564H573.345c2.982-.05,6,2.072,8.846,1.848s5.387-2.777,8.114-3.167,5.8,1.355,8.405.8,4.589-3.369,7.079-4.076,5.638.644,8.015-.211,3.837-3.867,6.107-4.866,5.492-.056,7.661-1.191,3.153-4.275,5.221-5.541,5.349-.735,7.326-2.125,2.542-4.616,4.431-6.122,5.2-1.374,7-2.992,2.014-4.9,3.738-6.628,5.044-1.96,6.7-3.78,1.558-5.149,3.138-7.063,4.891-2.484,6.406-4.483,1.178-5.356,2.629-7.435,4.741-2.939,6.137-5.092.863-5.534,2.208-7.751,4.6-3.327,5.9-5.606.6-5.68,1.859-8.015,4.481-3.639,5.7-6.022.4-5.8,1.583-8.22,4.382-3.888,5.535-6.344.252-5.886,1.382-8.372,4.3-4.057,5.414-6.569.149-5.941,1.244-8.466,4.256-4.163,5.341-6.7.091-5.967,1.17-8.508,4.232-4.193,5.309-6.73.079-5.964,1.161-8.493,4.24-4.155,5.327-6.669.115-5.928,1.216-8.421,4.272-4.045,5.394-6.51.2-5.864,1.335-8.295,4.331-3.864,5.5-6.256.326-5.77,1.525-8.114,4.413-3.611,5.645-5.9.511-5.649,1.784-7.881,4.516-3.283,5.833-5.449.749-5.5,2.117-7.6,4.631-2.881,6.053-4.9,1.051-5.33,2.531-7.261,4.754-2.4,6.3-4.245,1.423-5.128,3.033-6.87,4.877-1.86,6.562-3.5,1.873-4.888,3.633-6.418,4.993-1.254,6.836-2.668,2.406-4.6,4.336-5.895,5.093-.6,7.113-1.766,3.026-4.255,5.14-5.283,5.192.079,7.407-.808,3.716-3.828,6.035-4.566,5.3.773,7.725.188,4.462-3.305,7-3.73,5.438,1.473,8.1,1.214,5.255-2.688,8.038-2.772h66.8m-506,293.017H573.345c3.058-.057,6.145,2.036,9.073,1.811s5.539-2.758,8.338-3.148,5.926,1.343,8.6.8,4.753-3.34,7.311-4.039,5.73.658,8.172-.185,4.008-3.83,6.339-4.812,5.563-.018,7.791-1.131,3.316-4.238,5.441-5.481,5.405-.671,7.435-2.032,2.7-4.576,4.64-6.051,5.244-1.29,7.1-2.874,2.16-4.857,3.93-6.544,5.079-1.858,6.771-3.64,1.694-5.1,3.313-6.967,4.917-2.371,6.468-4.326,1.3-5.294,2.783-7.326,4.761-2.82,6.19-4.923.965-5.461,2.337-7.631,4.616-3.2,5.94-5.425.693-5.6,1.969-7.879,4.491-3.512,5.728-5.838.475-5.708,1.675-8.075,4.381-3.753,5.549-6.154.311-5.787,1.453-8.215,4.3-3.926,5.416-6.376.192-5.838,1.295-8.305,4.237-4.028,5.326-6.5.124-5.857,1.2-8.337,4.206-4.064,5.281-6.541.1-5.848,1.176-8.317,4.2-4.029,5.282-6.481.124-5.811,1.215-8.243,4.225-3.924,5.331-6.33.192-5.743,1.315-8.115,4.274-3.749,5.42-6.081.311-5.649,1.49-7.935,4.344-3.5,5.553-5.737.48-5.531,1.726-7.708,4.437-3.181,5.726-5.294.706-5.385,2.039-7.426,4.546-2.789,5.933-4.755.994-5.215,2.436-7.1,4.658-2.324,6.16-4.118,1.352-5.018,2.921-6.715,4.769-1.79,6.407-3.388,1.79-4.786,3.5-6.276,4.878-1.2,6.667-2.571,2.31-4.511,4.184-5.768,4.972-.555,6.93-1.685,2.917-4.174,4.97-5.173,5.058.113,7.208-.747,3.592-3.759,5.843-4.476,5.156.8,7.514.229,4.326-3.249,6.794-3.66,5.283,1.478,7.866,1.231,5.1-2.646,7.809-2.724h67.408M416.42,439.016H573.343c3.135-.063,6.3,2,9.3,1.775s5.7-2.74,8.568-3.126,6.047,1.331,8.789.79,4.918-3.31,7.539-4,5.828.67,8.333-.159,4.175-3.794,6.565-4.761,5.638.02,7.922-1.073,3.486-4.2,5.667-5.414,5.459-.61,7.541-1.943,2.861-4.535,4.848-5.979,5.288-1.207,7.189-2.755,2.3-4.813,4.12-6.463,5.117-1.758,6.849-3.5,1.824-5.041,3.485-6.871,4.946-2.257,6.533-4.168,1.413-5.232,2.932-7.219,4.787-2.7,6.246-4.753,1.065-5.39,2.466-7.507,4.634-3.073,5.983-5.248.78-5.518,2.079-7.745,4.5-3.378,5.754-5.651.549-5.616,1.765-7.927,4.382-3.621,5.566-5.966.369-5.688,1.521-8.058,4.289-3.794,5.417-6.184.241-5.733,1.349-8.139,4.219-3.9,5.31-6.315.157-5.746,1.238-8.164,4.178-3.936,5.251-6.352.12-5.733,1.193-8.139,4.163-3.9,5.238-6.3.13-5.691,1.211-8.062,4.176-3.8,5.269-6.149.188-5.624,1.3-7.935,4.218-3.633,5.346-5.907.291-5.53,1.447-7.758,4.278-3.393,5.463-5.57.45-5.411,1.669-7.533,4.362-3.08,5.618-5.139.663-5.268,1.966-7.258,4.459-2.7,5.807-4.61.94-5.1,2.341-6.935,4.563-2.243,6.023-3.989,1.284-4.909,2.807-6.563,4.665-1.717,6.255-3.272,1.707-4.685,3.366-6.135,4.766-1.135,6.5-2.474,2.213-4.418,4.031-5.641,4.848-.506,6.748-1.607,2.806-4.091,4.795-5.062,4.926.149,7.012-.687,3.47-3.687,5.652-4.383,5.012.817,7.3.269,4.191-3.194,6.585-3.589,5.129,1.483,7.637,1.247,4.954-2.6,7.58-2.675h68.427M416.42,443.743H573.343c3.212-.07,6.448,1.97,9.522,1.738s5.856-2.72,8.795-3.106,6.17,1.317,8.983.783,5.082-3.281,7.77-3.958,5.923.681,8.49-.134,4.343-3.761,6.8-4.706,5.709.056,8.052-1.015,3.652-4.16,5.888-5.354,5.515-.546,7.65-1.851,3.02-4.494,5.059-5.906,5.331-1.124,7.275-2.639,2.455-4.764,4.314-6.377,5.153-1.657,6.926-3.362,1.96-4.987,3.656-6.774,4.976-2.146,6.6-4.011,1.529-5.172,3.083-7.111,4.81-2.578,6.3-4.584,1.168-5.319,2.6-7.387,4.649-2.945,6.023-5.066.867-5.44,2.189-7.612,4.506-3.249,5.784-5.464.62-5.529,1.854-7.784,4.383-3.487,5.58-5.773.429-5.591,1.595-7.9,4.279-3.659,5.414-5.993.288-5.627,1.4-7.973,4.2-3.767,5.3-6.122.193-5.637,1.272-8,4.151-3.8,5.221-6.16.143-5.618,1.21-7.964,4.125-3.777,5.193-6.109.138-5.574,1.207-7.885,4.13-3.68,5.209-5.966.184-5.5,1.277-7.756,4.158-3.519,5.269-5.733.275-5.409,1.409-7.58,4.213-3.284,5.371-5.406.422-5.29,1.611-7.354,4.285-2.981,5.511-4.985.621-5.15,1.889-7.087,4.374-2.6,5.685-4.468.884-4.99,2.248-6.774,4.469-2.159,5.886-3.858,1.215-4.8,2.692-6.409,4.562-1.647,6.1-3.16,1.624-4.584,3.233-5.994,4.649-1.075,6.33-2.377,2.12-4.325,3.879-5.513,4.725-.459,6.567-1.527,2.7-4.009,4.625-4.951,4.791.184,6.811-.628,3.348-3.617,5.461-4.29,4.869.836,7.087.308,4.052-3.138,6.373-3.518,4.976,1.488,7.407,1.263,4.8-2.562,7.35-2.626h70.1" fill="none" stroke="#666" stroke-miterlimit="2.613" stroke-width="0.962"/>
          <path id="Trazado_31315" data-name="Trazado 31315" d="M861.591,63.77h67.094m-.767,120.488H860.824m-4.3-94.653h67.094m-.845,11.284H855.684m66.608,11.507H855.2M922.12,123.9H855.026m67.216,11.507H855.148m67.523,11.507H855.577m.816,11.731h67.093M857.7,170.154H924.79m2.218,11.284H859.914m.521-114.846h67.093m-2.48,11.283H857.954m1.667-8.463h67.092m-1.2,5.642H858.424m-.912,5.864H924.6m-.676,5.642H856.835m-.558,5.865h67.094m-.419,5.641H855.858m-.336,5.866h67.094m-.236,5.642H855.614a2.376,2.376,0,0,0-.328.025m-.163,5.856c.161-.011.326-.016.491-.016h66.6m-.082,5.643H855.614a2.69,2.69,0,0,0-.572.071m-.012,5.816c.192-.015.386-.022.586-.022h66.508m.061,5.643H855.616a2.469,2.469,0,0,0-.524.064m.137,5.811c.128-.007.259-.01.387-.01h66.707m.212,5.642H855.616c-.055,0-.112,0-.173.008m.307,5.857h67.094m.387,5.643H856.138m.518,5.865H923.75m.633,5.641H857.289m.84,5.866h67.094m1.079,5.642H859.208M858.97,72.233h67.093m-68.91,11.507h67.094M856.055,95.247h67.093m-67.754,11.519c.073,0,.146-.01.22-.012h66.874m-67.416,11.552c.181-.024.362-.039.542-.045h66.552m-67.115,11.554a5.66,5.66,0,0,1,.565-.048h66.528m-66.817,11.524c.1-.009.193-.014.289-.016h66.8m-66.488,11.507h67.093m-66.071,11.507h67.092M858.626,175.8H925.72" fill="none" stroke="red" stroke-miterlimit="2.613" stroke-width="1.511"/>
          <path id="Trazado_31316" data-name="Trazado 31316" d="M889.715,268.182h-6.123c-.726,1.292-3.2,5.215-.349,5.593l-.235,1.033H876.4l.235-1.033c1.409-.331,2.022-1.549,2.82-2.979l9.734-17.487H893.7c.115,2.854.532,16.506.786,18.262.165,1.141.421,2.041,1.6,2.2l-.236,1.033h-8.1l.235-1.033c2.364-.163,1.795-2.862,1.737-5.593Zm-5.156-1.835h5.109l-.075-9.135h-.187l-4.847,9.135Zm20.172,11.633c.883,0,1.132-.141,1.472-.963h1.04l-.759,3.051h-7.505c.676-3.177,6.824-5.972,6.824-9.492,0-1.677-2.226-2.165-3.252.565H901l.485-2.044c6.559-2.267,9.14.924,4.99,4.73-.329.3-4.47,3.715-4.563,4.153Z"/>
          <path id="Trazado_31317" data-name="Trazado 31317" d="M902.727,206.648c1.184-1.077,2.9-3.334,1.065-3.558l.188-.826h4.052l.313.826-5.067,4.889c.46,1.022,2.067,5.152,2.965,5.705a1.905,1.905,0,0,0,.5.188l-.188.825h-4.113l-1.765-4.716c-.961.849-2.8,2.5-2.025,3.612a.792.792,0,0,0,.582.279l-.187.825h-4.049l-.325-.825,5.453-5.217c-.521-1.176-1.875-4.789-2.779-5.347a2.283,2.283,0,0,0-.582-.218l.189-.826h4.163l1.613,4.384Zm9.468,10.775c.706,0,.9-.112,1.176-.771h.833l-.6,2.441h-6.007c.54-2.541,5.461-4.778,5.461-7.593,0-1.342-1.782-1.731-2.6.451h-1.242l.388-1.636c5.246-1.813,7.31.74,3.992,3.786a38.86,38.86,0,0,0-3.651,3.322ZM885.773,197.5l6.717,17.2h-14.7l6.957-17.2Zm2.954,14.928-4.25-10.941-4.4,10.941Z"/>
          <path id="Trazado_31318" data-name="Trazado 31318" d="M900.567,23.021l.545,1.032q-1.973,5.231-9.119,14.745h-3.037c-.225-1.839-1.428-12.712-1.809-13.712a1.39,1.39,0,0,0-1.391-1.033l.237-1.032h5.519l1.081,11.7c1.085-1.546,7.289-10.491,3.336-10.671l.219-1.032Zm2.909,18.95c.883,0,1.129-.142,1.471-.962h1.042l-.761,3.05h-7.5c.675-3.178,6.825-5.973,6.825-9.492,0-1.677-2.226-2.166-3.254.564h-1.553l.485-2.044c6.56-2.267,9.141.925,4.992,4.731-.33.3-4.474,3.715-4.563,4.153Z"/>
          <path id="Trazado_31319" data-name="Trazado 31319" d="M863.582,203.46c4.887,0,8.846,28.309,8.846,63.228s-3.959,63.226-8.846,63.226-8.845-28.306-8.845-63.226,3.96-63.228,8.845-63.228Z" fill="#b8d4ff" stroke="#000" stroke-miterlimit="2.613" stroke-width="0.962"/>
          <line id="Línea_102" data-name="Línea 102" x2="60.579" transform="translate(866.202 196.612)" fill="none" stroke="#000" stroke-miterlimit="2.613" stroke-width="0.687"/>
          <path id="Trazado_31320" data-name="Trazado 31320" d="M862.766,196.612l6.838-2.93a6.232,6.232,0,0,0,0,5.861l-6.838-2.931Z" fill-rule="evenodd"/>
          <path id="Trazado_31321" data-name="Trazado 31321" d="M930.218,196.612l-6.839-2.93a6.232,6.232,0,0,1,0,5.861l6.839-2.931Z" fill-rule="evenodd"/>
          <line id="Línea_103" data-name="Línea 103" x2="62.62" transform="translate(862.766 49.297)" fill="none" stroke="#000" stroke-miterlimit="2.613" stroke-width="1.374"/>
          <path id="Trazado_31322" data-name="Trazado 31322" d="M930.218,49.3,920.6,45.175a8.754,8.754,0,0,1,0,8.244l9.616-4.122Z" fill-rule="evenodd"/>
          <path id="Trazado_31323" data-name="Trazado 31323" d="M930.965,61.646H855.634C668.724,69.108,710.209,397.4,573.354,397.4H416.48c-2,0-3.629,11.612-3.629,25.935s1.626,25.933,3.629,25.933l156.874,0c184.216-4.3,144.167-257.914,282.28-261.165h75.331" fill="none" stroke="#039" stroke-miterlimit="2.613" stroke-width="2.981"/>
          <path id="Trazado_31324" data-name="Trazado 31324" d="M930.965,61.646c4.883,0,8.844,28.309,8.844,63.228s-3.961,63.228-8.844,63.228-8.847-28.309-8.847-63.228,3.96-63.228,8.847-63.228Z" fill="#b8d4ff" stroke="#039" stroke-miterlimit="2.613" stroke-width="2.981"/>
        </g>
        <g id="Grupo_15676" data-name="Grupo 15676">
          <g id="Grupo_15674" data-name="Grupo 15674">
            <path id="Trazado_31325" data-name="Trazado 31325" d="M527.91,61.646H452.579C265.669,69.108,307.154,397.4,170.3,397.4H13.426c-2,0-3.628,11.612-3.628,25.935,0,14.3,1.619,25.892,3.617,25.931H170.3c184.217-4.3,144.167-257.914,282.28-261.165H527.91c-4.887,0-8.846-28.309-8.846-63.228s3.959-63.228,8.846-63.228Z" fill="#69f" fill-rule="evenodd"/>
            <path id="Trazado_31326" data-name="Trazado 31326" d="M525.135,64.819H452.579c-57.112,0-93.045,31.974-119.885,79.617C310.515,183.8,295.4,232.187,279.853,275.047c-6.041,16.655-12.384,33.327-19.849,49.4-17.907,38.564-43.279,76.13-89.705,76.13H11.686c-1.125,4.4-1.888,12.944-1.888,22.76s.763,18.352,1.887,22.758H170.3c181.967,0,141.107-261.167,282.28-261.167h72.558c-3.528-8.315-6.073-32.057-6.073-60.054s2.545-51.737,6.071-60.055Z" fill="#6e9eff" fill-rule="evenodd"/>
            <path id="Trazado_31327" data-name="Trazado 31327" d="M524.043,67.994H452.579c-25.386,0-48.611,6.453-69.358,21.28C341.758,118.9,318.711,176.6,301.81,222.909c-12.082,33.1-24.268,71.306-38.927,102.874-18.477,39.79-44.75,77.967-92.584,77.967H11.047a154.192,154.192,0,0,0,0,39.172H170.3c154.143,0,144.661-190.779,230.508-246.428,15.741-10.2,33.078-14.739,51.772-14.739h71.464c-2.946-10.256-4.979-31.871-4.979-56.881s2.033-46.624,4.979-56.88Z" fill="#73a3ff" fill-rule="evenodd"/>
            <path id="Trazado_31328" data-name="Trazado 31328" d="M523.241,71.167H452.579c-24.721,0-47.306,6.249-67.514,20.689C344.26,121.018,321.423,178.428,304.79,224c-12.517,34.3-23.658,70.022-39.029,103.122-19.044,41.014-46.23,79.8-95.462,79.8H10.617a164.84,164.84,0,0,0,0,32.823H170.3c35.369,0,65.944-10.006,91.935-34.388,61.225-57.429,73.291-170.33,136.846-211.527,16.257-10.54,34.192-15.251,53.5-15.251h70.662c-2.508-11.16-4.177-31.038-4.177-53.707s1.669-42.546,4.177-53.707Z" fill="#7aa8ff" fill-rule="evenodd"/>
            <path id="Trazado_31329" data-name="Trazado 31329" d="M522.593,74.341H452.579c-24.057,0-46,6.043-65.668,20.1-40.145,28.689-62.778,85.818-79.139,130.647-12.551,34.388-23.72,70.18-39.133,103.372C249.029,370.689,220.92,410.1,170.3,410.1H10.306c-.323,3.875-.508,8.4-.508,13.238s.185,9.364.508,13.239H170.3c113.1,0,133.537-106.485,176.937-185.807C370.69,207.9,400.7,175.408,452.579,175.408h70.014c-2.145-11.538-3.529-29.879-3.529-50.534s1.386-38.994,3.529-50.533Z" fill="#82abff" fill-rule="evenodd"/>
            <path id="Trazado_31330" data-name="Trazado 31330" d="M522.05,77.515H452.579c-23.394,0-44.7,5.837-63.824,19.5-39.481,28.215-61.912,85.069-78,129.154-12.584,34.479-23.78,70.337-39.235,103.618C251.341,373.243,222.3,413.271,170.3,413.271H10.081c-.182,3.093-.283,6.5-.283,10.066s.1,6.969.283,10.066H170.3c74.83,0,108.247-46.787,137.9-108.392,30.816-64.016,58.371-152.777,144.377-152.777H522.05c-1.83-11.583-2.986-28.506-2.986-47.36S520.22,89.1,522.05,77.515Z" fill="#8ab0ff" fill-rule="evenodd"/>
            <path id="Trazado_31331" data-name="Trazado 31331" d="M521.584,80.687h-69c-22.729,0-43.392,5.634-61.978,18.916-38.815,27.738-61.051,84.323-76.867,127.659-12.618,34.572-23.841,70.493-39.338,103.867-20.741,44.666-50.726,85.315-104.1,85.315H9.927c-.085,2.2-.129,4.506-.129,6.893s.044,4.7.129,6.892H170.3c73.431,0,105.92-46.1,135.042-106.594,31.539-65.516,59.3-154.573,147.238-154.573h69a343.266,343.266,0,0,1-2.52-44.188,343.238,343.238,0,0,1,2.52-44.187Z" fill="#8fb5ff" fill-rule="evenodd"/>
            <path id="Trazado_31332" data-name="Trazado 31332" d="M521.178,83.861h-68.6c-22.064,0-42.088,5.428-60.133,18.324-38.146,27.26-60.189,83.581-75.73,126.165-12.652,34.664-23.9,70.65-39.441,104.115-13.989,30.129-33.133,61.192-63.616,76.879a93.678,93.678,0,0,1-43.36,10.273H9.835q-.036,1.826-.037,3.72c0,1.262.013,2.5.037,3.719H170.3c32.123,0,59.629-8.8,83.251-30.953,71.633-67.2,76.318-230.215,199.029-230.215h68.6a359.7,359.7,0,0,1-2.114-41.014,359.68,359.68,0,0,1,2.114-41.013Z" fill="#96baff" fill-rule="evenodd"/>
            <path id="Trazado_31333" data-name="Trazado 31333" d="M520.823,87.034H452.579c-21.4,0-40.785,5.223-58.288,17.733-97.05,69.354-84.707,318.025-223.992,318.025H9.8v1.089H170.3c70.611,0,101.26-44.7,129.325-103,32.91-68.367,61.328-158.166,152.955-158.166h68.244a374.454,374.454,0,0,1-1.759-37.841,374.433,374.433,0,0,1,1.759-37.84Z" fill="#9ebfff" fill-rule="evenodd"/>
            <path id="Trazado_31334" data-name="Trazado 31334" d="M520.513,90.208H452.579c-20.735,0-39.48,5.019-56.442,17.141-36.8,26.3-58.47,82.108-73.459,123.177-12.719,34.847-24.023,70.966-39.647,104.613-11.531,24.837-26.358,49.907-47.712,67.453,28.556-19.237,46.83-52.726,61.444-83.087,33.574-69.743,62.447-159.964,155.816-159.964h67.934c-.916-9.954-1.449-21.865-1.449-34.667s.533-24.711,1.449-34.666Z" fill="#a6c4ff" fill-rule="evenodd"/>
            <path id="Trazado_31335" data-name="Trazado 31335" d="M520.239,93.382h-67.66c-20.071,0-38.177,4.813-54.6,16.549-36.116,25.808-57.611,81.378-72.321,121.682-10.394,28.477-19.844,57.78-31.466,85.911,34.114-71.029,63.523-161.156,158.385-161.156h67.66c-.747-9.273-1.175-20.027-1.175-31.494s.428-22.221,1.175-31.492Z" fill="#adc9ff" fill-rule="evenodd"/>
            <path id="Trazado_31336" data-name="Trazado 31336" d="M520,96.555H452.579c-19.4,0-36.874,4.61-52.752,15.957-35.432,25.322-56.757,80.652-71.187,120.19q-3.141,8.607-6.193,17.3c15.8-30.645,34.927-59.388,62.824-77.472,20.377-13.209,43.091-19.333,67.308-19.333H520c-.6-8.519-.936-18.137-.936-28.32s.338-19.8.936-28.319Z" fill="#b5cfff" fill-rule="evenodd"/>
            <path id="Trazado_31337" data-name="Trazado 31337" d="M519.793,99.729H452.579c-18.739,0-35.571,4.406-50.907,15.366-30.033,21.463-49.914,65.543-63.891,102.138,12.428-18.707,27.148-35.3,45.763-47.368,20.894-13.544,44.2-19.845,69.035-19.845h67.214c-.468-7.706-.729-16.208-.729-25.146s.261-17.438.729-25.145Z" fill="#bad4ff" fill-rule="evenodd"/>
            <path id="Trazado_31338" data-name="Trazado 31338" d="M519.614,102.9H452.579c-18.074,0-34.269,4.2-49.062,14.775-23.4,16.727-40.644,47.883-53.637,78.064,26.732-31.492,60.684-48.892,102.7-48.892h67.035c-.355-6.845-.55-14.246-.55-21.974s.195-15.128.55-21.973Z" fill="#c2d9ff" fill-rule="evenodd"/>
            <path id="Trazado_31339" data-name="Trazado 31339" d="M519.463,106.075H452.579c-17.407,0-32.966,4-47.217,14.183-18.4,13.15-32.993,35.68-44.659,59.486,25.6-23.89,56.556-36.07,91.876-36.07h66.884c-.259-5.939-.4-12.252-.4-18.8s.14-12.86.4-18.8Z" fill="#c9deff" fill-rule="evenodd"/>
            <path id="Trazado_31340" data-name="Trazado 31340" d="M519.337,109.248H452.579c-16.74,0-31.664,3.8-45.371,13.592-14.243,10.179-26.209,26.275-36.279,44.212,24.048-17.928,51.666-26.551,81.65-26.551h66.758c-.177-5-.273-10.234-.273-15.627s.1-10.629.273-15.626Z" fill="#d1e3ff" fill-rule="evenodd"/>
            <path id="Trazado_31341" data-name="Trazado 31341" d="M519.235,112.422H452.579c-33.4,0-53.52,16.374-71.575,44.076,21.828-13.017,46.008-19.171,71.575-19.171h66.656c-.11-4.027-.171-8.189-.171-12.453s.061-8.425.171-12.452Z" fill="#d6e6ff" fill-rule="evenodd"/>
            <path id="Trazado_31342" data-name="Trazado 31342" d="M519.16,115.6H452.579c-27.074,0-44.833,10.735-61.236,31.814a142.6,142.6,0,0,1,61.236-13.257H519.16q-.093-4.544-.1-9.279c0-3.151.034-6.249.1-9.278Z" fill="#deebff" fill-rule="evenodd"/>
            <path id="Trazado_31343" data-name="Trazado 31343" d="M519.1,118.77H452.579c-20.493,0-35.778,6.169-50.024,20.6a148.418,148.418,0,0,1,50.024-8.386H519.1q-.04-3.012-.041-6.105t.041-6.1Z" fill="#e6f0ff" fill-rule="evenodd"/>
          </g>
          <path id="Trazado_31344" data-name="Trazado 31344" d="M527.91,61.646H452.579C265.669,69.108,307.154,397.4,170.3,397.4H13.426c-2,0-3.628,11.612-3.628,25.935,0,14.3,1.619,25.892,3.617,25.931H170.3c184.217-4.3,144.167-257.914,282.28-261.165H527.91c-4.887,0-8.846-28.309-8.846-63.228s3.959-63.228,8.846-63.228Z" fill="#69f" fill-rule="evenodd" style="mix-blend-mode: color;isolation: isolate"/>
          <path id="Trazado_31345" data-name="Trazado 31345" d="M11.534,401.208H170.3c2.521-.006,5.088,2.272,7.495,2.063s4.445-2.883,6.742-3.286,5.063,1.433,7.256.843,3.6-3.544,5.694-4.312,5.067.574,7.063-.365,2.828-4.073,4.732-5.179,5.06-.284,6.879-1.547,2.153-4.5,3.889-5.918,5.015-1.112,6.675-2.668,1.59-4.865,3.178-6.558,4.933-1.879,6.454-3.7,1.132-5.183,2.589-7.125,4.83-2.562,6.227-4.62.767-5.47,2.11-7.633,4.715-3.162,6.012-5.425.475-5.729,1.726-8.086,4.6-3.67,5.815-6.113.25-5.96,1.425-8.483,4.51-4.089,5.653-6.68.081-6.165,1.2-8.819,4.433-4.427,5.53-7.14-.037-6.334,1.043-9.1,4.381-4.682,5.449-7.485-.106-6.47.954-9.307,4.358-4.856,5.415-7.721-.131-6.57.928-9.455,4.363-4.953,5.428-7.851-.11-6.631.965-9.533,4.4-4.973,5.49-7.874-.045-6.655,1.065-9.549,4.464-4.911,5.6-7.789.065-6.639,1.23-9.492,4.555-4.776,5.754-7.6.224-6.585,1.461-9.372,4.674-4.56,5.954-7.3.429-6.5,1.759-9.185,4.813-4.265,6.2-6.9.688-6.37,2.127-8.934,4.976-3.887,6.476-6.377,1.005-6.21,2.572-8.619,5.148-3.431,6.786-5.753,1.388-6.012,3.1-8.238,5.328-2.895,7.121-5.017,1.841-5.78,3.719-7.791,5.506-2.288,7.475-4.183,2.373-5.5,4.435-7.269,5.675-1.613,7.836-3.251,2.99-5.159,5.254-6.659,5.836-.889,8.207-2.243,3.688-4.747,6.175-5.946,5.991-.131,8.593-1.169,4.458-4.247,7.182-5.117,6.16.646,9.009-.049,5.282-3.644,8.264-4.156,6.357,1.436,9.474,1.112,6.16-2.936,9.418-3.062h70.452M10.736,405.934H170.3c2.6-.014,5.24,2.237,7.72,2.028s4.6-2.866,6.97-3.269,5.187,1.421,7.448.839,3.767-3.514,5.924-4.273,5.163.588,7.224-.34,2.994-4.038,4.961-5.127,5.131-.246,7.009-1.488,2.318-4.465,4.111-5.854,5.069-1.051,6.783-2.58,1.748-4.822,3.386-6.483,4.978-1.793,6.546-3.582,1.28-5.135,2.781-7.041,4.864-2.462,6.3-4.481.9-5.414,2.282-7.537,4.744-3.049,6.075-5.268.593-5.667,1.877-7.978,4.628-3.548,5.869-5.941.352-5.892,1.556-8.363,4.524-3.96,5.694-6.5.168-6.081,1.309-8.684,4.442-4.3,5.56-6.952.035-6.245,1.132-8.95,4.383-4.549,5.464-7.294-.047-6.374,1.024-9.153,4.35-4.723,5.416-7.529-.085-6.465.98-9.29,4.346-4.821,5.414-7.658-.076-6.521,1-9.364,4.371-4.841,5.46-7.682-.024-6.539,1.082-9.371,4.426-4.787,5.552-7.605.075-6.519,1.23-9.312,4.507-4.655,5.693-7.418.219-6.467,1.44-9.194,4.616-4.443,5.879-7.127.412-6.375,1.719-9.006,4.748-4.155,6.1-6.728.658-6.252,2.069-8.759,4.9-3.787,6.37-6.222.962-6.093,2.5-8.449,5.062-3.341,6.664-5.61,1.33-5.9,3.005-8.075,5.233-2.815,6.984-4.891,1.771-5.669,3.606-7.636,5.4-2.217,7.321-4.069,2.29-5.4,4.3-7.127,5.561-1.554,7.669-3.154,2.893-5.068,5.1-6.532,5.712-.842,8.025-2.164,3.578-4.665,6-5.834,5.859-.1,8.395-1.11,4.334-4.176,6.992-5.025,6.015.668,8.8-.01,5.144-3.586,8.054-4.085,6.2,1.442,9.244,1.13,6.009-2.895,9.188-3.015h68.634M10.261,410.661H170.3c2.674-.021,5.39,2.2,7.946,1.991s4.757-2.848,7.2-3.247,5.309,1.408,7.639.831,3.932-3.487,6.156-4.234,5.257.6,7.381-.314,3.163-4,5.191-5.074,5.2-.209,7.138-1.429,2.485-4.427,4.334-5.791,5.125-.989,6.892-2.489,1.907-4.781,3.6-6.412,5.022-1.71,6.636-3.465,1.426-5.088,2.973-6.959,4.9-2.361,6.383-4.339,1.031-5.361,2.453-7.442,4.773-2.935,6.142-5.11.71-5.606,2.028-7.87,4.65-3.427,5.923-5.774.454-5.818,1.685-8.238,4.54-3.836,5.736-6.322.256-6.005,1.418-8.553,4.45-4.164,5.587-6.765.109-6.156,1.224-8.8,4.381-4.417,5.478-7.1.013-6.274,1.1-8.995,4.341-4.592,5.415-7.339-.038-6.359,1.033-9.124,4.327-4.689,5.4-7.467-.043-6.41,1.033-9.192,4.344-4.712,5.431-7.493,0-6.423,1.1-9.2,4.388-4.659,5.507-7.415.083-6.4,1.227-9.136,4.461-4.533,5.633-7.237.215-6.344,1.42-9.011,4.559-4.329,5.8-6.955.4-6.252,1.681-8.827,4.681-4.047,6.013-6.563.629-6.132,2.013-8.583,4.821-3.687,6.261-6.069.919-5.974,2.42-8.278,4.976-3.248,6.542-5.467,1.275-5.786,2.911-7.912,5.137-2.733,6.846-4.76,1.7-5.562,3.492-7.485,5.3-2.145,7.168-3.955,2.207-5.295,4.169-6.985,5.447-1.494,7.5-3.057,2.8-4.975,4.947-6.4,5.588-.794,7.843-2.084,3.467-4.584,5.829-5.726,5.725-.061,8.2-1.049,4.21-4.106,6.8-4.933,5.871.688,8.582.03,5.007-3.53,7.843-4.014,6.05,1.448,9.015,1.146,5.858-2.853,8.958-2.965H520.1M9.972,415.387H170.295c2.751-.028,5.541,2.171,8.171,1.954s4.914-2.829,7.427-3.226,5.431,1.4,7.83.823,4.1-3.454,6.387-4.194,5.352.611,7.538-.287,3.334-3.971,5.421-5.022,5.276-.17,7.269-1.371,2.651-4.389,4.556-5.728,5.181-.924,7-2.4,2.066-4.741,3.8-6.34,5.067-1.625,6.728-3.346,1.573-5.044,3.164-6.876,4.937-2.261,6.461-4.2,1.163-5.308,2.625-7.347,4.8-2.824,6.207-4.954.827-5.542,2.179-7.761,4.673-3.305,5.976-5.6.556-5.748,1.816-8.118,4.556-3.708,5.777-6.144.343-5.923,1.529-8.417,4.458-4.035,5.614-6.581.183-6.066,1.314-8.658,4.382-4.283,5.493-6.913.072-6.179,1.166-8.842,4.333-4.457,5.417-7.146.007-6.254,1.085-8.959,4.309-4.556,5.384-7.275-.01-6.3,1.067-9.021,4.316-4.583,5.4-7.3.016-6.308,1.113-9.019,4.35-4.534,5.463-7.23.091-6.284,1.223-8.956,4.414-4.411,5.573-7.055.21-6.226,1.4-8.834,4.5-4.212,5.725-6.777.379-6.134,1.641-8.651,4.615-3.937,5.922-6.4.6-6.012,1.954-8.409,4.746-3.585,6.155-5.914.877-5.856,2.344-8.107,4.89-3.156,6.42-5.324,1.218-5.673,2.816-7.75,5.042-2.651,6.71-4.632,1.63-5.452,3.376-7.33,5.191-2.074,7.018-3.842,2.123-5.192,4.034-6.844,5.333-1.433,7.335-2.96,2.7-4.88,4.794-6.276,5.466-.747,7.662-2,3.356-4.5,5.656-5.616,5.592-.025,8-.989,4.088-4.037,6.609-4.841,5.729.709,8.369.068,4.87-3.473,7.633-3.942,5.9,1.455,8.785,1.163,5.708-2.812,8.728-2.917h66.875M9.826,420.112H170.294c2.828-.035,5.693,2.138,8.4,1.921s5.072-2.814,7.655-3.208,5.554,1.382,8.023.818,4.259-3.428,6.616-4.156,5.448.621,7.7-.261,3.5-3.936,5.651-4.97,5.347-.133,7.4-1.313,2.818-4.35,4.776-5.664,5.238-.862,7.109-2.3,2.225-4.7,4.014-6.269,5.109-1.543,6.82-3.227,1.719-5,3.354-6.795,4.973-2.16,6.539-4.06,1.3-5.255,2.8-7.252,4.832-2.709,6.272-4.8.945-5.48,2.331-7.652,4.7-3.182,6.029-5.431.658-5.677,1.946-8,4.571-3.582,5.818-5.966.43-5.841,1.64-8.282,4.465-3.9,5.641-6.394.256-5.978,1.4-8.512,4.383-4.151,5.508-6.725.131-6.079,1.238-8.682,4.323-4.326,5.415-6.953.056-6.152,1.139-8.8,4.29-4.425,5.368-7.082.024-6.189,1.1-8.851,4.289-4.452,5.371-7.111.039-6.194,1.131-8.843,4.313-4.407,5.417-7.044.1-6.164,1.221-8.777,4.367-4.289,5.512-6.874.2-6.1,1.378-8.654,4.445-4.1,5.649-6.6.362-6.014,1.6-8.472,4.546-3.829,5.83-6.232.568-5.891,1.9-8.234,4.669-3.484,6.048-5.758.833-5.739,2.267-7.938,4.8-3.065,6.3-5.181,1.162-5.558,2.72-7.587,4.945-2.569,6.573-4.5,1.562-5.343,3.262-7.176,5.086-2,6.865-3.728,2.041-5.091,3.9-6.7,5.219-1.373,7.168-2.863,2.6-4.788,4.641-6.149,5.342-.7,7.479-1.925,3.246-4.418,5.484-5.5,5.459.007,7.8-.929,3.964-3.968,6.418-4.75,5.586.731,8.155.109,4.735-3.418,7.423-3.873,5.743,1.461,8.556,1.181,5.557-2.77,8.5-2.869h66.553M9.8,424.837H170.292c2.9-.04,5.844,2.106,8.622,1.885s5.228-2.795,7.884-3.187,5.678,1.368,8.214.812,4.424-3.4,6.846-4.117,5.543.633,7.857-.237,3.669-3.9,5.879-4.917,5.42-.1,7.531-1.252,2.984-4.312,5-5.6,5.292-.8,7.216-2.216,2.384-4.658,4.223-6.2,5.154-1.457,6.91-3.111,1.866-4.951,3.548-6.709,5.007-2.06,6.615-3.922,1.428-5.2,2.969-7.156,4.86-2.6,6.337-4.64,1.062-5.419,2.482-7.543,4.718-3.062,6.083-5.262.76-5.6,2.076-7.873,4.587-3.454,5.859-5.787.518-5.76,1.749-8.147,4.474-3.773,5.67-6.21.33-5.887,1.495-8.367,4.381-4.019,5.521-6.534.191-5.981,1.311-8.527,4.313-4.191,5.415-6.761.1-6.045,1.189-8.632,4.274-4.292,5.355-6.889.058-6.079,1.137-8.679,4.26-4.325,5.34-6.921.059-6.079,1.145-8.668,4.276-4.283,5.374-6.857.106-6.047,1.217-8.6,4.32-4.168,5.453-6.692.2-5.985,1.357-8.475,4.388-3.98,5.573-6.429.345-5.892,1.565-8.294,4.48-3.72,5.737-6.067.539-5.77,1.841-8.057,4.591-3.385,5.94-5.6.792-5.621,2.193-7.767,4.718-2.974,6.175-5.04,1.106-5.443,2.626-7.424,4.849-2.486,6.435-4.374,1.492-5.236,3.148-7.024,4.981-1.931,6.712-3.614,1.957-4.989,3.768-6.559,5.105-1.315,7-2.766,2.5-4.695,4.488-6.021,5.219-.652,7.3-1.845,3.136-4.339,5.312-5.395,5.326.044,7.6-.868,3.841-3.9,6.228-4.658,5.442.752,7.94.148,4.6-3.361,7.214-3.8,5.589,1.465,8.326,1.2,5.406-2.729,8.268-2.822H519.09M9.9,429.564H170.291c2.982-.05,6,2.072,8.847,1.848s5.385-2.777,8.111-3.167,5.8,1.355,8.406.8,4.59-3.369,7.078-4.076,5.637.644,8.016-.211,3.837-3.867,6.108-4.866,5.493-.056,7.66-1.191,3.152-4.275,5.222-5.541,5.348-.735,7.325-2.125,2.543-4.616,4.432-6.122,5.2-1.374,7-2.992,2.015-4.9,3.739-6.628,5.045-1.96,6.694-3.78,1.561-5.149,3.141-7.063,4.889-2.484,6.4-4.483,1.179-5.356,2.633-7.435,4.741-2.939,6.137-5.092.862-5.534,2.2-7.751,4.6-3.327,5.9-5.606.605-5.68,1.859-8.015,4.482-3.639,5.7-6.022.4-5.8,1.584-8.22,4.382-3.888,5.536-6.344.251-5.886,1.381-8.372,4.305-4.057,5.415-6.569.148-5.941,1.243-8.466,4.255-4.163,5.34-6.7.091-5.967,1.17-8.508,4.234-4.193,5.312-6.73.079-5.964,1.16-8.493,4.239-4.155,5.329-6.669.114-5.928,1.215-8.421,4.273-4.045,5.39-6.51.2-5.864,1.338-8.295,4.331-3.864,5.5-6.256.328-5.77,1.526-8.114,4.413-3.611,5.646-5.9.511-5.649,1.784-7.881,4.514-3.283,5.833-5.449.748-5.5,2.116-7.6,4.632-2.881,6.053-4.9,1.051-5.33,2.531-7.261,4.754-2.4,6.3-4.245,1.423-5.128,3.034-6.87,4.878-1.86,6.562-3.5,1.872-4.888,3.634-6.418,4.99-1.254,6.833-2.668,2.407-4.6,4.336-5.895,5.094-.6,7.112-1.766,3.027-4.255,5.141-5.283,5.192.079,7.406-.808,3.716-3.828,6.036-4.566,5.3.773,7.727.188,4.461-3.305,7-3.73,5.435,1.473,8.1,1.214,5.256-2.688,8.039-2.772h66.8M10.136,434.292H170.29c3.06-.057,6.147,2.036,9.072,1.811s5.542-2.758,8.341-3.148,5.922,1.343,8.6.8,4.753-3.34,7.308-4.039,5.733.658,8.174-.185,4.006-3.83,6.338-4.812,5.564-.018,7.79-1.131,3.319-4.238,5.445-5.481,5.4-.671,7.433-2.032,2.7-4.576,4.64-6.051,5.243-1.29,7.1-2.874,2.159-4.857,3.928-6.544,5.081-1.858,6.773-3.64,1.692-5.1,3.311-6.967,4.919-2.371,6.47-4.326,1.295-5.294,2.782-7.326,4.763-2.82,6.191-4.923.963-5.461,2.336-7.631,4.619-3.2,5.941-5.425.692-5.6,1.97-7.879,4.489-3.512,5.726-5.838.475-5.708,1.676-8.075,4.38-3.753,5.55-6.154.31-5.787,1.451-8.215,4.3-3.926,5.416-6.376.194-5.838,1.295-8.305,4.237-4.028,5.325-6.5.124-5.857,1.2-8.337,4.206-4.064,5.282-6.541.1-5.848,1.176-8.317,4.2-4.029,5.282-6.481.124-5.811,1.215-8.243,4.224-3.924,5.33-6.33.193-5.743,1.317-8.115,4.274-3.749,5.42-6.081.311-5.649,1.487-7.935,4.346-3.5,5.555-5.737.48-5.531,1.726-7.708,4.438-3.181,5.726-5.294.706-5.385,2.04-7.426,4.546-2.789,5.931-4.755.995-5.215,2.437-7.1,4.657-2.324,6.16-4.118,1.353-5.018,2.919-6.715,4.773-1.79,6.408-3.388,1.79-4.786,3.5-6.276,4.877-1.2,6.666-2.571,2.311-4.511,4.183-5.768,4.971-.555,6.932-1.685,2.915-4.174,4.967-5.173,5.059.113,7.208-.747,3.594-3.759,5.845-4.476,5.155.8,7.513.229,4.326-3.249,6.794-3.66,5.282,1.478,7.866,1.231,5.106-2.646,7.809-2.724h67.408M10.536,439.016H170.289c3.136-.063,6.3,2,9.3,1.775s5.7-2.74,8.568-3.126,6.045,1.331,8.789.79,4.917-3.31,7.539-4,5.828.67,8.333-.159,4.174-3.794,6.566-4.761,5.637.02,7.922-1.073,3.484-4.2,5.665-5.414,5.459-.61,7.543-1.943,2.86-4.535,4.848-5.979,5.288-1.207,7.186-2.755,2.307-4.813,4.122-6.463,5.115-1.758,6.849-3.5,1.826-5.041,3.483-6.871,4.948-2.257,6.534-4.168,1.413-5.232,2.935-7.219,4.784-2.7,6.243-4.753,1.066-5.39,2.467-7.507,4.635-3.073,5.982-5.248.779-5.518,2.08-7.745,4.5-3.378,5.754-5.651.549-5.616,1.766-7.927,4.381-3.621,5.564-5.966.369-5.688,1.523-8.058,4.288-3.794,5.416-6.184.24-5.733,1.348-8.139,4.218-3.9,5.311-6.315.158-5.746,1.238-8.164,4.178-3.936,5.251-6.352.122-5.733,1.192-8.139,4.165-3.9,5.238-6.3.131-5.691,1.212-8.062,4.177-3.8,5.268-6.149.189-5.624,1.3-7.935,4.217-3.633,5.344-5.907.294-5.53,1.449-7.758,4.279-3.393,5.462-5.57.451-5.411,1.669-7.533,4.362-3.08,5.619-5.139.664-5.268,1.965-7.258,4.458-2.7,5.809-4.61.939-5.1,2.341-6.935,4.563-2.243,6.022-3.989,1.284-4.909,2.807-6.563,4.666-1.717,6.255-3.272,1.707-4.685,3.366-6.135,4.765-1.135,6.5-2.474,2.213-4.418,4.028-5.641,4.849-.506,6.75-1.607,2.8-4.091,4.795-5.062,4.927.149,7.012-.687,3.468-3.687,5.652-4.383,5.013.817,7.3.269,4.189-3.194,6.584-3.589,5.129,1.483,7.637,1.247,4.953-2.6,7.578-2.675h68.43M11.187,443.743h159.1c3.213-.07,6.449,1.97,9.524,1.738s5.854-2.72,8.795-3.106,6.169,1.317,8.981.783,5.081-3.281,7.769-3.958,5.924.681,8.492-.134,4.342-3.761,6.795-4.706,5.71.056,8.053-1.015,3.651-4.16,5.887-5.354,5.515-.546,7.651-1.851,3.019-4.494,5.057-5.906,5.332-1.124,7.278-2.639,2.453-4.764,4.312-6.377,5.152-1.657,6.928-3.362,1.958-4.987,3.655-6.774,4.976-2.146,6.6-4.011,1.53-5.172,3.083-7.111,4.81-2.578,6.3-4.584,1.169-5.319,2.6-7.387,4.649-2.945,6.023-5.066.867-5.44,2.189-7.612,4.507-3.249,5.783-5.464.622-5.529,1.856-7.784,4.382-3.487,5.579-5.773.429-5.591,1.594-7.9,4.28-3.659,5.416-5.993.288-5.627,1.4-7.973,4.2-3.767,5.3-6.122.192-5.637,1.272-8,4.152-3.8,5.222-6.16.143-5.618,1.209-7.964,4.125-3.777,5.192-6.109.139-5.574,1.209-7.885,4.131-3.68,5.209-5.966.184-5.5,1.276-7.756,4.158-3.519,5.268-5.733.277-5.409,1.409-7.58,4.212-3.284,5.371-5.406.421-5.29,1.613-7.354,4.283-2.981,5.511-4.985.62-5.15,1.889-7.087,4.373-2.6,5.686-4.468.882-4.99,2.246-6.774,4.467-2.159,5.886-3.858,1.213-4.8,2.691-6.409,4.563-1.647,6.1-3.16,1.624-4.584,3.234-5.994,4.649-1.075,6.331-2.377,2.117-4.325,3.877-5.513,4.725-.459,6.568-1.527,2.694-4.009,4.623-4.951,4.793.184,6.813-.628,3.345-3.617,5.462-4.29,4.868.836,7.086.308,4.051-3.138,6.374-3.518,4.974,1.488,7.407,1.263,4.8-2.562,7.348-2.626h70.1" fill="none" stroke="#666" stroke-miterlimit="2.613" stroke-width="0.962"/>
          <path id="Trazado_31346" data-name="Trazado 31346" d="M12.226,398.858h155.9m-1.147,4.7H11.08m155.3,4.725H10.471M166,413.011H10.1m155.69,4.725H9.882M165.7,422.464H9.8m155.941,4.725H9.837M165.9,431.915H10m156.215,4.728H10.311m156.411,4.724H10.819m156.771,4.726H11.685m-.151-44.885h155.9m-156.7,4.726h155.9M10.261,410.661h155.9M9.972,415.387h155.9M9.826,420.112h155.9M9.8,424.837h155.9M9.9,429.564h155.9M10.136,434.292h155.9m-155.5,4.724h155.9M11.187,443.743h155.9" fill="none" stroke="red" stroke-miterlimit="2.613" stroke-width="1.099"/>
          <path id="Trazado_31347" data-name="Trazado 31347" d="M183.659,352.813h-6.124c-.726,1.291-3.2,5.215-.348,5.594l-.236,1.033h-6.61l.235-1.033c1.409-.329,2.022-1.55,2.819-2.978l9.733-17.49h4.509c.115,2.856.532,16.507.786,18.265.166,1.14.422,2.041,1.6,2.2l-.235,1.033h-8.1l.235-1.033c2.365-.165,1.795-2.862,1.739-5.594Zm-5.156-1.834h5.107l-.075-9.135h-.187l-4.845,9.135Zm19.248,11.063c-.357,1.622-.248,1.859,1.89,1.881l-.16.776h-7.005l.162-.776c1.93-.082,2.253-.161,2.606-1.753,1.594-7.17,2.236-7.653-1.082-5.811l-.433-.878,4.9-2.548h1.158l-2.036,9.109Z"/>
          <path id="Trazado_31348" data-name="Trazado 31348" d="M98.478,375.719c1.185-1.076,2.9-3.334,1.066-3.559l.188-.827h4.052l.313.827-5.067,4.891c.46,1.02,2.067,5.15,2.965,5.7a1.84,1.84,0,0,0,.5.186l-.188.827H98.191l-1.767-4.714c-.959.848-2.8,2.5-2.024,3.61a.778.778,0,0,0,.582.277l-.188.827H90.747l-.326-.827,5.451-5.214c-.518-1.176-1.873-4.789-2.776-5.348a2.419,2.419,0,0,0-.582-.218l.188-.827h4.164l1.612,4.386Zm8.95,10.319c-.286,1.3-.2,1.486,1.512,1.5l-.127.623h-5.605l.13-.623c1.544-.064,1.8-.129,2.084-1.4,1.276-5.736,1.788-6.122-.865-4.648l-.346-.7,3.919-2.038h.927l-1.629,7.286ZM81.656,366.569l6.715,17.2H73.67l6.957-17.2ZM84.609,381.5l-4.251-10.94-4.4,10.94Z"/>
          <path id="Trazado_31349" data-name="Trazado 31349" d="M93.853,464.6l.545,1.032q-1.973,5.23-9.119,14.745H82.242c-.225-1.838-1.428-12.713-1.807-13.715a1.389,1.389,0,0,0-1.392-1.03l.235-1.032H84.8l1.081,11.7c1.085-1.544,7.289-10.491,3.337-10.67l.22-1.032Zm3.486,18.38c-.357,1.625-.246,1.858,1.891,1.879l-.16.778H92.064l.164-.778c1.928-.081,2.251-.163,2.605-1.752,1.594-7.169,2.235-7.652-1.082-5.81l-.434-.879,4.9-2.546h1.156l-2.036,9.108Z"/>
          <path id="Trazado_31350" data-name="Trazado 31350" d="M162.826,325.385c2,0,3.629,11.611,3.629,25.935s-1.625,25.932-3.629,25.932-3.627-11.61-3.627-25.932,1.625-25.935,3.627-25.935Z" fill="#b8d4ff" stroke="#000" stroke-miterlimit="2.613" stroke-width="0.962"/>
          <line id="Línea_104" data-name="Línea 104" x2="146.663" transform="translate(18.032 390.06)" fill="none" stroke="#000" stroke-miterlimit="2.613" stroke-width="0.687"/>
          <path id="Trazado_31351" data-name="Trazado 31351" d="M14.594,390.06l6.841-2.934a6.227,6.227,0,0,0,0,5.864l-6.841-2.93Z" fill-rule="evenodd"/>
          <path id="Trazado_31352" data-name="Trazado 31352" d="M168.132,390.06l-6.839-2.934a6.232,6.232,0,0,1,0,5.864l6.839-2.93Z" fill-rule="evenodd"/>
          <g id="Grupo_15675" data-name="Grupo 15675">
            <line id="Línea_105" data-name="Línea 105" x2="149.333" transform="translate(12.126 459.167)" fill="none" stroke="#000" stroke-miterlimit="2.613" stroke-width="2.122"/>
            <path id="Trazado_31353" data-name="Trazado 31353" d="M166.293,459.167l-9.619-4.122a8.757,8.757,0,0,1,0,8.243l9.619-4.121Z" fill-rule="evenodd"/>
          </g>
          <path id="Trazado_31354" data-name="Trazado 31354" d="M527.91,61.646c4.885,0,8.844,28.309,8.844,63.228S532.795,188.1,527.91,188.1s-8.846-28.309-8.846-63.228,3.959-63.228,8.846-63.228Z" fill="#b8d4ff" stroke="#039" stroke-miterlimit="2.613" stroke-width="2.981"/>
          <path id="Trazado_31355" data-name="Trazado 31355" d="M527.91,61.646H452.579C265.669,69.108,307.154,397.4,170.3,397.4H13.426c-2,0-3.628,11.612-3.628,25.935s1.624,25.933,3.628,25.933l156.873,0c184.217-4.3,144.167-257.914,282.28-261.165H527.91" fill="none" stroke="#039" stroke-miterlimit="2.613" stroke-width="2.981"/>
        </g>
      </g>
    </g>
    <path id="Trazado_31361" data-name="Trazado 31361" d="M10.1.244A9.846,9.846,0,0,1,6.5-.4,8.454,8.454,0,0,1,3.638-2.209a8.144,8.144,0,0,1-1.88-2.869,10,10,0,0,1-.684-3.748,9.555,9.555,0,0,1,1.172-4.791,7.978,7.978,0,0,1,3.217-3.168,9.631,9.631,0,0,1,4.633-1.1,9.36,9.36,0,0,1,5.176,1.428,7.818,7.818,0,0,1,3.162,3.931l-3.418,1.245a4.832,4.832,0,0,0-1.892-2.38,5.4,5.4,0,0,0-3.027-.854,5.181,5.181,0,0,0-3.857,1.538,5.66,5.66,0,0,0-1.514,4.15,5.668,5.668,0,0,0,1.52,4.156A5.175,5.175,0,0,0,10.1-3.125a5.384,5.384,0,0,0,3.021-.861,4.854,4.854,0,0,0,1.9-2.386l3.418,1.245A7.85,7.85,0,0,1,15.271-1.19,9.33,9.33,0,0,1,10.1.244Zm16.724,0a7.891,7.891,0,0,1-3.552-.769,5.748,5.748,0,0,1-2.435-2.258,6.73,6.73,0,0,1-.885-3.5,6.138,6.138,0,0,1,1.9-4.761,7.065,7.065,0,0,1,4.968-1.746,7.082,7.082,0,0,1,4.98,1.746,6.138,6.138,0,0,1,1.9,4.761,6.173,6.173,0,0,1-1.9,4.779A7.067,7.067,0,0,1,26.819.244Zm-.037-2.8a3.221,3.221,0,0,0,2.484-1.025,3.838,3.838,0,0,0,.946-2.71A3.838,3.838,0,0,0,29.266-9a3.221,3.221,0,0,0-2.484-1.025A3.1,3.1,0,0,0,24.371-8.99a3.874,3.874,0,0,0-.934,2.7,3.874,3.874,0,0,0,.934,2.7A3.1,3.1,0,0,0,26.782-2.551ZM43.726-12.793a4.892,4.892,0,0,1,3.467,1.129A4.187,4.187,0,0,1,48.4-8.447V0H44.873V-7.69a2.186,2.186,0,0,0-.629-1.733,2.369,2.369,0,0,0-1.617-.549,3.3,3.3,0,0,0-1.05.159,2.7,2.7,0,0,0-.879.494,2.185,2.185,0,0,0-.629.946,4.375,4.375,0,0,0-.238,1.453V0H36.316V-12.549h3.516v1.392A4.835,4.835,0,0,1,43.726-12.793ZM56.226.244a7.013,7.013,0,0,1-3.662-.879,3.715,3.715,0,0,1-1.794-2.612l2.942-.83a2.364,2.364,0,0,0,2.515,1.868A2.6,2.6,0,0,0,57.507-2.5a1,1,0,0,0,.5-.97,1.027,1.027,0,0,0-.208-.647,1.644,1.644,0,0,0-.641-.464,7.984,7.984,0,0,0-.854-.33q-.421-.134-1.117-.323t-1.16-.36a7.768,7.768,0,0,1-1.1-.47,4.712,4.712,0,0,1-.916-.647,2.608,2.608,0,0,1-.684-.983,3.545,3.545,0,0,1-.238-1.343,3.206,3.206,0,0,1,1.361-2.808,6.081,6.081,0,0,1,3.558-.952,6.235,6.235,0,0,1,3.284.806,3.646,3.646,0,0,1,1.685,2.515l-2.722.61a2.132,2.132,0,0,0-2.234-1.587,2.446,2.446,0,0,0-1.233.281.9.9,0,0,0-.488.83.951.951,0,0,0,.073.378.749.749,0,0,0,.256.305,3.739,3.739,0,0,0,.354.232,2.671,2.671,0,0,0,.5.2q.33.1.549.159t.641.165l.653.171q.671.183,1.178.366a6.9,6.9,0,0,1,1.08.513,3.877,3.877,0,0,1,.946.739,3.294,3.294,0,0,1,.616,1.038,3.832,3.832,0,0,1,.244,1.4,3.775,3.775,0,0,1-.421,1.819A3.161,3.161,0,0,1,59.814-.629a5.615,5.615,0,0,1-1.63.659A8.454,8.454,0,0,1,56.226.244Zm19.495-6.7-.037.842h-9.3a3.249,3.249,0,0,0,1,2.295,3.2,3.2,0,0,0,2.209.793,3.085,3.085,0,0,0,1.654-.433A2.664,2.664,0,0,0,72.3-4.224l3.223.476a5.479,5.479,0,0,1-2.2,2.942A6.533,6.533,0,0,1,69.617.244a6.794,6.794,0,0,1-4.889-1.727,6.3,6.3,0,0,1-1.813-4.791,6.34,6.34,0,0,1,1.819-4.791,6.592,6.592,0,0,1,4.773-1.752,6.3,6.3,0,0,1,4.5,1.6A6.273,6.273,0,0,1,75.72-6.458Zm-6.189-3.87A2.778,2.778,0,0,0,66.479-7.91h5.762A2.643,2.643,0,0,0,71.375-9.7,2.747,2.747,0,0,0,69.531-10.327Zm12.231-.232a4.074,4.074,0,0,1,1.648-1.508,5.028,5.028,0,0,1,2.454-.629v3.137a4.754,4.754,0,0,0-3,.757,3.3,3.3,0,0,0-.928,2.686V0h-3.54V-12.549h3.369Zm14.661-1.99h3.723L94.8,0H91.748L86.462-12.549h3.7l3.125,8.582ZM111.78-3.406a11.74,11.74,0,0,0,.305,3.064V0H108.8l-.281-1.367a4.08,4.08,0,0,1-1.758,1.208,6.478,6.478,0,0,1-2.271.4,5.97,5.97,0,0,1-1.172-.11,3.984,3.984,0,0,1-1.056-.372,3.2,3.2,0,0,1-.873-.653,2.864,2.864,0,0,1-.586-.995,3.963,3.963,0,0,1-.22-1.361,3.774,3.774,0,0,1,.232-1.361,3.19,3.19,0,0,1,.61-1.019,3.7,3.7,0,0,1,.989-.745,7.565,7.565,0,0,1,1.245-.537,14.877,14.877,0,0,1,1.489-.391l2.063-.464a2.275,2.275,0,0,0,.934-.4.791.791,0,0,0,.275-.629A1.3,1.3,0,0,0,107.806-10a2.878,2.878,0,0,0-1.5-.366,2.152,2.152,0,0,0-2.454,1.917l-3.113-.562a4.214,4.214,0,0,1,1.819-2.863,7.229,7.229,0,0,1,3.943-.922q5.273,0,5.273,4.529Zm-6.189,1.27a2.827,2.827,0,0,0,2.173-.909,3.832,3.832,0,0,0,.842-2.692l-2.979.842a3.52,3.52,0,0,0-1.251.513,1.053,1.053,0,0,0-.433.9,1.169,1.169,0,0,0,.464.995A1.92,1.92,0,0,0,105.591-2.136Zm15,2.368a6.7,6.7,0,0,1-4.846-1.807,6.24,6.24,0,0,1-1.88-4.712A6.226,6.226,0,0,1,115.741-11a6.725,6.725,0,0,1,4.852-1.794,6.687,6.687,0,0,1,4.065,1.208,5.4,5.4,0,0,1,2.1,3.406l-3.247.354a2.782,2.782,0,0,0-1.05-1.648,3.192,3.192,0,0,0-1.9-.549A2.878,2.878,0,0,0,118.262-9a4.02,4.02,0,0,0-.879,2.71,4.025,4.025,0,0,0,.879,2.7,2.871,2.871,0,0,0,2.295,1.031,3.164,3.164,0,0,0,1.9-.549,2.847,2.847,0,0,0,1.056-1.648l3.247.354A5.41,5.41,0,0,1,124.64-.989,6.659,6.659,0,0,1,120.593.232Zm10.461-14.661a1.974,1.974,0,0,1-1.44-.592,1.943,1.943,0,0,1-.6-1.434,1.92,1.92,0,0,1,.6-1.422,1.98,1.98,0,0,1,1.434-.592,1.945,1.945,0,0,1,1.416.592,1.929,1.929,0,0,1,.6,1.422,1.943,1.943,0,0,1-.6,1.434A1.945,1.945,0,0,1,131.055-14.429ZM129.26,0V-12.549h3.54V0ZM141.2-14.258l3.2-4.492,1.733,1.221-2.771,3.271Zm1.086,14.5a7.891,7.891,0,0,1-3.552-.769A5.748,5.748,0,0,1,136.3-2.783a6.73,6.73,0,0,1-.885-3.5,6.138,6.138,0,0,1,1.9-4.761,7.065,7.065,0,0,1,4.968-1.746,7.082,7.082,0,0,1,4.98,1.746,6.138,6.138,0,0,1,1.9,4.761,6.173,6.173,0,0,1-1.9,4.779A7.067,7.067,0,0,1,142.285.244Zm-.037-2.8a3.221,3.221,0,0,0,2.484-1.025,3.838,3.838,0,0,0,.946-2.71A3.838,3.838,0,0,0,144.733-9a3.221,3.221,0,0,0-2.484-1.025,3.1,3.1,0,0,0-2.411,1.031,3.874,3.874,0,0,0-.934,2.7,3.874,3.874,0,0,0,.934,2.7A3.1,3.1,0,0,0,142.249-2.551Zm16.943-10.242a4.892,4.892,0,0,1,3.467,1.129,4.187,4.187,0,0,1,1.208,3.217V0h-3.528V-7.69a2.186,2.186,0,0,0-.629-1.733,2.369,2.369,0,0,0-1.617-.549,3.3,3.3,0,0,0-1.05.159,2.7,2.7,0,0,0-.879.494,2.185,2.185,0,0,0-.629.946,4.375,4.375,0,0,0-.238,1.453V0h-3.516V-12.549H155.3v1.392A4.835,4.835,0,0,1,159.192-12.793Zm23.474-5.957h3.516V0h-3.333l-.085-1.636a3.584,3.584,0,0,1-1.593,1.422,5.362,5.362,0,0,1-2.35.507,6.1,6.1,0,0,1-2.344-.452,5.818,5.818,0,0,1-1.923-1.276,5.815,5.815,0,0,1-1.3-2.069,7.633,7.633,0,0,1-.476-2.747,7.134,7.134,0,0,1,.83-3.5,5.688,5.688,0,0,1,2.191-2.277,6.034,6.034,0,0,1,3.021-.769,5.5,5.5,0,0,1,2.277.458,3.554,3.554,0,0,1,1.569,1.3Zm-3.04,16.125a3.13,3.13,0,0,0,2.374-1,3.665,3.665,0,0,0,.946-2.625,3.672,3.672,0,0,0-.952-2.631,3.126,3.126,0,0,0-2.368-1.007,3.163,3.163,0,0,0-2.386.989,3.672,3.672,0,0,0-.946,2.649,3.655,3.655,0,0,0,.946,2.637A3.163,3.163,0,0,0,179.626-2.625Zm22-3.833-.037.842h-9.3a3.249,3.249,0,0,0,1,2.295,3.2,3.2,0,0,0,2.209.793,3.085,3.085,0,0,0,1.654-.433,2.664,2.664,0,0,0,1.056-1.263l3.223.476a5.479,5.479,0,0,1-2.2,2.942A6.533,6.533,0,0,1,195.52.244a6.794,6.794,0,0,1-4.889-1.727,6.3,6.3,0,0,1-1.813-4.791,6.34,6.34,0,0,1,1.819-4.791,6.592,6.592,0,0,1,4.773-1.752,6.3,6.3,0,0,1,4.5,1.6A6.273,6.273,0,0,1,201.624-6.458Zm-6.189-3.87a2.778,2.778,0,0,0-3.052,2.417h5.762a2.643,2.643,0,0,0-.867-1.794A2.747,2.747,0,0,0,195.435-10.327ZM210.791,0V-18.75h3.552V0Zm17.48-3.406a11.74,11.74,0,0,0,.305,3.064V0h-3.284l-.281-1.367a4.08,4.08,0,0,1-1.758,1.208,6.478,6.478,0,0,1-2.271.4,5.97,5.97,0,0,1-1.172-.11,3.984,3.984,0,0,1-1.056-.372,3.2,3.2,0,0,1-.873-.653,2.864,2.864,0,0,1-.586-.995,3.963,3.963,0,0,1-.22-1.361,3.775,3.775,0,0,1,.232-1.361,3.19,3.19,0,0,1,.61-1.019,3.7,3.7,0,0,1,.989-.745,7.566,7.566,0,0,1,1.245-.537,14.877,14.877,0,0,1,1.489-.391l2.063-.464a2.275,2.275,0,0,0,.934-.4.791.791,0,0,0,.275-.629A1.3,1.3,0,0,0,224.3-10a2.878,2.878,0,0,0-1.5-.366,2.152,2.152,0,0,0-2.454,1.917l-3.113-.562a4.214,4.214,0,0,1,1.819-2.863A7.229,7.229,0,0,1,223-12.793q5.273,0,5.273,4.529Zm-6.189,1.27a2.827,2.827,0,0,0,2.173-.909,3.832,3.832,0,0,0,.842-2.692l-2.979.842a3.52,3.52,0,0,0-1.251.513,1.053,1.053,0,0,0-.433.9,1.169,1.169,0,0,0,.464.995A1.92,1.92,0,0,0,222.083-2.136Zm30.969-10.657a4.8,4.8,0,0,1,3.235,1.019,3.647,3.647,0,0,1,1.184,2.924V0h-3.516V-7.849a2.1,2.1,0,0,0-.562-1.587,1.967,1.967,0,0,0-1.416-.537,2.268,2.268,0,0,0-1.709.684,3.1,3.1,0,0,0-.659,2.209V0h-3.552V-7.812A2.152,2.152,0,0,0,245.5-9.43a2,2,0,0,0-1.453-.543,2.2,2.2,0,0,0-1.7.72,3.439,3.439,0,0,0-.659,2.356V0h-3.5V-12.549h3.5v1.477a4.267,4.267,0,0,1,3.638-1.721,5.366,5.366,0,0,1,2.362.482,3.215,3.215,0,0,1,1.483,1.4A4.437,4.437,0,0,1,253.052-12.793Zm18.127,9.387a11.739,11.739,0,0,0,.305,3.064V0H268.2l-.281-1.367a4.08,4.08,0,0,1-1.758,1.208,6.478,6.478,0,0,1-2.271.4,5.97,5.97,0,0,1-1.172-.11,3.984,3.984,0,0,1-1.056-.372,3.2,3.2,0,0,1-.873-.653,2.864,2.864,0,0,1-.586-.995,3.963,3.963,0,0,1-.22-1.361,3.774,3.774,0,0,1,.232-1.361,3.19,3.19,0,0,1,.61-1.019,3.7,3.7,0,0,1,.989-.745,7.565,7.565,0,0,1,1.245-.537,14.877,14.877,0,0,1,1.489-.391l2.063-.464a2.275,2.275,0,0,0,.934-.4.791.791,0,0,0,.275-.629A1.3,1.3,0,0,0,267.206-10a2.878,2.878,0,0,0-1.5-.366,2.152,2.152,0,0,0-2.454,1.917l-3.113-.562a4.214,4.214,0,0,1,1.819-2.863,7.229,7.229,0,0,1,3.943-.922q5.273,0,5.273,4.529Zm-6.189,1.27a2.827,2.827,0,0,0,2.173-.909,3.832,3.832,0,0,0,.842-2.692l-2.979.842a3.52,3.52,0,0,0-1.251.513,1.053,1.053,0,0,0-.433.9,1.169,1.169,0,0,0,.464.995A1.92,1.92,0,0,0,264.99-2.136ZM279.016.244a7.013,7.013,0,0,1-3.662-.879,3.715,3.715,0,0,1-1.794-2.612l2.942-.83a2.364,2.364,0,0,0,2.515,1.868A2.6,2.6,0,0,0,280.3-2.5a1,1,0,0,0,.5-.97,1.027,1.027,0,0,0-.208-.647,1.644,1.644,0,0,0-.641-.464,7.985,7.985,0,0,0-.854-.33q-.421-.134-1.117-.323t-1.16-.36a7.768,7.768,0,0,1-1.1-.47,4.712,4.712,0,0,1-.916-.647,2.608,2.608,0,0,1-.684-.983,3.545,3.545,0,0,1-.238-1.343,3.206,3.206,0,0,1,1.361-2.808,6.081,6.081,0,0,1,3.558-.952,6.235,6.235,0,0,1,3.284.806,3.646,3.646,0,0,1,1.685,2.515l-2.722.61a2.132,2.132,0,0,0-2.234-1.587,2.446,2.446,0,0,0-1.233.281.9.9,0,0,0-.488.83.951.951,0,0,0,.073.378.749.749,0,0,0,.256.305,3.74,3.74,0,0,0,.354.232,2.67,2.67,0,0,0,.5.2q.33.1.549.159t.641.165l.653.171q.671.183,1.178.366a6.9,6.9,0,0,1,1.08.513,3.877,3.877,0,0,1,.946.739,3.294,3.294,0,0,1,.616,1.038,3.832,3.832,0,0,1,.244,1.4,3.775,3.775,0,0,1-.421,1.819A3.161,3.161,0,0,1,282.6-.629a5.615,5.615,0,0,1-1.63.659A8.454,8.454,0,0,1,279.016.244ZM297-3.406A11.739,11.739,0,0,0,297.3-.342V0h-3.284l-.281-1.367A4.08,4.08,0,0,1,291.98-.159a6.478,6.478,0,0,1-2.271.4,5.97,5.97,0,0,1-1.172-.11,3.984,3.984,0,0,1-1.056-.372,3.2,3.2,0,0,1-.873-.653,2.864,2.864,0,0,1-.586-.995,3.963,3.963,0,0,1-.22-1.361,3.774,3.774,0,0,1,.232-1.361,3.19,3.19,0,0,1,.61-1.019,3.7,3.7,0,0,1,.989-.745,7.565,7.565,0,0,1,1.245-.537,14.877,14.877,0,0,1,1.489-.391l2.063-.464a2.275,2.275,0,0,0,.934-.4.791.791,0,0,0,.275-.629A1.3,1.3,0,0,0,293.024-10a2.878,2.878,0,0,0-1.5-.366,2.152,2.152,0,0,0-2.454,1.917l-3.113-.562a4.214,4.214,0,0,1,1.819-2.863,7.229,7.229,0,0,1,3.943-.922q5.273,0,5.273,4.529Zm-6.189,1.27a2.827,2.827,0,0,0,2.173-.909,3.832,3.832,0,0,0,.842-2.692l-2.979.842a3.52,3.52,0,0,0-1.251.513,1.053,1.053,0,0,0-.433.9,1.169,1.169,0,0,0,.464.995A1.92,1.92,0,0,0,290.808-2.136ZM304.834.244a7.013,7.013,0,0,1-3.662-.879,3.715,3.715,0,0,1-1.794-2.612l2.942-.83a2.364,2.364,0,0,0,2.515,1.868,2.6,2.6,0,0,0,1.282-.287,1,1,0,0,0,.5-.97,1.027,1.027,0,0,0-.208-.647,1.644,1.644,0,0,0-.641-.464,7.985,7.985,0,0,0-.854-.33q-.421-.134-1.117-.323t-1.16-.36a7.768,7.768,0,0,1-1.1-.47,4.712,4.712,0,0,1-.916-.647,2.608,2.608,0,0,1-.684-.983,3.545,3.545,0,0,1-.238-1.343,3.206,3.206,0,0,1,1.361-2.808,6.081,6.081,0,0,1,3.558-.952,6.235,6.235,0,0,1,3.284.806,3.646,3.646,0,0,1,1.685,2.515l-2.722.61a2.132,2.132,0,0,0-2.234-1.587,2.446,2.446,0,0,0-1.233.281.9.9,0,0,0-.488.83.951.951,0,0,0,.073.378.749.749,0,0,0,.256.305,3.74,3.74,0,0,0,.354.232,2.67,2.67,0,0,0,.5.2q.33.1.549.159t.641.165l.653.171q.671.183,1.178.366a6.9,6.9,0,0,1,1.08.513,3.877,3.877,0,0,1,.946.739,3.294,3.294,0,0,1,.616,1.038,3.832,3.832,0,0,1,.244,1.4,3.775,3.775,0,0,1-.421,1.819,3.161,3.161,0,0,1-1.154,1.227,5.615,5.615,0,0,1-1.63.659A8.454,8.454,0,0,1,304.834.244Z" transform="translate(805 6560)" fill="#00223d"/>
  </g>
</svg>
