<svg xmlns="http://www.w3.org/2000/svg" xmlns:xlink="http://www.w3.org/1999/xlink" width="180.752" height="153" viewBox="0 0 180.752 153">
  <defs>
    <linearGradient id="linear-gradient" y1="0.5" x2="1" y2="0.5" gradientUnits="objectBoundingBox">
      <stop offset="0" stop-color="#c7f4ff"/>
      <stop offset="1" stop-color="#29a8df"/>
    </linearGradient>
    <radialGradient id="radial-gradient" cx="0.298" cy="-0.066" r="1.134" gradientTransform="translate(0.136 1.019) scale(0.544 0.767)" gradientUnits="objectBoundingBox">
      <stop offset="0" stop-color="#958275"/>
      <stop offset="1" stop-color="#534741"/>
    </radialGradient>
    <radialGradient id="radial-gradient-2" cx="0.298" cy="-0.066" r="1.001" gradientTransform="translate(-4.382 1.439) scale(0.616 0.869)" xlink:href="#radial-gradient"/>
    <radialGradient id="radial-gradient-3" cx="0.298" cy="-0.066" r="1.002" gradientTransform="translate(-5.52 1.688) scale(0.616 0.869)" xlink:href="#radial-gradient"/>
    <radialGradient id="radial-gradient-4" cx="0.298" cy="-0.066" r="1.001" gradientTransform="translate(-6.961 1.682) scale(0.616 0.869)" xlink:href="#radial-gradient"/>
    <linearGradient id="linear-gradient-2" x1="0.209" y1="1.503" x2="0.944" y2="-0.315" gradientUnits="objectBoundingBox">
      <stop offset="0.005" stop-color="gray"/>
      <stop offset="1" stop-color="#fff"/>
    </linearGradient>
    <linearGradient id="linear-gradient-3" x1="0.5" y1="1.297" x2="0.5" y2="0.074" xlink:href="#linear-gradient-2"/>
    <linearGradient id="linear-gradient-4" x1="0.658" y1="1.704" x2="0.319" y2="-0.314" xlink:href="#linear-gradient-2"/>
    <linearGradient id="linear-gradient-5" x1="0.573" y1="0.887" x2="0.302" y2="-0.902" xlink:href="#linear-gradient-2"/>
  </defs>
  <g id="Grupo_15779" data-name="Grupo 15779" transform="translate(-463.248 -5011)">
    <circle id="Elipse_978" data-name="Elipse 978" cx="76.5" cy="76.5" r="76.5" transform="translate(491 5011)" fill="#eaeaea"/>
    <g id="Grupo_15754" data-name="Grupo 15754" transform="translate(-1012.712 4514.506)">
      <ellipse id="Elipse_1005" data-name="Elipse 1005" cx="74.398" cy="13.146" rx="74.398" ry="13.146" transform="translate(1475.96 603.163)" fill="url(#linear-gradient)"/>
      <path id="Trazado_31636" data-name="Trazado 31636" d="M2081.112,1042.2c0,1.554-3.589,2.813-8.017,2.813s-8.017-1.259-8.017-2.813,3.59-5.912,8.017-5.912S2081.112,1040.644,2081.112,1042.2Z" transform="translate(-479.281 -434.27)" fill="url(#radial-gradient)"/>
      <path id="Trazado_31637" data-name="Trazado 31637" d="M2173.325,1071.66c0,1.262-2.574,2.284-5.749,2.284s-5.749-1.023-5.749-2.284,2.574-4.8,5.749-4.8S2173.325,1070.4,2173.325,1071.66Z" transform="translate(-557.993 -459.144)" fill="url(#radial-gradient-2)"/>
      <path id="Trazado_31638" data-name="Trazado 31638" d="M2052.126,1068.813c0,1.074-2.19,1.945-4.894,1.945s-4.894-.871-4.894-1.945,2.191-4.087,4.894-4.087S2052.126,1067.739,2052.126,1068.813Z" transform="translate(-460.781 -457.408)" fill="url(#radial-gradient-3)"/>
      <path id="Trazado_31639" data-name="Trazado 31639" d="M1552.2,1066.664c0,1.074-2.191,1.945-4.894,1.945s-4.894-.871-4.894-1.945,2.191-4.087,4.894-4.087S1552.2,1065.59,1552.2,1066.664Z" transform="translate(-54.062 -455.66)" fill="url(#radial-gradient-4)"/>
      <g id="Grupo_15739" data-name="Grupo 15739" transform="translate(1488.222 502.494)">
        <path id="Trazado_31640" data-name="Trazado 31640" d="M1654.875,522.9c1.155-2.488,5.658-3.345,7.772-5.544,1.979-2.061,2.151-6.2,4.824-7.9,2.493-1.592,6.786-.27,9.765-1.388,2.8-1.054,4.885-4.9,8.012-5.474,2.956-.543,6.333,2.31,9.5,2.307s6.545-2.872,9.5-2.338c3.127.566,5.215,4.41,8.013,5.459,2.979,1.113,7.273-.225,9.766,1.366,2.674,1.7,2.845,5.856,4.824,7.922,2.114,2.2,6.618,3.059,7.773,5.558.788,1.7-.113,3.7-.8,5.688-.6,1.787,7.1,9.114,5.069,9.116-27.485-1.472-55.086-4.019-82.582-6.205C1656.311,528.661,1653.693,525.433,1654.875,522.9Z" transform="translate(-1633.53 -502.494)" fill="url(#linear-gradient-2)"/>
        <g id="Grupo_15738" data-name="Grupo 15738" transform="translate(61.387 0)">
          <path id="Trazado_31641" data-name="Trazado 31641" d="M1909.889,528.553c.688-1.989,1.589-3.987.8-5.688-1.155-2.5-5.659-3.354-7.773-5.558-1.98-2.066-2.151-6.224-4.824-7.922-2.493-1.59-6.788-.253-9.766-1.366-2.8-1.049-4.886-4.893-8.012-5.459-2.9-.524-6.213,2.229-9.332,2.333a13.564,13.564,0,0,0,3.979,2.936c2.98,1.069,7.276-.37,9.771,1.2,2.676,1.677,2.846,5.915,4.828,8,2.115,2.226,6.623,3.06,7.78,5.624.789,1.746-.113,3.809-.8,5.854-.464,1.388,4.022,6.262,5.157,8.375q6.635.429,13.263.787C1916.991,537.667,1909.289,530.339,1909.889,528.553Z" transform="translate(-1870.982 -502.494)" fill="#969696"/>
        </g>
        <path id="Trazado_31642" data-name="Trazado 31642" d="M1739.046,663.748c1.261-2.508,6.174-3.166,8.48-5.338,2.159-2.032,2.346-6.268,5.262-7.886,2.719-1.512,7.4-.011,10.649-1.07,3.05-1,5.327-4.814,8.734-5.325,3.222-.481,6.9,2.4,10.354,2.388s7.13-2.847,10.349-2.357c3.4.517,5.679,4.2,8.723,5.113,3.243.971,7.916-.489,10.627.893,2.909,1.468,3.094,5.371,5.248,7.169,2.3,1.92,7.2,2.322,8.451,4.507.856,1.491-.123,3.422-.871,5.337a5.787,5.787,0,0,1-4.83,3.2,566.22,566.22,0,0,1-79.61,2.3C1740.614,669.782,1737.756,666.311,1739.046,663.748Z" transform="translate(-1701.986 -617.678)" fill="url(#linear-gradient-3)"/>
        <path id="Trazado_31643" data-name="Trazado 31643" d="M1547.316,629.594c2.512-1.836-.888-6.263,1.59-8.315,2.444-2.056,7.312-1.9,10.024-3.716,2.825-1.9,4.05-6.116,7.17-7.36,3.229-1.3,7.3.844,10.858.819s7.387-2.769,10.667-2.076c3.418.726,5.455,4.782,8.464,6.231,3.1,1.49,7.9.744,10.436,2.854,2.576,2.146,2.211,6.609,4.062,9.263s6.416,4.209,7.4,7.236c.64,1.97-.421,4.238-1.2,6.5a5.305,5.305,0,0,1-4.985,3.408,566.23,566.23,0,0,1-62.033-2.534,12.891,12.891,0,0,1-5.331-1.688C1541.527,638.391,1539.169,635.357,1547.316,629.594Z" transform="translate(-1541.728 -589.007)" fill="url(#linear-gradient-4)"/>
        <path id="Trazado_31644" data-name="Trazado 31644" d="M1774.844,634.528c-.984-3.027-5.547-4.574-7.4-7.236s-1.486-7.117-4.062-9.263c-2.531-2.11-7.34-1.365-10.436-2.854-3.01-1.449-5.046-5.5-8.464-6.23-3.059-.648-6.611,1.7-9.95,2.033.992,1.462,1.874,3.336,2.976,4.221,1.826,1.467,4.661.727,6.155,2.819,1.519,2.131,1.3,6.561,2.4,9.218s3.785,4.283,4.366,7.346c.377,1.992-.248,4.242-.707,6.478-.406,1.977-1.6,3.29-2.941,3.257l-.93-.024h0q11.4.3,22.814.14a5.3,5.3,0,0,0,4.985-3.408C1774.423,638.767,1775.484,636.5,1774.844,634.528Z" transform="translate(-1698.585 -589.006)" fill="url(#linear-gradient-5)"/>
      </g>
      <g id="Grupo_15740" data-name="Grupo 15740" transform="translate(1535.472 556.658)">
        <path id="Trazado_31645" data-name="Trazado 31645" d="M1795.169,793.556l.017-.355.006-.073c0-.013,0-.026,0-.017v.24c0,.048,0,.08,0,.089s0,0,0,0v-.008a.013.013,0,0,0,0-.006v0h-.029l.006.372c.022,0,.01,0,.014,0,0,.022,0,.061,0,.1l-.007.13-.006.083,0,.055c0,.037-.006.05-.008.022l0-.06v-.1l.021-.856v.152l-.014.551h0v-.218Zm0,0,.005-.118,0-.054v-.045h0l-.014.551-.008.151.021-.856.006-.1.005-.06c0-.028.006-.015.007.022l0,.055,0,.083v.13a.794.794,0,0,0,0,.1s-.008,0,.013,0l.006.372h-.029l0,0a.034.034,0,0,1,0-.006v-.008s0,0,0,0,0,.041-.006.089l-.007.15-.006.089c0,.009,0,0,0-.017l0-.073,0-.355Z" transform="translate(-1795.157 -793.01)" fill="#b0b0b0"/>
      </g>
      <g id="Grupo_15753" data-name="Grupo 15753" transform="translate(1497.403 562.323)">
        <g id="Grupo_15751" data-name="Grupo 15751" transform="translate(7.721 0)">
          <g id="Grupo_15742" data-name="Grupo 15742">
            <g id="Grupo_15741" data-name="Grupo 15741">
              <path id="Trazado_31646" data-name="Trazado 31646" d="M1694.128,829.27a3.232,3.232,0,1,1-6.243-1.673c.462-1.724,4.473-4.206,4.473-4.206S1694.59,827.546,1694.128,829.27Z" transform="translate(-1677.447 -823.391)" fill="#29a8df"/>
              <path id="Trazado_31647" data-name="Trazado 31647" d="M1675.664,898.179a3.232,3.232,0,1,1-6.243-1.673c.462-1.724,4.473-4.206,4.473-4.206S1676.126,896.455,1675.664,898.179Z" transform="translate(-1662.425 -879.452)" fill="#29a8df"/>
              <path id="Trazado_31648" data-name="Trazado 31648" d="M1657.2,967.087a3.232,3.232,0,1,1-6.243-1.673c.462-1.724,4.473-4.206,4.473-4.206S1657.662,965.363,1657.2,967.087Z" transform="translate(-1647.403 -935.513)" fill="#29a8df"/>
              <path id="Trazado_31649" data-name="Trazado 31649" d="M1638.736,1035.995a3.232,3.232,0,1,1-6.243-1.673c.462-1.724,4.473-4.206,4.473-4.206S1639.2,1034.271,1638.736,1035.995Z" transform="translate(-1632.382 -991.574)" fill="#29a8df"/>
            </g>
          </g>
          <g id="Grupo_15744" data-name="Grupo 15744" transform="translate(18.279 6.424)">
            <g id="Grupo_15743" data-name="Grupo 15743">
              <path id="Trazado_31650" data-name="Trazado 31650" d="M1773.706,863.724a3.232,3.232,0,1,1-6.243-1.673c.462-1.724,4.473-4.206,4.473-4.206S1774.168,862,1773.706,863.724Z" transform="translate(-1760.467 -857.845)" fill="#29a8df"/>
              <path id="Trazado_31651" data-name="Trazado 31651" d="M1755.242,932.633A3.232,3.232,0,0,1,1749,930.96c.462-1.724,4.473-4.206,4.473-4.206S1755.7,930.909,1755.242,932.633Z" transform="translate(-1745.446 -913.906)" fill="#29a8df"/>
              <path id="Trazado_31652" data-name="Trazado 31652" d="M1736.778,1001.541a3.232,3.232,0,1,1-6.243-1.673c.462-1.724,4.473-4.206,4.473-4.206S1737.24,999.817,1736.778,1001.541Z" transform="translate(-1730.424 -969.967)" fill="#29a8df"/>
            </g>
          </g>
          <g id="Grupo_15746" data-name="Grupo 15746" transform="translate(32.292)">
            <g id="Grupo_15745" data-name="Grupo 15745">
              <path id="Trazado_31653" data-name="Trazado 31653" d="M1867.326,829.27a3.232,3.232,0,1,1-6.243-1.673c.462-1.724,4.473-4.206,4.473-4.206S1867.788,827.546,1867.326,829.27Z" transform="translate(-1850.645 -823.391)" fill="#29a8df"/>
              <path id="Trazado_31654" data-name="Trazado 31654" d="M1848.862,898.179a3.232,3.232,0,0,1-6.243-1.673c.462-1.724,4.473-4.206,4.473-4.206S1849.324,896.455,1848.862,898.179Z" transform="translate(-1835.623 -879.452)" fill="#29a8df"/>
              <path id="Trazado_31655" data-name="Trazado 31655" d="M1830.4,967.087a3.232,3.232,0,0,1-6.243-1.673c.462-1.724,4.473-4.206,4.473-4.206S1830.86,965.363,1830.4,967.087Z" transform="translate(-1820.602 -935.513)" fill="#29a8df"/>
              <path id="Trazado_31656" data-name="Trazado 31656" d="M1811.934,1035.995a3.232,3.232,0,1,1-6.243-1.673c.462-1.724,4.473-4.206,4.473-4.206S1812.4,1034.271,1811.934,1035.995Z" transform="translate(-1805.58 -991.574)" fill="#29a8df"/>
            </g>
          </g>
          <g id="Grupo_15748" data-name="Grupo 15748" transform="translate(50.571 6.424)">
            <g id="Grupo_15747" data-name="Grupo 15747">
              <path id="Trazado_31657" data-name="Trazado 31657" d="M1946.9,863.724a3.232,3.232,0,1,1-6.243-1.673c.462-1.724,4.473-4.206,4.473-4.206S1947.366,862,1946.9,863.724Z" transform="translate(-1933.665 -857.845)" fill="#29a8df"/>
              <path id="Trazado_31658" data-name="Trazado 31658" d="M1928.44,932.633a3.232,3.232,0,0,1-6.243-1.673c.462-1.724,4.473-4.206,4.473-4.206S1928.9,930.909,1928.44,932.633Z" transform="translate(-1918.644 -913.906)" fill="#29a8df"/>
              <path id="Trazado_31659" data-name="Trazado 31659" d="M1909.976,1001.541a3.232,3.232,0,1,1-6.243-1.673c.462-1.724,4.473-4.206,4.473-4.206S1910.438,999.817,1909.976,1001.541Z" transform="translate(-1903.622 -969.967)" fill="#29a8df"/>
            </g>
          </g>
          <g id="Grupo_15750" data-name="Grupo 15750" transform="translate(64.583)">
            <g id="Grupo_15749" data-name="Grupo 15749">
              <path id="Trazado_31660" data-name="Trazado 31660" d="M2040.525,829.27a3.232,3.232,0,0,1-6.243-1.673c.462-1.724,4.473-4.206,4.473-4.206S2040.986,827.546,2040.525,829.27Z" transform="translate(-2023.843 -823.391)" fill="#29a8df"/>
              <path id="Trazado_31661" data-name="Trazado 31661" d="M2022.061,898.179a3.232,3.232,0,0,1-6.243-1.673c.462-1.724,4.473-4.206,4.473-4.206S2022.522,896.455,2022.061,898.179Z" transform="translate(-2008.821 -879.452)" fill="#29a8df"/>
              <path id="Trazado_31662" data-name="Trazado 31662" d="M2003.6,967.087a3.232,3.232,0,1,1-6.243-1.673c.462-1.724,4.472-4.206,4.472-4.206S2004.059,965.363,2003.6,967.087Z" transform="translate(-1993.8 -935.513)" fill="#29a8df"/>
              <path id="Trazado_31663" data-name="Trazado 31663" d="M1985.132,1035.995a3.232,3.232,0,1,1-6.243-1.673c.462-1.724,4.473-4.206,4.473-4.206S1985.594,1034.271,1985.132,1035.995Z" transform="translate(-1978.778 -991.574)" fill="#29a8df"/>
            </g>
          </g>
        </g>
        <g id="Grupo_15752" data-name="Grupo 15752" transform="translate(0 52.478)">
          <ellipse id="Elipse_1006" data-name="Elipse 1006" cx="8.133" cy="1.508" rx="8.133" ry="1.508" fill="#29a8df"/>
          <ellipse id="Elipse_1007" data-name="Elipse 1007" cx="8.133" cy="1.508" rx="8.133" ry="1.508" transform="translate(32.153)" fill="#29a8df"/>
          <ellipse id="Elipse_1008" data-name="Elipse 1008" cx="8.133" cy="1.508" rx="8.133" ry="1.508" transform="translate(64.708)" fill="#29a8df"/>
        </g>
      </g>
    </g>
  </g>
</svg>
