<svg xmlns="http://www.w3.org/2000/svg" width="157" height="157" viewBox="0 0 157 157">
  <g id="Grupo_16007" data-name="Grupo 16007" transform="translate(-422 -4992)">
    <g id="Elipse_979" data-name="Elipse 979" transform="translate(422 4992)" fill="#fff" stroke="#bede9b" stroke-width="2">
      <circle cx="78.5" cy="78.5" r="78.5" stroke="none"/>
      <circle cx="78.5" cy="78.5" r="77.5" fill="none"/>
    </g>
    <g id="Grupo_15987" data-name="Grupo 15987" transform="translate(357.205 5011)">
      <g id="Grupo_15978" data-name="Grupo 15978" opacity="0.5">
        <g id="Grupo_15977" data-name="Grupo 15977">
          <g id="Grupo_15976" data-name="Grupo 15976">
            <path id="Trazado_32544" data-name="Trazado 32544" d="M152.341,58.392V14.543H133.56V58.392L110.795,101.45s-5.311,8.55,8.55,8.55h47.212c14.042,0,8.549-8.55,8.549-8.55Z" fill="#e4eef3" stroke="#bebebe" stroke-linecap="round" stroke-linejoin="round" stroke-width="1.679"/>
          </g>
        </g>
      </g>
      <g id="Grupo_15981" data-name="Grupo 15981" opacity="0.8">
        <g id="Grupo_15979" data-name="Grupo 15979" opacity="0.4">
          <path id="Trazado_32545" data-name="Trazado 32545" d="M173.51,100.482,158.4,71.748h-30.8l-15.5,29.065s-4.912,8.092,7.911,8.092,30.639.253,43.628.086C178.739,108.8,173.51,100.482,173.51,100.482Z" fill="#8e17ff"/>
        </g>
        <g id="Grupo_15980" data-name="Grupo 15980" opacity="0.8" style="mix-blend-mode: overlay;isolation: isolate">
          <path id="Trazado_32546" data-name="Trazado 32546" d="M142.866,100.906a1.684,1.684,0,1,1-1.683-1.681A1.683,1.683,0,0,1,142.866,100.906Z" fill="#ffff82" opacity="0.7" style="mix-blend-mode: overlay;isolation: isolate"/>
          <path id="Trazado_32547" data-name="Trazado 32547" d="M141.244,97.182a.781.781,0,1,1-.782-.784A.782.782,0,0,1,141.244,97.182Z" fill="#ffff82" opacity="0.7" style="mix-blend-mode: overlay;isolation: isolate"/>
          <path id="Trazado_32548" data-name="Trazado 32548" d="M139.44,106.795a.781.781,0,1,1-.782-.782A.781.781,0,0,1,139.44,106.795Z" fill="#ffff82" opacity="0.7" style="mix-blend-mode: overlay;isolation: isolate"/>
          <path id="Trazado_32549" data-name="Trazado 32549" d="M143.707,106.072a1.081,1.081,0,1,1-1.084-1.08A1.085,1.085,0,0,1,143.707,106.072Z" fill="#ffff82" opacity="0.7" style="mix-blend-mode: overlay;isolation: isolate"/>
          <path id="Trazado_32550" data-name="Trazado 32550" d="M140.221,79.1a.781.781,0,1,1-.781-.78A.78.78,0,0,1,140.221,79.1Z" fill="#ffff82" opacity="0.7" style="mix-blend-mode: overlay;isolation: isolate"/>
          <path id="Trazado_32551" data-name="Trazado 32551" d="M143.826,87.087a1.563,1.563,0,1,1-1.56-1.562A1.561,1.561,0,0,1,143.826,87.087Z" fill="#ffff82" opacity="0.7" style="mix-blend-mode: overlay;isolation: isolate"/>
          <path id="Trazado_32552" data-name="Trazado 32552" d="M146.043,71.5a1.562,1.562,0,1,1-1.561-1.561A1.558,1.558,0,0,1,146.043,71.5Z" fill="#ffff82" opacity="0.7" style="mix-blend-mode: overlay;isolation: isolate"/>
          <path id="Trazado_32553" data-name="Trazado 32553" d="M134.43,77.782a.975.975,0,1,1-.975-.977A.975.975,0,0,1,134.43,77.782Z" fill="#ffff82" opacity="0.7" style="mix-blend-mode: overlay;isolation: isolate"/>
          <path id="Trazado_32554" data-name="Trazado 32554" d="M159.266,77.248a.975.975,0,1,1-.975-.975A.975.975,0,0,1,159.266,77.248Z" fill="#ffff82" opacity="0.7" style="mix-blend-mode: overlay;isolation: isolate"/>
          <path id="Trazado_32555" data-name="Trazado 32555" d="M154.471,89.934a2.362,2.362,0,1,1-2.363-2.362A2.36,2.36,0,0,1,154.471,89.934Z" fill="#ffff82" opacity="0.7" style="mix-blend-mode: overlay;isolation: isolate"/>
          <path id="Trazado_32556" data-name="Trazado 32556" d="M135.281,99.313a1.935,1.935,0,1,1-1.933-1.934A1.933,1.933,0,0,1,135.281,99.313Z" fill="#ffff82" opacity="0.7" style="mix-blend-mode: overlay;isolation: isolate"/>
        </g>
      </g>
      <g id="Grupo_15986" data-name="Grupo 15986">
        <g id="Grupo_15984" data-name="Grupo 15984" opacity="0.6">
          <g id="Grupo_15983" data-name="Grupo 15983">
            <g id="Grupo_15982" data-name="Grupo 15982">
              <path id="Trazado_32557" data-name="Trazado 32557" d="M155.084,12.242a2.245,2.245,0,0,1-2.243,2.244H133.119a2.245,2.245,0,0,1-2.242-2.244h0A2.242,2.242,0,0,1,133.119,10h19.722a2.242,2.242,0,0,1,2.243,2.242Z" fill="#e4eef3" stroke="#bebebe" stroke-linecap="round" stroke-linejoin="round" stroke-width="1.679"/>
              <path id="Trazado_32558" data-name="Trazado 32558" d="M152.841,10H133.119a2.243,2.243,0,0,0,0,4.486h19.722a2.243,2.243,0,0,0,0-4.486ZM145.8,13.479H133.39a1.333,1.333,0,0,1-1.411-1.237,1.334,1.334,0,0,1,1.411-1.237H145.8a1.333,1.333,0,0,1,1.41,1.237A1.331,1.331,0,0,1,145.8,13.479Z" fill="#c3ccd1" opacity="0.4" style="mix-blend-mode: multiply;isolation: isolate"/>
              <path id="Trazado_32559" data-name="Trazado 32559" d="M135.667,12.079a.732.732,0,0,1-.732.731h-1.221a.733.733,0,0,1-.734-.731h0a.733.733,0,0,1,.734-.732h1.221a.732.732,0,0,1,.732.732Z" fill="#e4f4fe" opacity="0.9" style="mix-blend-mode: color-dodge;isolation: isolate"/>
            </g>
            <path id="Trazado_32560" data-name="Trazado 32560" d="M152.841,10H149.31a2.354,2.354,0,0,1,1.88,1.88,2.415,2.415,0,0,1-1.578,2.606h3.229a2.243,2.243,0,0,0,0-4.486Z" fill="#c3ccd1" opacity="0.4" style="mix-blend-mode: multiply;isolation: isolate"/>
          </g>
          <path id="Trazado_32561" data-name="Trazado 32561" d="M175.106,101.45,152.341,58.392V14.543H133.56V58.392L110.795,101.45s-5.311,8.55,8.55,8.55h47.212C180.6,110,175.106,101.45,175.106,101.45Zm-24.422,3.919H119.573c-5.368-.875-2.519-6.136-2.519-6.136l18.294-41.188V16.2h9.75V58.483s10.756,36.436,11.721,41.08C158.023,105.369,150.684,105.369,150.684,105.369Z" fill="#c3ccd1" opacity="0.4" style="mix-blend-mode: multiply;isolation: isolate"/>
        </g>
        <g id="Grupo_15985" data-name="Grupo 15985">
          <path id="Trazado_32562" data-name="Trazado 32562" d="M119.573,105.369h31.111s7.339,0,6.135-5.806c-.965-4.644-11.721-41.08-11.721-41.08V16.2h-9.75V58.045L117.054,99.233S114.205,104.494,119.573,105.369Z" fill="none"/>
          <path id="Trazado_32563" data-name="Trazado 32563" d="M175.106,101.45,152.341,58.392V14.543h-3.98l-.087.123V57.717s19.172,41.3,19.388,45.57-9.858,3.943-9.858,3.943H113.329c-3.724-1.425-1.973-6.681-1.973-6.681l-.112.055-.449.846s-5.311,8.55,8.55,8.55h47.212C180.6,110,175.106,101.45,175.106,101.45Z" fill="#b5bdc2" opacity="0.5" style="mix-blend-mode: multiply;isolation: isolate"/>
        </g>
        <path id="Trazado_32564" data-name="Trazado 32564" d="M138.088,17.076h-1.644V58.045L119.465,98.576s-2.191,4.054.766,4.82h5.149a3.106,3.106,0,0,0,3.506-1.861c.986-2.41,11.721-43.6,11.721-43.6V17.076Z" fill="#fff" opacity="0.7" style="mix-blend-mode: overlay;isolation: isolate"/>
      </g>
    </g>
  </g>
</svg>
