<svg xmlns="http://www.w3.org/2000/svg" width="248.874" height="415.635" viewBox="0 0 248.874 415.635">
  <g id="Grupo_15975" data-name="Grupo 15975" transform="translate(-1159.126 -6967)">
    <g id="Grupo_15974" data-name="Grupo 15974" transform="translate(1152.794 6956.149)">
      <g id="Grupo_15956" data-name="Grupo 15956" transform="translate(6.332 389.706)">
        <path id="Trazado_32502" data-name="Trazado 32502" d="M145,307.927c0,10.156-31.041,18.39-69.334,18.39s-69.332-8.234-69.332-18.39,31.043-18.39,69.332-18.39S145,297.771,145,307.927Z" transform="translate(-6.332 -289.537)" fill="#9fd7f6"/>
        <path id="Trazado_32503" data-name="Trazado 32503" d="M121.723,303.274c0,7.19-22.8,13.021-50.926,13.021s-50.924-5.831-50.924-13.021,22.8-13.019,50.924-13.019S121.723,296.086,121.723,303.274Z" transform="translate(-1.465 -289.279)" fill="#71caf2"/>
        <path id="Trazado_32504" data-name="Trazado 32504" d="M100,299.925c0,4.943-15.109,8.952-33.747,8.952s-33.745-4.009-33.745-8.952,15.109-8.952,33.745-8.952S100,294.982,100,299.925Z" transform="translate(3.077 -289.021)" fill="#71caf2" opacity="0.7" style="mix-blend-mode: multiply;isolation: isolate"/>
      </g>
      <g id="Grupo_15973" data-name="Grupo 15973" transform="translate(15.607 10.851)">
        <g id="Grupo_15957" data-name="Grupo 15957" transform="translate(0 391.258)">
          <path id="Trazado_32505" data-name="Trazado 32505" d="M102.787,299.32s12.369,12.229-41.665,13.019C61.122,312.339,105.718,310.108,102.787,299.32Z" transform="translate(4.086 -298.424)" fill="#d7eefc"/>
          <path id="Trazado_32506" data-name="Trazado 32506" d="M23.476,299.32S11.432,310.9,65.467,311.691C65.467,311.691,20.545,310.108,23.476,299.32Z" transform="translate(-9.856 -298.424)" fill="#d7eefc"/>
          <path id="Trazado_32507" data-name="Trazado 32507" d="M86.632,302.423s-21.493,6.374-48.257-.647C38.375,301.776,60.206,310.975,86.632,302.423Z" transform="translate(-4.09 -297.541)" fill="#d7eefc"/>
          <path id="Trazado_32508" data-name="Trazado 32508" d="M120.276,298.661s3.757,23.17-67.953,20.553C52.323,319.214,115.69,321.633,120.276,298.661Z" transform="translate(0.924 -298.661)" fill="#d7eefc"/>
          <path id="Trazado_32509" data-name="Trazado 32509" d="M13.18,299.379s-2.788,22.08,50.41,19.584C63.59,318.963,16.581,321.267,13.18,299.379Z" transform="translate(-13.155 -298.403)" fill="#d7eefc"/>
        </g>
        <g id="Grupo_15971" data-name="Grupo 15971" transform="translate(26.8)">
          <g id="Grupo_15959" data-name="Grupo 15959" transform="translate(0 173.983)">
            <path id="Trazado_32510" data-name="Trazado 32510" d="M35.55,349.761c11.718.976,12.206-5.859,12.206-5.859V138.833H84.623V343.9s.489,6.835,12.208,5.859c0,0,6.347.976-.488,5.371s-14.648-1.465-14.648-1.465.976,4.883-7.325,5.371c-3.751.222-6.4-2.769-8.18-3.578-1.782.809-4.429,3.8-8.181,3.578-8.3-.488-7.323-5.371-7.323-5.371s-7.811,5.859-14.648,1.465S35.55,349.761,35.55,349.761Z" transform="translate(-32.868 -138.833)" fill="#71caf2"/>
            <path id="Trazado_32511" data-name="Trazado 32511" d="M78.515,230.369c-3.691,2.658-3.5,9.418-3.611,13.537-.2,7.561-.235,15.136-.992,22.67-.591,5.87-1.108,17.463-6.843,21.109C56.4,294.475,53.912,254.773,53,249.269c-.457-2.761-2.137-13.065-6.49-12.157a5.059,5.059,0,0,0-2.693,2.243V192.132c.9-2.632,2.2-4.969,4.077-4.724,5.141.674,4.75,14.744,5.155,18.564.76,7.155.455,14.379,1.336,21.535.506,4.108.994,13.74,6.112,15.3,6.471,1.964,7.9-12.2,8.5-15.74,1.853-10.969,2.417-22.5,5.825-33.147.7-2.182,2.447-8.11,5.832-7.168l.027.012v43.348A2.094,2.094,0,0,0,78.515,230.369Z" transform="translate(-28.932 -121.647)" fill="#d7eefc" opacity="0.5" style="mix-blend-mode: screen;isolation: isolate"/>
            <path id="Trazado_32512" data-name="Trazado 32512" d="M74.056,171.981c-3.29,4.64-3.359,12-4.2,17.41a78.455,78.455,0,0,1-2.092,10.672c-1.139,3.768-3.62,7.444-5.663,1-2.81-8.857-4.184-17.947-6.6-26.872-.487-1.8-3.254-13.1-7.363-9.947-4.689,3.6-2.824,12.757-3.3,17.841a16.336,16.336,0,0,1-1.015,5.271V138.833H80.686v35.236C79.256,171.548,76.381,168.7,74.056,171.981Z" transform="translate(-28.932 -138.833)" fill="#d7eefc" opacity="0.3" style="mix-blend-mode: screen;isolation: isolate"/>
            <rect id="Rectángulo_3843" data-name="Rectángulo 3843" width="36.867" height="10.741" transform="translate(14.888 0.001)" fill="#4197b9" opacity="0.7" style="mix-blend-mode: multiply;isolation: isolate"/>
            <path id="Trazado_32513" data-name="Trazado 32513" d="M35.55,300.1c8.475.706,11.066-2.666,11.857-4.589a5.361,5.361,0,0,0,.574.268c4.507,1.663,5.578-6.778,6.15-13.4.428-.828,1-1.449,1.733-1.354a1.525,1.525,0,0,1,.852.462c1.581,5.15,1.342,10.916,2.9,16.1.746,2.49,3.442,6.55,6.27,3.415,3.083-3.419,3.5-8.552,4.3-12.886.379-2.045.472-4.127.666-6.195.03-.332.341-2.372.748-4.233a3.742,3.742,0,0,1,.62-.68,1.718,1.718,0,0,1,1.6.6,9.353,9.353,0,0,1,.886,1.1c1.089,3.392,1.634,7.065,2.708,10.358.655,2.013,1.792,6.278,4.7,5.832a4.3,4.3,0,0,0,2.5-1.411v.744s.489,6.835,12.208,5.859c0,0,6.347.976-.488,5.371s-14.648-1.465-14.648-1.465.976,4.883-7.325,5.371c-3.751.222-6.4-2.769-8.18-3.578-1.782.809-4.429,3.8-8.181,3.578-8.3-.488-7.323-5.371-7.323-5.371s-7.811,5.859-14.648,1.465S35.55,300.1,35.55,300.1Z" transform="translate(-32.868 -89.176)" fill="#d7eefc" opacity="0.3" style="mix-blend-mode: screen;isolation: isolate"/>
            <g id="Grupo_15958" data-name="Grupo 15958" transform="translate(20.37 13.672)" opacity="0.5" style="mix-blend-mode: screen;isolation: isolate">
              <path id="Trazado_32514" data-name="Trazado 32514" d="M65.468,148.89s3.418,105.463.489,189.932C65.957,338.822,64.98,230.429,65.468,148.89Z" transform="translate(-41.57 -148.89)" fill="#e3e5f4"/>
              <path id="Trazado_32515" data-name="Trazado 32515" d="M59.614,171.876s3.418,70.492.489,126.948C60.1,298.824,59.126,226.378,59.614,171.876Z" transform="translate(-43.674 -140.628)" fill="#e3e5f4"/>
              <path id="Trazado_32516" data-name="Trazado 32516" d="M53.835,159.067s3.2,95.794.458,172.52C54.293,331.587,53.378,233.129,53.835,159.067Z" transform="translate(-45.748 -145.232)" fill="#e3e5f4"/>
              <path id="Trazado_32517" data-name="Trazado 32517" d="M47.989,181.214s3.418,70.493.489,126.948C48.478,308.162,47.5,235.716,47.989,181.214Z" transform="translate(-47.853 -137.272)" fill="#e3e5f4"/>
            </g>
          </g>
          <g id="Grupo_15970" data-name="Grupo 15970" transform="translate(7.324)">
            <g id="Grupo_15969" data-name="Grupo 15969">
              <g id="Grupo_15965" data-name="Grupo 15965" transform="translate(34.91)">
                <rect id="Rectángulo_3844" data-name="Rectángulo 3844" width="18.554" height="62.497" transform="translate(62.681 18.717)" fill="#8a8f91"/>
                <rect id="Rectángulo_3845" data-name="Rectángulo 3845" width="8.523" height="62.497" transform="translate(62.681 18.717)" fill="#595e5e"/>
                <path id="Trazado_32518" data-name="Trazado 32518" d="M110.044,33V24.619H128.6v8.215C123.989,37.513,114.742,37.965,110.044,33Z" transform="translate(-47.363 -5.902)" fill="#bcbbba" style="mix-blend-mode: multiply;isolation: isolate"/>
                <rect id="Rectángulo_3846" data-name="Rectángulo 3846" width="18.554" height="19.531" transform="translate(62.681 61.684)" fill="#bcbbba" style="mix-blend-mode: multiply;isolation: isolate"/>
                <g id="Grupo_15961" data-name="Grupo 15961" transform="translate(76.412)">
                  <path id="Trazado_32519" data-name="Trazado 32519" d="M120.145,25.8c0,5.8,3.443,6.128,12.878,7.44l33.518,3.064c7.208,0,13.049-4.7,13.049-10.5h0c0-5.8-5.841-10.5-13.049-10.5l-33.165,3.94c-8.157,1.166-13.231.763-13.231,6.565Z" transform="translate(-120.145 -9.252)" fill="#bcbbba"/>
                  <path id="Trazado_32520" data-name="Trazado 32520" d="M147.219,16.54l10.438-1.24c7.208,0,13.049,4.7,13.049,10.5s-5.841,10.5-13.049,10.5l-8.741-.8C144.357,30.488,143.436,22.184,147.219,16.54Z" transform="translate(-111.261 -9.252)" fill="#bcbbba" style="mix-blend-mode: multiply;isolation: isolate"/>
                  <path id="Trazado_32521" data-name="Trazado 32521" d="M127.886,18.712a15,15,0,0,1,.306,12.606c-5.8-.946-8.046-2.065-8.046-6.74C120.145,20.221,123.007,19.363,127.886,18.712Z" transform="translate(-120.145 -8.026)" fill="#bcbbba" style="mix-blend-mode: multiply;isolation: isolate"/>
                  <path id="Trazado_32522" data-name="Trazado 32522" d="M146.3,26.111c0,8.426,7.132,15.257,15.928,15.257s15.93-6.831,15.93-15.257-7.132-15.26-15.93-15.26S146.3,17.684,146.3,26.111Z" transform="translate(-110.744 -10.851)" fill="#bcbbba"/>
                  <g id="Grupo_15960" data-name="Grupo 15960" transform="translate(40.673 1.71)" opacity="0.4" style="mix-blend-mode: screen;isolation: isolate">
                    <path id="Trazado_32523" data-name="Trazado 32523" d="M159.757,13.194a14.438,14.438,0,0,0-9.693,3.694,14.379,14.379,0,0,1,10.778-4.778c7.821,0,14.158,6.073,14.158,13.562a13.251,13.251,0,0,1-4.466,9.868,13.172,13.172,0,0,0,3.381-8.782C173.915,19.266,167.578,13.194,159.757,13.194Z" transform="translate(-150.064 -12.109)" fill="#fff"/>
                  </g>
                </g>
                <g id="Grupo_15962" data-name="Grupo 15962">
                  <path id="Trazado_32524" data-name="Trazado 32524" d="M129.241,25.8c0,5.8-3.443,6.128-12.877,7.44L82.847,36.309c-7.208,0-13.051-4.7-13.051-10.5h0c0-5.8,5.843-10.5,13.051-10.5l33.165,3.94c8.155,1.166,13.23.763,13.23,6.565Z" transform="translate(-61.83 -9.252)" fill="#bcbbba"/>
                  <path id="Trazado_32525" data-name="Trazado 32525" d="M93.284,16.54,82.847,15.3C75.639,15.3,69.8,20,69.8,25.8s5.843,10.5,13.051,10.5l8.741-.8C96.146,30.488,97.066,22.184,93.284,16.54Z" transform="translate(-61.83 -9.252)" fill="#bcbbba" style="mix-blend-mode: multiply;isolation: isolate"/>
                  <path id="Trazado_32526" data-name="Trazado 32526" d="M108.241,18.712a15.009,15.009,0,0,0-.3,12.606c5.8-.946,8.045-2.065,8.045-6.74C115.981,20.221,113.12,19.363,108.241,18.712Z" transform="translate(-48.57 -8.026)" fill="#bcbbba" style="mix-blend-mode: multiply;isolation: isolate"/>
                  <path id="Trazado_32527" data-name="Trazado 32527" d="M95.794,26.111c0,8.426-7.132,15.257-15.928,15.257s-15.93-6.831-15.93-15.257,7.132-15.26,15.93-15.26S95.794,17.684,95.794,26.111Z" transform="translate(-63.936 -10.851)" fill="#bcbbba"/>
                </g>
                <path id="Trazado_32528" data-name="Trazado 32528" d="M107.61,26.4a12.373,12.373,0,0,0,24.723,0,12.373,12.373,0,0,0-24.723,0Z" transform="translate(-48.238 -9.517)" fill="#bcbbba"/>
                <g id="Grupo_15963" data-name="Grupo 15963" transform="translate(63.375 6.429)" opacity="0.4" style="mix-blend-mode: screen;isolation: isolate">
                  <path id="Trazado_32529" data-name="Trazado 32529" d="M118.16,16.431a11.325,11.325,0,0,0-7.6,2.9,11.283,11.283,0,0,1,8.457-3.749,10.883,10.883,0,0,1,11.109,10.642,10.4,10.4,0,0,1-3.5,7.742,10.334,10.334,0,0,0,2.652-6.89A10.884,10.884,0,0,0,118.16,16.431Z" transform="translate(-110.555 -15.58)" fill="#fff"/>
                </g>
                <g id="Grupo_15964" data-name="Grupo 15964" transform="translate(5.436 1.71)" opacity="0.4" style="mix-blend-mode: screen;isolation: isolate">
                  <path id="Trazado_32530" data-name="Trazado 32530" d="M77.626,13.194a14.435,14.435,0,0,0-9.691,3.694,14.376,14.376,0,0,1,10.778-4.778c7.819,0,14.158,6.073,14.158,13.562a13.256,13.256,0,0,1-4.466,9.868,13.172,13.172,0,0,0,3.381-8.782C91.786,19.266,85.447,13.194,77.626,13.194Z" transform="translate(-67.935 -12.109)" fill="#fff"/>
                </g>
              </g>
              <path id="Trazado_32531" data-name="Trazado 32531" d="M95.243,75.239c0,9.708,8.6,17.577,19.2,17.577h21.169c10.6,0,19.2-7.87,19.2-17.577h0c0-9.708-8.6-17.577-19.2-17.577H114.442c-10.6,0-19.2,7.87-19.2,17.577Z" transform="translate(-17.773 5.974)" fill="#a49fa2"/>
              <g id="Grupo_15968" data-name="Grupo 15968" transform="translate(0 69.984)">
                <path id="Trazado_32532" data-name="Trazado 32532" d="M84.972,139.091v22.784H40.052V139.091c0-26.033,10.42-41.111,19.161-49.176,16.936-15.623,38.49-15.844,44.251-15.6H238.936v44.92H102.874l-1.807-.073c-.029-.026-7.293-.015-11.395,3.77C85.786,126.517,84.972,133.7,84.972,139.091Z" transform="translate(-37.61 -58.04)" fill="#bcbbba"/>
                <path id="Trazado_32533" data-name="Trazado 32533" d="M84.972,139.091v22.784H40.052V139.091c0-26.033,10.42-41.111,19.161-49.176,16.936-15.623,38.49-15.844,44.251-15.6H238.936v44.92H102.874l-1.807-.073c-.029-.026-7.293-.015-11.395,3.77C85.786,126.517,84.972,133.7,84.972,139.091Z" transform="translate(-37.61 -58.04)" fill="#bcbbba"/>
                <g id="Grupo_15966" data-name="Grupo 15966" transform="translate(36.45 48.683)" opacity="0.6" style="mix-blend-mode: multiply;isolation: isolate">
                  <path id="Trazado_32534" data-name="Trazado 32534" d="M136.522,99.913l93.422-1.366v12.108H93.882l-1.807-.073c-.029-.026-7.293-.015-11.395,3.77-3.887,3.585-4.7,10.765-4.7,16.16V153.3H65.069l.493-31.248C65.887,88.846,136.522,99.913,136.522,99.913Z" transform="translate(-65.069 -98.142)" fill="#bcbbba"/>
                </g>
                <rect id="Rectángulo_3847" data-name="Rectángulo 3847" width="44.92" height="4.556" transform="translate(2.441 99.28)" fill="#bcbbba" opacity="0.6" style="mix-blend-mode: multiply;isolation: isolate"/>
                <rect id="Rectángulo_3848" data-name="Rectángulo 3848" width="7.16" height="44.92" transform="translate(194.164 16.275)" fill="#bcbbba" opacity="0.6" style="mix-blend-mode: multiply;isolation: isolate"/>
                <path id="Trazado_32535" data-name="Trazado 32535" d="M87.973,74.316h86.563v44.92H87.383l-1.807-.073a17.855,17.855,0,0,0-2.427.17v-45C85.23,74.241,86.884,74.269,87.973,74.316Z" transform="translate(-22.12 -58.04)" fill="#aaa9a8" opacity="0.6" style="mix-blend-mode: multiply;isolation: isolate"/>
                <path id="Rectángulo_3849" data-name="Rectángulo 3849" d="M22.628,0H64.771A22.627,22.627,0,0,1,87.4,22.627V59.4A22.627,22.627,0,0,1,64.771,82.027H22.627A22.627,22.627,0,0,1,0,59.4V22.628A22.628,22.628,0,0,1,22.628,0Z" transform="translate(63.148)" fill="#c0bebe"/>
                <path id="Trazado_32536" data-name="Trazado 32536" d="M158.685,95.238c0-15.1-12.785-26.808-27.859-28.483-4.394-.488-27.56-1.79-19.8-1.79h22.52a26.814,26.814,0,0,1,26.771,26.856v17.9a26.773,26.773,0,0,1-3.11,12.546,27.114,27.114,0,0,0,1.482-8.8Z" transform="translate(-12.668 -61.385)" fill="#fff" opacity="0.4" style="mix-blend-mode: screen;isolation: isolate"/>
                <g id="Grupo_15967" data-name="Grupo 15967" transform="translate(65.48 34.522)">
                  <path id="Trazado_32537" data-name="Trazado 32537" d="M88.167,102.972c0,15.166,13.165,27.461,29.4,27.461h24.736a30.594,30.594,0,0,0,17.9-5.711,29.406,29.406,0,0,1-21,8.653H115.091c-15.833,0-28.668-12.074-28.668-26.968V88.428C86.423,83.873,88.167,102.972,88.167,102.972Z" transform="translate(-86.423 -87.726)" fill="#bcbbba" opacity="0.6" style="mix-blend-mode: multiply;isolation: isolate"/>
                </g>
                <path id="Trazado_32538" data-name="Trazado 32538" d="M187.255,123.313a4.557,4.557,0,0,0,4.558-4.557V76.766a4.557,4.557,0,0,0-4.558-4.557h0a4.555,4.555,0,0,0-4.555,4.557v41.99a4.555,4.555,0,0,0,4.555,4.557Z" transform="translate(13.662 -58.781)" fill="#8a8f91"/>
                <path id="Trazado_32539" data-name="Trazado 32539" d="M38.256,141.952a4.556,4.556,0,0,0,4.557,4.558H84.8a4.556,4.556,0,0,0,4.557-4.558h0A4.555,4.555,0,0,0,84.8,137.4H42.813a4.555,4.555,0,0,0-4.557,4.555Z" transform="translate(-38.256 -35.351)" fill="#bcbbba"/>
              </g>
            </g>
          </g>
        </g>
        <path id="Trazado_32540" data-name="Trazado 32540" d="M36,291.677s-2.546-.133-4.269-6.195-9.194-6.915-6.914,1.939S40.167,295.239,36,291.677Z" transform="translate(-9.118 86.196)" fill="#60c5f1"/>
        <path id="Trazado_32541" data-name="Trazado 32541" d="M25.658,293.039s-1.359.409-3.4-2.444-6.112-1.9-3.26,2.307S28.511,294.126,25.658,293.039Z" transform="translate(-11.406 89.11)" fill="#60c5f1"/>
        <g id="Grupo_15972" data-name="Grupo 15972" transform="translate(90.107 367.048)">
          <path id="Trazado_32542" data-name="Trazado 32542" d="M80.252,291.677s2.546-.133,4.27-6.195,9.194-6.915,6.914,1.939S76.083,295.239,80.252,291.677Z" transform="translate(-79.438 -280.852)" fill="#60c5f1"/>
          <path id="Trazado_32543" data-name="Trazado 32543" d="M89.509,293.039s1.359.409,3.4-2.444,6.112-1.9,3.26,2.307S86.657,294.126,89.509,293.039Z" transform="translate(-76.068 -277.938)" fill="#60c5f1"/>
        </g>
      </g>
    </g>
  </g>
</svg>
